<?xml version="1.0" encoding="utf-8" standalone="no"?>
<!DOCTYPE svg PUBLIC "-//W3C//DTD SVG 1.1//EN"
  "http://www.w3.org/Graphics/SVG/1.1/DTD/svg11.dtd">
<svg xmlns:xlink="http://www.w3.org/1999/xlink" width="565.92pt" height="565.92pt" viewBox="0 0 565.92 565.92" xmlns="http://www.w3.org/2000/svg" version="1.1">
 <metadata>
  <rdf:RDF xmlns:dc="http://purl.org/dc/elements/1.1/" xmlns:cc="http://creativecommons.org/ns#" xmlns:rdf="http://www.w3.org/1999/02/22-rdf-syntax-ns#">
   <cc:Work>
    <dc:type rdf:resource="http://purl.org/dc/dcmitype/StillImage"/>
    <dc:date>2023-12-29T14:17:20.056826</dc:date>
    <dc:format>image/svg+xml</dc:format>
    <dc:creator>
     <cc:Agent>
      <dc:title>Matplotlib v3.8.2, https://matplotlib.org/</dc:title>
     </cc:Agent>
    </dc:creator>
   </cc:Work>
  </rdf:RDF>
 </metadata>
 <defs>
  <style type="text/css">*{stroke-linejoin: round; stroke-linecap: butt}</style>
 </defs>
 <g id="figure_1">
  <g id="patch_1">
   <path d="M 0 565.92 
L 565.92 565.92 
L 565.92 0 
L 0 0 
z
"/>
  </g>
  <g id="axes_1">
   <g id="patch_2">
    <path d="M 54.821675 501.666121 
L 559.07 501.666121 
L 559.07 6.85 
L 54.821675 6.85 
z
"/>
   </g>
   <g id="matplotlib.axis_1">
    <g id="xtick_1">
     <g id="line2d_1">
      <path d="M 144.982962 501.666121 
L 144.982962 6.85 
" clip-path="url(#p2dd0320a93)" style="fill: none; stroke: #ffffff; stroke-width: 0.5; stroke-linecap: square"/>
     </g>
     <g id="line2d_2">
      <defs>
       <path id="ma2cccf0418" d="M 0 3.25 
L 0 -3.25 
" style="stroke: #ffffff; stroke-width: 1.5"/>
      </defs>
      <g>
       <use xlink:href="#ma2cccf0418" x="144.982962" y="501.666121" style="fill: #ffffff; stroke: #ffffff; stroke-width: 1.5"/>
      </g>
     </g>
     <g id="line2d_3">
      <g>
       <use xlink:href="#ma2cccf0418" x="144.982962" y="6.85" style="fill: #ffffff; stroke: #ffffff; stroke-width: 1.5"/>
      </g>
     </g>
     <g id="text_1">
      <!-- $\mathdefault{1}$ -->
      <g style="fill: #ffffff" transform="translate(139.005378 524.627104) scale(0.24 -0.24)">
       <defs>
        <path id="NimbusRomNo9L-Regu-31" d="M 1862 4352 
L 710 3776 
L 710 3686 
C 787 3718 858 3743 883 3756 
C 998 3801 1107 3826 1171 3826 
C 1306 3826 1363 3731 1363 3525 
L 1363 599 
C 1363 386 1312 238 1210 179 
C 1114 121 1024 102 755 96 
L 755 0 
L 2522 0 
L 2522 96 
C 2016 102 1914 167 1914 477 
L 1914 4339 
L 1862 4352 
z
" transform="scale(0.015625)"/>
       </defs>
       <use xlink:href="#NimbusRomNo9L-Regu-31" transform="scale(0.996264)"/>
      </g>
     </g>
    </g>
    <g id="xtick_2">
     <g id="line2d_4">
      <path d="M 238.935921 501.666121 
L 238.935921 6.85 
" clip-path="url(#p2dd0320a93)" style="fill: none; stroke: #ffffff; stroke-width: 0.5; stroke-linecap: square"/>
     </g>
     <g id="line2d_5">
      <g>
       <use xlink:href="#ma2cccf0418" x="238.935921" y="501.666121" style="fill: #ffffff; stroke: #ffffff; stroke-width: 1.5"/>
      </g>
     </g>
     <g id="line2d_6">
      <g>
       <use xlink:href="#ma2cccf0418" x="238.935921" y="6.85" style="fill: #ffffff; stroke: #ffffff; stroke-width: 1.5"/>
      </g>
     </g>
     <g id="text_2">
      <!-- $\mathdefault{2}$ -->
      <g style="fill: #ffffff" transform="translate(232.958337 524.627104) scale(0.24 -0.24)">
       <defs>
        <path id="NimbusRomNo9L-Regu-32" d="M 3040 879 
L 2957 912 
C 2720 544 2637 486 2349 486 
L 819 486 
L 1894 1621 
C 2464 2221 2714 2711 2714 3214 
C 2714 3858 2195 4352 1530 4352 
C 1178 4352 845 4211 608 3955 
C 403 3736 307 3530 198 3072 
L 333 3039 
C 589 3671 819 3878 1261 3878 
C 1798 3878 2163 3510 2163 2969 
C 2163 2466 1869 1866 1331 1292 
L 192 76 
L 192 0 
L 2688 0 
L 3040 879 
z
" transform="scale(0.015625)"/>
       </defs>
       <use xlink:href="#NimbusRomNo9L-Regu-32" transform="scale(0.996264)"/>
      </g>
     </g>
    </g>
    <g id="xtick_3">
     <g id="line2d_7">
      <path d="M 332.88888 501.666121 
L 332.88888 6.85 
" clip-path="url(#p2dd0320a93)" style="fill: none; stroke: #ffffff; stroke-width: 0.5; stroke-linecap: square"/>
     </g>
     <g id="line2d_8">
      <g>
       <use xlink:href="#ma2cccf0418" x="332.88888" y="501.666121" style="fill: #ffffff; stroke: #ffffff; stroke-width: 1.5"/>
      </g>
     </g>
     <g id="line2d_9">
      <g>
       <use xlink:href="#ma2cccf0418" x="332.88888" y="6.85" style="fill: #ffffff; stroke: #ffffff; stroke-width: 1.5"/>
      </g>
     </g>
     <g id="text_3">
      <!-- $\mathdefault{3}$ -->
      <g style="fill: #ffffff" transform="translate(326.911296 524.627104) scale(0.24 -0.24)">
       <defs>
        <path id="NimbusRomNo9L-Regu-33" d="M 979 2137 
C 1357 2137 1504 2124 1658 2067 
C 2054 1926 2304 1561 2304 1120 
C 2304 582 1939 166 1466 166 
C 1293 166 1165 211 928 364 
C 736 480 627 524 518 524 
C 371 524 275 435 275 300 
C 275 76 550 -64 998 -64 
C 1491 -64 1997 102 2298 364 
C 2598 627 2765 998 2765 1427 
C 2765 1753 2662 2054 2477 2252 
C 2349 2393 2227 2470 1946 2592 
C 2387 2892 2547 3129 2547 3475 
C 2547 3993 2138 4352 1549 4352 
C 1229 4352 947 4243 717 4038 
C 525 3865 429 3699 288 3315 
L 384 3289 
C 646 3757 934 3967 1338 3967 
C 1754 3967 2042 3686 2042 3283 
C 2042 3052 1946 2822 1786 2662 
C 1594 2470 1414 2374 979 2220 
L 979 2137 
z
" transform="scale(0.015625)"/>
       </defs>
       <use xlink:href="#NimbusRomNo9L-Regu-33" transform="scale(0.996264)"/>
      </g>
     </g>
    </g>
    <g id="xtick_4">
     <g id="line2d_10">
      <path d="M 426.841839 501.666121 
L 426.841839 6.85 
" clip-path="url(#p2dd0320a93)" style="fill: none; stroke: #ffffff; stroke-width: 0.5; stroke-linecap: square"/>
     </g>
     <g id="line2d_11">
      <g>
       <use xlink:href="#ma2cccf0418" x="426.841839" y="501.666121" style="fill: #ffffff; stroke: #ffffff; stroke-width: 1.5"/>
      </g>
     </g>
     <g id="line2d_12">
      <g>
       <use xlink:href="#ma2cccf0418" x="426.841839" y="6.85" style="fill: #ffffff; stroke: #ffffff; stroke-width: 1.5"/>
      </g>
     </g>
     <g id="text_4">
      <!-- $\mathdefault{4}$ -->
      <g style="fill: #ffffff" transform="translate(420.864255 524.627104) scale(0.24 -0.24)">
       <defs>
        <path id="NimbusRomNo9L-Regu-34" d="M 3021 1497 
L 2368 1497 
L 2368 4352 
L 2086 4352 
L 77 1497 
L 77 1088 
L 1875 1088 
L 1875 0 
L 2368 0 
L 2368 1088 
L 3021 1088 
L 3021 1497 
z
M 1869 1497 
L 333 1497 
L 1869 3697 
L 1869 1497 
z
" transform="scale(0.015625)"/>
       </defs>
       <use xlink:href="#NimbusRomNo9L-Regu-34" transform="scale(0.996264)"/>
      </g>
     </g>
    </g>
    <g id="xtick_5">
     <g id="line2d_13">
      <path d="M 520.794798 501.666121 
L 520.794798 6.85 
" clip-path="url(#p2dd0320a93)" style="fill: none; stroke: #ffffff; stroke-width: 0.5; stroke-linecap: square"/>
     </g>
     <g id="line2d_14">
      <g>
       <use xlink:href="#ma2cccf0418" x="520.794798" y="501.666121" style="fill: #ffffff; stroke: #ffffff; stroke-width: 1.5"/>
      </g>
     </g>
     <g id="line2d_15">
      <g>
       <use xlink:href="#ma2cccf0418" x="520.794798" y="6.85" style="fill: #ffffff; stroke: #ffffff; stroke-width: 1.5"/>
      </g>
     </g>
     <g id="text_5">
      <!-- $\mathdefault{5}$ -->
      <g style="fill: #ffffff" transform="translate(514.817214 524.627104) scale(0.24 -0.24)">
       <defs>
        <path id="NimbusRomNo9L-Regu-35" d="M 1158 3718 
L 2413 3718 
C 2515 3718 2541 3731 2560 3775 
L 2803 4345 
L 2746 4390 
C 2650 4256 2586 4224 2451 4224 
L 1114 4224 
L 416 2717 
C 410 2705 410 2698 410 2686 
C 410 2654 435 2635 486 2635 
C 691 2635 947 2591 1210 2508 
C 1946 2274 2285 1882 2285 1255 
C 2285 647 1894 172 1395 172 
C 1267 172 1158 217 966 356 
C 762 502 614 565 480 565 
C 294 565 205 489 205 331 
C 205 89 506 -64 986 -64 
C 1523 -64 1984 108 2304 432 
C 2598 717 2733 1078 2733 1559 
C 2733 2015 2611 2306 2291 2622 
C 2010 2901 1645 3047 890 3180 
L 1158 3718 
z
" transform="scale(0.015625)"/>
       </defs>
       <use xlink:href="#NimbusRomNo9L-Regu-35" transform="scale(0.996264)"/>
      </g>
     </g>
    </g>
    <g id="xtick_6">
     <g id="line2d_16">
      <path d="M 69.820595 501.666121 
L 69.820595 6.85 
" clip-path="url(#p2dd0320a93)" style="fill: none; stroke: #ffffff; stroke-width: 0.5; stroke-linecap: square"/>
     </g>
     <g id="line2d_17">
      <defs>
       <path id="m97b22e82d8" d="M 0 2 
L 0 -2 
" style="stroke: #ffffff; stroke-width: 0.5"/>
      </defs>
      <g>
       <use xlink:href="#m97b22e82d8" x="69.820595" y="501.666121" style="fill: #ffffff; stroke: #ffffff; stroke-width: 0.5"/>
      </g>
     </g>
     <g id="line2d_18">
      <g>
       <use xlink:href="#m97b22e82d8" x="69.820595" y="6.85" style="fill: #ffffff; stroke: #ffffff; stroke-width: 0.5"/>
      </g>
     </g>
    </g>
    <g id="xtick_7">
     <g id="line2d_19">
      <path d="M 88.611187 501.666121 
L 88.611187 6.85 
" clip-path="url(#p2dd0320a93)" style="fill: none; stroke: #ffffff; stroke-width: 0.5; stroke-linecap: square"/>
     </g>
     <g id="line2d_20">
      <g>
       <use xlink:href="#m97b22e82d8" x="88.611187" y="501.666121" style="fill: #ffffff; stroke: #ffffff; stroke-width: 0.5"/>
      </g>
     </g>
     <g id="line2d_21">
      <g>
       <use xlink:href="#m97b22e82d8" x="88.611187" y="6.85" style="fill: #ffffff; stroke: #ffffff; stroke-width: 0.5"/>
      </g>
     </g>
    </g>
    <g id="xtick_8">
     <g id="line2d_22">
      <path d="M 107.401779 501.666121 
L 107.401779 6.85 
" clip-path="url(#p2dd0320a93)" style="fill: none; stroke: #ffffff; stroke-width: 0.5; stroke-linecap: square"/>
     </g>
     <g id="line2d_23">
      <g>
       <use xlink:href="#m97b22e82d8" x="107.401779" y="501.666121" style="fill: #ffffff; stroke: #ffffff; stroke-width: 0.5"/>
      </g>
     </g>
     <g id="line2d_24">
      <g>
       <use xlink:href="#m97b22e82d8" x="107.401779" y="6.85" style="fill: #ffffff; stroke: #ffffff; stroke-width: 0.5"/>
      </g>
     </g>
    </g>
    <g id="xtick_9">
     <g id="line2d_25">
      <path d="M 126.19237 501.666121 
L 126.19237 6.85 
" clip-path="url(#p2dd0320a93)" style="fill: none; stroke: #ffffff; stroke-width: 0.5; stroke-linecap: square"/>
     </g>
     <g id="line2d_26">
      <g>
       <use xlink:href="#m97b22e82d8" x="126.19237" y="501.666121" style="fill: #ffffff; stroke: #ffffff; stroke-width: 0.5"/>
      </g>
     </g>
     <g id="line2d_27">
      <g>
       <use xlink:href="#m97b22e82d8" x="126.19237" y="6.85" style="fill: #ffffff; stroke: #ffffff; stroke-width: 0.5"/>
      </g>
     </g>
    </g>
    <g id="xtick_10">
     <g id="line2d_28">
      <path d="M 163.773554 501.666121 
L 163.773554 6.85 
" clip-path="url(#p2dd0320a93)" style="fill: none; stroke: #ffffff; stroke-width: 0.5; stroke-linecap: square"/>
     </g>
     <g id="line2d_29">
      <g>
       <use xlink:href="#m97b22e82d8" x="163.773554" y="501.666121" style="fill: #ffffff; stroke: #ffffff; stroke-width: 0.5"/>
      </g>
     </g>
     <g id="line2d_30">
      <g>
       <use xlink:href="#m97b22e82d8" x="163.773554" y="6.85" style="fill: #ffffff; stroke: #ffffff; stroke-width: 0.5"/>
      </g>
     </g>
    </g>
    <g id="xtick_11">
     <g id="line2d_31">
      <path d="M 182.564146 501.666121 
L 182.564146 6.85 
" clip-path="url(#p2dd0320a93)" style="fill: none; stroke: #ffffff; stroke-width: 0.5; stroke-linecap: square"/>
     </g>
     <g id="line2d_32">
      <g>
       <use xlink:href="#m97b22e82d8" x="182.564146" y="501.666121" style="fill: #ffffff; stroke: #ffffff; stroke-width: 0.5"/>
      </g>
     </g>
     <g id="line2d_33">
      <g>
       <use xlink:href="#m97b22e82d8" x="182.564146" y="6.85" style="fill: #ffffff; stroke: #ffffff; stroke-width: 0.5"/>
      </g>
     </g>
    </g>
    <g id="xtick_12">
     <g id="line2d_34">
      <path d="M 201.354738 501.666121 
L 201.354738 6.85 
" clip-path="url(#p2dd0320a93)" style="fill: none; stroke: #ffffff; stroke-width: 0.5; stroke-linecap: square"/>
     </g>
     <g id="line2d_35">
      <g>
       <use xlink:href="#m97b22e82d8" x="201.354738" y="501.666121" style="fill: #ffffff; stroke: #ffffff; stroke-width: 0.5"/>
      </g>
     </g>
     <g id="line2d_36">
      <g>
       <use xlink:href="#m97b22e82d8" x="201.354738" y="6.85" style="fill: #ffffff; stroke: #ffffff; stroke-width: 0.5"/>
      </g>
     </g>
    </g>
    <g id="xtick_13">
     <g id="line2d_37">
      <path d="M 220.145329 501.666121 
L 220.145329 6.85 
" clip-path="url(#p2dd0320a93)" style="fill: none; stroke: #ffffff; stroke-width: 0.5; stroke-linecap: square"/>
     </g>
     <g id="line2d_38">
      <g>
       <use xlink:href="#m97b22e82d8" x="220.145329" y="501.666121" style="fill: #ffffff; stroke: #ffffff; stroke-width: 0.5"/>
      </g>
     </g>
     <g id="line2d_39">
      <g>
       <use xlink:href="#m97b22e82d8" x="220.145329" y="6.85" style="fill: #ffffff; stroke: #ffffff; stroke-width: 0.5"/>
      </g>
     </g>
    </g>
    <g id="xtick_14">
     <g id="line2d_40">
      <path d="M 257.726513 501.666121 
L 257.726513 6.85 
" clip-path="url(#p2dd0320a93)" style="fill: none; stroke: #ffffff; stroke-width: 0.5; stroke-linecap: square"/>
     </g>
     <g id="line2d_41">
      <g>
       <use xlink:href="#m97b22e82d8" x="257.726513" y="501.666121" style="fill: #ffffff; stroke: #ffffff; stroke-width: 0.5"/>
      </g>
     </g>
     <g id="line2d_42">
      <g>
       <use xlink:href="#m97b22e82d8" x="257.726513" y="6.85" style="fill: #ffffff; stroke: #ffffff; stroke-width: 0.5"/>
      </g>
     </g>
    </g>
    <g id="xtick_15">
     <g id="line2d_43">
      <path d="M 276.517105 501.666121 
L 276.517105 6.85 
" clip-path="url(#p2dd0320a93)" style="fill: none; stroke: #ffffff; stroke-width: 0.5; stroke-linecap: square"/>
     </g>
     <g id="line2d_44">
      <g>
       <use xlink:href="#m97b22e82d8" x="276.517105" y="501.666121" style="fill: #ffffff; stroke: #ffffff; stroke-width: 0.5"/>
      </g>
     </g>
     <g id="line2d_45">
      <g>
       <use xlink:href="#m97b22e82d8" x="276.517105" y="6.85" style="fill: #ffffff; stroke: #ffffff; stroke-width: 0.5"/>
      </g>
     </g>
    </g>
    <g id="xtick_16">
     <g id="line2d_46">
      <path d="M 295.307696 501.666121 
L 295.307696 6.85 
" clip-path="url(#p2dd0320a93)" style="fill: none; stroke: #ffffff; stroke-width: 0.5; stroke-linecap: square"/>
     </g>
     <g id="line2d_47">
      <g>
       <use xlink:href="#m97b22e82d8" x="295.307696" y="501.666121" style="fill: #ffffff; stroke: #ffffff; stroke-width: 0.5"/>
      </g>
     </g>
     <g id="line2d_48">
      <g>
       <use xlink:href="#m97b22e82d8" x="295.307696" y="6.85" style="fill: #ffffff; stroke: #ffffff; stroke-width: 0.5"/>
      </g>
     </g>
    </g>
    <g id="xtick_17">
     <g id="line2d_49">
      <path d="M 314.098288 501.666121 
L 314.098288 6.85 
" clip-path="url(#p2dd0320a93)" style="fill: none; stroke: #ffffff; stroke-width: 0.5; stroke-linecap: square"/>
     </g>
     <g id="line2d_50">
      <g>
       <use xlink:href="#m97b22e82d8" x="314.098288" y="501.666121" style="fill: #ffffff; stroke: #ffffff; stroke-width: 0.5"/>
      </g>
     </g>
     <g id="line2d_51">
      <g>
       <use xlink:href="#m97b22e82d8" x="314.098288" y="6.85" style="fill: #ffffff; stroke: #ffffff; stroke-width: 0.5"/>
      </g>
     </g>
    </g>
    <g id="xtick_18">
     <g id="line2d_52">
      <path d="M 351.679472 501.666121 
L 351.679472 6.85 
" clip-path="url(#p2dd0320a93)" style="fill: none; stroke: #ffffff; stroke-width: 0.5; stroke-linecap: square"/>
     </g>
     <g id="line2d_53">
      <g>
       <use xlink:href="#m97b22e82d8" x="351.679472" y="501.666121" style="fill: #ffffff; stroke: #ffffff; stroke-width: 0.5"/>
      </g>
     </g>
     <g id="line2d_54">
      <g>
       <use xlink:href="#m97b22e82d8" x="351.679472" y="6.85" style="fill: #ffffff; stroke: #ffffff; stroke-width: 0.5"/>
      </g>
     </g>
    </g>
    <g id="xtick_19">
     <g id="line2d_55">
      <path d="M 370.470063 501.666121 
L 370.470063 6.85 
" clip-path="url(#p2dd0320a93)" style="fill: none; stroke: #ffffff; stroke-width: 0.5; stroke-linecap: square"/>
     </g>
     <g id="line2d_56">
      <g>
       <use xlink:href="#m97b22e82d8" x="370.470063" y="501.666121" style="fill: #ffffff; stroke: #ffffff; stroke-width: 0.5"/>
      </g>
     </g>
     <g id="line2d_57">
      <g>
       <use xlink:href="#m97b22e82d8" x="370.470063" y="6.85" style="fill: #ffffff; stroke: #ffffff; stroke-width: 0.5"/>
      </g>
     </g>
    </g>
    <g id="xtick_20">
     <g id="line2d_58">
      <path d="M 389.260655 501.666121 
L 389.260655 6.85 
" clip-path="url(#p2dd0320a93)" style="fill: none; stroke: #ffffff; stroke-width: 0.5; stroke-linecap: square"/>
     </g>
     <g id="line2d_59">
      <g>
       <use xlink:href="#m97b22e82d8" x="389.260655" y="501.666121" style="fill: #ffffff; stroke: #ffffff; stroke-width: 0.5"/>
      </g>
     </g>
     <g id="line2d_60">
      <g>
       <use xlink:href="#m97b22e82d8" x="389.260655" y="6.85" style="fill: #ffffff; stroke: #ffffff; stroke-width: 0.5"/>
      </g>
     </g>
    </g>
    <g id="xtick_21">
     <g id="line2d_61">
      <path d="M 408.051247 501.666121 
L 408.051247 6.85 
" clip-path="url(#p2dd0320a93)" style="fill: none; stroke: #ffffff; stroke-width: 0.5; stroke-linecap: square"/>
     </g>
     <g id="line2d_62">
      <g>
       <use xlink:href="#m97b22e82d8" x="408.051247" y="501.666121" style="fill: #ffffff; stroke: #ffffff; stroke-width: 0.5"/>
      </g>
     </g>
     <g id="line2d_63">
      <g>
       <use xlink:href="#m97b22e82d8" x="408.051247" y="6.85" style="fill: #ffffff; stroke: #ffffff; stroke-width: 0.5"/>
      </g>
     </g>
    </g>
    <g id="xtick_22">
     <g id="line2d_64">
      <path d="M 445.632431 501.666121 
L 445.632431 6.85 
" clip-path="url(#p2dd0320a93)" style="fill: none; stroke: #ffffff; stroke-width: 0.5; stroke-linecap: square"/>
     </g>
     <g id="line2d_65">
      <g>
       <use xlink:href="#m97b22e82d8" x="445.632431" y="501.666121" style="fill: #ffffff; stroke: #ffffff; stroke-width: 0.5"/>
      </g>
     </g>
     <g id="line2d_66">
      <g>
       <use xlink:href="#m97b22e82d8" x="445.632431" y="6.85" style="fill: #ffffff; stroke: #ffffff; stroke-width: 0.5"/>
      </g>
     </g>
    </g>
    <g id="xtick_23">
     <g id="line2d_67">
      <path d="M 464.423022 501.666121 
L 464.423022 6.85 
" clip-path="url(#p2dd0320a93)" style="fill: none; stroke: #ffffff; stroke-width: 0.5; stroke-linecap: square"/>
     </g>
     <g id="line2d_68">
      <g>
       <use xlink:href="#m97b22e82d8" x="464.423022" y="501.666121" style="fill: #ffffff; stroke: #ffffff; stroke-width: 0.5"/>
      </g>
     </g>
     <g id="line2d_69">
      <g>
       <use xlink:href="#m97b22e82d8" x="464.423022" y="6.85" style="fill: #ffffff; stroke: #ffffff; stroke-width: 0.5"/>
      </g>
     </g>
    </g>
    <g id="xtick_24">
     <g id="line2d_70">
      <path d="M 483.213614 501.666121 
L 483.213614 6.85 
" clip-path="url(#p2dd0320a93)" style="fill: none; stroke: #ffffff; stroke-width: 0.5; stroke-linecap: square"/>
     </g>
     <g id="line2d_71">
      <g>
       <use xlink:href="#m97b22e82d8" x="483.213614" y="501.666121" style="fill: #ffffff; stroke: #ffffff; stroke-width: 0.5"/>
      </g>
     </g>
     <g id="line2d_72">
      <g>
       <use xlink:href="#m97b22e82d8" x="483.213614" y="6.85" style="fill: #ffffff; stroke: #ffffff; stroke-width: 0.5"/>
      </g>
     </g>
    </g>
    <g id="xtick_25">
     <g id="line2d_73">
      <path d="M 502.004206 501.666121 
L 502.004206 6.85 
" clip-path="url(#p2dd0320a93)" style="fill: none; stroke: #ffffff; stroke-width: 0.5; stroke-linecap: square"/>
     </g>
     <g id="line2d_74">
      <g>
       <use xlink:href="#m97b22e82d8" x="502.004206" y="501.666121" style="fill: #ffffff; stroke: #ffffff; stroke-width: 0.5"/>
      </g>
     </g>
     <g id="line2d_75">
      <g>
       <use xlink:href="#m97b22e82d8" x="502.004206" y="6.85" style="fill: #ffffff; stroke: #ffffff; stroke-width: 0.5"/>
      </g>
     </g>
    </g>
    <g id="xtick_26">
     <g id="line2d_76">
      <path d="M 539.585389 501.666121 
L 539.585389 6.85 
" clip-path="url(#p2dd0320a93)" style="fill: none; stroke: #ffffff; stroke-width: 0.5; stroke-linecap: square"/>
     </g>
     <g id="line2d_77">
      <g>
       <use xlink:href="#m97b22e82d8" x="539.585389" y="501.666121" style="fill: #ffffff; stroke: #ffffff; stroke-width: 0.5"/>
      </g>
     </g>
     <g id="line2d_78">
      <g>
       <use xlink:href="#m97b22e82d8" x="539.585389" y="6.85" style="fill: #ffffff; stroke: #ffffff; stroke-width: 0.5"/>
      </g>
     </g>
    </g>
    <g id="xtick_27">
     <g id="line2d_79">
      <path d="M 558.375981 501.666121 
L 558.375981 6.85 
" clip-path="url(#p2dd0320a93)" style="fill: none; stroke: #ffffff; stroke-width: 0.5; stroke-linecap: square"/>
     </g>
     <g id="line2d_80">
      <g>
       <use xlink:href="#m97b22e82d8" x="558.375981" y="501.666121" style="fill: #ffffff; stroke: #ffffff; stroke-width: 0.5"/>
      </g>
     </g>
     <g id="line2d_81">
      <g>
       <use xlink:href="#m97b22e82d8" x="558.375981" y="6.85" style="fill: #ffffff; stroke: #ffffff; stroke-width: 0.5"/>
      </g>
     </g>
    </g>
    <g id="text_6">
     <!-- $x$ -->
     <g style="fill: #ffffff" transform="translate(299.868465 555.418148) scale(0.32 -0.32)">
      <defs>
       <path id="NimbusRomNo9L-ReguItal-78" d="M 2573 714 
C 2522 657 2490 618 2432 542 
C 2285 351 2208 288 2138 288 
C 2042 288 1984 370 1939 548 
C 1926 599 1920 638 1914 657 
C 1754 1299 1683 1592 1683 1687 
C 1965 2177 2195 2457 2310 2457 
C 2349 2457 2400 2438 2464 2406 
C 2541 2362 2586 2349 2637 2349 
C 2771 2349 2861 2444 2861 2579 
C 2861 2713 2752 2816 2598 2816 
C 2317 2816 2074 2585 1632 1904 
L 1562 2254 
C 1472 2687 1402 2816 1229 2816 
C 1088 2816 870 2758 480 2630 
L 410 2604 
L 435 2508 
C 678 2566 736 2579 794 2579 
C 954 2579 992 2521 1082 2139 
L 1267 1357 
L 742 612 
C 614 421 486 307 416 307 
C 378 307 314 326 250 364 
C 166 409 96 428 45 428 
C -77 428 -173 332 -173 204 
C -173 38 -45 -64 147 -64 
C 346 -64 422 -7 742 383 
C 915 587 1050 758 1318 1127 
L 1510 364 
C 1594 38 1677 -64 1882 -64 
C 2125 -64 2291 89 2662 663 
L 2573 714 
z
" transform="scale(0.015625)"/>
      </defs>
      <use xlink:href="#NimbusRomNo9L-ReguItal-78" transform="scale(0.996264)"/>
     </g>
    </g>
   </g>
   <g id="matplotlib.axis_2">
    <g id="ytick_1">
     <g id="line2d_82">
      <path d="M 54.821675 481.26554 
L 559.07 481.26554 
" clip-path="url(#p2dd0320a93)" style="fill: none; stroke: #ffffff; stroke-width: 0.5; stroke-linecap: square"/>
     </g>
     <g id="line2d_83">
      <defs>
       <path id="mb00a174d3e" d="M 3.25 0 
L -3.25 -0 
" style="stroke: #ffffff; stroke-width: 1.5"/>
      </defs>
      <g>
       <use xlink:href="#mb00a174d3e" x="54.821675" y="481.26554" style="fill: #ffffff; stroke: #ffffff; stroke-width: 1.5"/>
      </g>
     </g>
     <g id="line2d_84">
      <g>
       <use xlink:href="#mb00a174d3e" x="559.07" y="481.26554" style="fill: #ffffff; stroke: #ffffff; stroke-width: 1.5"/>
      </g>
     </g>
     <g id="text_7">
      <!-- $\mathdefault{1}$ -->
      <g style="fill: #ffffff" transform="translate(36.116507 489.371031) scale(0.24 -0.24)">
       <use xlink:href="#NimbusRomNo9L-Regu-31" transform="scale(0.996264)"/>
      </g>
     </g>
    </g>
    <g id="ytick_2">
     <g id="line2d_85">
      <path d="M 54.821675 401.127237 
L 559.07 401.127237 
" clip-path="url(#p2dd0320a93)" style="fill: none; stroke: #ffffff; stroke-width: 0.5; stroke-linecap: square"/>
     </g>
     <g id="line2d_86">
      <g>
       <use xlink:href="#mb00a174d3e" x="54.821675" y="401.127237" style="fill: #ffffff; stroke: #ffffff; stroke-width: 1.5"/>
      </g>
     </g>
     <g id="line2d_87">
      <g>
       <use xlink:href="#mb00a174d3e" x="559.07" y="401.127237" style="fill: #ffffff; stroke: #ffffff; stroke-width: 1.5"/>
      </g>
     </g>
     <g id="text_8">
      <!-- $\mathdefault{2}$ -->
      <g style="fill: #ffffff" transform="translate(36.116507 409.232729) scale(0.24 -0.24)">
       <use xlink:href="#NimbusRomNo9L-Regu-32" transform="scale(0.996264)"/>
      </g>
     </g>
    </g>
    <g id="ytick_3">
     <g id="line2d_88">
      <path d="M 54.821675 320.988934 
L 559.07 320.988934 
" clip-path="url(#p2dd0320a93)" style="fill: none; stroke: #ffffff; stroke-width: 0.5; stroke-linecap: square"/>
     </g>
     <g id="line2d_89">
      <g>
       <use xlink:href="#mb00a174d3e" x="54.821675" y="320.988934" style="fill: #ffffff; stroke: #ffffff; stroke-width: 1.5"/>
      </g>
     </g>
     <g id="line2d_90">
      <g>
       <use xlink:href="#mb00a174d3e" x="559.07" y="320.988934" style="fill: #ffffff; stroke: #ffffff; stroke-width: 1.5"/>
      </g>
     </g>
     <g id="text_9">
      <!-- $\mathdefault{3}$ -->
      <g style="fill: #ffffff" transform="translate(36.116507 329.094426) scale(0.24 -0.24)">
       <use xlink:href="#NimbusRomNo9L-Regu-33" transform="scale(0.996264)"/>
      </g>
     </g>
    </g>
    <g id="ytick_4">
     <g id="line2d_91">
      <path d="M 54.821675 240.850632 
L 559.07 240.850632 
" clip-path="url(#p2dd0320a93)" style="fill: none; stroke: #ffffff; stroke-width: 0.5; stroke-linecap: square"/>
     </g>
     <g id="line2d_92">
      <g>
       <use xlink:href="#mb00a174d3e" x="54.821675" y="240.850632" style="fill: #ffffff; stroke: #ffffff; stroke-width: 1.5"/>
      </g>
     </g>
     <g id="line2d_93">
      <g>
       <use xlink:href="#mb00a174d3e" x="559.07" y="240.850632" style="fill: #ffffff; stroke: #ffffff; stroke-width: 1.5"/>
      </g>
     </g>
     <g id="text_10">
      <!-- $\mathdefault{4}$ -->
      <g style="fill: #ffffff" transform="translate(36.116507 248.956123) scale(0.24 -0.24)">
       <use xlink:href="#NimbusRomNo9L-Regu-34" transform="scale(0.996264)"/>
      </g>
     </g>
    </g>
    <g id="ytick_5">
     <g id="line2d_94">
      <path d="M 54.821675 160.712329 
L 559.07 160.712329 
" clip-path="url(#p2dd0320a93)" style="fill: none; stroke: #ffffff; stroke-width: 0.5; stroke-linecap: square"/>
     </g>
     <g id="line2d_95">
      <g>
       <use xlink:href="#mb00a174d3e" x="54.821675" y="160.712329" style="fill: #ffffff; stroke: #ffffff; stroke-width: 1.5"/>
      </g>
     </g>
     <g id="line2d_96">
      <g>
       <use xlink:href="#mb00a174d3e" x="559.07" y="160.712329" style="fill: #ffffff; stroke: #ffffff; stroke-width: 1.5"/>
      </g>
     </g>
     <g id="text_11">
      <!-- $\mathdefault{5}$ -->
      <g style="fill: #ffffff" transform="translate(36.116507 168.81782) scale(0.24 -0.24)">
       <use xlink:href="#NimbusRomNo9L-Regu-35" transform="scale(0.996264)"/>
      </g>
     </g>
    </g>
    <g id="ytick_6">
     <g id="line2d_97">
      <path d="M 54.821675 80.574026 
L 559.07 80.574026 
" clip-path="url(#p2dd0320a93)" style="fill: none; stroke: #ffffff; stroke-width: 0.5; stroke-linecap: square"/>
     </g>
     <g id="line2d_98">
      <g>
       <use xlink:href="#mb00a174d3e" x="54.821675" y="80.574026" style="fill: #ffffff; stroke: #ffffff; stroke-width: 1.5"/>
      </g>
     </g>
     <g id="line2d_99">
      <g>
       <use xlink:href="#mb00a174d3e" x="559.07" y="80.574026" style="fill: #ffffff; stroke: #ffffff; stroke-width: 1.5"/>
      </g>
     </g>
     <g id="text_12">
      <!-- $\mathdefault{6}$ -->
      <g style="fill: #ffffff" transform="translate(36.116507 88.679518) scale(0.24 -0.24)">
       <defs>
        <path id="NimbusRomNo9L-Regu-36" d="M 2854 4390 
C 2125 4326 1754 4204 1286 3878 
C 595 3385 218 2655 218 1801 
C 218 1248 390 688 666 369 
C 909 89 1254 -64 1651 -64 
C 2445 -64 2995 541 2995 1420 
C 2995 2234 2528 2752 1792 2752 
C 1510 2752 1376 2707 973 2463 
C 1146 3430 1862 4121 2867 4288 
L 2854 4390 
z
M 1549 2457 
C 2099 2457 2419 1999 2419 1203 
C 2419 503 2170 115 1722 115 
C 1158 115 813 713 813 1700 
C 813 2024 864 2203 992 2298 
C 1126 2400 1325 2457 1549 2457 
z
" transform="scale(0.015625)"/>
       </defs>
       <use xlink:href="#NimbusRomNo9L-Regu-36" transform="scale(0.996264)"/>
      </g>
     </g>
    </g>
    <g id="ytick_7">
     <g id="line2d_100">
      <path d="M 54.821675 497.2932 
L 559.07 497.2932 
" clip-path="url(#p2dd0320a93)" style="fill: none; stroke: #ffffff; stroke-width: 0.5; stroke-linecap: square"/>
     </g>
     <g id="line2d_101">
      <defs>
       <path id="mce33bae59e" d="M 2 0 
L -2 -0 
" style="stroke: #ffffff; stroke-width: 0.5"/>
      </defs>
      <g>
       <use xlink:href="#mce33bae59e" x="54.821675" y="497.2932" style="fill: #ffffff; stroke: #ffffff; stroke-width: 0.5"/>
      </g>
     </g>
     <g id="line2d_102">
      <g>
       <use xlink:href="#mce33bae59e" x="559.07" y="497.2932" style="fill: #ffffff; stroke: #ffffff; stroke-width: 0.5"/>
      </g>
     </g>
    </g>
    <g id="ytick_8">
     <g id="line2d_103">
      <path d="M 54.821675 465.237879 
L 559.07 465.237879 
" clip-path="url(#p2dd0320a93)" style="fill: none; stroke: #ffffff; stroke-width: 0.5; stroke-linecap: square"/>
     </g>
     <g id="line2d_104">
      <g>
       <use xlink:href="#mce33bae59e" x="54.821675" y="465.237879" style="fill: #ffffff; stroke: #ffffff; stroke-width: 0.5"/>
      </g>
     </g>
     <g id="line2d_105">
      <g>
       <use xlink:href="#mce33bae59e" x="559.07" y="465.237879" style="fill: #ffffff; stroke: #ffffff; stroke-width: 0.5"/>
      </g>
     </g>
    </g>
    <g id="ytick_9">
     <g id="line2d_106">
      <path d="M 54.821675 449.210219 
L 559.07 449.210219 
" clip-path="url(#p2dd0320a93)" style="fill: none; stroke: #ffffff; stroke-width: 0.5; stroke-linecap: square"/>
     </g>
     <g id="line2d_107">
      <g>
       <use xlink:href="#mce33bae59e" x="54.821675" y="449.210219" style="fill: #ffffff; stroke: #ffffff; stroke-width: 0.5"/>
      </g>
     </g>
     <g id="line2d_108">
      <g>
       <use xlink:href="#mce33bae59e" x="559.07" y="449.210219" style="fill: #ffffff; stroke: #ffffff; stroke-width: 0.5"/>
      </g>
     </g>
    </g>
    <g id="ytick_10">
     <g id="line2d_109">
      <path d="M 54.821675 433.182558 
L 559.07 433.182558 
" clip-path="url(#p2dd0320a93)" style="fill: none; stroke: #ffffff; stroke-width: 0.5; stroke-linecap: square"/>
     </g>
     <g id="line2d_110">
      <g>
       <use xlink:href="#mce33bae59e" x="54.821675" y="433.182558" style="fill: #ffffff; stroke: #ffffff; stroke-width: 0.5"/>
      </g>
     </g>
     <g id="line2d_111">
      <g>
       <use xlink:href="#mce33bae59e" x="559.07" y="433.182558" style="fill: #ffffff; stroke: #ffffff; stroke-width: 0.5"/>
      </g>
     </g>
    </g>
    <g id="ytick_11">
     <g id="line2d_112">
      <path d="M 54.821675 417.154898 
L 559.07 417.154898 
" clip-path="url(#p2dd0320a93)" style="fill: none; stroke: #ffffff; stroke-width: 0.5; stroke-linecap: square"/>
     </g>
     <g id="line2d_113">
      <g>
       <use xlink:href="#mce33bae59e" x="54.821675" y="417.154898" style="fill: #ffffff; stroke: #ffffff; stroke-width: 0.5"/>
      </g>
     </g>
     <g id="line2d_114">
      <g>
       <use xlink:href="#mce33bae59e" x="559.07" y="417.154898" style="fill: #ffffff; stroke: #ffffff; stroke-width: 0.5"/>
      </g>
     </g>
    </g>
    <g id="ytick_12">
     <g id="line2d_115">
      <path d="M 54.821675 385.099577 
L 559.07 385.099577 
" clip-path="url(#p2dd0320a93)" style="fill: none; stroke: #ffffff; stroke-width: 0.5; stroke-linecap: square"/>
     </g>
     <g id="line2d_116">
      <g>
       <use xlink:href="#mce33bae59e" x="54.821675" y="385.099577" style="fill: #ffffff; stroke: #ffffff; stroke-width: 0.5"/>
      </g>
     </g>
     <g id="line2d_117">
      <g>
       <use xlink:href="#mce33bae59e" x="559.07" y="385.099577" style="fill: #ffffff; stroke: #ffffff; stroke-width: 0.5"/>
      </g>
     </g>
    </g>
    <g id="ytick_13">
     <g id="line2d_118">
      <path d="M 54.821675 369.071916 
L 559.07 369.071916 
" clip-path="url(#p2dd0320a93)" style="fill: none; stroke: #ffffff; stroke-width: 0.5; stroke-linecap: square"/>
     </g>
     <g id="line2d_119">
      <g>
       <use xlink:href="#mce33bae59e" x="54.821675" y="369.071916" style="fill: #ffffff; stroke: #ffffff; stroke-width: 0.5"/>
      </g>
     </g>
     <g id="line2d_120">
      <g>
       <use xlink:href="#mce33bae59e" x="559.07" y="369.071916" style="fill: #ffffff; stroke: #ffffff; stroke-width: 0.5"/>
      </g>
     </g>
    </g>
    <g id="ytick_14">
     <g id="line2d_121">
      <path d="M 54.821675 353.044255 
L 559.07 353.044255 
" clip-path="url(#p2dd0320a93)" style="fill: none; stroke: #ffffff; stroke-width: 0.5; stroke-linecap: square"/>
     </g>
     <g id="line2d_122">
      <g>
       <use xlink:href="#mce33bae59e" x="54.821675" y="353.044255" style="fill: #ffffff; stroke: #ffffff; stroke-width: 0.5"/>
      </g>
     </g>
     <g id="line2d_123">
      <g>
       <use xlink:href="#mce33bae59e" x="559.07" y="353.044255" style="fill: #ffffff; stroke: #ffffff; stroke-width: 0.5"/>
      </g>
     </g>
    </g>
    <g id="ytick_15">
     <g id="line2d_124">
      <path d="M 54.821675 337.016595 
L 559.07 337.016595 
" clip-path="url(#p2dd0320a93)" style="fill: none; stroke: #ffffff; stroke-width: 0.5; stroke-linecap: square"/>
     </g>
     <g id="line2d_125">
      <g>
       <use xlink:href="#mce33bae59e" x="54.821675" y="337.016595" style="fill: #ffffff; stroke: #ffffff; stroke-width: 0.5"/>
      </g>
     </g>
     <g id="line2d_126">
      <g>
       <use xlink:href="#mce33bae59e" x="559.07" y="337.016595" style="fill: #ffffff; stroke: #ffffff; stroke-width: 0.5"/>
      </g>
     </g>
    </g>
    <g id="ytick_16">
     <g id="line2d_127">
      <path d="M 54.821675 304.961274 
L 559.07 304.961274 
" clip-path="url(#p2dd0320a93)" style="fill: none; stroke: #ffffff; stroke-width: 0.5; stroke-linecap: square"/>
     </g>
     <g id="line2d_128">
      <g>
       <use xlink:href="#mce33bae59e" x="54.821675" y="304.961274" style="fill: #ffffff; stroke: #ffffff; stroke-width: 0.5"/>
      </g>
     </g>
     <g id="line2d_129">
      <g>
       <use xlink:href="#mce33bae59e" x="559.07" y="304.961274" style="fill: #ffffff; stroke: #ffffff; stroke-width: 0.5"/>
      </g>
     </g>
    </g>
    <g id="ytick_17">
     <g id="line2d_130">
      <path d="M 54.821675 288.933613 
L 559.07 288.933613 
" clip-path="url(#p2dd0320a93)" style="fill: none; stroke: #ffffff; stroke-width: 0.5; stroke-linecap: square"/>
     </g>
     <g id="line2d_131">
      <g>
       <use xlink:href="#mce33bae59e" x="54.821675" y="288.933613" style="fill: #ffffff; stroke: #ffffff; stroke-width: 0.5"/>
      </g>
     </g>
     <g id="line2d_132">
      <g>
       <use xlink:href="#mce33bae59e" x="559.07" y="288.933613" style="fill: #ffffff; stroke: #ffffff; stroke-width: 0.5"/>
      </g>
     </g>
    </g>
    <g id="ytick_18">
     <g id="line2d_133">
      <path d="M 54.821675 272.905953 
L 559.07 272.905953 
" clip-path="url(#p2dd0320a93)" style="fill: none; stroke: #ffffff; stroke-width: 0.5; stroke-linecap: square"/>
     </g>
     <g id="line2d_134">
      <g>
       <use xlink:href="#mce33bae59e" x="54.821675" y="272.905953" style="fill: #ffffff; stroke: #ffffff; stroke-width: 0.5"/>
      </g>
     </g>
     <g id="line2d_135">
      <g>
       <use xlink:href="#mce33bae59e" x="559.07" y="272.905953" style="fill: #ffffff; stroke: #ffffff; stroke-width: 0.5"/>
      </g>
     </g>
    </g>
    <g id="ytick_19">
     <g id="line2d_136">
      <path d="M 54.821675 256.878292 
L 559.07 256.878292 
" clip-path="url(#p2dd0320a93)" style="fill: none; stroke: #ffffff; stroke-width: 0.5; stroke-linecap: square"/>
     </g>
     <g id="line2d_137">
      <g>
       <use xlink:href="#mce33bae59e" x="54.821675" y="256.878292" style="fill: #ffffff; stroke: #ffffff; stroke-width: 0.5"/>
      </g>
     </g>
     <g id="line2d_138">
      <g>
       <use xlink:href="#mce33bae59e" x="559.07" y="256.878292" style="fill: #ffffff; stroke: #ffffff; stroke-width: 0.5"/>
      </g>
     </g>
    </g>
    <g id="ytick_20">
     <g id="line2d_139">
      <path d="M 54.821675 224.822971 
L 559.07 224.822971 
" clip-path="url(#p2dd0320a93)" style="fill: none; stroke: #ffffff; stroke-width: 0.5; stroke-linecap: square"/>
     </g>
     <g id="line2d_140">
      <g>
       <use xlink:href="#mce33bae59e" x="54.821675" y="224.822971" style="fill: #ffffff; stroke: #ffffff; stroke-width: 0.5"/>
      </g>
     </g>
     <g id="line2d_141">
      <g>
       <use xlink:href="#mce33bae59e" x="559.07" y="224.822971" style="fill: #ffffff; stroke: #ffffff; stroke-width: 0.5"/>
      </g>
     </g>
    </g>
    <g id="ytick_21">
     <g id="line2d_142">
      <path d="M 54.821675 208.79531 
L 559.07 208.79531 
" clip-path="url(#p2dd0320a93)" style="fill: none; stroke: #ffffff; stroke-width: 0.5; stroke-linecap: square"/>
     </g>
     <g id="line2d_143">
      <g>
       <use xlink:href="#mce33bae59e" x="54.821675" y="208.79531" style="fill: #ffffff; stroke: #ffffff; stroke-width: 0.5"/>
      </g>
     </g>
     <g id="line2d_144">
      <g>
       <use xlink:href="#mce33bae59e" x="559.07" y="208.79531" style="fill: #ffffff; stroke: #ffffff; stroke-width: 0.5"/>
      </g>
     </g>
    </g>
    <g id="ytick_22">
     <g id="line2d_145">
      <path d="M 54.821675 192.76765 
L 559.07 192.76765 
" clip-path="url(#p2dd0320a93)" style="fill: none; stroke: #ffffff; stroke-width: 0.5; stroke-linecap: square"/>
     </g>
     <g id="line2d_146">
      <g>
       <use xlink:href="#mce33bae59e" x="54.821675" y="192.76765" style="fill: #ffffff; stroke: #ffffff; stroke-width: 0.5"/>
      </g>
     </g>
     <g id="line2d_147">
      <g>
       <use xlink:href="#mce33bae59e" x="559.07" y="192.76765" style="fill: #ffffff; stroke: #ffffff; stroke-width: 0.5"/>
      </g>
     </g>
    </g>
    <g id="ytick_23">
     <g id="line2d_148">
      <path d="M 54.821675 176.739989 
L 559.07 176.739989 
" clip-path="url(#p2dd0320a93)" style="fill: none; stroke: #ffffff; stroke-width: 0.5; stroke-linecap: square"/>
     </g>
     <g id="line2d_149">
      <g>
       <use xlink:href="#mce33bae59e" x="54.821675" y="176.739989" style="fill: #ffffff; stroke: #ffffff; stroke-width: 0.5"/>
      </g>
     </g>
     <g id="line2d_150">
      <g>
       <use xlink:href="#mce33bae59e" x="559.07" y="176.739989" style="fill: #ffffff; stroke: #ffffff; stroke-width: 0.5"/>
      </g>
     </g>
    </g>
    <g id="ytick_24">
     <g id="line2d_151">
      <path d="M 54.821675 144.684668 
L 559.07 144.684668 
" clip-path="url(#p2dd0320a93)" style="fill: none; stroke: #ffffff; stroke-width: 0.5; stroke-linecap: square"/>
     </g>
     <g id="line2d_152">
      <g>
       <use xlink:href="#mce33bae59e" x="54.821675" y="144.684668" style="fill: #ffffff; stroke: #ffffff; stroke-width: 0.5"/>
      </g>
     </g>
     <g id="line2d_153">
      <g>
       <use xlink:href="#mce33bae59e" x="559.07" y="144.684668" style="fill: #ffffff; stroke: #ffffff; stroke-width: 0.5"/>
      </g>
     </g>
    </g>
    <g id="ytick_25">
     <g id="line2d_154">
      <path d="M 54.821675 128.657008 
L 559.07 128.657008 
" clip-path="url(#p2dd0320a93)" style="fill: none; stroke: #ffffff; stroke-width: 0.5; stroke-linecap: square"/>
     </g>
     <g id="line2d_155">
      <g>
       <use xlink:href="#mce33bae59e" x="54.821675" y="128.657008" style="fill: #ffffff; stroke: #ffffff; stroke-width: 0.5"/>
      </g>
     </g>
     <g id="line2d_156">
      <g>
       <use xlink:href="#mce33bae59e" x="559.07" y="128.657008" style="fill: #ffffff; stroke: #ffffff; stroke-width: 0.5"/>
      </g>
     </g>
    </g>
    <g id="ytick_26">
     <g id="line2d_157">
      <path d="M 54.821675 112.629347 
L 559.07 112.629347 
" clip-path="url(#p2dd0320a93)" style="fill: none; stroke: #ffffff; stroke-width: 0.5; stroke-linecap: square"/>
     </g>
     <g id="line2d_158">
      <g>
       <use xlink:href="#mce33bae59e" x="54.821675" y="112.629347" style="fill: #ffffff; stroke: #ffffff; stroke-width: 0.5"/>
      </g>
     </g>
     <g id="line2d_159">
      <g>
       <use xlink:href="#mce33bae59e" x="559.07" y="112.629347" style="fill: #ffffff; stroke: #ffffff; stroke-width: 0.5"/>
      </g>
     </g>
    </g>
    <g id="ytick_27">
     <g id="line2d_160">
      <path d="M 54.821675 96.601687 
L 559.07 96.601687 
" clip-path="url(#p2dd0320a93)" style="fill: none; stroke: #ffffff; stroke-width: 0.5; stroke-linecap: square"/>
     </g>
     <g id="line2d_161">
      <g>
       <use xlink:href="#mce33bae59e" x="54.821675" y="96.601687" style="fill: #ffffff; stroke: #ffffff; stroke-width: 0.5"/>
      </g>
     </g>
     <g id="line2d_162">
      <g>
       <use xlink:href="#mce33bae59e" x="559.07" y="96.601687" style="fill: #ffffff; stroke: #ffffff; stroke-width: 0.5"/>
      </g>
     </g>
    </g>
    <g id="ytick_28">
     <g id="line2d_163">
      <path d="M 54.821675 64.546366 
L 559.07 64.546366 
" clip-path="url(#p2dd0320a93)" style="fill: none; stroke: #ffffff; stroke-width: 0.5; stroke-linecap: square"/>
     </g>
     <g id="line2d_164">
      <g>
       <use xlink:href="#mce33bae59e" x="54.821675" y="64.546366" style="fill: #ffffff; stroke: #ffffff; stroke-width: 0.5"/>
      </g>
     </g>
     <g id="line2d_165">
      <g>
       <use xlink:href="#mce33bae59e" x="559.07" y="64.546366" style="fill: #ffffff; stroke: #ffffff; stroke-width: 0.5"/>
      </g>
     </g>
    </g>
    <g id="ytick_29">
     <g id="line2d_166">
      <path d="M 54.821675 48.518705 
L 559.07 48.518705 
" clip-path="url(#p2dd0320a93)" style="fill: none; stroke: #ffffff; stroke-width: 0.5; stroke-linecap: square"/>
     </g>
     <g id="line2d_167">
      <g>
       <use xlink:href="#mce33bae59e" x="54.821675" y="48.518705" style="fill: #ffffff; stroke: #ffffff; stroke-width: 0.5"/>
      </g>
     </g>
     <g id="line2d_168">
      <g>
       <use xlink:href="#mce33bae59e" x="559.07" y="48.518705" style="fill: #ffffff; stroke: #ffffff; stroke-width: 0.5"/>
      </g>
     </g>
    </g>
    <g id="ytick_30">
     <g id="line2d_169">
      <path d="M 54.821675 32.491044 
L 559.07 32.491044 
" clip-path="url(#p2dd0320a93)" style="fill: none; stroke: #ffffff; stroke-width: 0.5; stroke-linecap: square"/>
     </g>
     <g id="line2d_170">
      <g>
       <use xlink:href="#mce33bae59e" x="54.821675" y="32.491044" style="fill: #ffffff; stroke: #ffffff; stroke-width: 0.5"/>
      </g>
     </g>
     <g id="line2d_171">
      <g>
       <use xlink:href="#mce33bae59e" x="559.07" y="32.491044" style="fill: #ffffff; stroke: #ffffff; stroke-width: 0.5"/>
      </g>
     </g>
    </g>
    <g id="ytick_31">
     <g id="line2d_172">
      <path d="M 54.821675 16.463384 
L 559.07 16.463384 
" clip-path="url(#p2dd0320a93)" style="fill: none; stroke: #ffffff; stroke-width: 0.5; stroke-linecap: square"/>
     </g>
     <g id="line2d_173">
      <g>
       <use xlink:href="#mce33bae59e" x="54.821675" y="16.463384" style="fill: #ffffff; stroke: #ffffff; stroke-width: 0.5"/>
      </g>
     </g>
     <g id="line2d_174">
      <g>
       <use xlink:href="#mce33bae59e" x="559.07" y="16.463384" style="fill: #ffffff; stroke: #ffffff; stroke-width: 0.5"/>
      </g>
     </g>
    </g>
    <g id="text_13">
     <!-- $y$ -->
     <g style="fill: #ffffff" transform="translate(25.214654 261.335433) rotate(-90) scale(0.32 -0.32)">
      <defs>
       <path id="NimbusRomNo9L-ReguItal-79" d="M 96 2553 
C 179 2572 224 2579 294 2579 
C 659 2579 755 2419 1050 1318 
C 1158 902 1312 153 1312 44 
C 1312 -58 1274 -161 1178 -276 
C 979 -538 851 -705 781 -782 
C 646 -922 570 -974 486 -974 
C 448 -974 403 -954 333 -903 
C 237 -826 166 -794 96 -794 
C -45 -794 -154 -903 -154 -1044 
C -154 -1204 -13 -1326 173 -1326 
C 582 -1326 1421 -365 2112 902 
C 2547 1689 2726 2150 2726 2463 
C 2726 2655 2566 2816 2374 2816 
C 2227 2816 2125 2719 2125 2579 
C 2125 2483 2176 2412 2304 2329 
C 2426 2259 2470 2201 2470 2111 
C 2470 1855 2234 1356 1690 454 
L 1562 1196 
C 1466 1759 1107 2816 1011 2816 
L 986 2816 
C 979 2809 954 2809 928 2809 
C 870 2803 640 2764 301 2700 
C 269 2694 186 2675 96 2662 
L 96 2553 
z
" transform="scale(0.015625)"/>
      </defs>
      <use xlink:href="#NimbusRomNo9L-ReguItal-79" transform="scale(0.996264)"/>
     </g>
    </g>
   </g>
   <g id="line2d_175">
    <path d="M 144.982962 401.127237 
L 137.633172 394.701705 
L 131.849204 389.391171 
L 125.013136 382.765895 
L 119.475658 377.056697 
L 114.827477 371.966396 
L 110.853787 367.345022 
L 106.375026 361.756552 
L 102.63751 356.692843 
L 99.489159 352.053066 
L 96.817791 347.762872 
L 94.020143 342.805652 
L 91.705882 338.219428 
L 89.777409 333.937773 
L 87.867848 329.129542 
L 86.307244 324.616137 
L 84.829231 319.652753 
L 83.486426 314.301694 
L 82.306285 308.608153 
L 81.296444 302.602959 
L 80.385095 295.747534 
L 79.61142 288.128086 
L 78.955057 279.301976 
L 78.423671 268.899377 
L 78.034285 256.61396 
L 77.799298 241.757812 
L 77.748627 223.786779 
L 77.916024 202.697919 
L 78.328267 178.930894 
L 78.977733 154.337008 
L 79.800762 131.466926 
L 80.738019 111.461318 
L 81.741398 94.663827 
L 82.787867 80.785471 
L 83.849385 69.573402 
L 84.919984 60.539671 
L 86.000209 53.259052 
L 87.054342 47.580513 
L 88.136729 42.935602 
L 89.164739 39.431965 
L 90.219684 36.590018 
L 91.284308 34.358917 
L 92.332488 32.677596 
L 93.327732 31.473731 
L 94.342432 30.57476 
L 95.362089 29.951346 
L 96.366483 29.567685 
L 97.500072 29.364574 
L 98.794375 29.379313 
L 100.063979 29.602878 
L 101.520212 30.065428 
L 103.214059 30.824224 
L 105.217562 31.958803 
L 107.63603 33.583397 
L 110.629864 35.868857 
L 114.456083 39.08385 
L 119.553823 43.678553 
L 126.738807 50.472427 
L 140.127864 63.504511 
L 172.201189 94.858405 
L 196.107422 117.95688 
L 220.080193 140.900113 
L 254.853398 173.906677 
L 377.188423 289.333055 
L 417.247035 327.567264 
L 455.19376 364.534018 
L 486.497152 396.242989 
L 508.927016 420.611748 
L 523.158075 438.049605 
L 531.220195 450.176566 
L 535.072568 458.603867 
L 536.149622 464.527892 
L 535.40555 468.753077 
L 533.458589 471.806181 
L 530.710113 474.033244 
L 527.424142 475.665044 
L 523.777294 476.858503 
L 519.889775 477.722526 
L 515.844747 478.334223 
L 511.700606 478.749246 
L 507.498888 479.008487 
L 499.03403 479.174479 
L 490.604216 478.999812 
L 482.291999 478.58594 
L 474.141632 477.997335 
L 462.266114 476.876414 
L 450.834199 475.548024 
L 439.846785 474.068131 
L 425.865302 471.919093 
L 412.605363 469.616451 
L 400.016147 467.193182 
L 388.047333 464.670516 
L 376.651443 462.062608 
L 365.784631 459.379146 
L 355.406791 456.626877 
L 343.066763 453.096878 
L 331.369668 449.472995 
L 320.258338 445.759243 
L 309.681773 441.958063 
L 299.594335 438.070796 
L 289.955065 434.098 
L 280.727095 430.039676 
L 271.877163 425.895436 
L 263.37521 421.664643 
L 255.194052 417.346528 
L 247.309111 412.940306 
L 239.698211 408.445281 
L 232.341414 403.860965 
L 225.220908 399.187201 
L 218.320932 394.424296 
L 211.627729 389.573163 
L 203.852396 383.637766 
L 196.341431 377.582454 
L 189.082451 371.414202 
L 182.067256 365.142646 
L 175.291789 358.780382 
L 168.75599 352.343132 
L 162.463483 345.849748 
L 156.421064 339.321991 
L 150.637972 332.784065 
L 144.233154 325.178286 
L 138.213531 317.636409 
L 132.594934 310.200014 
L 127.389098 302.907494 
L 122.601811 295.791992 
L 118.231809 288.879897 
L 114.270518 282.190071 
L 110.702572 275.733813 
L 107.506945 269.515454 
L 104.658424 263.533386 
L 101.792223 256.977831 
L 99.299727 250.70785 
L 97.138042 244.705164 
L 95.050875 238.246732 
L 93.277596 232.072406 
L 91.618237 225.511521 
L 90.107195 218.618292 
L 88.764643 211.438299 
L 87.598519 204.008691 
L 86.545446 195.825511 
L 85.643224 186.984091 
L 84.910811 177.567197 
L 84.332529 167.185848 
L 83.933448 155.970533 
L 83.72247 143.627053 
L 83.724233 130.730189 
L 83.946587 117.397825 
L 84.379202 104.459389 
L 85.006795 92.272574 
L 85.76214 81.762362 
L 86.620472 72.782172 
L 87.563496 65.209869 
L 88.527785 59.188209 
L 89.520994 54.321775 
L 90.510992 50.501876 
L 91.527738 47.417251 
L 92.54806 45.002042 
L 93.539707 43.181841 
L 94.569964 41.73938 
L 95.62867 40.647704 
L 96.700448 39.873995 
L 97.763544 39.378481 
L 98.971839 39.086084 
L 100.150607 39.029408 
L 101.493992 39.189303 
L 103.044078 39.613522 
L 104.859177 40.367148 
L 107.022552 41.541538 
L 109.657443 43.269545 
L 112.954423 45.752898 
L 117.224642 49.314798 
L 123.012549 54.5098 
L 131.361546 62.379233 
L 144.535079 75.134671 
L 189.07933 118.397484 
L 222.147457 150.092838 
L 256.26777 182.511523 
L 372.646785 292.603586 
L 410.023762 328.399751 
L 445.578846 363.135541 
L 475.425979 393.388223 
L 497.453032 417.199323 
L 511.956865 434.671384 
L 520.555514 447.077202 
L 524.979641 455.830987 
L 526.577396 462.052015 
L 526.283238 466.524783 
L 524.719764 469.777413 
L 522.299134 472.163435 
L 519.296311 473.921722 
L 515.89719 475.216209 
L 512.229352 476.161416 
L 508.381669 476.838814 
L 504.416919 477.307399 
L 500.380005 477.610618 
L 492.210784 477.843206 
L 484.042657 477.715111 
L 475.967267 477.334438 
L 468.034737 476.769839 
L 456.458653 475.673356 
L 445.300734 474.360297 
L 434.567282 472.889914 
L 420.899305 470.747842 
L 407.929293 468.448165 
L 395.610324 466.025552 
L 383.8949 463.50229 
L 372.737693 460.893236 
L 362.096558 458.20856 
L 351.932781 455.455365 
L 339.845755 451.92501 
L 328.387232 448.302032 
L 317.501649 444.590757 
L 307.139374 440.793887 
L 297.255959 436.912981 
L 287.811485 432.948793 
L 278.770005 428.901498 
L 270.099074 424.770867 
L 261.76936 420.556406 
L 253.754325 416.257477 
L 246.02996 411.8734 
L 238.574586 407.403565 
L 231.368687 402.847539 
L 224.394801 398.205182 
L 217.637433 393.476771 
L 209.795414 387.690296 
L 202.22588 381.783896 
L 194.912907 375.762139 
L 187.844511 369.63175 
L 181.012662 363.401953 
L 174.413231 357.08473 
L 168.045845 350.69498 
L 161.913597 344.250517 
L 156.022567 337.771876 
L 150.381154 331.281881 
L 144.128181 323.728579 
L 138.244691 316.233289 
L 132.745525 308.835505 
L 127.641902 301.571942 
L 122.939688 294.474604 
L 118.6383 287.56935 
L 114.730385 280.875097 
L 111.202213 274.403708 
L 108.034638 268.160452 
L 105.204405 262.144898 
L 102.349595 255.542196 
L 99.86082 249.217418 
L 97.697403 243.154044 
L 95.604005 236.622198 
L 93.821848 230.370754 
L 92.151245 223.721569 
L 90.627661 216.729726 
L 89.272434 209.441977 
L 88.094592 201.896815 
L 87.031091 193.583122 
L 86.121157 184.598595 
L 85.385005 175.028784 
L 84.80822 164.480527 
L 84.417631 153.08968 
L 84.227614 140.983374 
L 84.24836 128.285835 
L 84.493727 115.126619 
L 84.95689 102.358883 
L 85.603703 90.687538 
L 86.374324 80.682061 
L 87.242614 72.19604 
L 88.187295 65.104411 
L 89.136794 59.547094 
L 90.153292 54.882537 
L 91.158492 51.268566 
L 92.182044 48.385706 
L 93.195954 46.16172 
L 94.266275 44.362713 
L 95.268218 43.094444 
L 96.277841 42.150502 
L 97.274322 41.492129 
L 98.400598 41.019393 
L 99.492631 40.789594 
L 100.728814 40.753442 
L 102.143859 40.95073 
L 103.785059 41.434805 
L 105.718611 42.2791 
L 108.040182 43.587922 
L 110.893449 45.51516 
L 113.836701 47.761343 
L 117.509778 50.812677 
L 122.244035 55.006264 
L 128.60714 60.909985 
L 139.944215 71.775 
L 200.101641 130.026563 
L 240.376605 168.455993 
L 282.416879 208.25892 
L 341.731525 264.301239 
L 377.382065 298.15431 
L 414.393948 333.688593 
L 449.033552 367.676826 
L 477.635467 396.87701 
L 498.458122 419.647105 
L 512.031193 436.295038 
L 519.997714 448.122544 
L 524.018856 456.489823 
L 525.367338 462.454711 
L 524.92226 466.755902 
L 523.2702 469.891426 
L 520.800738 472.195786 
L 517.774742 473.89588 
L 514.369226 475.148022 
L 510.706089 476.061806 
L 506.870513 476.715458 
L 502.922834 477.165795 
L 498.906317 477.454778 
L 490.783757 477.667085 
L 482.66608 477.525718 
L 474.642272 477.136035 
L 466.761117 476.565155 
L 455.260314 475.462507 
L 444.174738 474.145767 
L 433.510429 472.673306 
L 419.929742 470.530152 
L 407.041789 468.230776 
L 394.800134 465.809525 
L 383.15776 463.288515 
L 372.069782 460.682509 
L 361.494452 458.001632 
L 351.393408 455.252961 
L 339.380948 451.729277 
L 327.993209 448.11411 
L 317.175089 444.411813 
L 306.877359 440.625123 
L 297.055924 436.755641 
L 287.671175 432.804165 
L 278.687436 428.770913 
L 270.072501 424.655699 
L 261.797244 420.458066 
L 253.835303 416.177401 
L 246.162815 411.813044 
L 238.758214 407.364387 
L 231.602067 402.83098 
L 224.676954 398.212638 
L 217.967386 393.509567 
L 210.181386 387.755089 
L 202.666256 381.882162 
L 195.405806 375.894974 
L 188.387682 369.799763 
L 181.603367 363.605136 
L 175.048148 357.322346 
L 168.720989 350.965452 
L 162.624274 344.551356 
L 156.763379 338.099638 
L 150.234161 330.554395 
L 144.051448 323.025448 
L 138.231016 315.551913 
L 132.78731 308.172372 
L 127.731354 300.922792 
L 123.069057 293.834663 
L 118.800141 286.933584 
L 114.917789 280.238473 
L 111.408982 273.761412 
L 108.255401 267.50806 
L 105.057428 260.635173 
L 102.256522 254.047395 
L 99.813048 247.732165 
L 97.687442 241.673396 
L 95.628998 235.141494 
L 93.697118 228.205978 
L 92.080861 221.575834 
L 90.605666 214.596874 
L 89.292581 207.315338 
L 88.150909 199.769674 
L 87.120225 191.448397 
L 86.239461 182.448874 
L 85.529305 172.857106 
L 84.977355 162.279685 
L 84.611394 150.854134 
L 84.447401 138.710463 
L 84.497795 125.977173 
L 84.768214 113.166817 
L 85.252961 100.720388 
L 85.896298 89.686603 
L 86.677686 79.953429 
L 87.55324 71.730831 
L 88.500127 64.892858 
L 89.493708 59.322493 
L 90.502978 54.90377 
L 91.486936 51.516331 
L 92.473893 48.836785 
L 93.525519 46.614272 
L 94.532094 44.981331 
L 95.565197 43.714973 
L 96.609397 42.781746 
L 97.643216 42.141738 
L 98.815639 41.698236 
L 99.956523 41.504685 
L 101.253021 41.518275 
L 102.743831 41.783112 
L 104.482158 42.358857 
L 106.543279 43.328505 
L 108.58545 44.522025 
L 111.02021 46.170045 
L 113.984006 48.415851 
L 117.685712 51.475343 
L 122.461715 55.690591 
L 128.8894 61.638932 
L 140.364838 72.617241 
L 213.079213 142.839635 
L 242.923532 171.25392 
L 313.947855 238.413784 
L 346.388548 269.089709 
L 382.289377 303.219691 
L 419.085441 338.629667 
L 452.968538 372.018623 
L 480.472672 400.306995 
L 500.199869 422.145512 
L 512.900723 438.036295 
L 520.253118 449.317554 
L 523.865298 457.309175 
L 524.946994 463.018062 
L 524.328993 467.143163 
L 522.565336 470.155477 
L 520.024576 472.371904 
L 516.954093 474.007963 
L 513.522179 475.212554 
L 509.845022 476.090376 
L 506.004002 476.716363 
L 502.056885 477.14508 
L 498.045173 477.416925 
L 489.940396 477.604283 
L 481.846776 477.446107 
L 473.850108 477.044678 
L 465.997453 476.465347 
L 454.539981 475.353995 
L 443.497083 474.031595 
L 432.874102 472.555416 
L 419.345995 470.409284 
L 406.507654 468.108464 
L 394.312776 465.686853 
L 382.714556 463.166312 
L 371.668344 460.561451 
L 361.13262 457.882304 
L 351.069232 455.135894 
L 339.101394 451.615732 
L 327.755866 448.004831 
L 316.977839 444.30753 
L 306.718342 440.52657 
L 296.933505 436.663561 
L 287.583917 432.719315 
L 278.634075 428.69407 
L 270.051927 424.587656 
L 261.808478 420.399633 
L 253.877479 416.129402 
L 246.235161 411.77631 
L 238.860034 407.339748 
L 231.732718 402.819255 
L 224.835829 398.214624 
L 218.153887 393.526016 
L 210.400227 387.789803 
L 202.916479 381.935985 
L 195.686316 375.968541 
L 188.697181 369.893435 
L 181.940295 363.718935 
L 175.410623 357.45588 
L 169.10676 351.117864 
L 163.030695 344.721269 
L 157.187405 338.285139 
L 150.674392 330.754953 
L 144.502773 323.236966 
L 138.68805 315.769677 
L 133.244636 308.39127 
L 128.183794 301.137575 
L 123.511925 294.040211 
L 119.22945 287.125149 
L 115.330382 280.411859 
L 111.80259 273.913096 
L 108.628611 267.635238 
L 105.40659 260.731808 
L 102.581768 254.111694 
L 100.115238 247.763134 
L 97.967941 241.670677 
L 95.887098 235.10103 
L 94.11318 228.807628 
L 92.448249 222.108256 
L 90.928213 215.058238 
L 89.575071 207.704864 
L 88.39861 200.087384 
L 87.336651 191.690008 
L 86.429289 182.61168 
L 85.697694 172.93964 
L 85.149361 162.751051 
L 84.772574 151.664921 
L 84.585199 139.386884 
L 84.619873 126.521296 
L 84.881797 113.585953 
L 85.347453 101.384452 
L 85.988705 90.236125 
L 86.772755 80.407198 
L 87.654966 72.10862 
L 88.568374 65.489945 
L 89.566844 59.857217 
L 90.582878 55.390346 
L 91.574952 51.967351 
L 92.571454 49.261196 
L 93.634743 47.018538 
L 94.65391 45.372984 
L 95.701393 44.099477 
L 96.761647 43.164223 
L 97.812892 42.52675 
L 98.826399 42.139447 
L 99.966605 41.925958 
L 101.262305 41.919632 
L 102.752129 42.164503 
L 104.489181 42.720124 
L 106.17885 43.479311 
L 108.15285 44.577512 
L 110.497333 46.106891 
L 113.337878 48.199751 
L 116.864935 51.053612 
L 121.381694 54.977852 
L 127.400978 60.487089 
L 137.983612 70.545983 
L 160.037527 91.927211 
L 191.639674 122.480797 
L 226.04114 155.393335 
L 261.551096 189.092596 
L 380.500434 301.696487 
L 417.271113 337.055969 
L 451.319687 370.560401 
L 479.133034 399.09314 
L 499.202962 421.211745 
L 512.196868 437.345986 
L 519.768896 448.811789 
L 523.536824 456.935561 
L 524.727381 462.737697 
L 524.185872 466.928952 
L 522.476726 469.98887 
L 519.975513 472.240163 
L 516.934272 473.902237 
L 513.524406 475.126603 
L 509.864197 476.019723 
L 506.036454 476.657745 
L 502.099934 477.096083 
L 498.096835 477.375733 
L 490.005185 477.574868 
L 481.921173 477.425074 
L 473.931993 477.029892 
L 466.08551 476.455416 
L 454.635818 475.34968 
L 443.599683 474.031661 
L 432.982916 472.559121 
L 419.462658 470.417175 
L 406.631937 468.120132 
L 394.444599 465.702117 
L 382.853917 463.185128 
L 371.81528 460.583867 
L 361.287189 457.908429 
L 351.231505 455.165883 
L 339.273408 451.65082 
L 327.937754 448.045367 
L 317.169743 444.353907 
L 306.920413 440.579214 
L 297.145901 436.722934 
L 287.806804 432.785904 
L 278.867627 428.768386 
L 270.296321 424.670232 
L 262.063892 420.491016 
L 254.14409 416.230153 
L 246.513138 411.886991 
L 239.149529 407.460921 
L 232.033863 402.951467 
L 225.148716 398.358396 
L 218.478564 393.681831 
L 210.739024 387.960626 
L 203.269228 382.122292 
L 196.052669 376.170631 
L 189.076568 370.111374 
L 182.331879 363.952505 
L 175.813268 357.704534 
L 169.519001 351.380675 
L 163.450727 344.996908 
L 157.613094 338.571857 
L 151.103592 331.051854 
L 144.931821 323.540559 
L 139.113087 316.076042 
L 133.661819 308.696241 
L 128.589505 301.436955 
L 123.902977 294.329979 
L 119.60324 287.401645 
L 115.684985 280.671925 
L 112.136784 274.154154 
L 108.94185 267.85531 
L 105.695965 260.926213 
L 102.848047 254.279363 
L 100.359708 247.903624 
L 98.192215 241.784025 
L 96.090792 235.184316 
L 94.298617 228.861658 
L 92.616037 222.130942 
L 91.079548 215.047983 
L 89.711588 207.660516 
L 89.510443 206.460671 
L 89.510443 206.460671 
" clip-path="url(#p2dd0320a93)" style="fill: none; stroke-dasharray: 7.4,3.2; stroke-dashoffset: 0; stroke: #1f77b4; stroke-width: 2"/>
   </g>
   <g id="patch_3">
    <path d="M 54.821675 501.666121 
L 54.821675 6.85 
" style="fill: none; stroke: #ffffff; stroke-width: 0.5; stroke-linejoin: miter; stroke-linecap: square"/>
   </g>
   <g id="patch_4">
    <path d="M 559.07 501.666121 
L 559.07 6.85 
" style="fill: none; stroke: #ffffff; stroke-width: 0.5; stroke-linejoin: miter; stroke-linecap: square"/>
   </g>
   <g id="patch_5">
    <path d="M 54.821675 501.666121 
L 559.07 501.666121 
" style="fill: none; stroke: #ffffff; stroke-width: 0.5; stroke-linejoin: miter; stroke-linecap: square"/>
   </g>
   <g id="patch_6">
    <path d="M 54.821675 6.85 
L 559.07 6.85 
" style="fill: none; stroke: #ffffff; stroke-width: 0.5; stroke-linejoin: miter; stroke-linecap: square"/>
   </g>
  </g>
 </g>
 <defs>
  <clipPath id="p2dd0320a93">
   <rect x="54.821675" y="6.85" width="504.248325" height="494.816121"/>
  </clipPath>
 </defs>
</svg>
