<?xml version="1.0" encoding="utf-8" standalone="no"?>
<!DOCTYPE svg PUBLIC "-//W3C//DTD SVG 1.1//EN"
  "http://www.w3.org/Graphics/SVG/1.1/DTD/svg11.dtd">
<svg xmlns:xlink="http://www.w3.org/1999/xlink" width="565.92pt" height="566.011504pt" viewBox="0 0 565.92 566.011504" xmlns="http://www.w3.org/2000/svg" version="1.1">
 <metadata>
  <rdf:RDF xmlns:dc="http://purl.org/dc/elements/1.1/" xmlns:cc="http://creativecommons.org/ns#" xmlns:rdf="http://www.w3.org/1999/02/22-rdf-syntax-ns#">
   <cc:Work>
    <dc:type rdf:resource="http://purl.org/dc/dcmitype/StillImage"/>
    <dc:date>2023-12-29T14:18:05.760036</dc:date>
    <dc:format>image/svg+xml</dc:format>
    <dc:creator>
     <cc:Agent>
      <dc:title>Matplotlib v3.8.2, https://matplotlib.org/</dc:title>
     </cc:Agent>
    </dc:creator>
   </cc:Work>
  </rdf:RDF>
 </metadata>
 <defs>
  <style type="text/css">*{stroke-linejoin: round; stroke-linecap: butt}</style>
 </defs>
 <g id="figure_1">
  <g id="patch_1">
   <path d="M 0 566.011504 
L 565.92 566.011504 
L 565.92 0 
L 0 0 
z
" style="fill: #ffffff"/>
  </g>
  <g id="axes_1">
   <g id="patch_2">
    <path d="M 22.305168 501.757625 
L 559.07 501.757625 
L 559.07 61.287756 
L 22.305168 61.287756 
z
" style="fill: #ffffff"/>
   </g>
   <g id="matplotlib.axis_1">
    <g id="xtick_1">
     <g id="line2d_1">
      <path d="M 46.70357 501.757625 
L 46.70357 61.287756 
" clip-path="url(#p6805bd30d7)" style="fill: none; stroke: #b0b0b0; stroke-width: 0.5; stroke-linecap: square"/>
     </g>
     <g id="line2d_2">
      <defs>
       <path id="m9e083f6a73" d="M 0 3.25 
L 0 -3.25 
" style="stroke: #000000; stroke-width: 1.5"/>
      </defs>
      <g>
       <use xlink:href="#m9e083f6a73" x="46.70357" y="501.757625" style="stroke: #000000; stroke-width: 1.5"/>
      </g>
     </g>
     <g id="line2d_3">
      <g>
       <use xlink:href="#m9e083f6a73" x="46.70357" y="61.287756" style="stroke: #000000; stroke-width: 1.5"/>
      </g>
     </g>
     <g id="text_1">
      <!-- $\mathdefault{0}$ -->
      <g transform="translate(40.725986 524.718608) scale(0.24 -0.24)">
       <defs>
        <path id="NimbusRomNo9L-Regu-30" d="M 1626 4352 
C 1274 4352 1005 4243 768 4019 
C 397 3661 154 2924 154 2176 
C 154 1478 365 729 666 371 
C 902 89 1229 -64 1600 -64 
C 1926 -64 2202 44 2432 268 
C 2803 620 3046 1363 3046 2137 
C 3046 3449 2464 4352 1626 4352 
z
M 1606 4185 
C 2144 4185 2432 3462 2432 2124 
C 2432 787 2150 102 1600 102 
C 1050 102 768 787 768 2118 
C 768 3475 1056 4185 1606 4185 
z
" transform="scale(0.015625)"/>
       </defs>
       <use xlink:href="#NimbusRomNo9L-Regu-30" transform="scale(0.996264)"/>
      </g>
     </g>
    </g>
    <g id="xtick_2">
     <g id="line2d_4">
      <path d="M 144.322696 501.757625 
L 144.322696 61.287756 
" clip-path="url(#p6805bd30d7)" style="fill: none; stroke: #b0b0b0; stroke-width: 0.5; stroke-linecap: square"/>
     </g>
     <g id="line2d_5">
      <g>
       <use xlink:href="#m9e083f6a73" x="144.322696" y="501.757625" style="stroke: #000000; stroke-width: 1.5"/>
      </g>
     </g>
     <g id="line2d_6">
      <g>
       <use xlink:href="#m9e083f6a73" x="144.322696" y="61.287756" style="stroke: #000000; stroke-width: 1.5"/>
      </g>
     </g>
     <g id="text_2">
      <!-- $\mathdefault{10}$ -->
      <g transform="translate(132.367528 524.718608) scale(0.24 -0.24)">
       <defs>
        <path id="NimbusRomNo9L-Regu-31" d="M 1862 4352 
L 710 3776 
L 710 3686 
C 787 3718 858 3743 883 3756 
C 998 3801 1107 3826 1171 3826 
C 1306 3826 1363 3731 1363 3525 
L 1363 599 
C 1363 386 1312 238 1210 179 
C 1114 121 1024 102 755 96 
L 755 0 
L 2522 0 
L 2522 96 
C 2016 102 1914 167 1914 477 
L 1914 4339 
L 1862 4352 
z
" transform="scale(0.015625)"/>
       </defs>
       <use xlink:href="#NimbusRomNo9L-Regu-31" transform="scale(0.996264)"/>
       <use xlink:href="#NimbusRomNo9L-Regu-30" transform="translate(49.8132 0) scale(0.996264)"/>
      </g>
     </g>
    </g>
    <g id="xtick_3">
     <g id="line2d_7">
      <path d="M 241.941822 501.757625 
L 241.941822 61.287756 
" clip-path="url(#p6805bd30d7)" style="fill: none; stroke: #b0b0b0; stroke-width: 0.5; stroke-linecap: square"/>
     </g>
     <g id="line2d_8">
      <g>
       <use xlink:href="#m9e083f6a73" x="241.941822" y="501.757625" style="stroke: #000000; stroke-width: 1.5"/>
      </g>
     </g>
     <g id="line2d_9">
      <g>
       <use xlink:href="#m9e083f6a73" x="241.941822" y="61.287756" style="stroke: #000000; stroke-width: 1.5"/>
      </g>
     </g>
     <g id="text_3">
      <!-- $\mathdefault{20}$ -->
      <g transform="translate(229.986654 524.718608) scale(0.24 -0.24)">
       <defs>
        <path id="NimbusRomNo9L-Regu-32" d="M 3040 879 
L 2957 912 
C 2720 544 2637 486 2349 486 
L 819 486 
L 1894 1621 
C 2464 2221 2714 2711 2714 3214 
C 2714 3858 2195 4352 1530 4352 
C 1178 4352 845 4211 608 3955 
C 403 3736 307 3530 198 3072 
L 333 3039 
C 589 3671 819 3878 1261 3878 
C 1798 3878 2163 3510 2163 2969 
C 2163 2466 1869 1866 1331 1292 
L 192 76 
L 192 0 
L 2688 0 
L 3040 879 
z
" transform="scale(0.015625)"/>
       </defs>
       <use xlink:href="#NimbusRomNo9L-Regu-32" transform="scale(0.996264)"/>
       <use xlink:href="#NimbusRomNo9L-Regu-30" transform="translate(49.8132 0) scale(0.996264)"/>
      </g>
     </g>
    </g>
    <g id="xtick_4">
     <g id="line2d_10">
      <path d="M 339.560948 501.757625 
L 339.560948 61.287756 
" clip-path="url(#p6805bd30d7)" style="fill: none; stroke: #b0b0b0; stroke-width: 0.5; stroke-linecap: square"/>
     </g>
     <g id="line2d_11">
      <g>
       <use xlink:href="#m9e083f6a73" x="339.560948" y="501.757625" style="stroke: #000000; stroke-width: 1.5"/>
      </g>
     </g>
     <g id="line2d_12">
      <g>
       <use xlink:href="#m9e083f6a73" x="339.560948" y="61.287756" style="stroke: #000000; stroke-width: 1.5"/>
      </g>
     </g>
     <g id="text_4">
      <!-- $\mathdefault{30}$ -->
      <g transform="translate(327.60578 524.718608) scale(0.24 -0.24)">
       <defs>
        <path id="NimbusRomNo9L-Regu-33" d="M 979 2137 
C 1357 2137 1504 2124 1658 2067 
C 2054 1926 2304 1561 2304 1120 
C 2304 582 1939 166 1466 166 
C 1293 166 1165 211 928 364 
C 736 480 627 524 518 524 
C 371 524 275 435 275 300 
C 275 76 550 -64 998 -64 
C 1491 -64 1997 102 2298 364 
C 2598 627 2765 998 2765 1427 
C 2765 1753 2662 2054 2477 2252 
C 2349 2393 2227 2470 1946 2592 
C 2387 2892 2547 3129 2547 3475 
C 2547 3993 2138 4352 1549 4352 
C 1229 4352 947 4243 717 4038 
C 525 3865 429 3699 288 3315 
L 384 3289 
C 646 3757 934 3967 1338 3967 
C 1754 3967 2042 3686 2042 3283 
C 2042 3052 1946 2822 1786 2662 
C 1594 2470 1414 2374 979 2220 
L 979 2137 
z
" transform="scale(0.015625)"/>
       </defs>
       <use xlink:href="#NimbusRomNo9L-Regu-33" transform="scale(0.996264)"/>
       <use xlink:href="#NimbusRomNo9L-Regu-30" transform="translate(49.8132 0) scale(0.996264)"/>
      </g>
     </g>
    </g>
    <g id="xtick_5">
     <g id="line2d_13">
      <path d="M 437.180074 501.757625 
L 437.180074 61.287756 
" clip-path="url(#p6805bd30d7)" style="fill: none; stroke: #b0b0b0; stroke-width: 0.5; stroke-linecap: square"/>
     </g>
     <g id="line2d_14">
      <g>
       <use xlink:href="#m9e083f6a73" x="437.180074" y="501.757625" style="stroke: #000000; stroke-width: 1.5"/>
      </g>
     </g>
     <g id="line2d_15">
      <g>
       <use xlink:href="#m9e083f6a73" x="437.180074" y="61.287756" style="stroke: #000000; stroke-width: 1.5"/>
      </g>
     </g>
     <g id="text_5">
      <!-- $\mathdefault{40}$ -->
      <g transform="translate(425.224906 524.718608) scale(0.24 -0.24)">
       <defs>
        <path id="NimbusRomNo9L-Regu-34" d="M 3021 1497 
L 2368 1497 
L 2368 4352 
L 2086 4352 
L 77 1497 
L 77 1088 
L 1875 1088 
L 1875 0 
L 2368 0 
L 2368 1088 
L 3021 1088 
L 3021 1497 
z
M 1869 1497 
L 333 1497 
L 1869 3697 
L 1869 1497 
z
" transform="scale(0.015625)"/>
       </defs>
       <use xlink:href="#NimbusRomNo9L-Regu-34" transform="scale(0.996264)"/>
       <use xlink:href="#NimbusRomNo9L-Regu-30" transform="translate(49.8132 0) scale(0.996264)"/>
      </g>
     </g>
    </g>
    <g id="xtick_6">
     <g id="line2d_16">
      <path d="M 534.7992 501.757625 
L 534.7992 61.287756 
" clip-path="url(#p6805bd30d7)" style="fill: none; stroke: #b0b0b0; stroke-width: 0.5; stroke-linecap: square"/>
     </g>
     <g id="line2d_17">
      <g>
       <use xlink:href="#m9e083f6a73" x="534.7992" y="501.757625" style="stroke: #000000; stroke-width: 1.5"/>
      </g>
     </g>
     <g id="line2d_18">
      <g>
       <use xlink:href="#m9e083f6a73" x="534.7992" y="61.287756" style="stroke: #000000; stroke-width: 1.5"/>
      </g>
     </g>
     <g id="text_6">
      <!-- $\mathdefault{50}$ -->
      <g transform="translate(522.844032 524.718608) scale(0.24 -0.24)">
       <defs>
        <path id="NimbusRomNo9L-Regu-35" d="M 1158 3718 
L 2413 3718 
C 2515 3718 2541 3731 2560 3775 
L 2803 4345 
L 2746 4390 
C 2650 4256 2586 4224 2451 4224 
L 1114 4224 
L 416 2717 
C 410 2705 410 2698 410 2686 
C 410 2654 435 2635 486 2635 
C 691 2635 947 2591 1210 2508 
C 1946 2274 2285 1882 2285 1255 
C 2285 647 1894 172 1395 172 
C 1267 172 1158 217 966 356 
C 762 502 614 565 480 565 
C 294 565 205 489 205 331 
C 205 89 506 -64 986 -64 
C 1523 -64 1984 108 2304 432 
C 2598 717 2733 1078 2733 1559 
C 2733 2015 2611 2306 2291 2622 
C 2010 2901 1645 3047 890 3180 
L 1158 3718 
z
" transform="scale(0.015625)"/>
       </defs>
       <use xlink:href="#NimbusRomNo9L-Regu-35" transform="scale(0.996264)"/>
       <use xlink:href="#NimbusRomNo9L-Regu-30" transform="translate(49.8132 0) scale(0.996264)"/>
      </g>
     </g>
    </g>
    <g id="xtick_7">
     <g id="line2d_19">
      <path d="M 27.179744 501.757625 
L 27.179744 61.287756 
" clip-path="url(#p6805bd30d7)" style="fill: none; stroke: #b0b0b0; stroke-width: 0.5; stroke-linecap: square"/>
     </g>
     <g id="line2d_20">
      <defs>
       <path id="m696dc5d3b4" d="M 0 2 
L 0 -2 
" style="stroke: #000000; stroke-width: 0.5"/>
      </defs>
      <g>
       <use xlink:href="#m696dc5d3b4" x="27.179744" y="501.757625" style="stroke: #000000; stroke-width: 0.5"/>
      </g>
     </g>
     <g id="line2d_21">
      <g>
       <use xlink:href="#m696dc5d3b4" x="27.179744" y="61.287756" style="stroke: #000000; stroke-width: 0.5"/>
      </g>
     </g>
    </g>
    <g id="xtick_8">
     <g id="line2d_22">
      <path d="M 66.227395 501.757625 
L 66.227395 61.287756 
" clip-path="url(#p6805bd30d7)" style="fill: none; stroke: #b0b0b0; stroke-width: 0.5; stroke-linecap: square"/>
     </g>
     <g id="line2d_23">
      <g>
       <use xlink:href="#m696dc5d3b4" x="66.227395" y="501.757625" style="stroke: #000000; stroke-width: 0.5"/>
      </g>
     </g>
     <g id="line2d_24">
      <g>
       <use xlink:href="#m696dc5d3b4" x="66.227395" y="61.287756" style="stroke: #000000; stroke-width: 0.5"/>
      </g>
     </g>
    </g>
    <g id="xtick_9">
     <g id="line2d_25">
      <path d="M 85.75122 501.757625 
L 85.75122 61.287756 
" clip-path="url(#p6805bd30d7)" style="fill: none; stroke: #b0b0b0; stroke-width: 0.5; stroke-linecap: square"/>
     </g>
     <g id="line2d_26">
      <g>
       <use xlink:href="#m696dc5d3b4" x="85.75122" y="501.757625" style="stroke: #000000; stroke-width: 0.5"/>
      </g>
     </g>
     <g id="line2d_27">
      <g>
       <use xlink:href="#m696dc5d3b4" x="85.75122" y="61.287756" style="stroke: #000000; stroke-width: 0.5"/>
      </g>
     </g>
    </g>
    <g id="xtick_10">
     <g id="line2d_28">
      <path d="M 105.275045 501.757625 
L 105.275045 61.287756 
" clip-path="url(#p6805bd30d7)" style="fill: none; stroke: #b0b0b0; stroke-width: 0.5; stroke-linecap: square"/>
     </g>
     <g id="line2d_29">
      <g>
       <use xlink:href="#m696dc5d3b4" x="105.275045" y="501.757625" style="stroke: #000000; stroke-width: 0.5"/>
      </g>
     </g>
     <g id="line2d_30">
      <g>
       <use xlink:href="#m696dc5d3b4" x="105.275045" y="61.287756" style="stroke: #000000; stroke-width: 0.5"/>
      </g>
     </g>
    </g>
    <g id="xtick_11">
     <g id="line2d_31">
      <path d="M 124.79887 501.757625 
L 124.79887 61.287756 
" clip-path="url(#p6805bd30d7)" style="fill: none; stroke: #b0b0b0; stroke-width: 0.5; stroke-linecap: square"/>
     </g>
     <g id="line2d_32">
      <g>
       <use xlink:href="#m696dc5d3b4" x="124.79887" y="501.757625" style="stroke: #000000; stroke-width: 0.5"/>
      </g>
     </g>
     <g id="line2d_33">
      <g>
       <use xlink:href="#m696dc5d3b4" x="124.79887" y="61.287756" style="stroke: #000000; stroke-width: 0.5"/>
      </g>
     </g>
    </g>
    <g id="xtick_12">
     <g id="line2d_34">
      <path d="M 163.846521 501.757625 
L 163.846521 61.287756 
" clip-path="url(#p6805bd30d7)" style="fill: none; stroke: #b0b0b0; stroke-width: 0.5; stroke-linecap: square"/>
     </g>
     <g id="line2d_35">
      <g>
       <use xlink:href="#m696dc5d3b4" x="163.846521" y="501.757625" style="stroke: #000000; stroke-width: 0.5"/>
      </g>
     </g>
     <g id="line2d_36">
      <g>
       <use xlink:href="#m696dc5d3b4" x="163.846521" y="61.287756" style="stroke: #000000; stroke-width: 0.5"/>
      </g>
     </g>
    </g>
    <g id="xtick_13">
     <g id="line2d_37">
      <path d="M 183.370346 501.757625 
L 183.370346 61.287756 
" clip-path="url(#p6805bd30d7)" style="fill: none; stroke: #b0b0b0; stroke-width: 0.5; stroke-linecap: square"/>
     </g>
     <g id="line2d_38">
      <g>
       <use xlink:href="#m696dc5d3b4" x="183.370346" y="501.757625" style="stroke: #000000; stroke-width: 0.5"/>
      </g>
     </g>
     <g id="line2d_39">
      <g>
       <use xlink:href="#m696dc5d3b4" x="183.370346" y="61.287756" style="stroke: #000000; stroke-width: 0.5"/>
      </g>
     </g>
    </g>
    <g id="xtick_14">
     <g id="line2d_40">
      <path d="M 202.894171 501.757625 
L 202.894171 61.287756 
" clip-path="url(#p6805bd30d7)" style="fill: none; stroke: #b0b0b0; stroke-width: 0.5; stroke-linecap: square"/>
     </g>
     <g id="line2d_41">
      <g>
       <use xlink:href="#m696dc5d3b4" x="202.894171" y="501.757625" style="stroke: #000000; stroke-width: 0.5"/>
      </g>
     </g>
     <g id="line2d_42">
      <g>
       <use xlink:href="#m696dc5d3b4" x="202.894171" y="61.287756" style="stroke: #000000; stroke-width: 0.5"/>
      </g>
     </g>
    </g>
    <g id="xtick_15">
     <g id="line2d_43">
      <path d="M 222.417997 501.757625 
L 222.417997 61.287756 
" clip-path="url(#p6805bd30d7)" style="fill: none; stroke: #b0b0b0; stroke-width: 0.5; stroke-linecap: square"/>
     </g>
     <g id="line2d_44">
      <g>
       <use xlink:href="#m696dc5d3b4" x="222.417997" y="501.757625" style="stroke: #000000; stroke-width: 0.5"/>
      </g>
     </g>
     <g id="line2d_45">
      <g>
       <use xlink:href="#m696dc5d3b4" x="222.417997" y="61.287756" style="stroke: #000000; stroke-width: 0.5"/>
      </g>
     </g>
    </g>
    <g id="xtick_16">
     <g id="line2d_46">
      <path d="M 261.465647 501.757625 
L 261.465647 61.287756 
" clip-path="url(#p6805bd30d7)" style="fill: none; stroke: #b0b0b0; stroke-width: 0.5; stroke-linecap: square"/>
     </g>
     <g id="line2d_47">
      <g>
       <use xlink:href="#m696dc5d3b4" x="261.465647" y="501.757625" style="stroke: #000000; stroke-width: 0.5"/>
      </g>
     </g>
     <g id="line2d_48">
      <g>
       <use xlink:href="#m696dc5d3b4" x="261.465647" y="61.287756" style="stroke: #000000; stroke-width: 0.5"/>
      </g>
     </g>
    </g>
    <g id="xtick_17">
     <g id="line2d_49">
      <path d="M 280.989472 501.757625 
L 280.989472 61.287756 
" clip-path="url(#p6805bd30d7)" style="fill: none; stroke: #b0b0b0; stroke-width: 0.5; stroke-linecap: square"/>
     </g>
     <g id="line2d_50">
      <g>
       <use xlink:href="#m696dc5d3b4" x="280.989472" y="501.757625" style="stroke: #000000; stroke-width: 0.5"/>
      </g>
     </g>
     <g id="line2d_51">
      <g>
       <use xlink:href="#m696dc5d3b4" x="280.989472" y="61.287756" style="stroke: #000000; stroke-width: 0.5"/>
      </g>
     </g>
    </g>
    <g id="xtick_18">
     <g id="line2d_52">
      <path d="M 300.513297 501.757625 
L 300.513297 61.287756 
" clip-path="url(#p6805bd30d7)" style="fill: none; stroke: #b0b0b0; stroke-width: 0.5; stroke-linecap: square"/>
     </g>
     <g id="line2d_53">
      <g>
       <use xlink:href="#m696dc5d3b4" x="300.513297" y="501.757625" style="stroke: #000000; stroke-width: 0.5"/>
      </g>
     </g>
     <g id="line2d_54">
      <g>
       <use xlink:href="#m696dc5d3b4" x="300.513297" y="61.287756" style="stroke: #000000; stroke-width: 0.5"/>
      </g>
     </g>
    </g>
    <g id="xtick_19">
     <g id="line2d_55">
      <path d="M 320.037123 501.757625 
L 320.037123 61.287756 
" clip-path="url(#p6805bd30d7)" style="fill: none; stroke: #b0b0b0; stroke-width: 0.5; stroke-linecap: square"/>
     </g>
     <g id="line2d_56">
      <g>
       <use xlink:href="#m696dc5d3b4" x="320.037123" y="501.757625" style="stroke: #000000; stroke-width: 0.5"/>
      </g>
     </g>
     <g id="line2d_57">
      <g>
       <use xlink:href="#m696dc5d3b4" x="320.037123" y="61.287756" style="stroke: #000000; stroke-width: 0.5"/>
      </g>
     </g>
    </g>
    <g id="xtick_20">
     <g id="line2d_58">
      <path d="M 359.084773 501.757625 
L 359.084773 61.287756 
" clip-path="url(#p6805bd30d7)" style="fill: none; stroke: #b0b0b0; stroke-width: 0.5; stroke-linecap: square"/>
     </g>
     <g id="line2d_59">
      <g>
       <use xlink:href="#m696dc5d3b4" x="359.084773" y="501.757625" style="stroke: #000000; stroke-width: 0.5"/>
      </g>
     </g>
     <g id="line2d_60">
      <g>
       <use xlink:href="#m696dc5d3b4" x="359.084773" y="61.287756" style="stroke: #000000; stroke-width: 0.5"/>
      </g>
     </g>
    </g>
    <g id="xtick_21">
     <g id="line2d_61">
      <path d="M 378.608598 501.757625 
L 378.608598 61.287756 
" clip-path="url(#p6805bd30d7)" style="fill: none; stroke: #b0b0b0; stroke-width: 0.5; stroke-linecap: square"/>
     </g>
     <g id="line2d_62">
      <g>
       <use xlink:href="#m696dc5d3b4" x="378.608598" y="501.757625" style="stroke: #000000; stroke-width: 0.5"/>
      </g>
     </g>
     <g id="line2d_63">
      <g>
       <use xlink:href="#m696dc5d3b4" x="378.608598" y="61.287756" style="stroke: #000000; stroke-width: 0.5"/>
      </g>
     </g>
    </g>
    <g id="xtick_22">
     <g id="line2d_64">
      <path d="M 398.132424 501.757625 
L 398.132424 61.287756 
" clip-path="url(#p6805bd30d7)" style="fill: none; stroke: #b0b0b0; stroke-width: 0.5; stroke-linecap: square"/>
     </g>
     <g id="line2d_65">
      <g>
       <use xlink:href="#m696dc5d3b4" x="398.132424" y="501.757625" style="stroke: #000000; stroke-width: 0.5"/>
      </g>
     </g>
     <g id="line2d_66">
      <g>
       <use xlink:href="#m696dc5d3b4" x="398.132424" y="61.287756" style="stroke: #000000; stroke-width: 0.5"/>
      </g>
     </g>
    </g>
    <g id="xtick_23">
     <g id="line2d_67">
      <path d="M 417.656249 501.757625 
L 417.656249 61.287756 
" clip-path="url(#p6805bd30d7)" style="fill: none; stroke: #b0b0b0; stroke-width: 0.5; stroke-linecap: square"/>
     </g>
     <g id="line2d_68">
      <g>
       <use xlink:href="#m696dc5d3b4" x="417.656249" y="501.757625" style="stroke: #000000; stroke-width: 0.5"/>
      </g>
     </g>
     <g id="line2d_69">
      <g>
       <use xlink:href="#m696dc5d3b4" x="417.656249" y="61.287756" style="stroke: #000000; stroke-width: 0.5"/>
      </g>
     </g>
    </g>
    <g id="xtick_24">
     <g id="line2d_70">
      <path d="M 456.703899 501.757625 
L 456.703899 61.287756 
" clip-path="url(#p6805bd30d7)" style="fill: none; stroke: #b0b0b0; stroke-width: 0.5; stroke-linecap: square"/>
     </g>
     <g id="line2d_71">
      <g>
       <use xlink:href="#m696dc5d3b4" x="456.703899" y="501.757625" style="stroke: #000000; stroke-width: 0.5"/>
      </g>
     </g>
     <g id="line2d_72">
      <g>
       <use xlink:href="#m696dc5d3b4" x="456.703899" y="61.287756" style="stroke: #000000; stroke-width: 0.5"/>
      </g>
     </g>
    </g>
    <g id="xtick_25">
     <g id="line2d_73">
      <path d="M 476.227724 501.757625 
L 476.227724 61.287756 
" clip-path="url(#p6805bd30d7)" style="fill: none; stroke: #b0b0b0; stroke-width: 0.5; stroke-linecap: square"/>
     </g>
     <g id="line2d_74">
      <g>
       <use xlink:href="#m696dc5d3b4" x="476.227724" y="501.757625" style="stroke: #000000; stroke-width: 0.5"/>
      </g>
     </g>
     <g id="line2d_75">
      <g>
       <use xlink:href="#m696dc5d3b4" x="476.227724" y="61.287756" style="stroke: #000000; stroke-width: 0.5"/>
      </g>
     </g>
    </g>
    <g id="xtick_26">
     <g id="line2d_76">
      <path d="M 495.75155 501.757625 
L 495.75155 61.287756 
" clip-path="url(#p6805bd30d7)" style="fill: none; stroke: #b0b0b0; stroke-width: 0.5; stroke-linecap: square"/>
     </g>
     <g id="line2d_77">
      <g>
       <use xlink:href="#m696dc5d3b4" x="495.75155" y="501.757625" style="stroke: #000000; stroke-width: 0.5"/>
      </g>
     </g>
     <g id="line2d_78">
      <g>
       <use xlink:href="#m696dc5d3b4" x="495.75155" y="61.287756" style="stroke: #000000; stroke-width: 0.5"/>
      </g>
     </g>
    </g>
    <g id="xtick_27">
     <g id="line2d_79">
      <path d="M 515.275375 501.757625 
L 515.275375 61.287756 
" clip-path="url(#p6805bd30d7)" style="fill: none; stroke: #b0b0b0; stroke-width: 0.5; stroke-linecap: square"/>
     </g>
     <g id="line2d_80">
      <g>
       <use xlink:href="#m696dc5d3b4" x="515.275375" y="501.757625" style="stroke: #000000; stroke-width: 0.5"/>
      </g>
     </g>
     <g id="line2d_81">
      <g>
       <use xlink:href="#m696dc5d3b4" x="515.275375" y="61.287756" style="stroke: #000000; stroke-width: 0.5"/>
      </g>
     </g>
    </g>
    <g id="xtick_28">
     <g id="line2d_82">
      <path d="M 554.323025 501.757625 
L 554.323025 61.287756 
" clip-path="url(#p6805bd30d7)" style="fill: none; stroke: #b0b0b0; stroke-width: 0.5; stroke-linecap: square"/>
     </g>
     <g id="line2d_83">
      <g>
       <use xlink:href="#m696dc5d3b4" x="554.323025" y="501.757625" style="stroke: #000000; stroke-width: 0.5"/>
      </g>
     </g>
     <g id="line2d_84">
      <g>
       <use xlink:href="#m696dc5d3b4" x="554.323025" y="61.287756" style="stroke: #000000; stroke-width: 0.5"/>
      </g>
     </g>
    </g>
    <g id="text_7">
     <!-- $t$ -->
     <g transform="translate(286.256356 555.509652) scale(0.32 -0.32)">
      <defs>
       <path id="NimbusRomNo9L-ReguItal-74" d="M 1894 2752 
L 1382 2752 
L 1562 3411 
C 1568 3424 1568 3436 1568 3443 
C 1568 3488 1549 3507 1517 3507 
C 1478 3507 1459 3500 1421 3449 
C 1171 3123 774 2803 570 2745 
C 410 2694 365 2655 365 2585 
C 365 2579 365 2566 371 2547 
L 845 2547 
L 384 782 
C 371 724 365 705 346 647 
C 288 454 237 230 237 179 
C 237 38 371 -64 544 -64 
C 838 -64 1050 115 1453 711 
L 1370 756 
C 1056 352 954 249 851 249 
C 794 249 755 300 755 377 
C 755 384 755 390 762 410 
L 1325 2547 
L 1862 2547 
L 1894 2752 
z
" transform="scale(0.015625)"/>
      </defs>
      <use xlink:href="#NimbusRomNo9L-ReguItal-74" transform="scale(0.996264)"/>
     </g>
    </g>
   </g>
   <g id="matplotlib.axis_2">
    <g id="ytick_1">
     <g id="line2d_85">
      <path d="M 22.305168 499.650806 
L 559.07 499.650806 
" clip-path="url(#p6805bd30d7)" style="fill: none; stroke: #b0b0b0; stroke-width: 0.5; stroke-linecap: square"/>
     </g>
     <g id="line2d_86">
      <defs>
       <path id="m6664ef3b84" d="M 3.25 0 
L -3.25 -0 
" style="stroke: #000000; stroke-width: 1.5"/>
      </defs>
      <g>
       <use xlink:href="#m6664ef3b84" x="22.305168" y="499.650806" style="stroke: #000000; stroke-width: 1.5"/>
      </g>
     </g>
     <g id="line2d_87">
      <g>
       <use xlink:href="#m6664ef3b84" x="559.07" y="499.650806" style="stroke: #000000; stroke-width: 1.5"/>
      </g>
     </g>
     <g id="text_8">
      <!-- $\mathdefault{0}$ -->
      <g transform="translate(3.6 507.756298) scale(0.24 -0.24)">
       <use xlink:href="#NimbusRomNo9L-Regu-30" transform="scale(0.996264)"/>
      </g>
     </g>
    </g>
    <g id="ytick_2">
     <g id="line2d_88">
      <path d="M 22.305168 436.640893 
L 559.07 436.640893 
" clip-path="url(#p6805bd30d7)" style="fill: none; stroke: #b0b0b0; stroke-width: 0.5; stroke-linecap: square"/>
     </g>
     <g id="line2d_89">
      <g>
       <use xlink:href="#m6664ef3b84" x="22.305168" y="436.640893" style="stroke: #000000; stroke-width: 1.5"/>
      </g>
     </g>
     <g id="line2d_90">
      <g>
       <use xlink:href="#m6664ef3b84" x="559.07" y="436.640893" style="stroke: #000000; stroke-width: 1.5"/>
      </g>
     </g>
     <g id="text_9">
      <!-- $\mathdefault{1}$ -->
      <g transform="translate(3.6 444.746384) scale(0.24 -0.24)">
       <use xlink:href="#NimbusRomNo9L-Regu-31" transform="scale(0.996264)"/>
      </g>
     </g>
    </g>
    <g id="ytick_3">
     <g id="line2d_91">
      <path d="M 22.305168 373.630979 
L 559.07 373.630979 
" clip-path="url(#p6805bd30d7)" style="fill: none; stroke: #b0b0b0; stroke-width: 0.5; stroke-linecap: square"/>
     </g>
     <g id="line2d_92">
      <g>
       <use xlink:href="#m6664ef3b84" x="22.305168" y="373.630979" style="stroke: #000000; stroke-width: 1.5"/>
      </g>
     </g>
     <g id="line2d_93">
      <g>
       <use xlink:href="#m6664ef3b84" x="559.07" y="373.630979" style="stroke: #000000; stroke-width: 1.5"/>
      </g>
     </g>
     <g id="text_10">
      <!-- $\mathdefault{2}$ -->
      <g transform="translate(3.6 381.736471) scale(0.24 -0.24)">
       <use xlink:href="#NimbusRomNo9L-Regu-32" transform="scale(0.996264)"/>
      </g>
     </g>
    </g>
    <g id="ytick_4">
     <g id="line2d_94">
      <path d="M 22.305168 310.621066 
L 559.07 310.621066 
" clip-path="url(#p6805bd30d7)" style="fill: none; stroke: #b0b0b0; stroke-width: 0.5; stroke-linecap: square"/>
     </g>
     <g id="line2d_95">
      <g>
       <use xlink:href="#m6664ef3b84" x="22.305168" y="310.621066" style="stroke: #000000; stroke-width: 1.5"/>
      </g>
     </g>
     <g id="line2d_96">
      <g>
       <use xlink:href="#m6664ef3b84" x="559.07" y="310.621066" style="stroke: #000000; stroke-width: 1.5"/>
      </g>
     </g>
     <g id="text_11">
      <!-- $\mathdefault{3}$ -->
      <g transform="translate(3.6 318.726558) scale(0.24 -0.24)">
       <use xlink:href="#NimbusRomNo9L-Regu-33" transform="scale(0.996264)"/>
      </g>
     </g>
    </g>
    <g id="ytick_5">
     <g id="line2d_97">
      <path d="M 22.305168 247.611153 
L 559.07 247.611153 
" clip-path="url(#p6805bd30d7)" style="fill: none; stroke: #b0b0b0; stroke-width: 0.5; stroke-linecap: square"/>
     </g>
     <g id="line2d_98">
      <g>
       <use xlink:href="#m6664ef3b84" x="22.305168" y="247.611153" style="stroke: #000000; stroke-width: 1.5"/>
      </g>
     </g>
     <g id="line2d_99">
      <g>
       <use xlink:href="#m6664ef3b84" x="559.07" y="247.611153" style="stroke: #000000; stroke-width: 1.5"/>
      </g>
     </g>
     <g id="text_12">
      <!-- $\mathdefault{4}$ -->
      <g transform="translate(3.6 255.716644) scale(0.24 -0.24)">
       <use xlink:href="#NimbusRomNo9L-Regu-34" transform="scale(0.996264)"/>
      </g>
     </g>
    </g>
    <g id="ytick_6">
     <g id="line2d_100">
      <path d="M 22.305168 184.601239 
L 559.07 184.601239 
" clip-path="url(#p6805bd30d7)" style="fill: none; stroke: #b0b0b0; stroke-width: 0.5; stroke-linecap: square"/>
     </g>
     <g id="line2d_101">
      <g>
       <use xlink:href="#m6664ef3b84" x="22.305168" y="184.601239" style="stroke: #000000; stroke-width: 1.5"/>
      </g>
     </g>
     <g id="line2d_102">
      <g>
       <use xlink:href="#m6664ef3b84" x="559.07" y="184.601239" style="stroke: #000000; stroke-width: 1.5"/>
      </g>
     </g>
     <g id="text_13">
      <!-- $\mathdefault{5}$ -->
      <g transform="translate(3.6 192.706731) scale(0.24 -0.24)">
       <use xlink:href="#NimbusRomNo9L-Regu-35" transform="scale(0.996264)"/>
      </g>
     </g>
    </g>
    <g id="ytick_7">
     <g id="line2d_103">
      <path d="M 22.305168 121.591326 
L 559.07 121.591326 
" clip-path="url(#p6805bd30d7)" style="fill: none; stroke: #b0b0b0; stroke-width: 0.5; stroke-linecap: square"/>
     </g>
     <g id="line2d_104">
      <g>
       <use xlink:href="#m6664ef3b84" x="22.305168" y="121.591326" style="stroke: #000000; stroke-width: 1.5"/>
      </g>
     </g>
     <g id="line2d_105">
      <g>
       <use xlink:href="#m6664ef3b84" x="559.07" y="121.591326" style="stroke: #000000; stroke-width: 1.5"/>
      </g>
     </g>
     <g id="text_14">
      <!-- $\mathdefault{6}$ -->
      <g transform="translate(3.6 129.696817) scale(0.24 -0.24)">
       <defs>
        <path id="NimbusRomNo9L-Regu-36" d="M 2854 4390 
C 2125 4326 1754 4204 1286 3878 
C 595 3385 218 2655 218 1801 
C 218 1248 390 688 666 369 
C 909 89 1254 -64 1651 -64 
C 2445 -64 2995 541 2995 1420 
C 2995 2234 2528 2752 1792 2752 
C 1510 2752 1376 2707 973 2463 
C 1146 3430 1862 4121 2867 4288 
L 2854 4390 
z
M 1549 2457 
C 2099 2457 2419 1999 2419 1203 
C 2419 503 2170 115 1722 115 
C 1158 115 813 713 813 1700 
C 813 2024 864 2203 992 2298 
C 1126 2400 1325 2457 1549 2457 
z
" transform="scale(0.015625)"/>
       </defs>
       <use xlink:href="#NimbusRomNo9L-Regu-36" transform="scale(0.996264)"/>
      </g>
     </g>
    </g>
    <g id="ytick_8">
     <g id="line2d_106">
      <path d="M 22.305168 487.048824 
L 559.07 487.048824 
" clip-path="url(#p6805bd30d7)" style="fill: none; stroke: #b0b0b0; stroke-width: 0.5; stroke-linecap: square"/>
     </g>
     <g id="line2d_107">
      <defs>
       <path id="mffcbf8a15e" d="M 2 0 
L -2 -0 
" style="stroke: #000000; stroke-width: 0.5"/>
      </defs>
      <g>
       <use xlink:href="#mffcbf8a15e" x="22.305168" y="487.048824" style="stroke: #000000; stroke-width: 0.5"/>
      </g>
     </g>
     <g id="line2d_108">
      <g>
       <use xlink:href="#mffcbf8a15e" x="559.07" y="487.048824" style="stroke: #000000; stroke-width: 0.5"/>
      </g>
     </g>
    </g>
    <g id="ytick_9">
     <g id="line2d_109">
      <path d="M 22.305168 474.446841 
L 559.07 474.446841 
" clip-path="url(#p6805bd30d7)" style="fill: none; stroke: #b0b0b0; stroke-width: 0.5; stroke-linecap: square"/>
     </g>
     <g id="line2d_110">
      <g>
       <use xlink:href="#mffcbf8a15e" x="22.305168" y="474.446841" style="stroke: #000000; stroke-width: 0.5"/>
      </g>
     </g>
     <g id="line2d_111">
      <g>
       <use xlink:href="#mffcbf8a15e" x="559.07" y="474.446841" style="stroke: #000000; stroke-width: 0.5"/>
      </g>
     </g>
    </g>
    <g id="ytick_10">
     <g id="line2d_112">
      <path d="M 22.305168 461.844858 
L 559.07 461.844858 
" clip-path="url(#p6805bd30d7)" style="fill: none; stroke: #b0b0b0; stroke-width: 0.5; stroke-linecap: square"/>
     </g>
     <g id="line2d_113">
      <g>
       <use xlink:href="#mffcbf8a15e" x="22.305168" y="461.844858" style="stroke: #000000; stroke-width: 0.5"/>
      </g>
     </g>
     <g id="line2d_114">
      <g>
       <use xlink:href="#mffcbf8a15e" x="559.07" y="461.844858" style="stroke: #000000; stroke-width: 0.5"/>
      </g>
     </g>
    </g>
    <g id="ytick_11">
     <g id="line2d_115">
      <path d="M 22.305168 449.242875 
L 559.07 449.242875 
" clip-path="url(#p6805bd30d7)" style="fill: none; stroke: #b0b0b0; stroke-width: 0.5; stroke-linecap: square"/>
     </g>
     <g id="line2d_116">
      <g>
       <use xlink:href="#mffcbf8a15e" x="22.305168" y="449.242875" style="stroke: #000000; stroke-width: 0.5"/>
      </g>
     </g>
     <g id="line2d_117">
      <g>
       <use xlink:href="#mffcbf8a15e" x="559.07" y="449.242875" style="stroke: #000000; stroke-width: 0.5"/>
      </g>
     </g>
    </g>
    <g id="ytick_12">
     <g id="line2d_118">
      <path d="M 22.305168 424.03891 
L 559.07 424.03891 
" clip-path="url(#p6805bd30d7)" style="fill: none; stroke: #b0b0b0; stroke-width: 0.5; stroke-linecap: square"/>
     </g>
     <g id="line2d_119">
      <g>
       <use xlink:href="#mffcbf8a15e" x="22.305168" y="424.03891" style="stroke: #000000; stroke-width: 0.5"/>
      </g>
     </g>
     <g id="line2d_120">
      <g>
       <use xlink:href="#mffcbf8a15e" x="559.07" y="424.03891" style="stroke: #000000; stroke-width: 0.5"/>
      </g>
     </g>
    </g>
    <g id="ytick_13">
     <g id="line2d_121">
      <path d="M 22.305168 411.436927 
L 559.07 411.436927 
" clip-path="url(#p6805bd30d7)" style="fill: none; stroke: #b0b0b0; stroke-width: 0.5; stroke-linecap: square"/>
     </g>
     <g id="line2d_122">
      <g>
       <use xlink:href="#mffcbf8a15e" x="22.305168" y="411.436927" style="stroke: #000000; stroke-width: 0.5"/>
      </g>
     </g>
     <g id="line2d_123">
      <g>
       <use xlink:href="#mffcbf8a15e" x="559.07" y="411.436927" style="stroke: #000000; stroke-width: 0.5"/>
      </g>
     </g>
    </g>
    <g id="ytick_14">
     <g id="line2d_124">
      <path d="M 22.305168 398.834945 
L 559.07 398.834945 
" clip-path="url(#p6805bd30d7)" style="fill: none; stroke: #b0b0b0; stroke-width: 0.5; stroke-linecap: square"/>
     </g>
     <g id="line2d_125">
      <g>
       <use xlink:href="#mffcbf8a15e" x="22.305168" y="398.834945" style="stroke: #000000; stroke-width: 0.5"/>
      </g>
     </g>
     <g id="line2d_126">
      <g>
       <use xlink:href="#mffcbf8a15e" x="559.07" y="398.834945" style="stroke: #000000; stroke-width: 0.5"/>
      </g>
     </g>
    </g>
    <g id="ytick_15">
     <g id="line2d_127">
      <path d="M 22.305168 386.232962 
L 559.07 386.232962 
" clip-path="url(#p6805bd30d7)" style="fill: none; stroke: #b0b0b0; stroke-width: 0.5; stroke-linecap: square"/>
     </g>
     <g id="line2d_128">
      <g>
       <use xlink:href="#mffcbf8a15e" x="22.305168" y="386.232962" style="stroke: #000000; stroke-width: 0.5"/>
      </g>
     </g>
     <g id="line2d_129">
      <g>
       <use xlink:href="#mffcbf8a15e" x="559.07" y="386.232962" style="stroke: #000000; stroke-width: 0.5"/>
      </g>
     </g>
    </g>
    <g id="ytick_16">
     <g id="line2d_130">
      <path d="M 22.305168 361.028997 
L 559.07 361.028997 
" clip-path="url(#p6805bd30d7)" style="fill: none; stroke: #b0b0b0; stroke-width: 0.5; stroke-linecap: square"/>
     </g>
     <g id="line2d_131">
      <g>
       <use xlink:href="#mffcbf8a15e" x="22.305168" y="361.028997" style="stroke: #000000; stroke-width: 0.5"/>
      </g>
     </g>
     <g id="line2d_132">
      <g>
       <use xlink:href="#mffcbf8a15e" x="559.07" y="361.028997" style="stroke: #000000; stroke-width: 0.5"/>
      </g>
     </g>
    </g>
    <g id="ytick_17">
     <g id="line2d_133">
      <path d="M 22.305168 348.427014 
L 559.07 348.427014 
" clip-path="url(#p6805bd30d7)" style="fill: none; stroke: #b0b0b0; stroke-width: 0.5; stroke-linecap: square"/>
     </g>
     <g id="line2d_134">
      <g>
       <use xlink:href="#mffcbf8a15e" x="22.305168" y="348.427014" style="stroke: #000000; stroke-width: 0.5"/>
      </g>
     </g>
     <g id="line2d_135">
      <g>
       <use xlink:href="#mffcbf8a15e" x="559.07" y="348.427014" style="stroke: #000000; stroke-width: 0.5"/>
      </g>
     </g>
    </g>
    <g id="ytick_18">
     <g id="line2d_136">
      <path d="M 22.305168 335.825031 
L 559.07 335.825031 
" clip-path="url(#p6805bd30d7)" style="fill: none; stroke: #b0b0b0; stroke-width: 0.5; stroke-linecap: square"/>
     </g>
     <g id="line2d_137">
      <g>
       <use xlink:href="#mffcbf8a15e" x="22.305168" y="335.825031" style="stroke: #000000; stroke-width: 0.5"/>
      </g>
     </g>
     <g id="line2d_138">
      <g>
       <use xlink:href="#mffcbf8a15e" x="559.07" y="335.825031" style="stroke: #000000; stroke-width: 0.5"/>
      </g>
     </g>
    </g>
    <g id="ytick_19">
     <g id="line2d_139">
      <path d="M 22.305168 323.223049 
L 559.07 323.223049 
" clip-path="url(#p6805bd30d7)" style="fill: none; stroke: #b0b0b0; stroke-width: 0.5; stroke-linecap: square"/>
     </g>
     <g id="line2d_140">
      <g>
       <use xlink:href="#mffcbf8a15e" x="22.305168" y="323.223049" style="stroke: #000000; stroke-width: 0.5"/>
      </g>
     </g>
     <g id="line2d_141">
      <g>
       <use xlink:href="#mffcbf8a15e" x="559.07" y="323.223049" style="stroke: #000000; stroke-width: 0.5"/>
      </g>
     </g>
    </g>
    <g id="ytick_20">
     <g id="line2d_142">
      <path d="M 22.305168 298.019083 
L 559.07 298.019083 
" clip-path="url(#p6805bd30d7)" style="fill: none; stroke: #b0b0b0; stroke-width: 0.5; stroke-linecap: square"/>
     </g>
     <g id="line2d_143">
      <g>
       <use xlink:href="#mffcbf8a15e" x="22.305168" y="298.019083" style="stroke: #000000; stroke-width: 0.5"/>
      </g>
     </g>
     <g id="line2d_144">
      <g>
       <use xlink:href="#mffcbf8a15e" x="559.07" y="298.019083" style="stroke: #000000; stroke-width: 0.5"/>
      </g>
     </g>
    </g>
    <g id="ytick_21">
     <g id="line2d_145">
      <path d="M 22.305168 285.417101 
L 559.07 285.417101 
" clip-path="url(#p6805bd30d7)" style="fill: none; stroke: #b0b0b0; stroke-width: 0.5; stroke-linecap: square"/>
     </g>
     <g id="line2d_146">
      <g>
       <use xlink:href="#mffcbf8a15e" x="22.305168" y="285.417101" style="stroke: #000000; stroke-width: 0.5"/>
      </g>
     </g>
     <g id="line2d_147">
      <g>
       <use xlink:href="#mffcbf8a15e" x="559.07" y="285.417101" style="stroke: #000000; stroke-width: 0.5"/>
      </g>
     </g>
    </g>
    <g id="ytick_22">
     <g id="line2d_148">
      <path d="M 22.305168 272.815118 
L 559.07 272.815118 
" clip-path="url(#p6805bd30d7)" style="fill: none; stroke: #b0b0b0; stroke-width: 0.5; stroke-linecap: square"/>
     </g>
     <g id="line2d_149">
      <g>
       <use xlink:href="#mffcbf8a15e" x="22.305168" y="272.815118" style="stroke: #000000; stroke-width: 0.5"/>
      </g>
     </g>
     <g id="line2d_150">
      <g>
       <use xlink:href="#mffcbf8a15e" x="559.07" y="272.815118" style="stroke: #000000; stroke-width: 0.5"/>
      </g>
     </g>
    </g>
    <g id="ytick_23">
     <g id="line2d_151">
      <path d="M 22.305168 260.213135 
L 559.07 260.213135 
" clip-path="url(#p6805bd30d7)" style="fill: none; stroke: #b0b0b0; stroke-width: 0.5; stroke-linecap: square"/>
     </g>
     <g id="line2d_152">
      <g>
       <use xlink:href="#mffcbf8a15e" x="22.305168" y="260.213135" style="stroke: #000000; stroke-width: 0.5"/>
      </g>
     </g>
     <g id="line2d_153">
      <g>
       <use xlink:href="#mffcbf8a15e" x="559.07" y="260.213135" style="stroke: #000000; stroke-width: 0.5"/>
      </g>
     </g>
    </g>
    <g id="ytick_24">
     <g id="line2d_154">
      <path d="M 22.305168 235.00917 
L 559.07 235.00917 
" clip-path="url(#p6805bd30d7)" style="fill: none; stroke: #b0b0b0; stroke-width: 0.5; stroke-linecap: square"/>
     </g>
     <g id="line2d_155">
      <g>
       <use xlink:href="#mffcbf8a15e" x="22.305168" y="235.00917" style="stroke: #000000; stroke-width: 0.5"/>
      </g>
     </g>
     <g id="line2d_156">
      <g>
       <use xlink:href="#mffcbf8a15e" x="559.07" y="235.00917" style="stroke: #000000; stroke-width: 0.5"/>
      </g>
     </g>
    </g>
    <g id="ytick_25">
     <g id="line2d_157">
      <path d="M 22.305168 222.407187 
L 559.07 222.407187 
" clip-path="url(#p6805bd30d7)" style="fill: none; stroke: #b0b0b0; stroke-width: 0.5; stroke-linecap: square"/>
     </g>
     <g id="line2d_158">
      <g>
       <use xlink:href="#mffcbf8a15e" x="22.305168" y="222.407187" style="stroke: #000000; stroke-width: 0.5"/>
      </g>
     </g>
     <g id="line2d_159">
      <g>
       <use xlink:href="#mffcbf8a15e" x="559.07" y="222.407187" style="stroke: #000000; stroke-width: 0.5"/>
      </g>
     </g>
    </g>
    <g id="ytick_26">
     <g id="line2d_160">
      <path d="M 22.305168 209.805205 
L 559.07 209.805205 
" clip-path="url(#p6805bd30d7)" style="fill: none; stroke: #b0b0b0; stroke-width: 0.5; stroke-linecap: square"/>
     </g>
     <g id="line2d_161">
      <g>
       <use xlink:href="#mffcbf8a15e" x="22.305168" y="209.805205" style="stroke: #000000; stroke-width: 0.5"/>
      </g>
     </g>
     <g id="line2d_162">
      <g>
       <use xlink:href="#mffcbf8a15e" x="559.07" y="209.805205" style="stroke: #000000; stroke-width: 0.5"/>
      </g>
     </g>
    </g>
    <g id="ytick_27">
     <g id="line2d_163">
      <path d="M 22.305168 197.203222 
L 559.07 197.203222 
" clip-path="url(#p6805bd30d7)" style="fill: none; stroke: #b0b0b0; stroke-width: 0.5; stroke-linecap: square"/>
     </g>
     <g id="line2d_164">
      <g>
       <use xlink:href="#mffcbf8a15e" x="22.305168" y="197.203222" style="stroke: #000000; stroke-width: 0.5"/>
      </g>
     </g>
     <g id="line2d_165">
      <g>
       <use xlink:href="#mffcbf8a15e" x="559.07" y="197.203222" style="stroke: #000000; stroke-width: 0.5"/>
      </g>
     </g>
    </g>
    <g id="ytick_28">
     <g id="line2d_166">
      <path d="M 22.305168 171.999257 
L 559.07 171.999257 
" clip-path="url(#p6805bd30d7)" style="fill: none; stroke: #b0b0b0; stroke-width: 0.5; stroke-linecap: square"/>
     </g>
     <g id="line2d_167">
      <g>
       <use xlink:href="#mffcbf8a15e" x="22.305168" y="171.999257" style="stroke: #000000; stroke-width: 0.5"/>
      </g>
     </g>
     <g id="line2d_168">
      <g>
       <use xlink:href="#mffcbf8a15e" x="559.07" y="171.999257" style="stroke: #000000; stroke-width: 0.5"/>
      </g>
     </g>
    </g>
    <g id="ytick_29">
     <g id="line2d_169">
      <path d="M 22.305168 159.397274 
L 559.07 159.397274 
" clip-path="url(#p6805bd30d7)" style="fill: none; stroke: #b0b0b0; stroke-width: 0.5; stroke-linecap: square"/>
     </g>
     <g id="line2d_170">
      <g>
       <use xlink:href="#mffcbf8a15e" x="22.305168" y="159.397274" style="stroke: #000000; stroke-width: 0.5"/>
      </g>
     </g>
     <g id="line2d_171">
      <g>
       <use xlink:href="#mffcbf8a15e" x="559.07" y="159.397274" style="stroke: #000000; stroke-width: 0.5"/>
      </g>
     </g>
    </g>
    <g id="ytick_30">
     <g id="line2d_172">
      <path d="M 22.305168 146.795291 
L 559.07 146.795291 
" clip-path="url(#p6805bd30d7)" style="fill: none; stroke: #b0b0b0; stroke-width: 0.5; stroke-linecap: square"/>
     </g>
     <g id="line2d_173">
      <g>
       <use xlink:href="#mffcbf8a15e" x="22.305168" y="146.795291" style="stroke: #000000; stroke-width: 0.5"/>
      </g>
     </g>
     <g id="line2d_174">
      <g>
       <use xlink:href="#mffcbf8a15e" x="559.07" y="146.795291" style="stroke: #000000; stroke-width: 0.5"/>
      </g>
     </g>
    </g>
    <g id="ytick_31">
     <g id="line2d_175">
      <path d="M 22.305168 134.193309 
L 559.07 134.193309 
" clip-path="url(#p6805bd30d7)" style="fill: none; stroke: #b0b0b0; stroke-width: 0.5; stroke-linecap: square"/>
     </g>
     <g id="line2d_176">
      <g>
       <use xlink:href="#mffcbf8a15e" x="22.305168" y="134.193309" style="stroke: #000000; stroke-width: 0.5"/>
      </g>
     </g>
     <g id="line2d_177">
      <g>
       <use xlink:href="#mffcbf8a15e" x="559.07" y="134.193309" style="stroke: #000000; stroke-width: 0.5"/>
      </g>
     </g>
    </g>
    <g id="ytick_32">
     <g id="line2d_178">
      <path d="M 22.305168 108.989343 
L 559.07 108.989343 
" clip-path="url(#p6805bd30d7)" style="fill: none; stroke: #b0b0b0; stroke-width: 0.5; stroke-linecap: square"/>
     </g>
     <g id="line2d_179">
      <g>
       <use xlink:href="#mffcbf8a15e" x="22.305168" y="108.989343" style="stroke: #000000; stroke-width: 0.5"/>
      </g>
     </g>
     <g id="line2d_180">
      <g>
       <use xlink:href="#mffcbf8a15e" x="559.07" y="108.989343" style="stroke: #000000; stroke-width: 0.5"/>
      </g>
     </g>
    </g>
    <g id="ytick_33">
     <g id="line2d_181">
      <path d="M 22.305168 96.387361 
L 559.07 96.387361 
" clip-path="url(#p6805bd30d7)" style="fill: none; stroke: #b0b0b0; stroke-width: 0.5; stroke-linecap: square"/>
     </g>
     <g id="line2d_182">
      <g>
       <use xlink:href="#mffcbf8a15e" x="22.305168" y="96.387361" style="stroke: #000000; stroke-width: 0.5"/>
      </g>
     </g>
     <g id="line2d_183">
      <g>
       <use xlink:href="#mffcbf8a15e" x="559.07" y="96.387361" style="stroke: #000000; stroke-width: 0.5"/>
      </g>
     </g>
    </g>
    <g id="ytick_34">
     <g id="line2d_184">
      <path d="M 22.305168 83.785378 
L 559.07 83.785378 
" clip-path="url(#p6805bd30d7)" style="fill: none; stroke: #b0b0b0; stroke-width: 0.5; stroke-linecap: square"/>
     </g>
     <g id="line2d_185">
      <g>
       <use xlink:href="#mffcbf8a15e" x="22.305168" y="83.785378" style="stroke: #000000; stroke-width: 0.5"/>
      </g>
     </g>
     <g id="line2d_186">
      <g>
       <use xlink:href="#mffcbf8a15e" x="559.07" y="83.785378" style="stroke: #000000; stroke-width: 0.5"/>
      </g>
     </g>
    </g>
    <g id="ytick_35">
     <g id="line2d_187">
      <path d="M 22.305168 71.183395 
L 559.07 71.183395 
" clip-path="url(#p6805bd30d7)" style="fill: none; stroke: #b0b0b0; stroke-width: 0.5; stroke-linecap: square"/>
     </g>
     <g id="line2d_188">
      <g>
       <use xlink:href="#mffcbf8a15e" x="22.305168" y="71.183395" style="stroke: #000000; stroke-width: 0.5"/>
      </g>
     </g>
     <g id="line2d_189">
      <g>
       <use xlink:href="#mffcbf8a15e" x="559.07" y="71.183395" style="stroke: #000000; stroke-width: 0.5"/>
      </g>
     </g>
    </g>
   </g>
   <g id="line2d_190">
    <path d="M 46.70357 373.630979 
L 46.966366 366.388796 
L 47.649564 354.705165 
L 48.52796 343.731305 
L 49.503956 334.178568 
L 50.675151 324.869349 
L 52.041546 315.815366 
L 53.700739 306.392774 
L 55.652731 296.62668 
L 57.995122 286.044193 
L 60.825511 274.291396 
L 64.143897 261.46244 
L 67.950282 247.634244 
L 72.244664 232.8856 
L 76.831846 217.923556 
L 81.711826 202.755888 
L 86.787006 187.696435 
L 91.959785 173.028665 
L 97.230164 158.75215 
L 102.402943 145.384138 
L 107.380523 133.137118 
L 112.065304 122.200025 
L 116.359686 112.73328 
L 120.166071 104.859969 
L 123.582057 98.292205 
L 126.510045 93.128248 
L 128.950036 89.242778 
L 130.999627 86.358164 
L 132.75642 84.244896 
L 134.220414 82.81563 
L 135.39161 81.955514 
L 136.367606 81.486844 
L 137.246002 81.311476 
L 137.929199 81.378701 
L 138.612397 81.670385 
L 139.197994 82.143984 
L 139.783592 82.879101 
L 140.36919 83.95034 
L 140.954787 85.466931 
L 141.540385 87.596155 
L 142.125982 90.609014 
L 142.71158 94.977419 
L 143.199578 100.281741 
L 143.687576 108.17017 
L 144.077975 117.75209 
L 144.468373 132.822628 
L 144.858771 159.224695 
L 145.15157 194.975489 
L 145.444369 257.585322 
L 146.029967 402.661732 
L 146.322766 423.480672 
L 146.615564 430.954394 
L 146.908363 433.855146 
L 147.201162 434.866252 
L 147.396361 434.996766 
L 147.59156 434.859431 
L 147.884359 434.317387 
L 148.372357 432.857244 
L 149.153154 429.727158 
L 150.421949 423.592812 
L 152.178742 413.928787 
L 154.325933 400.812254 
L 156.570724 385.696304 
L 158.913115 368.360694 
L 161.450704 347.81271 
L 165.15949 315.619956 
L 168.282677 289.239738 
L 170.429868 272.920234 
L 172.47946 259.038409 
L 174.529052 246.672153 
L 176.676243 235.047292 
L 179.018634 223.568973 
L 181.653823 211.791082 
L 184.484212 200.153631 
L 187.607399 188.24938 
L 191.023385 176.122142 
L 194.634571 164.136407 
L 198.343356 152.593115 
L 202.14974 141.472443 
L 205.858525 131.306423 
L 209.469711 122.041227 
L 212.885697 113.883102 
L 215.911285 107.205203 
L 218.644074 101.691586 
L 220.986464 97.443504 
L 222.938456 94.328125 
L 224.59765 92.07012 
L 225.964044 90.559288 
L 227.135239 89.590331 
L 228.013636 89.117444 
L 228.794433 88.929203 
L 229.47763 88.989067 
L 230.063228 89.248439 
L 230.648825 89.74788 
L 231.234423 90.551312 
L 231.820021 91.750534 
L 232.405618 93.482803 
L 232.991216 95.963827 
L 233.576813 99.554638 
L 234.064811 103.85232 
L 234.55281 110.068479 
L 235.040808 119.594676 
L 235.431206 131.59369 
L 235.821604 151.330573 
L 236.114403 176.25151 
L 236.407202 218.440781 
L 236.7976 316.447929 
L 237.187999 400.005556 
L 237.480798 421.533978 
L 237.773597 429.48423 
L 238.066395 432.627701 
L 238.359194 433.767157 
L 238.554393 433.950033 
L 238.749593 433.849316 
L 239.042391 433.343563 
L 239.530389 431.91598 
L 240.311186 428.805238 
L 241.579981 422.674278 
L 243.336774 413.007442 
L 245.483965 399.905745 
L 247.728756 384.843315 
L 250.071147 367.615689 
L 252.608737 347.242701 
L 256.219922 316.165253 
L 259.635908 287.427429 
L 261.880699 270.468068 
L 263.930291 256.649582 
L 265.979883 244.286485 
L 268.224674 232.115017 
L 270.664664 220.144305 
L 273.299853 208.333099 
L 276.227841 196.244941 
L 279.351029 184.28607 
L 282.767015 172.093883 
L 286.280601 160.363087 
L 289.989386 148.758808 
L 293.698171 137.88755 
L 297.309356 127.982785 
L 300.725343 119.244342 
L 303.84853 111.8344 
L 306.678918 105.663629 
L 309.118909 100.839803 
L 311.2661 97.066397 
L 313.022893 94.397599 
L 314.486887 92.546096 
L 315.658082 91.380268 
L 316.634078 90.683935 
L 317.512475 90.330497 
L 318.195672 90.281809 
L 318.78127 90.43693 
L 319.366867 90.817541 
L 319.952465 91.48138 
L 320.538063 92.510461 
L 321.12366 94.02578 
L 321.709258 96.214342 
L 322.294855 99.38254 
L 322.880453 104.071584 
L 323.368451 109.874165 
L 323.856449 118.676042 
L 324.246848 129.59713 
L 324.637246 147.187647 
L 324.930045 168.874074 
L 325.222844 204.917135 
L 325.515642 266.049536 
L 326.10124 401.282177 
L 326.394039 421.850603 
L 326.686838 429.509666 
L 326.979637 432.549381 
L 327.272435 433.644625 
L 327.467635 433.811555 
L 327.662834 433.700403 
L 327.955633 433.18488 
L 328.443631 431.749058 
L 329.224428 428.634173 
L 330.493222 422.506194 
L 332.250015 412.854701 
L 334.397207 399.787907 
L 336.739597 384.099701 
L 339.081988 366.89395 
L 341.619578 346.573255 
L 345.328363 314.755805 
L 348.646749 286.926162 
L 350.89154 269.957717 
L 352.941132 256.100782 
L 355.088323 243.12226 
L 357.333114 230.935099 
L 359.773104 218.930486 
L 362.408294 207.072463 
L 365.336282 194.927506 
L 368.459469 182.908056 
L 371.875455 170.653949 
L 375.389041 158.867754 
L 379.000227 147.514665 
L 382.611412 136.874289 
L 386.124998 127.187797 
L 389.443385 118.660345 
L 392.566572 111.234346 
L 395.299361 105.284783 
L 397.739351 100.494634 
L 399.788943 96.948051 
L 401.448136 94.486988 
L 402.814531 92.817097 
L 403.985726 91.718568 
L 404.961722 91.106858 
L 405.742519 90.872485 
L 406.425716 90.903067 
L 407.011314 91.148381 
L 407.596911 91.647539 
L 408.182509 92.469705 
L 408.768107 93.714991 
L 409.353704 95.534546 
L 409.939302 98.168785 
L 410.524899 102.026361 
L 411.012898 106.703331 
L 411.500896 113.574119 
L 411.988894 124.333438 
L 412.379292 138.25831 
L 412.76969 161.95658 
L 413.062489 192.889719 
L 413.355288 245.695146 
L 414.136085 411.521321 
L 414.428884 425.536968 
L 414.721683 430.934516 
L 415.014481 433.064036 
L 415.30728 433.729142 
L 415.502479 433.728054 
L 415.795278 433.322178 
L 416.283276 431.992854 
L 417.064073 428.966115 
L 418.235268 423.409918 
L 419.992061 413.887698 
L 422.139253 400.956788 
L 424.481643 385.426651 
L 426.824034 368.39697 
L 429.361623 348.269037 
L 432.77761 319.145668 
L 436.583994 287.0835 
L 438.828785 270.06341 
L 440.878377 256.141572 
L 443.025568 243.090444 
L 445.270359 230.830123 
L 447.710349 218.752301 
L 450.345539 206.822786 
L 453.273527 194.606484 
L 456.396714 182.518973 
L 459.812701 170.198902 
L 463.326286 158.353735 
L 466.937472 146.949848 
L 470.548657 136.270005 
L 474.062243 126.558542 
L 477.38063 118.023674 
L 480.406218 110.832788 
L 483.139006 104.898433 
L 485.481397 100.325818 
L 487.433389 96.971155 
L 489.092582 94.539044 
L 490.458977 92.912678 
L 491.532573 91.94484 
L 492.410969 91.413449 
L 493.191766 91.190762 
L 493.874963 91.23896 
L 494.460561 91.506986 
L 495.046158 92.038622 
L 495.631756 92.907083 
L 496.217354 94.219001 
L 496.802951 96.136579 
L 497.388549 98.92027 
L 497.974147 103.018225 
L 498.462145 108.024783 
L 498.950143 115.459219 
L 499.340541 124.412278 
L 499.73094 138.258125 
L 500.121338 161.79336 
L 500.414137 192.470579 
L 500.706936 244.812413 
L 501.487732 411.123656 
L 501.780531 425.368541 
L 502.07333 430.851389 
L 502.366129 433.017947 
L 502.658928 433.701804 
L 502.854127 433.70848 
L 503.146926 433.310553 
L 503.537324 432.300725 
L 504.220521 429.795343 
L 505.294117 424.887075 
L 506.95331 416.119655 
L 509.002902 404.049366 
L 511.247693 389.518348 
L 513.590084 372.906376 
L 516.030074 354.008483 
L 518.958062 329.497687 
L 524.32604 284.212568 
L 526.570831 267.460823 
L 528.620423 253.772022 
L 530.767614 240.920768 
L 533.012405 228.817783 
L 534.671599 220.571543 
L 534.671599 220.571543 
" clip-path="url(#p6805bd30d7)" style="fill: none; stroke-dasharray: 11.1,4.8; stroke-dashoffset: 0; stroke: #1f77b4; stroke-width: 3"/>
   </g>
   <g id="line2d_191">
    <path d="M 46.70357 436.640893 
L 46.966366 443.626774 
L 47.551964 452.585376 
L 48.235161 459.529755 
L 48.918359 464.453862 
L 49.699155 468.521753 
L 50.479952 471.474974 
L 51.358349 473.896982 
L 52.236745 475.665749 
L 53.212741 477.108007 
L 54.188737 478.170391 
L 55.359933 479.103104 
L 56.628727 479.827738 
L 58.190321 480.450941 
L 60.044714 480.943764 
L 62.387104 481.330095 
L 65.510292 481.604473 
L 69.707075 481.732014 
L 75.367852 481.667987 
L 82.785422 481.353968 
L 91.471787 480.763496 
L 100.158152 479.953849 
L 107.770921 479.027199 
L 114.114895 478.037254 
L 119.287675 477.010635 
L 123.484458 475.955767 
L 126.900444 474.870864 
L 129.633233 473.778508 
L 131.878024 472.654102 
L 133.732416 471.492817 
L 135.29401 470.271588 
L 136.660405 468.9316 
L 137.8316 467.48308 
L 138.905195 465.789353 
L 139.783592 464.011261 
L 140.564389 461.981369 
L 141.345186 459.297024 
L 142.028383 456.08892 
L 142.61398 452.28317 
L 143.199578 446.792264 
L 143.687576 439.896983 
L 144.077975 431.560407 
L 144.468373 418.386885 
L 144.858771 395.02642 
L 145.15157 362.955863 
L 145.444369 306.308016 
L 145.932367 192.560413 
L 146.127566 177.609407 
L 146.322766 174.303468 
L 146.420365 174.802482 
L 146.713164 180.155244 
L 147.59156 204.848669 
L 148.957955 241.280673 
L 150.324349 271.659331 
L 151.690744 297.211009 
L 153.154738 320.538094 
L 154.716332 341.922104 
L 156.375525 361.646453 
L 158.132318 379.982163 
L 160.08431 398.011477 
L 162.036302 414.062198 
L 163.988294 428.306385 
L 165.647488 438.906231 
L 167.209081 447.471325 
L 168.575476 453.772608 
L 169.844271 458.637132 
L 171.113065 462.620503 
L 172.284261 465.606928 
L 173.455456 468.02938 
L 174.626651 469.983525 
L 175.895446 471.672526 
L 177.164241 473.007624 
L 178.530636 474.136498 
L 180.092229 475.125991 
L 181.751423 475.913154 
L 183.703415 476.583321 
L 185.948206 477.107504 
L 188.583395 477.4855 
L 191.706582 477.701683 
L 195.415367 477.72845 
L 199.70975 477.529153 
L 204.296932 477.091033 
L 208.786513 476.44231 
L 212.885697 475.629391 
L 216.399283 474.711716 
L 219.327271 473.726736 
L 221.767261 472.682861 
L 223.816853 471.574896 
L 225.573646 470.37616 
L 227.03764 469.116778 
L 228.306435 467.741186 
L 229.38003 466.27277 
L 230.356026 464.578086 
L 231.234423 462.613164 
L 232.01522 460.332088 
L 232.698417 457.696318 
L 233.381614 454.101344 
L 233.967212 449.750359 
L 234.45521 444.590063 
L 234.943208 436.941268 
L 235.333606 427.535904 
L 235.724005 412.375308 
L 236.016804 393.565847 
L 236.309602 362.007308 
L 236.602401 307.784033 
L 237.187999 190.528433 
L 237.383198 181.794658 
L 237.480798 180.723118 
L 237.578397 180.920396 
L 237.773597 183.59235 
L 238.261595 195.585126 
L 240.213587 247.073664 
L 241.579981 276.413682 
L 242.946376 301.144833 
L 244.41037 323.760744 
L 245.971963 344.521607 
L 247.631157 363.69296 
L 249.38795 381.53019 
L 251.339942 399.079821 
L 253.291934 414.709814 
L 255.243926 428.590124 
L 257.000719 439.49991 
L 258.562313 447.79821 
L 259.928707 453.913256 
L 261.197502 458.645328 
L 262.466297 462.531679 
L 263.637492 465.454623 
L 264.808687 467.832922 
L 266.077482 469.899595 
L 267.346277 471.537559 
L 268.712672 472.923287 
L 270.176666 474.070762 
L 271.738259 475.002212 
L 273.495052 475.780234 
L 275.447045 476.398013 
L 277.691835 476.876122 
L 280.424624 477.219459 
L 283.645411 477.386701 
L 287.354196 477.350753 
L 291.55098 477.083317 
L 295.942962 476.577866 
L 300.139745 475.871019 
L 303.84853 475.024771 
L 306.971717 474.094341 
L 309.606907 473.088561 
L 311.851698 471.998899 
L 313.70609 470.86028 
L 315.267684 469.654168 
L 316.634078 468.324895 
L 317.805274 466.88456 
L 318.878869 465.199202 
L 319.757266 463.431163 
L 320.635662 461.12579 
L 321.416459 458.36843 
L 322.099656 455.065889 
L 322.685254 451.141096 
L 323.270852 445.470017 
L 323.75885 438.341859 
L 324.149248 429.724367 
L 324.539646 416.132839 
L 324.930045 392.195911 
L 325.222844 359.865414 
L 325.613242 280.78154 
L 326.003641 199.581417 
L 326.296439 182.439012 
L 326.394039 181.534648 
L 326.491639 181.833141 
L 326.686838 184.597256 
L 327.174836 196.58714 
L 329.126828 247.752718 
L 330.493222 276.908048 
L 331.859617 301.486236 
L 333.323611 323.962217 
L 334.885205 344.592323 
L 336.544398 363.638652 
L 338.301191 381.353969 
L 340.253183 398.778517 
L 342.302775 415.029112 
L 344.254767 428.740311 
L 346.01156 439.526595 
L 347.573153 447.742465 
L 348.939548 453.807534 
L 350.208343 458.509976 
L 351.477138 462.379653 
L 352.745933 465.512945 
L 353.917128 467.84857 
L 355.185923 469.880519 
L 356.454718 471.49284 
L 357.821112 472.858284 
L 359.285106 473.989861 
L 360.8467 474.908731 
L 362.603493 475.675947 
L 364.555485 476.284078 
L 366.800276 476.752551 
L 369.533065 477.084678 
L 372.753852 477.237874 
L 376.462637 477.182955 
L 380.56182 476.897499 
L 384.758603 476.38721 
L 388.760187 475.68411 
L 392.371373 474.827259 
L 395.396961 473.889468 
L 397.93455 472.88242 
L 400.081742 471.801296 
L 401.936134 470.618283 
L 403.497728 469.355896 
L 404.864122 467.952861 
L 406.035318 466.41778 
L 407.011314 464.787099 
L 407.88971 462.909385 
L 408.670507 460.74793 
L 409.451304 457.862183 
L 410.134501 454.374304 
L 410.720099 450.183547 
L 411.208097 445.256436 
L 411.696095 438.036688 
L 412.086493 429.28683 
L 412.476892 415.4443 
L 412.86729 390.97188 
L 413.160089 357.837798 
L 413.550487 277.490433 
L 413.940886 198.413307 
L 414.233685 182.541996 
L 414.331284 181.816553 
L 414.428884 182.231018 
L 414.624083 185.117791 
L 415.112081 197.167892 
L 417.064073 248.161592 
L 418.430468 277.205285 
L 419.796862 301.691468 
L 421.260856 324.084107 
L 422.82245 344.637108 
L 424.481643 363.610366 
L 426.238436 381.254942 
L 428.190428 398.607264 
L 430.24002 414.791573 
L 432.192012 428.455936 
L 433.948805 439.221277 
L 435.510399 447.438364 
L 436.876793 453.518174 
L 438.145588 458.242243 
L 439.414383 462.137396 
L 440.683178 465.29679 
L 441.854373 467.65512 
L 443.123168 469.708999 
L 444.391963 471.340026 
L 445.758357 472.722053 
L 447.222351 473.867712 
L 448.783945 474.798065 
L 450.540738 475.574695 
L 452.49273 476.189921 
L 454.737521 476.663262 
L 457.37271 476.989511 
L 460.495898 477.146885 
L 464.107083 477.102492 
L 468.108667 476.831641 
L 472.30545 476.325204 
L 476.307034 475.619998 
L 479.82062 474.782522 
L 482.846208 473.84062 
L 485.383797 472.826515 
L 487.530989 471.735294 
L 489.287782 470.609059 
L 490.849375 469.347607 
L 492.21577 467.945438 
L 493.386965 466.411273 
L 494.362961 464.781661 
L 495.241358 462.905403 
L 496.022155 460.746017 
L 496.802951 457.863791 
L 497.486149 454.381428 
L 498.071746 450.199209 
L 498.559744 445.284853 
L 499.047742 438.089062 
L 499.438141 429.376343 
L 499.828539 415.609275 
L 500.218938 391.311356 
L 500.511736 358.464025 
L 500.902135 278.690194 
L 501.292533 199.081887 
L 501.585332 182.762289 
L 501.682932 181.963837 
L 501.780531 182.327002 
L 501.97573 185.150696 
L 502.463729 197.139022 
L 504.415721 248.085955 
L 505.782115 277.111822 
L 507.14851 301.580036 
L 508.612504 323.95269 
L 510.174097 344.48335 
L 511.833291 363.431563 
L 513.590084 381.048259 
L 515.542076 398.369152 
L 517.591667 414.523912 
L 519.54366 428.170446 
L 521.300453 438.934752 
L 522.862046 447.165035 
L 524.228441 453.265746 
L 525.497236 458.014147 
L 526.76603 461.935361 
L 528.034825 465.12009 
L 529.30362 467.676655 
L 530.572415 469.714526 
L 531.84121 471.333504 
L 533.207604 472.705826 
L 534.671599 473.843752 
L 534.671599 473.843752 
" clip-path="url(#p6805bd30d7)" style="fill: none; stroke: #ff7f0e; stroke-width: 3; stroke-linecap: square"/>
   </g>
   <g id="patch_3">
    <path d="M 22.305168 501.757625 
L 22.305168 61.287756 
" style="fill: none; stroke: #000000; stroke-width: 0.5; stroke-linejoin: miter; stroke-linecap: square"/>
   </g>
   <g id="patch_4">
    <path d="M 559.07 501.757625 
L 559.07 61.287756 
" style="fill: none; stroke: #000000; stroke-width: 0.5; stroke-linejoin: miter; stroke-linecap: square"/>
   </g>
   <g id="patch_5">
    <path d="M 22.305168 501.757625 
L 559.07 501.757625 
" style="fill: none; stroke: #000000; stroke-width: 0.5; stroke-linejoin: miter; stroke-linecap: square"/>
   </g>
   <g id="patch_6">
    <path d="M 22.305168 61.287756 
L 559.07 61.287756 
" style="fill: none; stroke: #000000; stroke-width: 0.5; stroke-linejoin: miter; stroke-linecap: square"/>
   </g>
   <g id="legend_1">
    <g id="line2d_192">
     <path d="M 319.487584 27.6 
L 351.487584 27.6 
L 383.487584 27.6 
" style="fill: none; stroke-dasharray: 11.1,4.8; stroke-dashoffset: 0; stroke: #1f77b4; stroke-width: 3"/>
    </g>
    <g id="text_15">
     <!-- $y$ -->
     <g transform="translate(409.087584 38.8) scale(0.32 -0.32)">
      <defs>
       <path id="NimbusRomNo9L-ReguItal-79" d="M 96 2553 
C 179 2572 224 2579 294 2579 
C 659 2579 755 2419 1050 1318 
C 1158 902 1312 153 1312 44 
C 1312 -58 1274 -161 1178 -276 
C 979 -538 851 -705 781 -782 
C 646 -922 570 -974 486 -974 
C 448 -974 403 -954 333 -903 
C 237 -826 166 -794 96 -794 
C -45 -794 -154 -903 -154 -1044 
C -154 -1204 -13 -1326 173 -1326 
C 582 -1326 1421 -365 2112 902 
C 2547 1689 2726 2150 2726 2463 
C 2726 2655 2566 2816 2374 2816 
C 2227 2816 2125 2719 2125 2579 
C 2125 2483 2176 2412 2304 2329 
C 2426 2259 2470 2201 2470 2111 
C 2470 1855 2234 1356 1690 454 
L 1562 1196 
C 1466 1759 1107 2816 1011 2816 
L 986 2816 
C 979 2809 954 2809 928 2809 
C 870 2803 640 2764 301 2700 
C 269 2694 186 2675 96 2662 
L 96 2553 
z
" transform="scale(0.015625)"/>
      </defs>
      <use xlink:href="#NimbusRomNo9L-ReguItal-79" transform="scale(0.996264)"/>
     </g>
    </g>
    <g id="line2d_193">
     <path d="M 158.13284 27.6 
L 190.13284 27.6 
L 222.13284 27.6 
" style="fill: none; stroke: #ff7f0e; stroke-width: 3; stroke-linecap: square"/>
    </g>
    <g id="text_16">
     <!-- $x$ -->
     <g transform="translate(247.73284 38.8) scale(0.32 -0.32)">
      <defs>
       <path id="NimbusRomNo9L-ReguItal-78" d="M 2573 714 
C 2522 657 2490 618 2432 542 
C 2285 351 2208 288 2138 288 
C 2042 288 1984 370 1939 548 
C 1926 599 1920 638 1914 657 
C 1754 1299 1683 1592 1683 1687 
C 1965 2177 2195 2457 2310 2457 
C 2349 2457 2400 2438 2464 2406 
C 2541 2362 2586 2349 2637 2349 
C 2771 2349 2861 2444 2861 2579 
C 2861 2713 2752 2816 2598 2816 
C 2317 2816 2074 2585 1632 1904 
L 1562 2254 
C 1472 2687 1402 2816 1229 2816 
C 1088 2816 870 2758 480 2630 
L 410 2604 
L 435 2508 
C 678 2566 736 2579 794 2579 
C 954 2579 992 2521 1082 2139 
L 1267 1357 
L 742 612 
C 614 421 486 307 416 307 
C 378 307 314 326 250 364 
C 166 409 96 428 45 428 
C -77 428 -173 332 -173 204 
C -173 38 -45 -64 147 -64 
C 346 -64 422 -7 742 383 
C 915 587 1050 758 1318 1127 
L 1510 364 
C 1594 38 1677 -64 1882 -64 
C 2125 -64 2291 89 2662 663 
L 2573 714 
z
" transform="scale(0.015625)"/>
      </defs>
      <use xlink:href="#NimbusRomNo9L-ReguItal-78" transform="scale(0.996264)"/>
     </g>
    </g>
   </g>
  </g>
 </g>
 <defs>
  <clipPath id="p6805bd30d7">
   <rect x="22.305168" y="61.287756" width="536.764832" height="440.469868"/>
  </clipPath>
 </defs>
</svg>
