<?xml version="1.0" encoding="utf-8" standalone="no"?>
<!DOCTYPE svg PUBLIC "-//W3C//DTD SVG 1.1//EN"
  "http://www.w3.org/Graphics/SVG/1.1/DTD/svg11.dtd">
<svg xmlns:xlink="http://www.w3.org/1999/xlink" width="570.69952pt" height="570.69952pt" viewBox="0 0 570.69952 570.69952" xmlns="http://www.w3.org/2000/svg" version="1.1">
 <metadata>
  <rdf:RDF xmlns:dc="http://purl.org/dc/elements/1.1/" xmlns:cc="http://creativecommons.org/ns#" xmlns:rdf="http://www.w3.org/1999/02/22-rdf-syntax-ns#">
   <cc:Work>
    <dc:type rdf:resource="http://purl.org/dc/dcmitype/StillImage"/>
    <dc:date>2024-12-27T11:48:10.328251</dc:date>
    <dc:format>image/svg+xml</dc:format>
    <dc:creator>
     <cc:Agent>
      <dc:title>Matplotlib v3.10.0, https://matplotlib.org/</dc:title>
     </cc:Agent>
    </dc:creator>
   </cc:Work>
  </rdf:RDF>
 </metadata>
 <defs>
  <style type="text/css">*{stroke-linejoin: round; stroke-linecap: butt}</style>
 </defs>
 <g id="figure_1">
  <g id="patch_1">
   <path d="M 0 570.69952 
L 570.69952 570.69952 
L 570.69952 0 
L 0 0 
z
" style="fill: #ffffff"/>
  </g>
  <g id="axes_1">
   <g id="patch_2">
    <path d="M 77.958951 510.324775 
L 567.09952 510.324775 
L 567.09952 3.6 
L 77.958951 3.6 
z
" style="fill: #ffffff"/>
   </g>
   <g id="matplotlib.axis_1">
    <g id="xtick_1">
     <g id="line2d_1">
      <path d="M 100.192613 510.324775 
L 100.192613 3.6 
" clip-path="url(#pd913af10c4)" style="fill: none; stroke: #b0b0b0; stroke-width: 0.5; stroke-linecap: square"/>
     </g>
     <g id="line2d_2">
      <defs>
       <path id="m0e140a8355" d="M 0 0 
L 0 6.5 
" style="stroke: #000000; stroke-width: 1.5"/>
      </defs>
      <g>
       <use xlink:href="#m0e140a8355" x="100.192613" y="510.324775" style="stroke: #000000; stroke-width: 1.5"/>
      </g>
     </g>
     <g id="line2d_3">
      <defs>
       <path id="m9c843fc2fb" d="M 0 0 
L 0 -6.5 
" style="stroke: #000000; stroke-width: 1.5"/>
      </defs>
      <g>
       <use xlink:href="#m9c843fc2fb" x="100.192613" y="3.6" style="stroke: #000000; stroke-width: 1.5"/>
      </g>
     </g>
     <g id="text_1">
      <!-- $\mathdefault{0}$ -->
      <g transform="translate(95.211293 533.83393) scale(0.2 -0.2)">
       <defs>
        <path id="NimbusRomNo9L-Regu-30" d="M 1626 4352 
C 1274 4352 1005 4243 768 4019 
C 397 3661 154 2924 154 2176 
C 154 1478 365 729 666 371 
C 902 89 1229 -64 1600 -64 
C 1926 -64 2202 44 2432 268 
C 2803 620 3046 1363 3046 2137 
C 3046 3449 2464 4352 1626 4352 
z
M 1606 4185 
C 2144 4185 2432 3462 2432 2124 
C 2432 787 2150 102 1600 102 
C 1050 102 768 787 768 2118 
C 768 3475 1056 4185 1606 4185 
z
" transform="scale(0.015625)"/>
       </defs>
       <use xlink:href="#NimbusRomNo9L-Regu-30" transform="scale(0.996264)"/>
      </g>
     </g>
    </g>
    <g id="xtick_2">
     <g id="line2d_4">
      <path d="M 187.234139 510.324775 
L 187.234139 3.6 
" clip-path="url(#pd913af10c4)" style="fill: none; stroke: #b0b0b0; stroke-width: 0.5; stroke-linecap: square"/>
     </g>
     <g id="line2d_5">
      <g>
       <use xlink:href="#m0e140a8355" x="187.234139" y="510.324775" style="stroke: #000000; stroke-width: 1.5"/>
      </g>
     </g>
     <g id="line2d_6">
      <g>
       <use xlink:href="#m9c843fc2fb" x="187.234139" y="3.6" style="stroke: #000000; stroke-width: 1.5"/>
      </g>
     </g>
     <g id="text_2">
      <!-- $\mathdefault{10}$ -->
      <g transform="translate(177.271499 533.83393) scale(0.2 -0.2)">
       <defs>
        <path id="NimbusRomNo9L-Regu-31" d="M 1862 4352 
L 710 3776 
L 710 3686 
C 787 3718 858 3743 883 3756 
C 998 3801 1107 3826 1171 3826 
C 1306 3826 1363 3731 1363 3525 
L 1363 599 
C 1363 386 1312 238 1210 179 
C 1114 121 1024 102 755 96 
L 755 0 
L 2522 0 
L 2522 96 
C 2016 102 1914 167 1914 477 
L 1914 4339 
L 1862 4352 
z
" transform="scale(0.015625)"/>
       </defs>
       <use xlink:href="#NimbusRomNo9L-Regu-31" transform="scale(0.996264)"/>
       <use xlink:href="#NimbusRomNo9L-Regu-30" transform="translate(49.8132 0) scale(0.996264)"/>
      </g>
     </g>
    </g>
    <g id="xtick_3">
     <g id="line2d_7">
      <path d="M 274.275665 510.324775 
L 274.275665 3.6 
" clip-path="url(#pd913af10c4)" style="fill: none; stroke: #b0b0b0; stroke-width: 0.5; stroke-linecap: square"/>
     </g>
     <g id="line2d_8">
      <g>
       <use xlink:href="#m0e140a8355" x="274.275665" y="510.324775" style="stroke: #000000; stroke-width: 1.5"/>
      </g>
     </g>
     <g id="line2d_9">
      <g>
       <use xlink:href="#m9c843fc2fb" x="274.275665" y="3.6" style="stroke: #000000; stroke-width: 1.5"/>
      </g>
     </g>
     <g id="text_3">
      <!-- $\mathdefault{20}$ -->
      <g transform="translate(264.313025 533.83393) scale(0.2 -0.2)">
       <defs>
        <path id="NimbusRomNo9L-Regu-32" d="M 3040 879 
L 2957 912 
C 2720 544 2637 486 2349 486 
L 819 486 
L 1894 1621 
C 2464 2221 2714 2711 2714 3214 
C 2714 3858 2195 4352 1530 4352 
C 1178 4352 845 4211 608 3955 
C 403 3736 307 3530 198 3072 
L 333 3039 
C 589 3671 819 3878 1261 3878 
C 1798 3878 2163 3510 2163 2969 
C 2163 2466 1869 1866 1331 1292 
L 192 76 
L 192 0 
L 2688 0 
L 3040 879 
z
" transform="scale(0.015625)"/>
       </defs>
       <use xlink:href="#NimbusRomNo9L-Regu-32" transform="scale(0.996264)"/>
       <use xlink:href="#NimbusRomNo9L-Regu-30" transform="translate(49.8132 0) scale(0.996264)"/>
      </g>
     </g>
    </g>
    <g id="xtick_4">
     <g id="line2d_10">
      <path d="M 361.317191 510.324775 
L 361.317191 3.6 
" clip-path="url(#pd913af10c4)" style="fill: none; stroke: #b0b0b0; stroke-width: 0.5; stroke-linecap: square"/>
     </g>
     <g id="line2d_11">
      <g>
       <use xlink:href="#m0e140a8355" x="361.317191" y="510.324775" style="stroke: #000000; stroke-width: 1.5"/>
      </g>
     </g>
     <g id="line2d_12">
      <g>
       <use xlink:href="#m9c843fc2fb" x="361.317191" y="3.6" style="stroke: #000000; stroke-width: 1.5"/>
      </g>
     </g>
     <g id="text_4">
      <!-- $\mathdefault{30}$ -->
      <g transform="translate(351.354551 533.83393) scale(0.2 -0.2)">
       <defs>
        <path id="NimbusRomNo9L-Regu-33" d="M 979 2137 
C 1357 2137 1504 2124 1658 2067 
C 2054 1926 2304 1561 2304 1120 
C 2304 582 1939 166 1466 166 
C 1293 166 1165 211 928 364 
C 736 480 627 524 518 524 
C 371 524 275 435 275 300 
C 275 76 550 -64 998 -64 
C 1491 -64 1997 102 2298 364 
C 2598 627 2765 998 2765 1427 
C 2765 1753 2662 2054 2477 2252 
C 2349 2393 2227 2470 1946 2592 
C 2387 2892 2547 3129 2547 3475 
C 2547 3993 2138 4352 1549 4352 
C 1229 4352 947 4243 717 4038 
C 525 3865 429 3699 288 3315 
L 384 3289 
C 646 3757 934 3967 1338 3967 
C 1754 3967 2042 3686 2042 3283 
C 2042 3052 1946 2822 1786 2662 
C 1594 2470 1414 2374 979 2220 
L 979 2137 
z
" transform="scale(0.015625)"/>
       </defs>
       <use xlink:href="#NimbusRomNo9L-Regu-33" transform="scale(0.996264)"/>
       <use xlink:href="#NimbusRomNo9L-Regu-30" transform="translate(49.8132 0) scale(0.996264)"/>
      </g>
     </g>
    </g>
    <g id="xtick_5">
     <g id="line2d_13">
      <path d="M 448.358717 510.324775 
L 448.358717 3.6 
" clip-path="url(#pd913af10c4)" style="fill: none; stroke: #b0b0b0; stroke-width: 0.5; stroke-linecap: square"/>
     </g>
     <g id="line2d_14">
      <g>
       <use xlink:href="#m0e140a8355" x="448.358717" y="510.324775" style="stroke: #000000; stroke-width: 1.5"/>
      </g>
     </g>
     <g id="line2d_15">
      <g>
       <use xlink:href="#m9c843fc2fb" x="448.358717" y="3.6" style="stroke: #000000; stroke-width: 1.5"/>
      </g>
     </g>
     <g id="text_5">
      <!-- $\mathdefault{40}$ -->
      <g transform="translate(438.396077 533.83393) scale(0.2 -0.2)">
       <defs>
        <path id="NimbusRomNo9L-Regu-34" d="M 3021 1497 
L 2368 1497 
L 2368 4352 
L 2086 4352 
L 77 1497 
L 77 1088 
L 1875 1088 
L 1875 0 
L 2368 0 
L 2368 1088 
L 3021 1088 
L 3021 1497 
z
M 1869 1497 
L 333 1497 
L 1869 3697 
L 1869 1497 
z
" transform="scale(0.015625)"/>
       </defs>
       <use xlink:href="#NimbusRomNo9L-Regu-34" transform="scale(0.996264)"/>
       <use xlink:href="#NimbusRomNo9L-Regu-30" transform="translate(49.8132 0) scale(0.996264)"/>
      </g>
     </g>
    </g>
    <g id="xtick_6">
     <g id="line2d_16">
      <path d="M 535.400243 510.324775 
L 535.400243 3.6 
" clip-path="url(#pd913af10c4)" style="fill: none; stroke: #b0b0b0; stroke-width: 0.5; stroke-linecap: square"/>
     </g>
     <g id="line2d_17">
      <g>
       <use xlink:href="#m0e140a8355" x="535.400243" y="510.324775" style="stroke: #000000; stroke-width: 1.5"/>
      </g>
     </g>
     <g id="line2d_18">
      <g>
       <use xlink:href="#m9c843fc2fb" x="535.400243" y="3.6" style="stroke: #000000; stroke-width: 1.5"/>
      </g>
     </g>
     <g id="text_6">
      <!-- $\mathdefault{50}$ -->
      <g transform="translate(525.437603 533.83393) scale(0.2 -0.2)">
       <defs>
        <path id="NimbusRomNo9L-Regu-35" d="M 1158 3718 
L 2413 3718 
C 2515 3718 2541 3731 2560 3775 
L 2803 4345 
L 2746 4390 
C 2650 4256 2586 4224 2451 4224 
L 1114 4224 
L 416 2717 
C 410 2705 410 2698 410 2686 
C 410 2654 435 2635 486 2635 
C 691 2635 947 2591 1210 2508 
C 1946 2274 2285 1882 2285 1255 
C 2285 647 1894 172 1395 172 
C 1267 172 1158 217 966 356 
C 762 502 614 565 480 565 
C 294 565 205 489 205 331 
C 205 89 506 -64 986 -64 
C 1523 -64 1984 108 2304 432 
C 2598 717 2733 1078 2733 1559 
C 2733 2015 2611 2306 2291 2622 
C 2010 2901 1645 3047 890 3180 
L 1158 3718 
z
" transform="scale(0.015625)"/>
       </defs>
       <use xlink:href="#NimbusRomNo9L-Regu-35" transform="scale(0.996264)"/>
       <use xlink:href="#NimbusRomNo9L-Regu-30" transform="translate(49.8132 0) scale(0.996264)"/>
      </g>
     </g>
    </g>
    <g id="xtick_7">
     <g id="line2d_19">
      <path d="M 82.784308 510.324775 
L 82.784308 3.6 
" clip-path="url(#pd913af10c4)" style="fill: none; stroke: #b0b0b0; stroke-width: 0.5; stroke-linecap: square"/>
     </g>
     <g id="line2d_20">
      <defs>
       <path id="mcdf7f764a5" d="M 0 0 
L 0 4 
" style="stroke: #000000; stroke-width: 0.5"/>
      </defs>
      <g>
       <use xlink:href="#mcdf7f764a5" x="82.784308" y="510.324775" style="stroke: #000000; stroke-width: 0.5"/>
      </g>
     </g>
     <g id="line2d_21">
      <defs>
       <path id="m9f7c2c4d14" d="M 0 0 
L 0 -4 
" style="stroke: #000000; stroke-width: 0.5"/>
      </defs>
      <g>
       <use xlink:href="#m9f7c2c4d14" x="82.784308" y="3.6" style="stroke: #000000; stroke-width: 0.5"/>
      </g>
     </g>
    </g>
    <g id="xtick_8">
     <g id="line2d_22">
      <path d="M 117.600918 510.324775 
L 117.600918 3.6 
" clip-path="url(#pd913af10c4)" style="fill: none; stroke: #b0b0b0; stroke-width: 0.5; stroke-linecap: square"/>
     </g>
     <g id="line2d_23">
      <g>
       <use xlink:href="#mcdf7f764a5" x="117.600918" y="510.324775" style="stroke: #000000; stroke-width: 0.5"/>
      </g>
     </g>
     <g id="line2d_24">
      <g>
       <use xlink:href="#m9f7c2c4d14" x="117.600918" y="3.6" style="stroke: #000000; stroke-width: 0.5"/>
      </g>
     </g>
    </g>
    <g id="xtick_9">
     <g id="line2d_25">
      <path d="M 135.009223 510.324775 
L 135.009223 3.6 
" clip-path="url(#pd913af10c4)" style="fill: none; stroke: #b0b0b0; stroke-width: 0.5; stroke-linecap: square"/>
     </g>
     <g id="line2d_26">
      <g>
       <use xlink:href="#mcdf7f764a5" x="135.009223" y="510.324775" style="stroke: #000000; stroke-width: 0.5"/>
      </g>
     </g>
     <g id="line2d_27">
      <g>
       <use xlink:href="#m9f7c2c4d14" x="135.009223" y="3.6" style="stroke: #000000; stroke-width: 0.5"/>
      </g>
     </g>
    </g>
    <g id="xtick_10">
     <g id="line2d_28">
      <path d="M 152.417528 510.324775 
L 152.417528 3.6 
" clip-path="url(#pd913af10c4)" style="fill: none; stroke: #b0b0b0; stroke-width: 0.5; stroke-linecap: square"/>
     </g>
     <g id="line2d_29">
      <g>
       <use xlink:href="#mcdf7f764a5" x="152.417528" y="510.324775" style="stroke: #000000; stroke-width: 0.5"/>
      </g>
     </g>
     <g id="line2d_30">
      <g>
       <use xlink:href="#m9f7c2c4d14" x="152.417528" y="3.6" style="stroke: #000000; stroke-width: 0.5"/>
      </g>
     </g>
    </g>
    <g id="xtick_11">
     <g id="line2d_31">
      <path d="M 169.825834 510.324775 
L 169.825834 3.6 
" clip-path="url(#pd913af10c4)" style="fill: none; stroke: #b0b0b0; stroke-width: 0.5; stroke-linecap: square"/>
     </g>
     <g id="line2d_32">
      <g>
       <use xlink:href="#mcdf7f764a5" x="169.825834" y="510.324775" style="stroke: #000000; stroke-width: 0.5"/>
      </g>
     </g>
     <g id="line2d_33">
      <g>
       <use xlink:href="#m9f7c2c4d14" x="169.825834" y="3.6" style="stroke: #000000; stroke-width: 0.5"/>
      </g>
     </g>
    </g>
    <g id="xtick_12">
     <g id="line2d_34">
      <path d="M 204.642444 510.324775 
L 204.642444 3.6 
" clip-path="url(#pd913af10c4)" style="fill: none; stroke: #b0b0b0; stroke-width: 0.5; stroke-linecap: square"/>
     </g>
     <g id="line2d_35">
      <g>
       <use xlink:href="#mcdf7f764a5" x="204.642444" y="510.324775" style="stroke: #000000; stroke-width: 0.5"/>
      </g>
     </g>
     <g id="line2d_36">
      <g>
       <use xlink:href="#m9f7c2c4d14" x="204.642444" y="3.6" style="stroke: #000000; stroke-width: 0.5"/>
      </g>
     </g>
    </g>
    <g id="xtick_13">
     <g id="line2d_37">
      <path d="M 222.050749 510.324775 
L 222.050749 3.6 
" clip-path="url(#pd913af10c4)" style="fill: none; stroke: #b0b0b0; stroke-width: 0.5; stroke-linecap: square"/>
     </g>
     <g id="line2d_38">
      <g>
       <use xlink:href="#mcdf7f764a5" x="222.050749" y="510.324775" style="stroke: #000000; stroke-width: 0.5"/>
      </g>
     </g>
     <g id="line2d_39">
      <g>
       <use xlink:href="#m9f7c2c4d14" x="222.050749" y="3.6" style="stroke: #000000; stroke-width: 0.5"/>
      </g>
     </g>
    </g>
    <g id="xtick_14">
     <g id="line2d_40">
      <path d="M 239.459055 510.324775 
L 239.459055 3.6 
" clip-path="url(#pd913af10c4)" style="fill: none; stroke: #b0b0b0; stroke-width: 0.5; stroke-linecap: square"/>
     </g>
     <g id="line2d_41">
      <g>
       <use xlink:href="#mcdf7f764a5" x="239.459055" y="510.324775" style="stroke: #000000; stroke-width: 0.5"/>
      </g>
     </g>
     <g id="line2d_42">
      <g>
       <use xlink:href="#m9f7c2c4d14" x="239.459055" y="3.6" style="stroke: #000000; stroke-width: 0.5"/>
      </g>
     </g>
    </g>
    <g id="xtick_15">
     <g id="line2d_43">
      <path d="M 256.86736 510.324775 
L 256.86736 3.6 
" clip-path="url(#pd913af10c4)" style="fill: none; stroke: #b0b0b0; stroke-width: 0.5; stroke-linecap: square"/>
     </g>
     <g id="line2d_44">
      <g>
       <use xlink:href="#mcdf7f764a5" x="256.86736" y="510.324775" style="stroke: #000000; stroke-width: 0.5"/>
      </g>
     </g>
     <g id="line2d_45">
      <g>
       <use xlink:href="#m9f7c2c4d14" x="256.86736" y="3.6" style="stroke: #000000; stroke-width: 0.5"/>
      </g>
     </g>
    </g>
    <g id="xtick_16">
     <g id="line2d_46">
      <path d="M 291.68397 510.324775 
L 291.68397 3.6 
" clip-path="url(#pd913af10c4)" style="fill: none; stroke: #b0b0b0; stroke-width: 0.5; stroke-linecap: square"/>
     </g>
     <g id="line2d_47">
      <g>
       <use xlink:href="#mcdf7f764a5" x="291.68397" y="510.324775" style="stroke: #000000; stroke-width: 0.5"/>
      </g>
     </g>
     <g id="line2d_48">
      <g>
       <use xlink:href="#m9f7c2c4d14" x="291.68397" y="3.6" style="stroke: #000000; stroke-width: 0.5"/>
      </g>
     </g>
    </g>
    <g id="xtick_17">
     <g id="line2d_49">
      <path d="M 309.092275 510.324775 
L 309.092275 3.6 
" clip-path="url(#pd913af10c4)" style="fill: none; stroke: #b0b0b0; stroke-width: 0.5; stroke-linecap: square"/>
     </g>
     <g id="line2d_50">
      <g>
       <use xlink:href="#mcdf7f764a5" x="309.092275" y="510.324775" style="stroke: #000000; stroke-width: 0.5"/>
      </g>
     </g>
     <g id="line2d_51">
      <g>
       <use xlink:href="#m9f7c2c4d14" x="309.092275" y="3.6" style="stroke: #000000; stroke-width: 0.5"/>
      </g>
     </g>
    </g>
    <g id="xtick_18">
     <g id="line2d_52">
      <path d="M 326.500581 510.324775 
L 326.500581 3.6 
" clip-path="url(#pd913af10c4)" style="fill: none; stroke: #b0b0b0; stroke-width: 0.5; stroke-linecap: square"/>
     </g>
     <g id="line2d_53">
      <g>
       <use xlink:href="#mcdf7f764a5" x="326.500581" y="510.324775" style="stroke: #000000; stroke-width: 0.5"/>
      </g>
     </g>
     <g id="line2d_54">
      <g>
       <use xlink:href="#m9f7c2c4d14" x="326.500581" y="3.6" style="stroke: #000000; stroke-width: 0.5"/>
      </g>
     </g>
    </g>
    <g id="xtick_19">
     <g id="line2d_55">
      <path d="M 343.908886 510.324775 
L 343.908886 3.6 
" clip-path="url(#pd913af10c4)" style="fill: none; stroke: #b0b0b0; stroke-width: 0.5; stroke-linecap: square"/>
     </g>
     <g id="line2d_56">
      <g>
       <use xlink:href="#mcdf7f764a5" x="343.908886" y="510.324775" style="stroke: #000000; stroke-width: 0.5"/>
      </g>
     </g>
     <g id="line2d_57">
      <g>
       <use xlink:href="#m9f7c2c4d14" x="343.908886" y="3.6" style="stroke: #000000; stroke-width: 0.5"/>
      </g>
     </g>
    </g>
    <g id="xtick_20">
     <g id="line2d_58">
      <path d="M 378.725496 510.324775 
L 378.725496 3.6 
" clip-path="url(#pd913af10c4)" style="fill: none; stroke: #b0b0b0; stroke-width: 0.5; stroke-linecap: square"/>
     </g>
     <g id="line2d_59">
      <g>
       <use xlink:href="#mcdf7f764a5" x="378.725496" y="510.324775" style="stroke: #000000; stroke-width: 0.5"/>
      </g>
     </g>
     <g id="line2d_60">
      <g>
       <use xlink:href="#m9f7c2c4d14" x="378.725496" y="3.6" style="stroke: #000000; stroke-width: 0.5"/>
      </g>
     </g>
    </g>
    <g id="xtick_21">
     <g id="line2d_61">
      <path d="M 396.133801 510.324775 
L 396.133801 3.6 
" clip-path="url(#pd913af10c4)" style="fill: none; stroke: #b0b0b0; stroke-width: 0.5; stroke-linecap: square"/>
     </g>
     <g id="line2d_62">
      <g>
       <use xlink:href="#mcdf7f764a5" x="396.133801" y="510.324775" style="stroke: #000000; stroke-width: 0.5"/>
      </g>
     </g>
     <g id="line2d_63">
      <g>
       <use xlink:href="#m9f7c2c4d14" x="396.133801" y="3.6" style="stroke: #000000; stroke-width: 0.5"/>
      </g>
     </g>
    </g>
    <g id="xtick_22">
     <g id="line2d_64">
      <path d="M 413.542107 510.324775 
L 413.542107 3.6 
" clip-path="url(#pd913af10c4)" style="fill: none; stroke: #b0b0b0; stroke-width: 0.5; stroke-linecap: square"/>
     </g>
     <g id="line2d_65">
      <g>
       <use xlink:href="#mcdf7f764a5" x="413.542107" y="510.324775" style="stroke: #000000; stroke-width: 0.5"/>
      </g>
     </g>
     <g id="line2d_66">
      <g>
       <use xlink:href="#m9f7c2c4d14" x="413.542107" y="3.6" style="stroke: #000000; stroke-width: 0.5"/>
      </g>
     </g>
    </g>
    <g id="xtick_23">
     <g id="line2d_67">
      <path d="M 430.950412 510.324775 
L 430.950412 3.6 
" clip-path="url(#pd913af10c4)" style="fill: none; stroke: #b0b0b0; stroke-width: 0.5; stroke-linecap: square"/>
     </g>
     <g id="line2d_68">
      <g>
       <use xlink:href="#mcdf7f764a5" x="430.950412" y="510.324775" style="stroke: #000000; stroke-width: 0.5"/>
      </g>
     </g>
     <g id="line2d_69">
      <g>
       <use xlink:href="#m9f7c2c4d14" x="430.950412" y="3.6" style="stroke: #000000; stroke-width: 0.5"/>
      </g>
     </g>
    </g>
    <g id="xtick_24">
     <g id="line2d_70">
      <path d="M 465.767022 510.324775 
L 465.767022 3.6 
" clip-path="url(#pd913af10c4)" style="fill: none; stroke: #b0b0b0; stroke-width: 0.5; stroke-linecap: square"/>
     </g>
     <g id="line2d_71">
      <g>
       <use xlink:href="#mcdf7f764a5" x="465.767022" y="510.324775" style="stroke: #000000; stroke-width: 0.5"/>
      </g>
     </g>
     <g id="line2d_72">
      <g>
       <use xlink:href="#m9f7c2c4d14" x="465.767022" y="3.6" style="stroke: #000000; stroke-width: 0.5"/>
      </g>
     </g>
    </g>
    <g id="xtick_25">
     <g id="line2d_73">
      <path d="M 483.175328 510.324775 
L 483.175328 3.6 
" clip-path="url(#pd913af10c4)" style="fill: none; stroke: #b0b0b0; stroke-width: 0.5; stroke-linecap: square"/>
     </g>
     <g id="line2d_74">
      <g>
       <use xlink:href="#mcdf7f764a5" x="483.175328" y="510.324775" style="stroke: #000000; stroke-width: 0.5"/>
      </g>
     </g>
     <g id="line2d_75">
      <g>
       <use xlink:href="#m9f7c2c4d14" x="483.175328" y="3.6" style="stroke: #000000; stroke-width: 0.5"/>
      </g>
     </g>
    </g>
    <g id="xtick_26">
     <g id="line2d_76">
      <path d="M 500.583633 510.324775 
L 500.583633 3.6 
" clip-path="url(#pd913af10c4)" style="fill: none; stroke: #b0b0b0; stroke-width: 0.5; stroke-linecap: square"/>
     </g>
     <g id="line2d_77">
      <g>
       <use xlink:href="#mcdf7f764a5" x="500.583633" y="510.324775" style="stroke: #000000; stroke-width: 0.5"/>
      </g>
     </g>
     <g id="line2d_78">
      <g>
       <use xlink:href="#m9f7c2c4d14" x="500.583633" y="3.6" style="stroke: #000000; stroke-width: 0.5"/>
      </g>
     </g>
    </g>
    <g id="xtick_27">
     <g id="line2d_79">
      <path d="M 517.991938 510.324775 
L 517.991938 3.6 
" clip-path="url(#pd913af10c4)" style="fill: none; stroke: #b0b0b0; stroke-width: 0.5; stroke-linecap: square"/>
     </g>
     <g id="line2d_80">
      <g>
       <use xlink:href="#mcdf7f764a5" x="517.991938" y="510.324775" style="stroke: #000000; stroke-width: 0.5"/>
      </g>
     </g>
     <g id="line2d_81">
      <g>
       <use xlink:href="#m9f7c2c4d14" x="517.991938" y="3.6" style="stroke: #000000; stroke-width: 0.5"/>
      </g>
     </g>
    </g>
    <g id="xtick_28">
     <g id="line2d_82">
      <path d="M 552.808548 510.324775 
L 552.808548 3.6 
" clip-path="url(#pd913af10c4)" style="fill: none; stroke: #b0b0b0; stroke-width: 0.5; stroke-linecap: square"/>
     </g>
     <g id="line2d_83">
      <g>
       <use xlink:href="#mcdf7f764a5" x="552.808548" y="510.324775" style="stroke: #000000; stroke-width: 0.5"/>
      </g>
     </g>
     <g id="line2d_84">
      <g>
       <use xlink:href="#m9f7c2c4d14" x="552.808548" y="3.6" style="stroke: #000000; stroke-width: 0.5"/>
      </g>
     </g>
    </g>
    <g id="text_7">
     <!-- $t$ -->
     <g transform="translate(318.651914 561.060399) scale(0.28 -0.28)">
      <defs>
       <path id="NimbusRomNo9L-ReguItal-74" d="M 1894 2752 
L 1382 2752 
L 1562 3411 
C 1568 3424 1568 3436 1568 3443 
C 1568 3488 1549 3507 1517 3507 
C 1478 3507 1459 3500 1421 3449 
C 1171 3123 774 2803 570 2745 
C 410 2694 365 2655 365 2585 
C 365 2579 365 2566 371 2547 
L 845 2547 
L 384 782 
C 371 724 365 705 346 647 
C 288 454 237 230 237 179 
C 237 38 371 -64 544 -64 
C 838 -64 1050 115 1453 711 
L 1370 756 
C 1056 352 954 249 851 249 
C 794 249 755 300 755 377 
C 755 384 755 390 762 410 
L 1325 2547 
L 1862 2547 
L 1894 2752 
z
" transform="scale(0.015625)"/>
      </defs>
      <use xlink:href="#NimbusRomNo9L-ReguItal-74" transform="scale(0.996264)"/>
     </g>
    </g>
   </g>
   <g id="matplotlib.axis_2">
    <g id="ytick_1">
     <g id="line2d_85">
      <path d="M 77.958951 466.047631 
L 567.09952 466.047631 
" clip-path="url(#pd913af10c4)" style="fill: none; stroke: #b0b0b0; stroke-width: 0.5; stroke-linecap: square"/>
     </g>
     <g id="line2d_86">
      <defs>
       <path id="m5daf1eaed4" d="M 0 0 
L -6.5 0 
" style="stroke: #000000; stroke-width: 1.5"/>
      </defs>
      <g>
       <use xlink:href="#m5daf1eaed4" x="77.958951" y="466.047631" style="stroke: #000000; stroke-width: 1.5"/>
      </g>
     </g>
     <g id="line2d_87">
      <defs>
       <path id="me37c65f977" d="M 0 0 
L 6.5 0 
" style="stroke: #000000; stroke-width: 1.5"/>
      </defs>
      <g>
       <use xlink:href="#me37c65f977" x="567.09952" y="466.047631" style="stroke: #000000; stroke-width: 1.5"/>
      </g>
     </g>
     <g id="text_8">
      <!-- $\mathdefault{−70}$ -->
      <g transform="translate(32.551932 472.802208) scale(0.2 -0.2)">
       <defs>
        <path id="CMSY10-0" d="M 4218 1472 
C 4326 1472 4442 1472 4442 1600 
C 4442 1728 4326 1728 4218 1728 
L 755 1728 
C 646 1728 531 1728 531 1600 
C 531 1472 646 1472 755 1472 
L 4218 1472 
z
" transform="scale(0.015625)"/>
        <path id="NimbusRomNo9L-Regu-37" d="M 2874 4224 
L 506 4224 
L 128 3283 
L 237 3232 
C 512 3667 627 3750 979 3750 
L 2368 3750 
L 1101 -64 
L 1517 -64 
L 2874 4121 
L 2874 4224 
z
" transform="scale(0.015625)"/>
       </defs>
       <use xlink:href="#CMSY10-0" transform="scale(0.996264)"/>
       <use xlink:href="#NimbusRomNo9L-Regu-37" transform="translate(77.408707 0) scale(0.996264)"/>
       <use xlink:href="#NimbusRomNo9L-Regu-30" transform="translate(127.221908 0) scale(0.996264)"/>
      </g>
     </g>
    </g>
    <g id="ytick_2">
     <g id="line2d_88">
      <path d="M 77.958951 356.193959 
L 567.09952 356.193959 
" clip-path="url(#pd913af10c4)" style="fill: none; stroke: #b0b0b0; stroke-width: 0.5; stroke-linecap: square"/>
     </g>
     <g id="line2d_89">
      <g>
       <use xlink:href="#m5daf1eaed4" x="77.958951" y="356.193959" style="stroke: #000000; stroke-width: 1.5"/>
      </g>
     </g>
     <g id="line2d_90">
      <g>
       <use xlink:href="#me37c65f977" x="567.09952" y="356.193959" style="stroke: #000000; stroke-width: 1.5"/>
      </g>
     </g>
     <g id="text_9">
      <!-- $\mathdefault{−65}$ -->
      <g transform="translate(32.551932 362.948537) scale(0.2 -0.2)">
       <defs>
        <path id="NimbusRomNo9L-Regu-36" d="M 2854 4390 
C 2125 4326 1754 4204 1286 3878 
C 595 3385 218 2655 218 1801 
C 218 1248 390 688 666 369 
C 909 89 1254 -64 1651 -64 
C 2445 -64 2995 541 2995 1420 
C 2995 2234 2528 2752 1792 2752 
C 1510 2752 1376 2707 973 2463 
C 1146 3430 1862 4121 2867 4288 
L 2854 4390 
z
M 1549 2457 
C 2099 2457 2419 1999 2419 1203 
C 2419 503 2170 115 1722 115 
C 1158 115 813 713 813 1700 
C 813 2024 864 2203 992 2298 
C 1126 2400 1325 2457 1549 2457 
z
" transform="scale(0.015625)"/>
       </defs>
       <use xlink:href="#CMSY10-0" transform="scale(0.996264)"/>
       <use xlink:href="#NimbusRomNo9L-Regu-36" transform="translate(77.408707 0) scale(0.996264)"/>
       <use xlink:href="#NimbusRomNo9L-Regu-35" transform="translate(127.221908 0) scale(0.996264)"/>
      </g>
     </g>
    </g>
    <g id="ytick_3">
     <g id="line2d_91">
      <path d="M 77.958951 246.340287 
L 567.09952 246.340287 
" clip-path="url(#pd913af10c4)" style="fill: none; stroke: #b0b0b0; stroke-width: 0.5; stroke-linecap: square"/>
     </g>
     <g id="line2d_92">
      <g>
       <use xlink:href="#m5daf1eaed4" x="77.958951" y="246.340287" style="stroke: #000000; stroke-width: 1.5"/>
      </g>
     </g>
     <g id="line2d_93">
      <g>
       <use xlink:href="#me37c65f977" x="567.09952" y="246.340287" style="stroke: #000000; stroke-width: 1.5"/>
      </g>
     </g>
     <g id="text_10">
      <!-- $\mathdefault{−60}$ -->
      <g transform="translate(32.551932 253.094865) scale(0.2 -0.2)">
       <use xlink:href="#CMSY10-0" transform="scale(0.996264)"/>
       <use xlink:href="#NimbusRomNo9L-Regu-36" transform="translate(77.408707 0) scale(0.996264)"/>
       <use xlink:href="#NimbusRomNo9L-Regu-30" transform="translate(127.221908 0) scale(0.996264)"/>
      </g>
     </g>
    </g>
    <g id="ytick_4">
     <g id="line2d_94">
      <path d="M 77.958951 136.486616 
L 567.09952 136.486616 
" clip-path="url(#pd913af10c4)" style="fill: none; stroke: #b0b0b0; stroke-width: 0.5; stroke-linecap: square"/>
     </g>
     <g id="line2d_95">
      <g>
       <use xlink:href="#m5daf1eaed4" x="77.958951" y="136.486616" style="stroke: #000000; stroke-width: 1.5"/>
      </g>
     </g>
     <g id="line2d_96">
      <g>
       <use xlink:href="#me37c65f977" x="567.09952" y="136.486616" style="stroke: #000000; stroke-width: 1.5"/>
      </g>
     </g>
     <g id="text_11">
      <!-- $\mathdefault{−55}$ -->
      <g transform="translate(32.551932 143.241193) scale(0.2 -0.2)">
       <use xlink:href="#CMSY10-0" transform="scale(0.996264)"/>
       <use xlink:href="#NimbusRomNo9L-Regu-35" transform="translate(77.408707 0) scale(0.996264)"/>
       <use xlink:href="#NimbusRomNo9L-Regu-35" transform="translate(127.221908 0) scale(0.996264)"/>
      </g>
     </g>
    </g>
    <g id="ytick_5">
     <g id="line2d_97">
      <path d="M 77.958951 26.632944 
L 567.09952 26.632944 
" clip-path="url(#pd913af10c4)" style="fill: none; stroke: #b0b0b0; stroke-width: 0.5; stroke-linecap: square"/>
     </g>
     <g id="line2d_98">
      <g>
       <use xlink:href="#m5daf1eaed4" x="77.958951" y="26.632944" style="stroke: #000000; stroke-width: 1.5"/>
      </g>
     </g>
     <g id="line2d_99">
      <g>
       <use xlink:href="#me37c65f977" x="567.09952" y="26.632944" style="stroke: #000000; stroke-width: 1.5"/>
      </g>
     </g>
     <g id="text_12">
      <!-- $\mathdefault{−50}$ -->
      <g transform="translate(32.551932 33.387522) scale(0.2 -0.2)">
       <use xlink:href="#CMSY10-0" transform="scale(0.996264)"/>
       <use xlink:href="#NimbusRomNo9L-Regu-35" transform="translate(77.408707 0) scale(0.996264)"/>
       <use xlink:href="#NimbusRomNo9L-Regu-30" transform="translate(127.221908 0) scale(0.996264)"/>
      </g>
     </g>
    </g>
    <g id="ytick_6">
     <g id="line2d_100">
      <path d="M 77.958951 509.989099 
L 567.09952 509.989099 
" clip-path="url(#pd913af10c4)" style="fill: none; stroke: #b0b0b0; stroke-width: 0.5; stroke-linecap: square"/>
     </g>
     <g id="line2d_101">
      <defs>
       <path id="mc98eff129e" d="M 0 0 
L -4 0 
" style="stroke: #000000; stroke-width: 0.5"/>
      </defs>
      <g>
       <use xlink:href="#mc98eff129e" x="77.958951" y="509.989099" style="stroke: #000000; stroke-width: 0.5"/>
      </g>
     </g>
     <g id="line2d_102">
      <defs>
       <path id="m3089284e69" d="M 0 0 
L 4 0 
" style="stroke: #000000; stroke-width: 0.5"/>
      </defs>
      <g>
       <use xlink:href="#m3089284e69" x="567.09952" y="509.989099" style="stroke: #000000; stroke-width: 0.5"/>
      </g>
     </g>
    </g>
    <g id="ytick_7">
     <g id="line2d_103">
      <path d="M 77.958951 488.018365 
L 567.09952 488.018365 
" clip-path="url(#pd913af10c4)" style="fill: none; stroke: #b0b0b0; stroke-width: 0.5; stroke-linecap: square"/>
     </g>
     <g id="line2d_104">
      <g>
       <use xlink:href="#mc98eff129e" x="77.958951" y="488.018365" style="stroke: #000000; stroke-width: 0.5"/>
      </g>
     </g>
     <g id="line2d_105">
      <g>
       <use xlink:href="#m3089284e69" x="567.09952" y="488.018365" style="stroke: #000000; stroke-width: 0.5"/>
      </g>
     </g>
    </g>
    <g id="ytick_8">
     <g id="line2d_106">
      <path d="M 77.958951 444.076896 
L 567.09952 444.076896 
" clip-path="url(#pd913af10c4)" style="fill: none; stroke: #b0b0b0; stroke-width: 0.5; stroke-linecap: square"/>
     </g>
     <g id="line2d_107">
      <g>
       <use xlink:href="#mc98eff129e" x="77.958951" y="444.076896" style="stroke: #000000; stroke-width: 0.5"/>
      </g>
     </g>
     <g id="line2d_108">
      <g>
       <use xlink:href="#m3089284e69" x="567.09952" y="444.076896" style="stroke: #000000; stroke-width: 0.5"/>
      </g>
     </g>
    </g>
    <g id="ytick_9">
     <g id="line2d_109">
      <path d="M 77.958951 422.106162 
L 567.09952 422.106162 
" clip-path="url(#pd913af10c4)" style="fill: none; stroke: #b0b0b0; stroke-width: 0.5; stroke-linecap: square"/>
     </g>
     <g id="line2d_110">
      <g>
       <use xlink:href="#mc98eff129e" x="77.958951" y="422.106162" style="stroke: #000000; stroke-width: 0.5"/>
      </g>
     </g>
     <g id="line2d_111">
      <g>
       <use xlink:href="#m3089284e69" x="567.09952" y="422.106162" style="stroke: #000000; stroke-width: 0.5"/>
      </g>
     </g>
    </g>
    <g id="ytick_10">
     <g id="line2d_112">
      <path d="M 77.958951 400.135428 
L 567.09952 400.135428 
" clip-path="url(#pd913af10c4)" style="fill: none; stroke: #b0b0b0; stroke-width: 0.5; stroke-linecap: square"/>
     </g>
     <g id="line2d_113">
      <g>
       <use xlink:href="#mc98eff129e" x="77.958951" y="400.135428" style="stroke: #000000; stroke-width: 0.5"/>
      </g>
     </g>
     <g id="line2d_114">
      <g>
       <use xlink:href="#m3089284e69" x="567.09952" y="400.135428" style="stroke: #000000; stroke-width: 0.5"/>
      </g>
     </g>
    </g>
    <g id="ytick_11">
     <g id="line2d_115">
      <path d="M 77.958951 378.164693 
L 567.09952 378.164693 
" clip-path="url(#pd913af10c4)" style="fill: none; stroke: #b0b0b0; stroke-width: 0.5; stroke-linecap: square"/>
     </g>
     <g id="line2d_116">
      <g>
       <use xlink:href="#mc98eff129e" x="77.958951" y="378.164693" style="stroke: #000000; stroke-width: 0.5"/>
      </g>
     </g>
     <g id="line2d_117">
      <g>
       <use xlink:href="#m3089284e69" x="567.09952" y="378.164693" style="stroke: #000000; stroke-width: 0.5"/>
      </g>
     </g>
    </g>
    <g id="ytick_12">
     <g id="line2d_118">
      <path d="M 77.958951 334.223225 
L 567.09952 334.223225 
" clip-path="url(#pd913af10c4)" style="fill: none; stroke: #b0b0b0; stroke-width: 0.5; stroke-linecap: square"/>
     </g>
     <g id="line2d_119">
      <g>
       <use xlink:href="#mc98eff129e" x="77.958951" y="334.223225" style="stroke: #000000; stroke-width: 0.5"/>
      </g>
     </g>
     <g id="line2d_120">
      <g>
       <use xlink:href="#m3089284e69" x="567.09952" y="334.223225" style="stroke: #000000; stroke-width: 0.5"/>
      </g>
     </g>
    </g>
    <g id="ytick_13">
     <g id="line2d_121">
      <path d="M 77.958951 312.25249 
L 567.09952 312.25249 
" clip-path="url(#pd913af10c4)" style="fill: none; stroke: #b0b0b0; stroke-width: 0.5; stroke-linecap: square"/>
     </g>
     <g id="line2d_122">
      <g>
       <use xlink:href="#mc98eff129e" x="77.958951" y="312.25249" style="stroke: #000000; stroke-width: 0.5"/>
      </g>
     </g>
     <g id="line2d_123">
      <g>
       <use xlink:href="#m3089284e69" x="567.09952" y="312.25249" style="stroke: #000000; stroke-width: 0.5"/>
      </g>
     </g>
    </g>
    <g id="ytick_14">
     <g id="line2d_124">
      <path d="M 77.958951 290.281756 
L 567.09952 290.281756 
" clip-path="url(#pd913af10c4)" style="fill: none; stroke: #b0b0b0; stroke-width: 0.5; stroke-linecap: square"/>
     </g>
     <g id="line2d_125">
      <g>
       <use xlink:href="#mc98eff129e" x="77.958951" y="290.281756" style="stroke: #000000; stroke-width: 0.5"/>
      </g>
     </g>
     <g id="line2d_126">
      <g>
       <use xlink:href="#m3089284e69" x="567.09952" y="290.281756" style="stroke: #000000; stroke-width: 0.5"/>
      </g>
     </g>
    </g>
    <g id="ytick_15">
     <g id="line2d_127">
      <path d="M 77.958951 268.311022 
L 567.09952 268.311022 
" clip-path="url(#pd913af10c4)" style="fill: none; stroke: #b0b0b0; stroke-width: 0.5; stroke-linecap: square"/>
     </g>
     <g id="line2d_128">
      <g>
       <use xlink:href="#mc98eff129e" x="77.958951" y="268.311022" style="stroke: #000000; stroke-width: 0.5"/>
      </g>
     </g>
     <g id="line2d_129">
      <g>
       <use xlink:href="#m3089284e69" x="567.09952" y="268.311022" style="stroke: #000000; stroke-width: 0.5"/>
      </g>
     </g>
    </g>
    <g id="ytick_16">
     <g id="line2d_130">
      <path d="M 77.958951 224.369553 
L 567.09952 224.369553 
" clip-path="url(#pd913af10c4)" style="fill: none; stroke: #b0b0b0; stroke-width: 0.5; stroke-linecap: square"/>
     </g>
     <g id="line2d_131">
      <g>
       <use xlink:href="#mc98eff129e" x="77.958951" y="224.369553" style="stroke: #000000; stroke-width: 0.5"/>
      </g>
     </g>
     <g id="line2d_132">
      <g>
       <use xlink:href="#m3089284e69" x="567.09952" y="224.369553" style="stroke: #000000; stroke-width: 0.5"/>
      </g>
     </g>
    </g>
    <g id="ytick_17">
     <g id="line2d_133">
      <path d="M 77.958951 202.398819 
L 567.09952 202.398819 
" clip-path="url(#pd913af10c4)" style="fill: none; stroke: #b0b0b0; stroke-width: 0.5; stroke-linecap: square"/>
     </g>
     <g id="line2d_134">
      <g>
       <use xlink:href="#mc98eff129e" x="77.958951" y="202.398819" style="stroke: #000000; stroke-width: 0.5"/>
      </g>
     </g>
     <g id="line2d_135">
      <g>
       <use xlink:href="#m3089284e69" x="567.09952" y="202.398819" style="stroke: #000000; stroke-width: 0.5"/>
      </g>
     </g>
    </g>
    <g id="ytick_18">
     <g id="line2d_136">
      <path d="M 77.958951 180.428085 
L 567.09952 180.428085 
" clip-path="url(#pd913af10c4)" style="fill: none; stroke: #b0b0b0; stroke-width: 0.5; stroke-linecap: square"/>
     </g>
     <g id="line2d_137">
      <g>
       <use xlink:href="#mc98eff129e" x="77.958951" y="180.428085" style="stroke: #000000; stroke-width: 0.5"/>
      </g>
     </g>
     <g id="line2d_138">
      <g>
       <use xlink:href="#m3089284e69" x="567.09952" y="180.428085" style="stroke: #000000; stroke-width: 0.5"/>
      </g>
     </g>
    </g>
    <g id="ytick_19">
     <g id="line2d_139">
      <path d="M 77.958951 158.45735 
L 567.09952 158.45735 
" clip-path="url(#pd913af10c4)" style="fill: none; stroke: #b0b0b0; stroke-width: 0.5; stroke-linecap: square"/>
     </g>
     <g id="line2d_140">
      <g>
       <use xlink:href="#mc98eff129e" x="77.958951" y="158.45735" style="stroke: #000000; stroke-width: 0.5"/>
      </g>
     </g>
     <g id="line2d_141">
      <g>
       <use xlink:href="#m3089284e69" x="567.09952" y="158.45735" style="stroke: #000000; stroke-width: 0.5"/>
      </g>
     </g>
    </g>
    <g id="ytick_20">
     <g id="line2d_142">
      <path d="M 77.958951 114.515882 
L 567.09952 114.515882 
" clip-path="url(#pd913af10c4)" style="fill: none; stroke: #b0b0b0; stroke-width: 0.5; stroke-linecap: square"/>
     </g>
     <g id="line2d_143">
      <g>
       <use xlink:href="#mc98eff129e" x="77.958951" y="114.515882" style="stroke: #000000; stroke-width: 0.5"/>
      </g>
     </g>
     <g id="line2d_144">
      <g>
       <use xlink:href="#m3089284e69" x="567.09952" y="114.515882" style="stroke: #000000; stroke-width: 0.5"/>
      </g>
     </g>
    </g>
    <g id="ytick_21">
     <g id="line2d_145">
      <path d="M 77.958951 92.545147 
L 567.09952 92.545147 
" clip-path="url(#pd913af10c4)" style="fill: none; stroke: #b0b0b0; stroke-width: 0.5; stroke-linecap: square"/>
     </g>
     <g id="line2d_146">
      <g>
       <use xlink:href="#mc98eff129e" x="77.958951" y="92.545147" style="stroke: #000000; stroke-width: 0.5"/>
      </g>
     </g>
     <g id="line2d_147">
      <g>
       <use xlink:href="#m3089284e69" x="567.09952" y="92.545147" style="stroke: #000000; stroke-width: 0.5"/>
      </g>
     </g>
    </g>
    <g id="ytick_22">
     <g id="line2d_148">
      <path d="M 77.958951 70.574413 
L 567.09952 70.574413 
" clip-path="url(#pd913af10c4)" style="fill: none; stroke: #b0b0b0; stroke-width: 0.5; stroke-linecap: square"/>
     </g>
     <g id="line2d_149">
      <g>
       <use xlink:href="#mc98eff129e" x="77.958951" y="70.574413" style="stroke: #000000; stroke-width: 0.5"/>
      </g>
     </g>
     <g id="line2d_150">
      <g>
       <use xlink:href="#m3089284e69" x="567.09952" y="70.574413" style="stroke: #000000; stroke-width: 0.5"/>
      </g>
     </g>
    </g>
    <g id="ytick_23">
     <g id="line2d_151">
      <path d="M 77.958951 48.603679 
L 567.09952 48.603679 
" clip-path="url(#pd913af10c4)" style="fill: none; stroke: #b0b0b0; stroke-width: 0.5; stroke-linecap: square"/>
     </g>
     <g id="line2d_152">
      <g>
       <use xlink:href="#mc98eff129e" x="77.958951" y="48.603679" style="stroke: #000000; stroke-width: 0.5"/>
      </g>
     </g>
     <g id="line2d_153">
      <g>
       <use xlink:href="#m3089284e69" x="567.09952" y="48.603679" style="stroke: #000000; stroke-width: 0.5"/>
      </g>
     </g>
    </g>
    <g id="ytick_24">
     <g id="line2d_154">
      <path d="M 77.958951 4.66221 
L 567.09952 4.66221 
" clip-path="url(#pd913af10c4)" style="fill: none; stroke: #b0b0b0; stroke-width: 0.5; stroke-linecap: square"/>
     </g>
     <g id="line2d_155">
      <g>
       <use xlink:href="#mc98eff129e" x="77.958951" y="4.66221" style="stroke: #000000; stroke-width: 0.5"/>
      </g>
     </g>
     <g id="line2d_156">
      <g>
       <use xlink:href="#m3089284e69" x="567.09952" y="4.66221" style="stroke: #000000; stroke-width: 0.5"/>
      </g>
     </g>
    </g>
    <g id="text_13">
     <!-- $V$ -->
     <g transform="translate(22.512811 265.484416) rotate(-90) scale(0.28 -0.28)">
      <defs>
       <path id="NimbusRomNo9L-ReguItal-56" d="M 4403 4160 
L 3213 4160 
L 3213 4057 
C 3501 4025 3616 3961 3616 3840 
C 3616 3718 3494 3444 3283 3079 
L 1965 805 
L 1542 3635 
C 1536 3667 1536 3693 1536 3731 
C 1536 3948 1626 4012 2029 4057 
L 2029 4160 
L 486 4160 
L 486 4057 
C 845 4012 858 3993 992 3194 
L 1536 -128 
L 1658 -128 
L 4045 3801 
C 4154 3974 4256 4051 4403 4057 
L 4403 4160 
z
" transform="scale(0.015625)"/>
      </defs>
      <use xlink:href="#NimbusRomNo9L-ReguItal-56" transform="scale(0.996264)"/>
     </g>
    </g>
   </g>
   <g id="line2d_157">
    <path d="M 100.192613 466.047631 
L 212.272268 465.955588 
L 213.030351 465.652769 
L 213.625988 465.16675 
L 214.248699 464.345724 
L 214.88683 463.103894 
L 215.57606 461.236892 
L 216.309756 458.574259 
L 217.110152 454.795101 
L 217.977247 449.588468 
L 218.933276 442.425723 
L 219.978237 432.825099 
L 221.134365 420.01888 
L 222.401658 403.393194 
L 223.824584 381.691695 
L 225.492076 352.66819 
L 227.559765 312.529202 
L 235.274693 158.555617 
L 236.831018 134.011804 
L 238.165012 116.306148 
L 239.321139 103.758815 
L 240.321634 95.141726 
L 241.210963 89.290251 
L 241.966892 85.673852 
L 242.611656 83.575504 
L 243.145253 82.520063 
L 243.567684 82.116472 
L 243.881728 82.064889 
L 244.256914 82.2769 
L 244.645995 82.789881 
L 245.112893 83.801386 
L 245.690957 85.637429 
L 246.380187 88.631291 
L 247.202816 93.274737 
L 248.181077 100.16732 
L 249.359438 110.163597 
L 250.849064 124.843169 
L 253.205785 150.629085 
L 256.029404 180.935477 
L 257.541263 194.829419 
L 258.741857 203.936427 
L 259.742352 209.926646 
L 260.564981 213.624239 
L 261.254211 215.802767 
L 261.810041 216.919322 
L 262.254706 217.388336 
L 262.560413 217.486648 
L 262.935598 217.344834 
L 263.35525 216.867212 
L 263.799915 215.981911 
L 264.333512 214.39533 
L 264.978275 211.717658 
L 265.711972 207.668557 
L 266.579067 201.538896 
L 267.557329 192.945832 
L 268.691223 180.910632 
L 270.002983 164.509043 
L 271.603775 141.532373 
L 273.782631 106.727321 
L 278.651706 27.980024 
L 278.74374 26.632944 
L 278.74374 356.193959 
L 278.832673 353.215207 
L 279.677535 330.382453 
L 281.033761 299.479455 
L 282.389988 273.368135 
L 283.657281 253.047469 
L 284.791176 238.207907 
L 285.813904 227.53775 
L 286.725466 220.183424 
L 287.525862 215.374479 
L 288.237325 212.362976 
L 288.837622 210.719807 
L 289.326753 209.969351 
L 289.704717 209.740272 
L 289.960399 209.761334 
L 290.335585 210.029283 
L 290.767743 210.671427 
L 291.279107 211.884653 
L 291.901637 213.989177 
L 292.657567 217.398223 
L 293.569129 222.615773 
L 294.68079 230.347809 
L 296.148183 242.249001 
L 301.817654 290.012493 
L 302.951548 296.879748 
L 303.86311 301.152955 
L 304.61904 303.737608 
L 305.24157 305.158143 
L 305.752934 305.820402 
L 306.142015 306.00824 
L 306.492188 305.921563 
L 306.886133 305.564977 
L 307.329061 304.814966 
L 307.840425 303.477452 
L 308.462955 301.159785 
L 309.174418 297.581387 
L 309.997047 292.215419 
L 310.930842 284.560337 
L 311.998037 273.859379 
L 313.220864 259.221792 
L 314.64379 239.375579 
L 316.400215 211.548957 
L 318.979268 166.687135 
L 322.714449 102.129447 
L 324.493107 75.265721 
L 325.938266 56.636011 
L 327.161093 43.601441 
L 328.206055 34.679113 
L 329.117617 28.675618 
L 329.507111 26.632944 
L 329.507111 356.193959 
L 329.596044 354.086277 
L 330.218574 343.18164 
L 331.107903 331.299691 
L 331.997232 322.215755 
L 332.819861 315.917307 
L 333.553557 311.847754 
L 334.198321 309.390488 
L 334.754151 308.060367 
L 335.198816 307.492743 
L 335.571222 307.341603 
L 335.946408 307.484824 
L 336.343827 307.919861 
L 336.810724 308.796096 
L 337.388788 310.39464 
L 338.100251 313.068115 
L 338.98958 317.359489 
L 340.101241 323.913011 
L 341.657566 334.562811 
L 345.459447 361.087517 
L 346.660041 367.68995 
L 347.616069 371.799671 
L 348.394232 374.246588 
L 349.016762 375.556772 
L 349.528126 376.170836 
L 349.917208 376.345123 
L 350.267381 376.26275 
L 350.661326 375.925872 
L 351.110159 375.20366 
L 351.621523 373.926683 
L 352.22182 371.798172 
L 352.933283 368.383741 
L 353.733679 363.380084 
L 354.645241 356.19284 
L 355.667969 346.288793 
L 356.84633 332.58709 
L 358.202556 314.052779 
L 359.803348 288.94801 
L 361.871037 252.758743 
L 368.207505 139.359547 
L 369.808297 115.965765 
L 371.14229 99.552602 
L 372.298418 87.94167 
L 373.298913 80.020573 
L 374.166008 74.827596 
L 374.899705 71.674539 
L 375.522235 69.898502 
L 376.011366 69.081391 
L 376.411564 68.788894 
L 376.711712 68.797031 
L 377.086898 69.068434 
L 377.503771 69.697902 
L 377.992901 70.880298 
L 378.593198 72.969376 
L 379.304661 76.318266 
L 380.149524 81.451256 
L 381.150019 89.009991 
L 382.350613 99.91681 
L 383.840238 115.643154 
L 386.041327 141.551809 
L 389.420777 181.14689 
L 390.977102 196.719387 
L 392.199929 206.884349 
L 393.222657 213.673676 
L 394.089753 218.055005 
L 394.823449 220.701153 
L 395.423746 222.108043 
L 395.890644 222.716754 
L 396.257492 222.891503 
L 396.607665 222.795188 
L 397.027317 222.365215 
L 397.471982 221.525226 
L 398.005579 219.987228 
L 398.628109 217.466655 
L 399.361805 213.505539 
L 400.206668 207.65122 
L 401.184929 199.22043 
L 402.318824 187.390201 
L 403.652817 170.970106 
L 405.275842 148.036555 
L 407.543631 112.475998 
L 411.879108 44.09322 
L 413.146533 26.632944 
L 413.146533 356.193959 
L 413.235466 353.356119 
L 414.058095 332.462501 
L 415.303155 306.179288 
L 416.570449 283.887727 
L 417.748809 266.884307 
L 418.816004 254.521505 
L 419.772032 245.86621 
L 420.616895 240.087131 
L 421.350591 236.457697 
L 421.995354 234.303393 
L 422.528952 233.229623 
L 422.951383 232.820445 
L 423.28766 232.769434 
L 423.662846 232.990163 
L 424.072771 233.542334 
L 424.561902 234.620198 
L 425.162199 236.535022 
L 425.895895 239.695743 
L 426.785224 244.610192 
L 427.874652 251.999444 
L 429.275345 263.175938 
L 431.609833 283.947801 
L 434.011021 304.650139 
L 435.811911 318.083 
L 437.746202 330.862211 
L 439.791658 342.916285 
L 441.926047 354.188942 
L 444.149369 364.748728 
L 446.439391 374.556891 
L 448.796112 383.681089 
L 451.1973 392.102846 
L 453.665187 399.957414 
L 456.177541 407.222537 
L 458.756595 414.005223 
L 461.380115 420.284341 
L 464.048101 426.100598 
L 466.782787 431.532283 
L 469.56194 436.56213 
L 472.407792 441.255298 
L 475.298111 445.59788 
L 478.255129 449.644574 
L 481.30108 453.437391 
L 484.413731 456.960086 
L 487.615315 460.249371 
L 490.905832 463.313439 
L 494.307514 466.178657 
L 497.842596 468.864668 
L 501.511078 471.371222 
L 505.312958 473.699693 
L 509.292705 475.87581 
L 513.47255 477.90596 
L 517.852495 479.785014 
L 522.477005 481.526071 
L 527.390546 483.136246 
L 532.615353 484.612225 
L 538.195892 485.955798 
L 544.198861 487.170137 
L 544.865858 487.291831 
L 544.865858 487.291831 
" clip-path="url(#pd913af10c4)" style="fill: none; stroke: #3f90da; stroke-width: 2; stroke-linecap: square"/>
   </g>
   <g id="patch_3">
    <path d="M 77.958951 510.324775 
L 77.958951 3.6 
" style="fill: none; stroke: #000000; stroke-width: 0.5; stroke-linejoin: miter; stroke-linecap: square"/>
   </g>
   <g id="patch_4">
    <path d="M 567.09952 510.324775 
L 567.09952 3.6 
" style="fill: none; stroke: #000000; stroke-width: 0.5; stroke-linejoin: miter; stroke-linecap: square"/>
   </g>
   <g id="patch_5">
    <path d="M 77.958951 510.324775 
L 567.09952 510.324775 
" style="fill: none; stroke: #000000; stroke-width: 0.5; stroke-linejoin: miter; stroke-linecap: square"/>
   </g>
   <g id="patch_6">
    <path d="M 77.958951 3.6 
L 567.09952 3.6 
" style="fill: none; stroke: #000000; stroke-width: 0.5; stroke-linejoin: miter; stroke-linecap: square"/>
   </g>
  </g>
 </g>
 <defs>
  <clipPath id="pd913af10c4">
   <rect x="77.958951" y="3.6" width="489.140569" height="506.724775"/>
  </clipPath>
 </defs>
</svg>
