<?xml version="1.0" encoding="utf-8" standalone="no"?>
<!DOCTYPE svg PUBLIC "-//W3C//DTD SVG 1.1//EN"
  "http://www.w3.org/Graphics/SVG/1.1/DTD/svg11.dtd">
<svg xmlns:xlink="http://www.w3.org/1999/xlink" width="577.19952pt" height="577.19952pt" viewBox="0 0 577.19952 577.19952" xmlns="http://www.w3.org/2000/svg" version="1.1">
 <metadata>
  <rdf:RDF xmlns:dc="http://purl.org/dc/elements/1.1/" xmlns:cc="http://creativecommons.org/ns#" xmlns:rdf="http://www.w3.org/1999/02/22-rdf-syntax-ns#">
   <cc:Work>
    <dc:type rdf:resource="http://purl.org/dc/dcmitype/StillImage"/>
    <dc:date>2024-12-26T21:32:37.571273</dc:date>
    <dc:format>image/svg+xml</dc:format>
    <dc:creator>
     <cc:Agent>
      <dc:title>Matplotlib v3.10.0, https://matplotlib.org/</dc:title>
     </cc:Agent>
    </dc:creator>
   </cc:Work>
  </rdf:RDF>
 </metadata>
 <defs>
  <style type="text/css">*{stroke-linejoin: round; stroke-linecap: butt}</style>
 </defs>
 <g id="figure_1">
  <g id="patch_1">
   <path d="M 0 577.19952 
L 577.19952 577.19952 
L 577.19952 0 
L 0 0 
z
"/>
  </g>
  <g id="axes_1">
   <g id="patch_2">
    <path d="M 64.74631 520.074775 
L 570.34952 520.074775 
L 570.34952 6.85 
L 64.74631 6.85 
z
"/>
   </g>
   <g id="matplotlib.axis_1">
    <g id="xtick_1">
     <g id="line2d_1">
      <path d="M 125.156722 520.074775 
L 125.156722 6.85 
" clip-path="url(#p57063d860c)" style="fill: none; stroke: #ffffff; stroke-width: 0.5; stroke-linecap: square"/>
     </g>
     <g id="line2d_2">
      <defs>
       <path id="ma167a1de4e" d="M 0 3.25 
L 0 -3.25 
" style="stroke: #ffffff; stroke-width: 1.5"/>
      </defs>
      <g>
       <use xlink:href="#ma167a1de4e" x="125.156722" y="520.074775" style="fill: #ffffff; stroke: #ffffff; stroke-width: 1.5"/>
      </g>
     </g>
     <g id="line2d_3">
      <g>
       <use xlink:href="#ma167a1de4e" x="125.156722" y="6.85" style="fill: #ffffff; stroke: #ffffff; stroke-width: 1.5"/>
      </g>
     </g>
     <g id="text_1">
      <!-- $\mathdefault{−2}$ -->
      <g style="fill: #ffffff" transform="translate(112.434533 540.33393) scale(0.2 -0.2)">
       <defs>
        <path id="CMSY10-0" d="M 4218 1472 
C 4326 1472 4442 1472 4442 1600 
C 4442 1728 4326 1728 4218 1728 
L 755 1728 
C 646 1728 531 1728 531 1600 
C 531 1472 646 1472 755 1472 
L 4218 1472 
z
" transform="scale(0.015625)"/>
        <path id="NimbusRomNo9L-Regu-32" d="M 3040 879 
L 2957 912 
C 2720 544 2637 486 2349 486 
L 819 486 
L 1894 1621 
C 2464 2221 2714 2711 2714 3214 
C 2714 3858 2195 4352 1530 4352 
C 1178 4352 845 4211 608 3955 
C 403 3736 307 3530 198 3072 
L 333 3039 
C 589 3671 819 3878 1261 3878 
C 1798 3878 2163 3510 2163 2969 
C 2163 2466 1869 1866 1331 1292 
L 192 76 
L 192 0 
L 2688 0 
L 3040 879 
z
" transform="scale(0.015625)"/>
       </defs>
       <use xlink:href="#CMSY10-0" transform="scale(0.996264)"/>
       <use xlink:href="#NimbusRomNo9L-Regu-32" transform="translate(77.408707 0) scale(0.996264)"/>
      </g>
     </g>
    </g>
    <g id="xtick_2">
     <g id="line2d_4">
      <path d="M 221.528993 520.074775 
L 221.528993 6.85 
" clip-path="url(#p57063d860c)" style="fill: none; stroke: #ffffff; stroke-width: 0.5; stroke-linecap: square"/>
     </g>
     <g id="line2d_5">
      <g>
       <use xlink:href="#ma167a1de4e" x="221.528993" y="520.074775" style="fill: #ffffff; stroke: #ffffff; stroke-width: 1.5"/>
      </g>
     </g>
     <g id="line2d_6">
      <g>
       <use xlink:href="#ma167a1de4e" x="221.528993" y="6.85" style="fill: #ffffff; stroke: #ffffff; stroke-width: 1.5"/>
      </g>
     </g>
     <g id="text_2">
      <!-- $\mathdefault{−1}$ -->
      <g style="fill: #ffffff" transform="translate(208.806804 540.33393) scale(0.2 -0.2)">
       <defs>
        <path id="NimbusRomNo9L-Regu-31" d="M 1862 4352 
L 710 3776 
L 710 3686 
C 787 3718 858 3743 883 3756 
C 998 3801 1107 3826 1171 3826 
C 1306 3826 1363 3731 1363 3525 
L 1363 599 
C 1363 386 1312 238 1210 179 
C 1114 121 1024 102 755 96 
L 755 0 
L 2522 0 
L 2522 96 
C 2016 102 1914 167 1914 477 
L 1914 4339 
L 1862 4352 
z
" transform="scale(0.015625)"/>
       </defs>
       <use xlink:href="#CMSY10-0" transform="scale(0.996264)"/>
       <use xlink:href="#NimbusRomNo9L-Regu-31" transform="translate(77.408707 0) scale(0.996264)"/>
      </g>
     </g>
    </g>
    <g id="xtick_3">
     <g id="line2d_7">
      <path d="M 317.901263 520.074775 
L 317.901263 6.85 
" clip-path="url(#p57063d860c)" style="fill: none; stroke: #ffffff; stroke-width: 0.5; stroke-linecap: square"/>
     </g>
     <g id="line2d_8">
      <g>
       <use xlink:href="#ma167a1de4e" x="317.901263" y="520.074775" style="fill: #ffffff; stroke: #ffffff; stroke-width: 1.5"/>
      </g>
     </g>
     <g id="line2d_9">
      <g>
       <use xlink:href="#ma167a1de4e" x="317.901263" y="6.85" style="fill: #ffffff; stroke: #ffffff; stroke-width: 1.5"/>
      </g>
     </g>
     <g id="text_3">
      <!-- $\mathdefault{0}$ -->
      <g style="fill: #ffffff" transform="translate(312.919943 540.33393) scale(0.2 -0.2)">
       <defs>
        <path id="NimbusRomNo9L-Regu-30" d="M 1626 4352 
C 1274 4352 1005 4243 768 4019 
C 397 3661 154 2924 154 2176 
C 154 1478 365 729 666 371 
C 902 89 1229 -64 1600 -64 
C 1926 -64 2202 44 2432 268 
C 2803 620 3046 1363 3046 2137 
C 3046 3449 2464 4352 1626 4352 
z
M 1606 4185 
C 2144 4185 2432 3462 2432 2124 
C 2432 787 2150 102 1600 102 
C 1050 102 768 787 768 2118 
C 768 3475 1056 4185 1606 4185 
z
" transform="scale(0.015625)"/>
       </defs>
       <use xlink:href="#NimbusRomNo9L-Regu-30" transform="scale(0.996264)"/>
      </g>
     </g>
    </g>
    <g id="xtick_4">
     <g id="line2d_10">
      <path d="M 414.273534 520.074775 
L 414.273534 6.85 
" clip-path="url(#p57063d860c)" style="fill: none; stroke: #ffffff; stroke-width: 0.5; stroke-linecap: square"/>
     </g>
     <g id="line2d_11">
      <g>
       <use xlink:href="#ma167a1de4e" x="414.273534" y="520.074775" style="fill: #ffffff; stroke: #ffffff; stroke-width: 1.5"/>
      </g>
     </g>
     <g id="line2d_12">
      <g>
       <use xlink:href="#ma167a1de4e" x="414.273534" y="6.85" style="fill: #ffffff; stroke: #ffffff; stroke-width: 1.5"/>
      </g>
     </g>
     <g id="text_4">
      <!-- $\mathdefault{1}$ -->
      <g style="fill: #ffffff" transform="translate(409.292214 540.33393) scale(0.2 -0.2)">
       <use xlink:href="#NimbusRomNo9L-Regu-31" transform="scale(0.996264)"/>
      </g>
     </g>
    </g>
    <g id="xtick_5">
     <g id="line2d_13">
      <path d="M 510.645805 520.074775 
L 510.645805 6.85 
" clip-path="url(#p57063d860c)" style="fill: none; stroke: #ffffff; stroke-width: 0.5; stroke-linecap: square"/>
     </g>
     <g id="line2d_14">
      <g>
       <use xlink:href="#ma167a1de4e" x="510.645805" y="520.074775" style="fill: #ffffff; stroke: #ffffff; stroke-width: 1.5"/>
      </g>
     </g>
     <g id="line2d_15">
      <g>
       <use xlink:href="#ma167a1de4e" x="510.645805" y="6.85" style="fill: #ffffff; stroke: #ffffff; stroke-width: 1.5"/>
      </g>
     </g>
     <g id="text_5">
      <!-- $\mathdefault{2}$ -->
      <g style="fill: #ffffff" transform="translate(505.664485 540.33393) scale(0.2 -0.2)">
       <use xlink:href="#NimbusRomNo9L-Regu-32" transform="scale(0.996264)"/>
      </g>
     </g>
    </g>
    <g id="xtick_6">
     <g id="line2d_16">
      <path d="M 67.33336 520.074775 
L 67.33336 6.85 
" clip-path="url(#p57063d860c)" style="fill: none; stroke: #ffffff; stroke-width: 0.5; stroke-linecap: square"/>
     </g>
     <g id="line2d_17">
      <defs>
       <path id="m0f85bddf96" d="M 0 2 
L 0 -2 
" style="stroke: #ffffff; stroke-width: 0.5"/>
      </defs>
      <g>
       <use xlink:href="#m0f85bddf96" x="67.33336" y="520.074775" style="fill: #ffffff; stroke: #ffffff; stroke-width: 0.5"/>
      </g>
     </g>
     <g id="line2d_18">
      <g>
       <use xlink:href="#m0f85bddf96" x="67.33336" y="6.85" style="fill: #ffffff; stroke: #ffffff; stroke-width: 0.5"/>
      </g>
     </g>
    </g>
    <g id="xtick_7">
     <g id="line2d_19">
      <path d="M 86.607814 520.074775 
L 86.607814 6.85 
" clip-path="url(#p57063d860c)" style="fill: none; stroke: #ffffff; stroke-width: 0.5; stroke-linecap: square"/>
     </g>
     <g id="line2d_20">
      <g>
       <use xlink:href="#m0f85bddf96" x="86.607814" y="520.074775" style="fill: #ffffff; stroke: #ffffff; stroke-width: 0.5"/>
      </g>
     </g>
     <g id="line2d_21">
      <g>
       <use xlink:href="#m0f85bddf96" x="86.607814" y="6.85" style="fill: #ffffff; stroke: #ffffff; stroke-width: 0.5"/>
      </g>
     </g>
    </g>
    <g id="xtick_8">
     <g id="line2d_22">
      <path d="M 105.882268 520.074775 
L 105.882268 6.85 
" clip-path="url(#p57063d860c)" style="fill: none; stroke: #ffffff; stroke-width: 0.5; stroke-linecap: square"/>
     </g>
     <g id="line2d_23">
      <g>
       <use xlink:href="#m0f85bddf96" x="105.882268" y="520.074775" style="fill: #ffffff; stroke: #ffffff; stroke-width: 0.5"/>
      </g>
     </g>
     <g id="line2d_24">
      <g>
       <use xlink:href="#m0f85bddf96" x="105.882268" y="6.85" style="fill: #ffffff; stroke: #ffffff; stroke-width: 0.5"/>
      </g>
     </g>
    </g>
    <g id="xtick_9">
     <g id="line2d_25">
      <path d="M 144.431176 520.074775 
L 144.431176 6.85 
" clip-path="url(#p57063d860c)" style="fill: none; stroke: #ffffff; stroke-width: 0.5; stroke-linecap: square"/>
     </g>
     <g id="line2d_26">
      <g>
       <use xlink:href="#m0f85bddf96" x="144.431176" y="520.074775" style="fill: #ffffff; stroke: #ffffff; stroke-width: 0.5"/>
      </g>
     </g>
     <g id="line2d_27">
      <g>
       <use xlink:href="#m0f85bddf96" x="144.431176" y="6.85" style="fill: #ffffff; stroke: #ffffff; stroke-width: 0.5"/>
      </g>
     </g>
    </g>
    <g id="xtick_10">
     <g id="line2d_28">
      <path d="M 163.70563 520.074775 
L 163.70563 6.85 
" clip-path="url(#p57063d860c)" style="fill: none; stroke: #ffffff; stroke-width: 0.5; stroke-linecap: square"/>
     </g>
     <g id="line2d_29">
      <g>
       <use xlink:href="#m0f85bddf96" x="163.70563" y="520.074775" style="fill: #ffffff; stroke: #ffffff; stroke-width: 0.5"/>
      </g>
     </g>
     <g id="line2d_30">
      <g>
       <use xlink:href="#m0f85bddf96" x="163.70563" y="6.85" style="fill: #ffffff; stroke: #ffffff; stroke-width: 0.5"/>
      </g>
     </g>
    </g>
    <g id="xtick_11">
     <g id="line2d_31">
      <path d="M 182.980085 520.074775 
L 182.980085 6.85 
" clip-path="url(#p57063d860c)" style="fill: none; stroke: #ffffff; stroke-width: 0.5; stroke-linecap: square"/>
     </g>
     <g id="line2d_32">
      <g>
       <use xlink:href="#m0f85bddf96" x="182.980085" y="520.074775" style="fill: #ffffff; stroke: #ffffff; stroke-width: 0.5"/>
      </g>
     </g>
     <g id="line2d_33">
      <g>
       <use xlink:href="#m0f85bddf96" x="182.980085" y="6.85" style="fill: #ffffff; stroke: #ffffff; stroke-width: 0.5"/>
      </g>
     </g>
    </g>
    <g id="xtick_12">
     <g id="line2d_34">
      <path d="M 202.254539 520.074775 
L 202.254539 6.85 
" clip-path="url(#p57063d860c)" style="fill: none; stroke: #ffffff; stroke-width: 0.5; stroke-linecap: square"/>
     </g>
     <g id="line2d_35">
      <g>
       <use xlink:href="#m0f85bddf96" x="202.254539" y="520.074775" style="fill: #ffffff; stroke: #ffffff; stroke-width: 0.5"/>
      </g>
     </g>
     <g id="line2d_36">
      <g>
       <use xlink:href="#m0f85bddf96" x="202.254539" y="6.85" style="fill: #ffffff; stroke: #ffffff; stroke-width: 0.5"/>
      </g>
     </g>
    </g>
    <g id="xtick_13">
     <g id="line2d_37">
      <path d="M 240.803447 520.074775 
L 240.803447 6.85 
" clip-path="url(#p57063d860c)" style="fill: none; stroke: #ffffff; stroke-width: 0.5; stroke-linecap: square"/>
     </g>
     <g id="line2d_38">
      <g>
       <use xlink:href="#m0f85bddf96" x="240.803447" y="520.074775" style="fill: #ffffff; stroke: #ffffff; stroke-width: 0.5"/>
      </g>
     </g>
     <g id="line2d_39">
      <g>
       <use xlink:href="#m0f85bddf96" x="240.803447" y="6.85" style="fill: #ffffff; stroke: #ffffff; stroke-width: 0.5"/>
      </g>
     </g>
    </g>
    <g id="xtick_14">
     <g id="line2d_40">
      <path d="M 260.077901 520.074775 
L 260.077901 6.85 
" clip-path="url(#p57063d860c)" style="fill: none; stroke: #ffffff; stroke-width: 0.5; stroke-linecap: square"/>
     </g>
     <g id="line2d_41">
      <g>
       <use xlink:href="#m0f85bddf96" x="260.077901" y="520.074775" style="fill: #ffffff; stroke: #ffffff; stroke-width: 0.5"/>
      </g>
     </g>
     <g id="line2d_42">
      <g>
       <use xlink:href="#m0f85bddf96" x="260.077901" y="6.85" style="fill: #ffffff; stroke: #ffffff; stroke-width: 0.5"/>
      </g>
     </g>
    </g>
    <g id="xtick_15">
     <g id="line2d_43">
      <path d="M 279.352355 520.074775 
L 279.352355 6.85 
" clip-path="url(#p57063d860c)" style="fill: none; stroke: #ffffff; stroke-width: 0.5; stroke-linecap: square"/>
     </g>
     <g id="line2d_44">
      <g>
       <use xlink:href="#m0f85bddf96" x="279.352355" y="520.074775" style="fill: #ffffff; stroke: #ffffff; stroke-width: 0.5"/>
      </g>
     </g>
     <g id="line2d_45">
      <g>
       <use xlink:href="#m0f85bddf96" x="279.352355" y="6.85" style="fill: #ffffff; stroke: #ffffff; stroke-width: 0.5"/>
      </g>
     </g>
    </g>
    <g id="xtick_16">
     <g id="line2d_46">
      <path d="M 298.626809 520.074775 
L 298.626809 6.85 
" clip-path="url(#p57063d860c)" style="fill: none; stroke: #ffffff; stroke-width: 0.5; stroke-linecap: square"/>
     </g>
     <g id="line2d_47">
      <g>
       <use xlink:href="#m0f85bddf96" x="298.626809" y="520.074775" style="fill: #ffffff; stroke: #ffffff; stroke-width: 0.5"/>
      </g>
     </g>
     <g id="line2d_48">
      <g>
       <use xlink:href="#m0f85bddf96" x="298.626809" y="6.85" style="fill: #ffffff; stroke: #ffffff; stroke-width: 0.5"/>
      </g>
     </g>
    </g>
    <g id="xtick_17">
     <g id="line2d_49">
      <path d="M 337.175718 520.074775 
L 337.175718 6.85 
" clip-path="url(#p57063d860c)" style="fill: none; stroke: #ffffff; stroke-width: 0.5; stroke-linecap: square"/>
     </g>
     <g id="line2d_50">
      <g>
       <use xlink:href="#m0f85bddf96" x="337.175718" y="520.074775" style="fill: #ffffff; stroke: #ffffff; stroke-width: 0.5"/>
      </g>
     </g>
     <g id="line2d_51">
      <g>
       <use xlink:href="#m0f85bddf96" x="337.175718" y="6.85" style="fill: #ffffff; stroke: #ffffff; stroke-width: 0.5"/>
      </g>
     </g>
    </g>
    <g id="xtick_18">
     <g id="line2d_52">
      <path d="M 356.450172 520.074775 
L 356.450172 6.85 
" clip-path="url(#p57063d860c)" style="fill: none; stroke: #ffffff; stroke-width: 0.5; stroke-linecap: square"/>
     </g>
     <g id="line2d_53">
      <g>
       <use xlink:href="#m0f85bddf96" x="356.450172" y="520.074775" style="fill: #ffffff; stroke: #ffffff; stroke-width: 0.5"/>
      </g>
     </g>
     <g id="line2d_54">
      <g>
       <use xlink:href="#m0f85bddf96" x="356.450172" y="6.85" style="fill: #ffffff; stroke: #ffffff; stroke-width: 0.5"/>
      </g>
     </g>
    </g>
    <g id="xtick_19">
     <g id="line2d_55">
      <path d="M 375.724626 520.074775 
L 375.724626 6.85 
" clip-path="url(#p57063d860c)" style="fill: none; stroke: #ffffff; stroke-width: 0.5; stroke-linecap: square"/>
     </g>
     <g id="line2d_56">
      <g>
       <use xlink:href="#m0f85bddf96" x="375.724626" y="520.074775" style="fill: #ffffff; stroke: #ffffff; stroke-width: 0.5"/>
      </g>
     </g>
     <g id="line2d_57">
      <g>
       <use xlink:href="#m0f85bddf96" x="375.724626" y="6.85" style="fill: #ffffff; stroke: #ffffff; stroke-width: 0.5"/>
      </g>
     </g>
    </g>
    <g id="xtick_20">
     <g id="line2d_58">
      <path d="M 394.99908 520.074775 
L 394.99908 6.85 
" clip-path="url(#p57063d860c)" style="fill: none; stroke: #ffffff; stroke-width: 0.5; stroke-linecap: square"/>
     </g>
     <g id="line2d_59">
      <g>
       <use xlink:href="#m0f85bddf96" x="394.99908" y="520.074775" style="fill: #ffffff; stroke: #ffffff; stroke-width: 0.5"/>
      </g>
     </g>
     <g id="line2d_60">
      <g>
       <use xlink:href="#m0f85bddf96" x="394.99908" y="6.85" style="fill: #ffffff; stroke: #ffffff; stroke-width: 0.5"/>
      </g>
     </g>
    </g>
    <g id="xtick_21">
     <g id="line2d_61">
      <path d="M 433.547988 520.074775 
L 433.547988 6.85 
" clip-path="url(#p57063d860c)" style="fill: none; stroke: #ffffff; stroke-width: 0.5; stroke-linecap: square"/>
     </g>
     <g id="line2d_62">
      <g>
       <use xlink:href="#m0f85bddf96" x="433.547988" y="520.074775" style="fill: #ffffff; stroke: #ffffff; stroke-width: 0.5"/>
      </g>
     </g>
     <g id="line2d_63">
      <g>
       <use xlink:href="#m0f85bddf96" x="433.547988" y="6.85" style="fill: #ffffff; stroke: #ffffff; stroke-width: 0.5"/>
      </g>
     </g>
    </g>
    <g id="xtick_22">
     <g id="line2d_64">
      <path d="M 452.822442 520.074775 
L 452.822442 6.85 
" clip-path="url(#p57063d860c)" style="fill: none; stroke: #ffffff; stroke-width: 0.5; stroke-linecap: square"/>
     </g>
     <g id="line2d_65">
      <g>
       <use xlink:href="#m0f85bddf96" x="452.822442" y="520.074775" style="fill: #ffffff; stroke: #ffffff; stroke-width: 0.5"/>
      </g>
     </g>
     <g id="line2d_66">
      <g>
       <use xlink:href="#m0f85bddf96" x="452.822442" y="6.85" style="fill: #ffffff; stroke: #ffffff; stroke-width: 0.5"/>
      </g>
     </g>
    </g>
    <g id="xtick_23">
     <g id="line2d_67">
      <path d="M 472.096896 520.074775 
L 472.096896 6.85 
" clip-path="url(#p57063d860c)" style="fill: none; stroke: #ffffff; stroke-width: 0.5; stroke-linecap: square"/>
     </g>
     <g id="line2d_68">
      <g>
       <use xlink:href="#m0f85bddf96" x="472.096896" y="520.074775" style="fill: #ffffff; stroke: #ffffff; stroke-width: 0.5"/>
      </g>
     </g>
     <g id="line2d_69">
      <g>
       <use xlink:href="#m0f85bddf96" x="472.096896" y="6.85" style="fill: #ffffff; stroke: #ffffff; stroke-width: 0.5"/>
      </g>
     </g>
    </g>
    <g id="xtick_24">
     <g id="line2d_70">
      <path d="M 491.371351 520.074775 
L 491.371351 6.85 
" clip-path="url(#p57063d860c)" style="fill: none; stroke: #ffffff; stroke-width: 0.5; stroke-linecap: square"/>
     </g>
     <g id="line2d_71">
      <g>
       <use xlink:href="#m0f85bddf96" x="491.371351" y="520.074775" style="fill: #ffffff; stroke: #ffffff; stroke-width: 0.5"/>
      </g>
     </g>
     <g id="line2d_72">
      <g>
       <use xlink:href="#m0f85bddf96" x="491.371351" y="6.85" style="fill: #ffffff; stroke: #ffffff; stroke-width: 0.5"/>
      </g>
     </g>
    </g>
    <g id="xtick_25">
     <g id="line2d_73">
      <path d="M 529.920259 520.074775 
L 529.920259 6.85 
" clip-path="url(#p57063d860c)" style="fill: none; stroke: #ffffff; stroke-width: 0.5; stroke-linecap: square"/>
     </g>
     <g id="line2d_74">
      <g>
       <use xlink:href="#m0f85bddf96" x="529.920259" y="520.074775" style="fill: #ffffff; stroke: #ffffff; stroke-width: 0.5"/>
      </g>
     </g>
     <g id="line2d_75">
      <g>
       <use xlink:href="#m0f85bddf96" x="529.920259" y="6.85" style="fill: #ffffff; stroke: #ffffff; stroke-width: 0.5"/>
      </g>
     </g>
    </g>
    <g id="xtick_26">
     <g id="line2d_76">
      <path d="M 549.194713 520.074775 
L 549.194713 6.85 
" clip-path="url(#p57063d860c)" style="fill: none; stroke: #ffffff; stroke-width: 0.5; stroke-linecap: square"/>
     </g>
     <g id="line2d_77">
      <g>
       <use xlink:href="#m0f85bddf96" x="549.194713" y="520.074775" style="fill: #ffffff; stroke: #ffffff; stroke-width: 0.5"/>
      </g>
     </g>
     <g id="line2d_78">
      <g>
       <use xlink:href="#m0f85bddf96" x="549.194713" y="6.85" style="fill: #ffffff; stroke: #ffffff; stroke-width: 0.5"/>
      </g>
     </g>
    </g>
    <g id="xtick_27">
     <g id="line2d_79">
      <path d="M 568.469167 520.074775 
L 568.469167 6.85 
" clip-path="url(#p57063d860c)" style="fill: none; stroke: #ffffff; stroke-width: 0.5; stroke-linecap: square"/>
     </g>
     <g id="line2d_80">
      <g>
       <use xlink:href="#m0f85bddf96" x="568.469167" y="520.074775" style="fill: #ffffff; stroke: #ffffff; stroke-width: 0.5"/>
      </g>
     </g>
     <g id="line2d_81">
      <g>
       <use xlink:href="#m0f85bddf96" x="568.469167" y="6.85" style="fill: #ffffff; stroke: #ffffff; stroke-width: 0.5"/>
      </g>
     </g>
    </g>
    <g id="text_6">
     <!-- $x$ -->
     <g style="fill: #ffffff" transform="translate(311.355218 567.560399) scale(0.28 -0.28)">
      <defs>
       <path id="NimbusRomNo9L-ReguItal-78" d="M 2573 714 
C 2522 657 2490 618 2432 542 
C 2285 351 2208 288 2138 288 
C 2042 288 1984 370 1939 548 
C 1926 599 1920 638 1914 657 
C 1754 1299 1683 1592 1683 1687 
C 1965 2177 2195 2457 2310 2457 
C 2349 2457 2400 2438 2464 2406 
C 2541 2362 2586 2349 2637 2349 
C 2771 2349 2861 2444 2861 2579 
C 2861 2713 2752 2816 2598 2816 
C 2317 2816 2074 2585 1632 1904 
L 1562 2254 
C 1472 2687 1402 2816 1229 2816 
C 1088 2816 870 2758 480 2630 
L 410 2604 
L 435 2508 
C 678 2566 736 2579 794 2579 
C 954 2579 992 2521 1082 2139 
L 1267 1357 
L 742 612 
C 614 421 486 307 416 307 
C 378 307 314 326 250 364 
C 166 409 96 428 45 428 
C -77 428 -173 332 -173 204 
C -173 38 -45 -64 147 -64 
C 346 -64 422 -7 742 383 
C 915 587 1050 758 1318 1127 
L 1510 364 
C 1594 38 1677 -64 1882 -64 
C 2125 -64 2291 89 2662 663 
L 2573 714 
z
" transform="scale(0.015625)"/>
      </defs>
      <use xlink:href="#NimbusRomNo9L-ReguItal-78" transform="scale(0.996264)"/>
     </g>
    </g>
   </g>
   <g id="matplotlib.axis_2">
    <g id="ytick_1">
     <g id="line2d_82">
      <path d="M 64.74631 441.817856 
L 570.34952 441.817856 
" clip-path="url(#p57063d860c)" style="fill: none; stroke: #ffffff; stroke-width: 0.5; stroke-linecap: square"/>
     </g>
     <g id="line2d_83">
      <defs>
       <path id="m350311f4b2" d="M 3.25 0 
L -3.25 -0 
" style="stroke: #ffffff; stroke-width: 1.5"/>
      </defs>
      <g>
       <use xlink:href="#m350311f4b2" x="64.74631" y="441.817856" style="fill: #ffffff; stroke: #ffffff; stroke-width: 1.5"/>
      </g>
     </g>
     <g id="line2d_84">
      <g>
       <use xlink:href="#m350311f4b2" x="570.34952" y="441.817856" style="fill: #ffffff; stroke: #ffffff; stroke-width: 1.5"/>
      </g>
     </g>
     <g id="text_7">
      <!-- $\mathdefault{−2}$ -->
      <g style="fill: #ffffff" transform="translate(32.551932 448.572433) scale(0.2 -0.2)">
       <use xlink:href="#CMSY10-0" transform="scale(0.996264)"/>
       <use xlink:href="#NimbusRomNo9L-Regu-32" transform="translate(77.408707 0) scale(0.996264)"/>
      </g>
     </g>
    </g>
    <g id="ytick_2">
     <g id="line2d_85">
      <path d="M 64.74631 352.241109 
L 570.34952 352.241109 
" clip-path="url(#p57063d860c)" style="fill: none; stroke: #ffffff; stroke-width: 0.5; stroke-linecap: square"/>
     </g>
     <g id="line2d_86">
      <g>
       <use xlink:href="#m350311f4b2" x="64.74631" y="352.241109" style="fill: #ffffff; stroke: #ffffff; stroke-width: 1.5"/>
      </g>
     </g>
     <g id="line2d_87">
      <g>
       <use xlink:href="#m350311f4b2" x="570.34952" y="352.241109" style="fill: #ffffff; stroke: #ffffff; stroke-width: 1.5"/>
      </g>
     </g>
     <g id="text_8">
      <!-- $\mathdefault{−1}$ -->
      <g style="fill: #ffffff" transform="translate(32.551932 358.995687) scale(0.2 -0.2)">
       <use xlink:href="#CMSY10-0" transform="scale(0.996264)"/>
       <use xlink:href="#NimbusRomNo9L-Regu-31" transform="translate(77.408707 0) scale(0.996264)"/>
      </g>
     </g>
    </g>
    <g id="ytick_3">
     <g id="line2d_88">
      <path d="M 64.74631 262.664363 
L 570.34952 262.664363 
" clip-path="url(#p57063d860c)" style="fill: none; stroke: #ffffff; stroke-width: 0.5; stroke-linecap: square"/>
     </g>
     <g id="line2d_89">
      <g>
       <use xlink:href="#m350311f4b2" x="64.74631" y="262.664363" style="fill: #ffffff; stroke: #ffffff; stroke-width: 1.5"/>
      </g>
     </g>
     <g id="line2d_90">
      <g>
       <use xlink:href="#m350311f4b2" x="570.34952" y="262.664363" style="fill: #ffffff; stroke: #ffffff; stroke-width: 1.5"/>
      </g>
     </g>
     <g id="text_9">
      <!-- $\mathdefault{0}$ -->
      <g style="fill: #ffffff" transform="translate(48.03367 269.41894) scale(0.2 -0.2)">
       <use xlink:href="#NimbusRomNo9L-Regu-30" transform="scale(0.996264)"/>
      </g>
     </g>
    </g>
    <g id="ytick_4">
     <g id="line2d_91">
      <path d="M 64.74631 173.087617 
L 570.34952 173.087617 
" clip-path="url(#p57063d860c)" style="fill: none; stroke: #ffffff; stroke-width: 0.5; stroke-linecap: square"/>
     </g>
     <g id="line2d_92">
      <g>
       <use xlink:href="#m350311f4b2" x="64.74631" y="173.087617" style="fill: #ffffff; stroke: #ffffff; stroke-width: 1.5"/>
      </g>
     </g>
     <g id="line2d_93">
      <g>
       <use xlink:href="#m350311f4b2" x="570.34952" y="173.087617" style="fill: #ffffff; stroke: #ffffff; stroke-width: 1.5"/>
      </g>
     </g>
     <g id="text_10">
      <!-- $\mathdefault{1}$ -->
      <g style="fill: #ffffff" transform="translate(48.03367 179.842194) scale(0.2 -0.2)">
       <use xlink:href="#NimbusRomNo9L-Regu-31" transform="scale(0.996264)"/>
      </g>
     </g>
    </g>
    <g id="ytick_5">
     <g id="line2d_94">
      <path d="M 64.74631 83.51087 
L 570.34952 83.51087 
" clip-path="url(#p57063d860c)" style="fill: none; stroke: #ffffff; stroke-width: 0.5; stroke-linecap: square"/>
     </g>
     <g id="line2d_95">
      <g>
       <use xlink:href="#m350311f4b2" x="64.74631" y="83.51087" style="fill: #ffffff; stroke: #ffffff; stroke-width: 1.5"/>
      </g>
     </g>
     <g id="line2d_96">
      <g>
       <use xlink:href="#m350311f4b2" x="570.34952" y="83.51087" style="fill: #ffffff; stroke: #ffffff; stroke-width: 1.5"/>
      </g>
     </g>
     <g id="text_11">
      <!-- $\mathdefault{2}$ -->
      <g style="fill: #ffffff" transform="translate(48.03367 90.265448) scale(0.2 -0.2)">
       <use xlink:href="#NimbusRomNo9L-Regu-32" transform="scale(0.996264)"/>
      </g>
     </g>
    </g>
    <g id="ytick_6">
     <g id="line2d_97">
      <path d="M 64.74631 513.479253 
L 570.34952 513.479253 
" clip-path="url(#p57063d860c)" style="fill: none; stroke: #ffffff; stroke-width: 0.5; stroke-linecap: square"/>
     </g>
     <g id="line2d_98">
      <defs>
       <path id="m2cd643c7b7" d="M 2 0 
L -2 -0 
" style="stroke: #ffffff; stroke-width: 0.5"/>
      </defs>
      <g>
       <use xlink:href="#m2cd643c7b7" x="64.74631" y="513.479253" style="fill: #ffffff; stroke: #ffffff; stroke-width: 0.5"/>
      </g>
     </g>
     <g id="line2d_99">
      <g>
       <use xlink:href="#m2cd643c7b7" x="570.34952" y="513.479253" style="fill: #ffffff; stroke: #ffffff; stroke-width: 0.5"/>
      </g>
     </g>
    </g>
    <g id="ytick_7">
     <g id="line2d_100">
      <path d="M 64.74631 495.563904 
L 570.34952 495.563904 
" clip-path="url(#p57063d860c)" style="fill: none; stroke: #ffffff; stroke-width: 0.5; stroke-linecap: square"/>
     </g>
     <g id="line2d_101">
      <g>
       <use xlink:href="#m2cd643c7b7" x="64.74631" y="495.563904" style="fill: #ffffff; stroke: #ffffff; stroke-width: 0.5"/>
      </g>
     </g>
     <g id="line2d_102">
      <g>
       <use xlink:href="#m2cd643c7b7" x="570.34952" y="495.563904" style="fill: #ffffff; stroke: #ffffff; stroke-width: 0.5"/>
      </g>
     </g>
    </g>
    <g id="ytick_8">
     <g id="line2d_103">
      <path d="M 64.74631 477.648554 
L 570.34952 477.648554 
" clip-path="url(#p57063d860c)" style="fill: none; stroke: #ffffff; stroke-width: 0.5; stroke-linecap: square"/>
     </g>
     <g id="line2d_104">
      <g>
       <use xlink:href="#m2cd643c7b7" x="64.74631" y="477.648554" style="fill: #ffffff; stroke: #ffffff; stroke-width: 0.5"/>
      </g>
     </g>
     <g id="line2d_105">
      <g>
       <use xlink:href="#m2cd643c7b7" x="570.34952" y="477.648554" style="fill: #ffffff; stroke: #ffffff; stroke-width: 0.5"/>
      </g>
     </g>
    </g>
    <g id="ytick_9">
     <g id="line2d_106">
      <path d="M 64.74631 459.733205 
L 570.34952 459.733205 
" clip-path="url(#p57063d860c)" style="fill: none; stroke: #ffffff; stroke-width: 0.5; stroke-linecap: square"/>
     </g>
     <g id="line2d_107">
      <g>
       <use xlink:href="#m2cd643c7b7" x="64.74631" y="459.733205" style="fill: #ffffff; stroke: #ffffff; stroke-width: 0.5"/>
      </g>
     </g>
     <g id="line2d_108">
      <g>
       <use xlink:href="#m2cd643c7b7" x="570.34952" y="459.733205" style="fill: #ffffff; stroke: #ffffff; stroke-width: 0.5"/>
      </g>
     </g>
    </g>
    <g id="ytick_10">
     <g id="line2d_109">
      <path d="M 64.74631 423.902506 
L 570.34952 423.902506 
" clip-path="url(#p57063d860c)" style="fill: none; stroke: #ffffff; stroke-width: 0.5; stroke-linecap: square"/>
     </g>
     <g id="line2d_110">
      <g>
       <use xlink:href="#m2cd643c7b7" x="64.74631" y="423.902506" style="fill: #ffffff; stroke: #ffffff; stroke-width: 0.5"/>
      </g>
     </g>
     <g id="line2d_111">
      <g>
       <use xlink:href="#m2cd643c7b7" x="570.34952" y="423.902506" style="fill: #ffffff; stroke: #ffffff; stroke-width: 0.5"/>
      </g>
     </g>
    </g>
    <g id="ytick_11">
     <g id="line2d_112">
      <path d="M 64.74631 405.987157 
L 570.34952 405.987157 
" clip-path="url(#p57063d860c)" style="fill: none; stroke: #ffffff; stroke-width: 0.5; stroke-linecap: square"/>
     </g>
     <g id="line2d_113">
      <g>
       <use xlink:href="#m2cd643c7b7" x="64.74631" y="405.987157" style="fill: #ffffff; stroke: #ffffff; stroke-width: 0.5"/>
      </g>
     </g>
     <g id="line2d_114">
      <g>
       <use xlink:href="#m2cd643c7b7" x="570.34952" y="405.987157" style="fill: #ffffff; stroke: #ffffff; stroke-width: 0.5"/>
      </g>
     </g>
    </g>
    <g id="ytick_12">
     <g id="line2d_115">
      <path d="M 64.74631 388.071808 
L 570.34952 388.071808 
" clip-path="url(#p57063d860c)" style="fill: none; stroke: #ffffff; stroke-width: 0.5; stroke-linecap: square"/>
     </g>
     <g id="line2d_116">
      <g>
       <use xlink:href="#m2cd643c7b7" x="64.74631" y="388.071808" style="fill: #ffffff; stroke: #ffffff; stroke-width: 0.5"/>
      </g>
     </g>
     <g id="line2d_117">
      <g>
       <use xlink:href="#m2cd643c7b7" x="570.34952" y="388.071808" style="fill: #ffffff; stroke: #ffffff; stroke-width: 0.5"/>
      </g>
     </g>
    </g>
    <g id="ytick_13">
     <g id="line2d_118">
      <path d="M 64.74631 370.156459 
L 570.34952 370.156459 
" clip-path="url(#p57063d860c)" style="fill: none; stroke: #ffffff; stroke-width: 0.5; stroke-linecap: square"/>
     </g>
     <g id="line2d_119">
      <g>
       <use xlink:href="#m2cd643c7b7" x="64.74631" y="370.156459" style="fill: #ffffff; stroke: #ffffff; stroke-width: 0.5"/>
      </g>
     </g>
     <g id="line2d_120">
      <g>
       <use xlink:href="#m2cd643c7b7" x="570.34952" y="370.156459" style="fill: #ffffff; stroke: #ffffff; stroke-width: 0.5"/>
      </g>
     </g>
    </g>
    <g id="ytick_14">
     <g id="line2d_121">
      <path d="M 64.74631 334.32576 
L 570.34952 334.32576 
" clip-path="url(#p57063d860c)" style="fill: none; stroke: #ffffff; stroke-width: 0.5; stroke-linecap: square"/>
     </g>
     <g id="line2d_122">
      <g>
       <use xlink:href="#m2cd643c7b7" x="64.74631" y="334.32576" style="fill: #ffffff; stroke: #ffffff; stroke-width: 0.5"/>
      </g>
     </g>
     <g id="line2d_123">
      <g>
       <use xlink:href="#m2cd643c7b7" x="570.34952" y="334.32576" style="fill: #ffffff; stroke: #ffffff; stroke-width: 0.5"/>
      </g>
     </g>
    </g>
    <g id="ytick_15">
     <g id="line2d_124">
      <path d="M 64.74631 316.410411 
L 570.34952 316.410411 
" clip-path="url(#p57063d860c)" style="fill: none; stroke: #ffffff; stroke-width: 0.5; stroke-linecap: square"/>
     </g>
     <g id="line2d_125">
      <g>
       <use xlink:href="#m2cd643c7b7" x="64.74631" y="316.410411" style="fill: #ffffff; stroke: #ffffff; stroke-width: 0.5"/>
      </g>
     </g>
     <g id="line2d_126">
      <g>
       <use xlink:href="#m2cd643c7b7" x="570.34952" y="316.410411" style="fill: #ffffff; stroke: #ffffff; stroke-width: 0.5"/>
      </g>
     </g>
    </g>
    <g id="ytick_16">
     <g id="line2d_127">
      <path d="M 64.74631 298.495061 
L 570.34952 298.495061 
" clip-path="url(#p57063d860c)" style="fill: none; stroke: #ffffff; stroke-width: 0.5; stroke-linecap: square"/>
     </g>
     <g id="line2d_128">
      <g>
       <use xlink:href="#m2cd643c7b7" x="64.74631" y="298.495061" style="fill: #ffffff; stroke: #ffffff; stroke-width: 0.5"/>
      </g>
     </g>
     <g id="line2d_129">
      <g>
       <use xlink:href="#m2cd643c7b7" x="570.34952" y="298.495061" style="fill: #ffffff; stroke: #ffffff; stroke-width: 0.5"/>
      </g>
     </g>
    </g>
    <g id="ytick_17">
     <g id="line2d_130">
      <path d="M 64.74631 280.579712 
L 570.34952 280.579712 
" clip-path="url(#p57063d860c)" style="fill: none; stroke: #ffffff; stroke-width: 0.5; stroke-linecap: square"/>
     </g>
     <g id="line2d_131">
      <g>
       <use xlink:href="#m2cd643c7b7" x="64.74631" y="280.579712" style="fill: #ffffff; stroke: #ffffff; stroke-width: 0.5"/>
      </g>
     </g>
     <g id="line2d_132">
      <g>
       <use xlink:href="#m2cd643c7b7" x="570.34952" y="280.579712" style="fill: #ffffff; stroke: #ffffff; stroke-width: 0.5"/>
      </g>
     </g>
    </g>
    <g id="ytick_18">
     <g id="line2d_133">
      <path d="M 64.74631 244.749014 
L 570.34952 244.749014 
" clip-path="url(#p57063d860c)" style="fill: none; stroke: #ffffff; stroke-width: 0.5; stroke-linecap: square"/>
     </g>
     <g id="line2d_134">
      <g>
       <use xlink:href="#m2cd643c7b7" x="64.74631" y="244.749014" style="fill: #ffffff; stroke: #ffffff; stroke-width: 0.5"/>
      </g>
     </g>
     <g id="line2d_135">
      <g>
       <use xlink:href="#m2cd643c7b7" x="570.34952" y="244.749014" style="fill: #ffffff; stroke: #ffffff; stroke-width: 0.5"/>
      </g>
     </g>
    </g>
    <g id="ytick_19">
     <g id="line2d_136">
      <path d="M 64.74631 226.833664 
L 570.34952 226.833664 
" clip-path="url(#p57063d860c)" style="fill: none; stroke: #ffffff; stroke-width: 0.5; stroke-linecap: square"/>
     </g>
     <g id="line2d_137">
      <g>
       <use xlink:href="#m2cd643c7b7" x="64.74631" y="226.833664" style="fill: #ffffff; stroke: #ffffff; stroke-width: 0.5"/>
      </g>
     </g>
     <g id="line2d_138">
      <g>
       <use xlink:href="#m2cd643c7b7" x="570.34952" y="226.833664" style="fill: #ffffff; stroke: #ffffff; stroke-width: 0.5"/>
      </g>
     </g>
    </g>
    <g id="ytick_20">
     <g id="line2d_139">
      <path d="M 64.74631 208.918315 
L 570.34952 208.918315 
" clip-path="url(#p57063d860c)" style="fill: none; stroke: #ffffff; stroke-width: 0.5; stroke-linecap: square"/>
     </g>
     <g id="line2d_140">
      <g>
       <use xlink:href="#m2cd643c7b7" x="64.74631" y="208.918315" style="fill: #ffffff; stroke: #ffffff; stroke-width: 0.5"/>
      </g>
     </g>
     <g id="line2d_141">
      <g>
       <use xlink:href="#m2cd643c7b7" x="570.34952" y="208.918315" style="fill: #ffffff; stroke: #ffffff; stroke-width: 0.5"/>
      </g>
     </g>
    </g>
    <g id="ytick_21">
     <g id="line2d_142">
      <path d="M 64.74631 191.002966 
L 570.34952 191.002966 
" clip-path="url(#p57063d860c)" style="fill: none; stroke: #ffffff; stroke-width: 0.5; stroke-linecap: square"/>
     </g>
     <g id="line2d_143">
      <g>
       <use xlink:href="#m2cd643c7b7" x="64.74631" y="191.002966" style="fill: #ffffff; stroke: #ffffff; stroke-width: 0.5"/>
      </g>
     </g>
     <g id="line2d_144">
      <g>
       <use xlink:href="#m2cd643c7b7" x="570.34952" y="191.002966" style="fill: #ffffff; stroke: #ffffff; stroke-width: 0.5"/>
      </g>
     </g>
    </g>
    <g id="ytick_22">
     <g id="line2d_145">
      <path d="M 64.74631 155.172267 
L 570.34952 155.172267 
" clip-path="url(#p57063d860c)" style="fill: none; stroke: #ffffff; stroke-width: 0.5; stroke-linecap: square"/>
     </g>
     <g id="line2d_146">
      <g>
       <use xlink:href="#m2cd643c7b7" x="64.74631" y="155.172267" style="fill: #ffffff; stroke: #ffffff; stroke-width: 0.5"/>
      </g>
     </g>
     <g id="line2d_147">
      <g>
       <use xlink:href="#m2cd643c7b7" x="570.34952" y="155.172267" style="fill: #ffffff; stroke: #ffffff; stroke-width: 0.5"/>
      </g>
     </g>
    </g>
    <g id="ytick_23">
     <g id="line2d_148">
      <path d="M 64.74631 137.256918 
L 570.34952 137.256918 
" clip-path="url(#p57063d860c)" style="fill: none; stroke: #ffffff; stroke-width: 0.5; stroke-linecap: square"/>
     </g>
     <g id="line2d_149">
      <g>
       <use xlink:href="#m2cd643c7b7" x="64.74631" y="137.256918" style="fill: #ffffff; stroke: #ffffff; stroke-width: 0.5"/>
      </g>
     </g>
     <g id="line2d_150">
      <g>
       <use xlink:href="#m2cd643c7b7" x="570.34952" y="137.256918" style="fill: #ffffff; stroke: #ffffff; stroke-width: 0.5"/>
      </g>
     </g>
    </g>
    <g id="ytick_24">
     <g id="line2d_151">
      <path d="M 64.74631 119.341569 
L 570.34952 119.341569 
" clip-path="url(#p57063d860c)" style="fill: none; stroke: #ffffff; stroke-width: 0.5; stroke-linecap: square"/>
     </g>
     <g id="line2d_152">
      <g>
       <use xlink:href="#m2cd643c7b7" x="64.74631" y="119.341569" style="fill: #ffffff; stroke: #ffffff; stroke-width: 0.5"/>
      </g>
     </g>
     <g id="line2d_153">
      <g>
       <use xlink:href="#m2cd643c7b7" x="570.34952" y="119.341569" style="fill: #ffffff; stroke: #ffffff; stroke-width: 0.5"/>
      </g>
     </g>
    </g>
    <g id="ytick_25">
     <g id="line2d_154">
      <path d="M 64.74631 101.426219 
L 570.34952 101.426219 
" clip-path="url(#p57063d860c)" style="fill: none; stroke: #ffffff; stroke-width: 0.5; stroke-linecap: square"/>
     </g>
     <g id="line2d_155">
      <g>
       <use xlink:href="#m2cd643c7b7" x="64.74631" y="101.426219" style="fill: #ffffff; stroke: #ffffff; stroke-width: 0.5"/>
      </g>
     </g>
     <g id="line2d_156">
      <g>
       <use xlink:href="#m2cd643c7b7" x="570.34952" y="101.426219" style="fill: #ffffff; stroke: #ffffff; stroke-width: 0.5"/>
      </g>
     </g>
    </g>
    <g id="ytick_26">
     <g id="line2d_157">
      <path d="M 64.74631 65.595521 
L 570.34952 65.595521 
" clip-path="url(#p57063d860c)" style="fill: none; stroke: #ffffff; stroke-width: 0.5; stroke-linecap: square"/>
     </g>
     <g id="line2d_158">
      <g>
       <use xlink:href="#m2cd643c7b7" x="64.74631" y="65.595521" style="fill: #ffffff; stroke: #ffffff; stroke-width: 0.5"/>
      </g>
     </g>
     <g id="line2d_159">
      <g>
       <use xlink:href="#m2cd643c7b7" x="570.34952" y="65.595521" style="fill: #ffffff; stroke: #ffffff; stroke-width: 0.5"/>
      </g>
     </g>
    </g>
    <g id="ytick_27">
     <g id="line2d_160">
      <path d="M 64.74631 47.680172 
L 570.34952 47.680172 
" clip-path="url(#p57063d860c)" style="fill: none; stroke: #ffffff; stroke-width: 0.5; stroke-linecap: square"/>
     </g>
     <g id="line2d_161">
      <g>
       <use xlink:href="#m2cd643c7b7" x="64.74631" y="47.680172" style="fill: #ffffff; stroke: #ffffff; stroke-width: 0.5"/>
      </g>
     </g>
     <g id="line2d_162">
      <g>
       <use xlink:href="#m2cd643c7b7" x="570.34952" y="47.680172" style="fill: #ffffff; stroke: #ffffff; stroke-width: 0.5"/>
      </g>
     </g>
    </g>
    <g id="ytick_28">
     <g id="line2d_163">
      <path d="M 64.74631 29.764822 
L 570.34952 29.764822 
" clip-path="url(#p57063d860c)" style="fill: none; stroke: #ffffff; stroke-width: 0.5; stroke-linecap: square"/>
     </g>
     <g id="line2d_164">
      <g>
       <use xlink:href="#m2cd643c7b7" x="64.74631" y="29.764822" style="fill: #ffffff; stroke: #ffffff; stroke-width: 0.5"/>
      </g>
     </g>
     <g id="line2d_165">
      <g>
       <use xlink:href="#m2cd643c7b7" x="570.34952" y="29.764822" style="fill: #ffffff; stroke: #ffffff; stroke-width: 0.5"/>
      </g>
     </g>
    </g>
    <g id="ytick_29">
     <g id="line2d_166">
      <path d="M 64.74631 11.849473 
L 570.34952 11.849473 
" clip-path="url(#p57063d860c)" style="fill: none; stroke: #ffffff; stroke-width: 0.5; stroke-linecap: square"/>
     </g>
     <g id="line2d_167">
      <g>
       <use xlink:href="#m2cd643c7b7" x="64.74631" y="11.849473" style="fill: #ffffff; stroke: #ffffff; stroke-width: 0.5"/>
      </g>
     </g>
     <g id="line2d_168">
      <g>
       <use xlink:href="#m2cd643c7b7" x="570.34952" y="11.849473" style="fill: #ffffff; stroke: #ffffff; stroke-width: 0.5"/>
      </g>
     </g>
    </g>
    <g id="text_12">
     <!-- $y$ -->
     <g style="fill: #ffffff" transform="translate(22.512811 269.655084) rotate(-90) scale(0.28 -0.28)">
      <defs>
       <path id="NimbusRomNo9L-ReguItal-79" d="M 96 2553 
C 179 2572 224 2579 294 2579 
C 659 2579 755 2419 1050 1318 
C 1158 902 1312 153 1312 44 
C 1312 -58 1274 -161 1178 -276 
C 979 -538 851 -705 781 -782 
C 646 -922 570 -974 486 -974 
C 448 -974 403 -954 333 -903 
C 237 -826 166 -794 96 -794 
C -45 -794 -154 -903 -154 -1044 
C -154 -1204 -13 -1326 173 -1326 
C 582 -1326 1421 -365 2112 902 
C 2547 1689 2726 2150 2726 2463 
C 2726 2655 2566 2816 2374 2816 
C 2227 2816 2125 2719 2125 2579 
C 2125 2483 2176 2412 2304 2329 
C 2426 2259 2470 2201 2470 2111 
C 2470 1855 2234 1356 1690 454 
L 1562 1196 
C 1466 1759 1107 2816 1011 2816 
L 986 2816 
C 979 2809 954 2809 928 2809 
C 870 2803 640 2764 301 2700 
C 269 2694 186 2675 96 2662 
L 96 2553 
z
" transform="scale(0.015625)"/>
      </defs>
      <use xlink:href="#NimbusRomNo9L-ReguItal-79" transform="scale(0.996264)"/>
     </g>
    </g>
   </g>
   <g id="line2d_169">
    <path d="M 337.175718 280.579712 
L 337.018347 282.201473 
L 336.549742 284.613485 
L 335.766518 287.432085 
L 334.689144 290.467862 
L 333.292794 293.723307 
L 331.615023 297.067591 
L 329.634944 300.516546 
L 327.365383 304.020107 
L 324.83359 307.519142 
L 322.037641 311.000988 
L 319.025149 314.393482 
L 315.860677 317.622041 
L 312.568333 320.664071 
L 309.232991 323.448615 
L 305.825982 326.005986 
L 302.438405 328.274775 
L 299.033503 330.287663 
L 295.706367 331.998964 
L 292.411772 333.445052 
L 289.170087 334.625025 
L 286.000343 335.542907 
L 282.92004 336.207635 
L 279.863926 336.641355 
L 276.842727 336.84417 
L 273.866615 336.819089 
L 270.945117 336.572002 
L 268.087027 336.111554 
L 265.215763 335.425464 
L 262.33821 334.507064 
L 259.461563 333.351586 
L 256.593276 331.956388 
L 253.74101 330.321137 
L 250.829827 328.38929 
L 247.952506 326.21041 
L 245.037378 323.719945 
L 242.097881 320.909073 
L 239.148966 317.773788 
L 236.207022 314.315603 
L 233.289764 310.542092 
L 230.347541 306.36549 
L 227.475482 301.89997 
L 224.633859 297.065789 
L 221.914055 292.002408 
L 219.286384 286.64009 
L 216.835335 281.136357 
L 214.58329 275.540913 
L 212.551473 269.902404 
L 210.791507 264.373469 
L 209.30528 258.985479 
L 208.092891 253.760943 
L 207.168792 248.811207 
L 206.504219 244.038422 
L 206.101712 239.532818 
L 205.942877 235.279237 
L 206.013597 231.175554 
L 206.301903 227.291456 
L 206.80375 223.526711 
L 207.516169 219.866225 
L 208.436519 216.29344 
L 209.588766 212.716742 
L 210.984452 209.120195 
L 212.635866 205.484499 
L 214.596298 201.714235 
L 216.894847 197.780952 
L 219.613522 193.573814 
L 222.860082 188.964482 
L 226.836166 183.715747 
L 231.812685 177.525853 
L 238.552462 169.519909 
L 249.126962 157.345827 
L 277.697811 124.913749 
L 291.101361 109.969747 
L 300.215888 100.125873 
L 307.819651 92.233045 
L 314.447199 85.670871 
L 320.283238 80.19436 
L 325.77045 75.348882 
L 330.855816 71.158289 
L 335.491194 67.619386 
L 339.833349 64.571079 
L 344.058848 61.873127 
L 347.947548 59.641196 
L 351.686803 57.736406 
L 355.265418 56.147479 
L 358.887383 54.78426 
L 362.333511 53.726581 
L 365.594802 52.949597 
L 368.88338 52.394985 
L 371.97521 52.090307 
L 375.086596 52.0024 
L 378.215285 52.141561 
L 381.35889 52.517348 
L 384.289107 53.085776 
L 387.227899 53.871894 
L 390.173066 54.881014 
L 393.122326 56.117494 
L 396.073325 57.584661 
L 399.250493 59.42518 
L 402.423778 61.537007 
L 405.59003 63.919688 
L 408.746053 66.571036 
L 412.112495 69.705363 
L 415.459525 73.13638 
L 418.783185 76.854598 
L 422.298251 81.123959 
L 425.993772 85.984441 
L 429.643533 91.155836 
L 433.452285 96.940706 
L 437.40407 103.354315 
L 441.48074 110.398921 
L 445.662012 118.061397 
L 450.116443 126.69054 
L 454.800603 136.25408 
L 459.841498 147.063826 
L 465.325377 159.369516 
L 471.441815 173.664473 
L 478.686139 191.186671 
L 491.385597 222.623901 
L 500.36863 244.559596 
L 506.393974 258.696775 
L 511.457971 270.024457 
L 516.236842 280.169959 
L 523.99652 296.476319 
L 524.796332 298.824425 
L 525.150245 300.521706 
L 525.211618 301.860518 
L 525.047306 302.994835 
L 524.672553 304.023736 
L 524.082441 304.988513 
L 523.218744 305.961668 
L 522.007206 306.978914 
L 520.306458 308.102644 
L 517.890814 309.41584 
L 514.35787 311.065668 
L 508.574502 313.494372 
L 487.088265 322.351898 
L 478.960906 326.023431 
L 471.445621 329.660201 
L 464.253876 333.387327 
L 457.343617 337.217789 
L 450.615205 341.199251 
L 443.995631 345.372559 
L 437.463465 349.750846 
L 430.888347 354.427216 
L 424.297423 359.3915 
L 417.721226 364.622961 
L 410.973904 370.277737 
L 404.056359 376.370456 
L 396.970971 382.907887 
L 389.460122 390.143482 
L 381.343497 398.278668 
L 372.250745 407.716406 
L 360.746818 420.001325 
L 334.316595 448.356553 
L 326.29296 456.567284 
L 319.571513 463.144408 
L 313.468961 468.809484 
L 308.06131 473.536577 
L 302.967404 477.698554 
L 298.218692 481.292698 
L 293.843761 484.334625 
L 289.632388 486.997479 
L 285.597536 489.286105 
L 281.751211 491.212626 
L 278.104366 492.795759 
L 274.666856 494.059904 
L 271.198718 495.100641 
L 267.952758 495.852359 
L 264.684117 496.383878 
L 261.394822 496.68249 
L 258.342093 496.740902 
L 255.275429 496.581515 
L 252.196751 496.195972 
L 249.108074 495.576667 
L 246.011508 494.716854 
L 242.909251 493.610754 
L 239.80358 492.253657 
L 236.696845 490.642017 
L 233.591461 488.773539 
L 230.489897 486.647251 
L 227.394666 484.26357 
L 224.051599 481.392967 
L 220.722217 478.226772 
L 217.409795 474.771309 
L 213.865284 470.736156 
L 210.348275 466.388213 
L 206.615085 461.400294 
L 202.922803 456.0933 
L 199.03465 450.10902 
L 194.966207 443.421608 
L 190.735451 436.018667 
L 186.362758 427.904413 
L 181.870826 419.102462 
L 177.069528 409.204546 
L 171.80122 397.81086 
L 166.148741 385.038896 
L 159.649641 369.774961 
L 151.674668 350.441082 
L 130.564847 298.954795 
L 124.963553 286.055826 
L 120.196204 275.61765 
L 115.963054 266.875555 
L 112.133695 259.470854 
L 108.61701 253.146386 
L 105.354342 247.723062 
L 102.215577 242.93311 
L 99.197387 238.732388 
L 96.21004 234.956618 
L 92.97524 231.236048 
L 89.296157 226.999264 
L 88.649714 225.900311 
L 88.438098 225.128793 
L 88.490753 224.500522 
L 88.764061 223.92937 
L 89.303677 223.341944 
L 90.225179 222.689912 
L 91.735532 221.915383 
L 94.187407 220.930207 
L 98.318247 219.535759 
L 107.109854 216.854243 
L 121.048938 212.551921 
L 130.404813 209.424855 
L 138.8682 206.364429 
L 146.835895 203.247815 
L 154.385091 200.058335 
L 161.639931 196.754792 
L 168.672511 193.31075 
L 175.530037 189.706882 
L 182.290696 185.90199 
L 188.89866 181.928784 
L 195.468836 177.718535 
L 201.96496 173.292749 
L 208.444612 168.611776 
L 214.982298 163.616049 
L 221.671334 158.221159 
L 228.51122 152.412482 
L 235.500027 146.18215 
L 242.762658 139.408945 
L 250.588071 131.799436 
L 259.187979 123.114258 
L 269.134295 112.74121 
L 284.582362 96.256771 
L 299.235021 80.731102 
L 307.755828 72.019512 
L 314.826765 65.09758 
L 321.096865 59.268857 
L 326.687301 54.371015 
L 331.75266 50.216661 
L 336.474332 46.618306 
L 341.055084 43.407288 
L 345.245727 40.733169 
L 349.260598 38.425828 
L 353.087852 36.473966 
L 356.716666 34.859839 
L 360.382814 33.475389 
L 363.836188 32.408541 
L 367.31797 31.576151 
L 370.574491 31.027317 
L 373.851551 30.707176 
L 376.892919 30.625045 
L 379.948193 30.756949 
L 383.015488 31.1112 
L 386.092826 31.695386 
L 389.178134 32.516263 
L 392.269253 33.579653 
L 395.363943 34.890343 
L 398.459892 36.451986 
L 401.554723 38.267023 
L 404.646004 40.336603 
L 407.73126 42.66052 
L 411.063906 45.463214 
L 414.383311 48.558552 
L 417.68624 51.940597 
L 421.221111 55.894305 
L 424.729126 60.158886 
L 428.453439 65.056034 
L 432.137668 70.271486 
L 436.018175 76.158125 
L 440.07959 82.742804 
L 444.304161 90.039252 
L 448.671735 98.044927 
L 453.159833 106.738184 
L 457.958714 116.52464 
L 463.019671 127.350945 
L 468.68356 140.013108 
L 475.014253 154.736956 
L 482.691796 173.186558 
L 506.22099 230.156897 
L 511.655253 242.477282 
L 516.279596 252.423979 
L 520.385644 260.741608 
L 524.10021 267.780206 
L 527.575539 273.897542 
L 530.843259 279.20218 
L 533.911153 283.767463 
L 536.884951 287.803154 
L 539.885768 291.502693 
L 543.40667 295.469372 
L 545.970586 298.45013 
L 546.670781 299.589013 
L 546.915322 300.385276 
L 546.885057 301.023658 
L 546.6309 301.602764 
L 546.116567 302.190532 
L 545.235995 302.836731 
L 543.793126 303.599479 
L 541.44896 304.565651 
L 537.532127 305.915322 
L 529.581745 308.37514 
L 514.512157 313.05809 
L 505.164939 316.20919 
L 496.714512 319.290954 
L 488.820673 322.403636 
L 481.299364 325.605322 
L 474.013063 328.948171 
L 466.94616 332.43606 
L 460.125795 336.048085 
L 453.40879 339.85575 
L 446.768402 343.876745 
L 440.251606 348.081511 
L 433.723524 352.558722 
L 427.209717 357.296558 
L 420.635283 362.355511 
L 414.01602 367.729856 
L 407.254882 373.505933 
L 400.232489 379.801735 
L 392.932813 386.648688 
L 385.202386 394.20685 
L 376.708289 402.827267 
L 366.72287 413.290943 
L 351.381823 429.741377 
L 336.676007 445.405781 
L 328.121625 454.200936 
L 321.021396 461.192023 
L 314.724284 467.080749 
L 309.108981 472.030151 
L 304.020488 476.228952 
L 299.276764 479.866232 
L 294.674198 483.112203 
L 290.463264 485.815467 
L 286.428676 488.147845 
L 282.582393 490.120652 
L 278.935349 491.751756 
L 275.250617 493.150277 
L 271.779604 494.227351 
L 268.530805 495.015161 
L 265.259138 495.584979 
L 261.9666 495.924019 
L 258.910664 496.021552 
L 255.840568 495.902914 
L 252.758213 495.559629 
L 249.665595 494.983956 
L 246.564807 494.168993 
L 243.458028 493.10879 
L 240.347522 491.798448 
L 237.235623 490.234219 
L 234.124734 488.413591 
L 231.017313 486.335363 
L 227.915864 483.999717 
L 224.565645 481.180843 
L 221.228671 478.065749 
L 217.908215 474.660449 
L 214.354557 470.677915 
L 210.827889 466.380775 
L 207.083791 461.444875 
L 203.380035 456.187014 
L 199.479041 450.251562 
L 195.396305 443.611579 
L 191.149728 436.253479 
L 186.759632 428.180237 
L 182.248678 419.414242 
L 177.42573 409.547298 
L 172.339864 398.634384 
L 166.648735 385.875097 
L 160.288455 371.045293 
L 152.404708 352.057616 
L 129.902325 297.479595 
L 124.33624 284.794399 
L 119.692136 274.744191 
L 115.555684 266.303732 
L 111.799853 259.128435 
L 108.335822 252.973605 
L 105.048495 247.579899 
L 101.931309 242.890898 
L 98.956007 238.81183 
L 96.004806 235.141836 
L 92.898656 231.639367 
L 88.404391 226.625775 
L 87.874353 225.654885 
L 87.728503 224.948332 
L 87.830574 224.359128 
L 88.157556 223.804633 
L 88.776697 223.217912 
L 89.82534 222.55202 
L 91.552479 221.740417 
L 94.378681 220.679631 
L 99.332247 219.085946 
L 127.793119 210.242749 
L 136.412569 207.198812 
L 144.459304 204.124034 
L 152.138045 200.952722 
L 159.504131 197.670301 
L 166.614103 194.259417 
L 173.500997 190.711396 
L 180.305663 186.954629 
L 186.973615 183.01803 
L 193.532167 178.888374 
L 200.023088 174.540814 
L 206.503577 169.935117 
L 213.047628 165.011386 
L 219.640371 159.77284 
L 226.377628 154.133962 
L 233.257329 148.085941 
L 240.40224 141.509237 
L 247.961998 134.247247 
L 256.261186 125.957274 
L 265.703328 116.19644 
L 278.121299 103.0095 
L 299.803131 79.953168 
L 308.361768 71.218468 
L 315.257206 64.485163 
L 321.335146 58.845873 
L 326.938149 53.945033 
L 332.014783 49.791106 
L 336.746839 46.196068 
L 341.337519 42.991138 
L 345.537093 40.325191 
L 349.560364 38.028106 
L 353.395466 36.088295 
L 357.03156 34.487686 
L 360.704886 33.118989 
L 364.164847 32.068918 
L 367.403034 31.305265 
L 370.663757 30.758531 
L 373.945026 30.441313 
L 376.99028 30.362636 
L 380.049431 30.498741 
L 383.120591 30.857952 
L 386.201772 31.447864 
L 389.290895 32.275239 
L 392.385794 33.345892 
L 395.484221 34.664599 
L 398.583857 36.234996 
L 401.682318 38.059499 
L 404.777165 40.139222 
L 407.865914 42.473921 
L 411.202256 45.288961 
L 414.525256 48.39727 
L 417.83167 51.792834 
L 421.370164 55.761617 
L 424.881661 60.041694 
L 428.609535 64.955774 
L 432.297145 70.188347 
L 436.181051 76.093278 
L 440.24584 82.697211 
L 444.47371 90.013599 
L 448.84446 98.039545 
L 453.335564 106.752986 
L 458.137364 116.559951 
L 463.20106 127.406269 
L 468.867597 140.088311 
L 475.200731 154.830496 
L 483.051391 173.71168 
L 505.820808 228.883641 
L 511.32311 241.404191 
L 516.006659 251.521599 
L 520.166267 259.986893 
L 523.930168 267.152796 
L 527.38788 273.271423 
L 530.653358 278.606364 
L 533.733532 283.222132 
L 536.736384 287.32489 
L 539.72481 291.030621 
L 543.04818 294.783189 
L 546.287183 298.479563 
L 546.966766 299.593714 
L 547.197442 300.374819 
L 547.156881 301.002524 
L 546.894389 301.573144 
L 546.372894 302.153437 
L 545.475557 302.799101 
L 543.996324 303.567761 
L 541.60155 304.540662 
L 537.569885 305.91439 
L 529.139583 308.503659 
L 514.806451 312.945621 
L 505.44062 316.090773 
L 497.012674 319.152402 
L 489.08596 322.266105 
L 481.523433 325.474277 
L 474.25286 328.798964 
L 467.202532 332.26681 
L 460.325477 335.897365 
L 453.622037 339.686364 
L 446.99603 343.686764 
L 440.406266 347.92753 
L 433.889186 352.387158 
L 427.387077 357.105757 
L 420.825169 362.143562 
L 414.219234 367.494885 
L 407.472439 373.245739 
L 400.465699 379.513684 
L 393.183077 386.330167 
L 385.471532 393.854835 
L 376.99908 402.437756 
L 367.040157 412.857875 
L 352.259837 428.689938 
L 336.888146 445.066674 
L 328.149995 454.049399 
L 321.05473 461.032238 
L 314.762127 466.914382 
L 309.150913 471.85865 
L 304.066172 476.053509 
L 299.325977 479.687812 
L 294.726856 482.93161 
L 290.519085 485.633564 
L 286.487532 487.965337 
L 282.644142 489.938199 
L 278.999834 491.569954 
L 275.317857 492.969749 
L 271.849425 494.048612 
L 268.603027 494.838624 
L 265.333758 495.411189 
L 262.043613 495.753538 
L 258.989873 495.854634 
L 255.92196 495.740055 
L 252.841766 495.401329 
L 249.751286 494.830712 
L 246.652605 494.0213 
L 243.547901 492.967131 
L 240.439428 491.663294 
L 237.32952 490.106019 
L 234.220573 488.292771 
L 231.115041 486.222324 
L 228.015422 483.894822 
L 224.667116 481.08514 
L 221.331977 477.97957 
L 218.013274 474.584066 
L 214.461405 470.612317 
L 210.936421 466.326124 
L 207.194007 461.402035 
L 203.491805 456.155965 
L 199.592323 450.232949 
L 195.511027 443.605877 
L 191.265788 436.26095 
L 186.876896 428.200883 
L 182.366985 419.447769 
L 177.544929 409.593634 
L 172.45975 398.692885 
L 166.769076 385.945235 
L 160.408914 371.125527 
L 152.52476 352.145443 
L 129.898049 297.274293 
L 124.344341 284.621879 
L 119.71083 274.597958 
L 115.584064 266.179475 
L 111.837297 259.02252 
L 108.315845 252.770083 
L 105.045581 247.41141 
L 101.945158 242.752159 
L 98.945022 238.64362 
L 95.986188 234.969429 
L 92.845873 231.431465 
L 88.609477 226.69461 
L 88.042313 225.692008 
L 87.874759 224.973272 
L 87.95876 224.375675 
L 88.269162 223.814791 
L 88.863446 223.229317 
L 89.868855 222.571574 
L 91.521759 221.775788 
L 94.225831 220.741589 
L 98.906195 219.216262 
L 112.363645 215.165773 
L 123.282764 211.730925 
L 132.328887 208.653976 
L 140.614711 205.603936 
L 148.42868 202.493878 
L 155.946362 199.263055 
L 163.139867 195.931687 
L 170.154057 192.439288 
L 176.975833 188.795564 
L 183.68454 184.960524 
L 190.30732 180.917626 
L 196.885728 176.638871 
L 203.382665 172.14803 
L 209.955429 167.331262 
L 216.4859 162.270556 
L 223.162165 156.814579 
L 229.982899 150.951228 
L 237.068647 144.561816 
L 244.435669 137.616127 
L 252.377492 129.815738 
L 261.1096 120.920002 
L 271.690064 109.80556 
L 305.496195 74.018927 
L 312.900027 66.663117 
L 319.329595 60.581707 
L 325.098314 55.426632 
L 330.357162 51.019621 
L 335.284625 47.178776 
L 339.85095 43.89695 
L 344.263411 41.003745 
L 348.270825 38.632223 
L 352.091756 36.614043 
L 355.958272 34.828174 
L 359.622357 33.38702 
L 363.074374 32.264056 
L 366.555385 31.372599 
L 369.811749 30.766425 
L 373.08922 30.386718 
L 376.131497 30.247808 
L 379.188209 30.321403 
L 382.257492 30.616027 
L 385.337385 31.139507 
L 388.425833 31.89886 
L 391.52069 32.900193 
L 394.619731 34.148592 
L 397.720653 35.648033 
L 400.821087 37.401289 
L 403.918607 39.409853 
L 407.010736 41.673871 
L 410.094965 44.192092 
L 413.424352 47.203874 
L 416.738244 50.505467 
L 420.033396 54.089524 
L 423.557366 58.254432 
L 427.051883 62.721962 
L 430.758896 67.825551 
L 434.665596 73.605044 
L 438.517999 79.70009 
L 442.54592 86.483205 
L 446.731194 93.96189 
L 451.277982 102.563277 
L 455.926678 111.842772 
L 460.861716 122.192042 
L 466.233499 133.983741 
L 472.147604 147.513647 
L 479.010467 163.783295 
L 488.642114 187.24688 
L 502.118154 220.025631 
L 508.387229 234.661993 
L 513.504588 246.054444 
L 517.953141 255.420744 
L 521.902011 263.228614 
L 525.543875 269.945045 
L 528.938332 275.742443 
L 532.117312 280.73764 
L 535.134165 285.074033 
L 538.102953 288.956609 
L 541.141683 292.562275 
L 546.901113 299.250372 
L 547.255353 300.11287 
L 547.298038 300.772372 
L 547.114921 301.350676 
L 546.69339 301.920684 
L 545.941213 302.539693 
L 544.693875 303.25655 
L 542.666113 304.144465 
L 539.323519 305.34303 
L 533.157334 307.284479 
L 512.774832 313.597196 
L 503.690062 316.694918 
L 495.385319 319.758154 
L 487.536464 322.8882 
L 480.032113 326.119286 
L 472.783089 329.482926 
L 465.772635 332.980916 
L 458.952866 336.631036 
L 452.244757 340.473401 
L 445.621369 344.524648 
L 439.041284 348.812916 
L 432.541721 353.314467 
L 426.064744 358.068489 
L 419.535334 363.134418 
L 412.859521 368.596852 
L 406.038617 374.46814 
L 398.952039 380.867429 
L 391.583456 387.825381 
L 383.639153 395.64154 
L 374.903354 404.557994 
L 364.476141 415.533201 
L 329.891048 452.22661 
L 322.454492 459.616506 
L 315.996326 465.719754 
L 310.20193 470.887217 
L 304.919755 475.298833 
L 299.970584 479.137643 
L 295.384338 482.411687 
L 291.18787 485.146314 
L 287.166677 487.513945 
L 283.332699 489.525164 
L 279.696866 491.197042 
L 276.022974 492.641048 
L 272.561695 493.764875 
L 269.07133 494.655327 
L 265.806215 495.258792 
L 262.519947 495.633992 
L 259.469524 495.76708 
L 256.404654 495.686016 
L 253.327217 495.382235 
L 250.23919 494.847882 
L 247.142642 494.075923 
L 244.039735 493.060249 
L 240.932713 491.795787 
L 237.823894 490.278588 
L 234.715663 488.505922 
L 231.610465 486.476357 
L 228.51079 484.189822 
L 225.419166 481.64766 
L 222.081955 478.608461 
L 218.760452 475.278062 
L 215.457919 471.663986 
L 211.92628 467.465612 
L 208.424398 462.963684 
L 204.709853 457.822514 
L 200.795548 452.002486 
L 196.935996 445.866857 
L 192.900996 439.041042 
L 188.708814 431.518147 
L 184.155064 422.869498 
L 179.499856 413.543195 
L 174.558604 403.146744 
L 169.180896 391.30768 
L 163.261298 377.731807 
L 156.214499 360.987589 
L 146.123422 336.360515 
L 133.664585 306.053764 
L 127.349393 291.293287 
L 122.294716 280.02291 
L 117.89067 270.725808 
L 113.89013 262.790806 
L 110.27025 256.091666 
L 106.882167 250.279779 
L 103.694671 245.246534 
L 100.653902 240.854762 
L 97.679948 236.949524 
L 94.679924 233.380632 
L 90.995831 229.373793 
L 88.847436 226.9118 
L 88.181744 225.832913 
L 87.957863 225.074483 
L 88.001252 224.463628 
L 88.268513 223.900294 
L 88.805147 223.320761 
L 89.726249 222.677089 
L 91.238419 221.911541 
L 93.712206 220.929389 
L 97.922431 219.523055 
L 107.181615 216.720175 
L 120.559172 212.604925 
L 129.93888 209.481553 
L 138.437388 206.418329 
L 146.393899 203.315351 
L 153.992038 200.113829 
L 161.304431 196.790988 
L 168.333874 193.354448 
L 175.187919 189.758534 
L 181.944738 185.962143 
L 188.54856 181.997897 
L 195.114236 177.797188 
L 201.605543 173.38142 
L 208.080032 168.710956 
L 214.612162 163.726251 
L 221.29517 158.342922 
L 228.01348 152.646179 
L 234.988848 146.438539 
L 242.236991 139.688745 
L 249.910034 132.238399 
L 258.337963 123.740208 
L 268.086511 113.585197 
L 282.251594 98.467785 
L 298.779414 80.892155 
L 307.491475 71.955927 
L 314.564919 65.007266 
L 320.837778 59.151788 
L 326.431136 54.227728 
L 331.499543 50.047778 
L 336.224417 46.424083 
L 340.808625 43.187226 
L 345.002742 40.488487 
L 349.02123 38.156789 
L 352.852204 36.181109 
L 356.484795 34.543956 
L 360.155012 33.135914 
L 363.612456 32.046638 
L 367.098577 31.19154 
L 370.359375 30.621476 
L 373.640954 30.280076 
L 376.686712 30.178399 
L 379.746586 30.290931 
L 382.818694 30.626087 
L 385.901055 31.191561 
L 388.991598 31.99422 
L 392.088161 33.039999 
L 395.188502 34.333795 
L 398.290304 35.879376 
L 401.391187 37.679291 
L 404.488711 39.734795 
L 407.580395 42.045785 
L 410.920205 44.83588 
L 414.246971 47.920188 
L 417.557444 51.292868 
L 421.100629 55.238446 
L 424.617139 59.497003 
L 428.350728 64.390095 
L 432.04439 69.604008 
L 435.935101 75.491781 
L 440.007482 82.080752 
L 444.243761 89.385098 
L 448.623748 97.402642 
L 453.124912 106.111994 
L 457.938095 115.919931 
L 463.014482 126.773458 
L 468.696033 139.471227 
L 475.046916 154.240492 
L 482.749528 172.75138 
L 506.241216 229.645357 
L 511.708804 242.048259 
L 516.362366 252.061694 
L 520.495211 260.434288 
L 524.23495 267.518018 
L 527.670638 273.56414 
L 530.915571 278.834463 
L 533.97667 283.393665 
L 536.961258 287.446096 
L 539.931833 291.106947 
L 543.257405 294.839443 
L 546.44515 298.460697 
L 547.123984 299.567312 
L 547.355056 300.343459 
L 547.315569 300.967392 
L 547.054752 301.534746 
L 546.528111 302.118546 
L 545.620617 302.767036 
L 544.139782 303.531727 
L 542.80373 304.096231 
L 542.80373 304.096231 
" clip-path="url(#p57063d860c)" style="fill: none; stroke: #3f90da; stroke-width: 2; stroke-linecap: square"/>
   </g>
   <g id="patch_3">
    <path d="M 64.74631 520.074775 
L 64.74631 6.85 
" style="fill: none; stroke: #ffffff; stroke-width: 0.5; stroke-linejoin: miter; stroke-linecap: square"/>
   </g>
   <g id="patch_4">
    <path d="M 570.34952 520.074775 
L 570.34952 6.85 
" style="fill: none; stroke: #ffffff; stroke-width: 0.5; stroke-linejoin: miter; stroke-linecap: square"/>
   </g>
   <g id="patch_5">
    <path d="M 64.74631 520.074775 
L 570.34952 520.074775 
" style="fill: none; stroke: #ffffff; stroke-width: 0.5; stroke-linejoin: miter; stroke-linecap: square"/>
   </g>
   <g id="patch_6">
    <path d="M 64.74631 6.85 
L 570.34952 6.85 
" style="fill: none; stroke: #ffffff; stroke-width: 0.5; stroke-linejoin: miter; stroke-linecap: square"/>
   </g>
  </g>
 </g>
 <defs>
  <clipPath id="p57063d860c">
   <rect x="64.74631" y="6.85" width="505.60321" height="513.224775"/>
  </clipPath>
 </defs>
</svg>
