<?xml version="1.0" encoding="utf-8" standalone="no"?>
<!DOCTYPE svg PUBLIC "-//W3C//DTD SVG 1.1//EN"
  "http://www.w3.org/Graphics/SVG/1.1/DTD/svg11.dtd">
<svg xmlns:xlink="http://www.w3.org/1999/xlink" width="577.19952pt" height="577.19952pt" viewBox="0 0 577.19952 577.19952" xmlns="http://www.w3.org/2000/svg" version="1.1">
 <metadata>
  <rdf:RDF xmlns:dc="http://purl.org/dc/elements/1.1/" xmlns:cc="http://creativecommons.org/ns#" xmlns:rdf="http://www.w3.org/1999/02/22-rdf-syntax-ns#">
   <cc:Work>
    <dc:type rdf:resource="http://purl.org/dc/dcmitype/StillImage"/>
    <dc:date>2024-12-26T21:51:31.606004</dc:date>
    <dc:format>image/svg+xml</dc:format>
    <dc:creator>
     <cc:Agent>
      <dc:title>Matplotlib v3.10.0, https://matplotlib.org/</dc:title>
     </cc:Agent>
    </dc:creator>
   </cc:Work>
  </rdf:RDF>
 </metadata>
 <defs>
  <style type="text/css">*{stroke-linejoin: round; stroke-linecap: butt}</style>
 </defs>
 <g id="figure_1">
  <g id="patch_1">
   <path d="M 0 577.19952 
L 577.19952 577.19952 
L 577.19952 0 
L 0 0 
z
"/>
  </g>
  <g id="axes_1">
   <g id="patch_2">
    <path d="M 74.708951 520.074775 
L 570.34952 520.074775 
L 570.34952 6.85 
L 74.708951 6.85 
z
"/>
   </g>
   <g id="matplotlib.axis_1">
    <g id="xtick_1">
     <g id="line2d_1">
      <path d="M 97.238067 520.074775 
L 97.238067 6.85 
" clip-path="url(#p8d69ad7ad2)" style="fill: none; stroke: #ffffff; stroke-width: 0.5; stroke-linecap: square"/>
     </g>
     <g id="line2d_2">
      <defs>
       <path id="m8b94e96355" d="M 0 3.25 
L 0 -3.25 
" style="stroke: #ffffff; stroke-width: 1.5"/>
      </defs>
      <g>
       <use xlink:href="#m8b94e96355" x="97.238067" y="520.074775" style="fill: #ffffff; stroke: #ffffff; stroke-width: 1.5"/>
      </g>
     </g>
     <g id="line2d_3">
      <g>
       <use xlink:href="#m8b94e96355" x="97.238067" y="6.85" style="fill: #ffffff; stroke: #ffffff; stroke-width: 1.5"/>
      </g>
     </g>
     <g id="text_1">
      <!-- $\mathdefault{0}$ -->
      <g style="fill: #ffffff" transform="translate(92.256747 540.33393) scale(0.2 -0.2)">
       <defs>
        <path id="NimbusRomNo9L-Regu-30" d="M 1626 4352 
C 1274 4352 1005 4243 768 4019 
C 397 3661 154 2924 154 2176 
C 154 1478 365 729 666 371 
C 902 89 1229 -64 1600 -64 
C 1926 -64 2202 44 2432 268 
C 2803 620 3046 1363 3046 2137 
C 3046 3449 2464 4352 1626 4352 
z
M 1606 4185 
C 2144 4185 2432 3462 2432 2124 
C 2432 787 2150 102 1600 102 
C 1050 102 768 787 768 2118 
C 768 3475 1056 4185 1606 4185 
z
" transform="scale(0.015625)"/>
       </defs>
       <use xlink:href="#NimbusRomNo9L-Regu-30" transform="scale(0.996264)"/>
      </g>
     </g>
    </g>
    <g id="xtick_2">
     <g id="line2d_4">
      <path d="M 197.19053 520.074775 
L 197.19053 6.85 
" clip-path="url(#p8d69ad7ad2)" style="fill: none; stroke: #ffffff; stroke-width: 0.5; stroke-linecap: square"/>
     </g>
     <g id="line2d_5">
      <g>
       <use xlink:href="#m8b94e96355" x="197.19053" y="520.074775" style="fill: #ffffff; stroke: #ffffff; stroke-width: 1.5"/>
      </g>
     </g>
     <g id="line2d_6">
      <g>
       <use xlink:href="#m8b94e96355" x="197.19053" y="6.85" style="fill: #ffffff; stroke: #ffffff; stroke-width: 1.5"/>
      </g>
     </g>
     <g id="text_2">
      <!-- $\mathdefault{500}$ -->
      <g style="fill: #ffffff" transform="translate(182.24657 540.33393) scale(0.2 -0.2)">
       <defs>
        <path id="NimbusRomNo9L-Regu-35" d="M 1158 3718 
L 2413 3718 
C 2515 3718 2541 3731 2560 3775 
L 2803 4345 
L 2746 4390 
C 2650 4256 2586 4224 2451 4224 
L 1114 4224 
L 416 2717 
C 410 2705 410 2698 410 2686 
C 410 2654 435 2635 486 2635 
C 691 2635 947 2591 1210 2508 
C 1946 2274 2285 1882 2285 1255 
C 2285 647 1894 172 1395 172 
C 1267 172 1158 217 966 356 
C 762 502 614 565 480 565 
C 294 565 205 489 205 331 
C 205 89 506 -64 986 -64 
C 1523 -64 1984 108 2304 432 
C 2598 717 2733 1078 2733 1559 
C 2733 2015 2611 2306 2291 2622 
C 2010 2901 1645 3047 890 3180 
L 1158 3718 
z
" transform="scale(0.015625)"/>
       </defs>
       <use xlink:href="#NimbusRomNo9L-Regu-35" transform="scale(0.996264)"/>
       <use xlink:href="#NimbusRomNo9L-Regu-30" transform="translate(49.8132 0) scale(0.996264)"/>
       <use xlink:href="#NimbusRomNo9L-Regu-30" transform="translate(99.626401 0) scale(0.996264)"/>
      </g>
     </g>
    </g>
    <g id="xtick_3">
     <g id="line2d_7">
      <path d="M 297.142993 520.074775 
L 297.142993 6.85 
" clip-path="url(#p8d69ad7ad2)" style="fill: none; stroke: #ffffff; stroke-width: 0.5; stroke-linecap: square"/>
     </g>
     <g id="line2d_8">
      <g>
       <use xlink:href="#m8b94e96355" x="297.142993" y="520.074775" style="fill: #ffffff; stroke: #ffffff; stroke-width: 1.5"/>
      </g>
     </g>
     <g id="line2d_9">
      <g>
       <use xlink:href="#m8b94e96355" x="297.142993" y="6.85" style="fill: #ffffff; stroke: #ffffff; stroke-width: 1.5"/>
      </g>
     </g>
     <g id="text_3">
      <!-- $\mathdefault{1000}$ -->
      <g style="fill: #ffffff" transform="translate(277.217713 540.33393) scale(0.2 -0.2)">
       <defs>
        <path id="NimbusRomNo9L-Regu-31" d="M 1862 4352 
L 710 3776 
L 710 3686 
C 787 3718 858 3743 883 3756 
C 998 3801 1107 3826 1171 3826 
C 1306 3826 1363 3731 1363 3525 
L 1363 599 
C 1363 386 1312 238 1210 179 
C 1114 121 1024 102 755 96 
L 755 0 
L 2522 0 
L 2522 96 
C 2016 102 1914 167 1914 477 
L 1914 4339 
L 1862 4352 
z
" transform="scale(0.015625)"/>
       </defs>
       <use xlink:href="#NimbusRomNo9L-Regu-31" transform="scale(0.996264)"/>
       <use xlink:href="#NimbusRomNo9L-Regu-30" transform="translate(49.8132 0) scale(0.996264)"/>
       <use xlink:href="#NimbusRomNo9L-Regu-30" transform="translate(99.626401 0) scale(0.996264)"/>
       <use xlink:href="#NimbusRomNo9L-Regu-30" transform="translate(149.439601 0) scale(0.996264)"/>
      </g>
     </g>
    </g>
    <g id="xtick_4">
     <g id="line2d_10">
      <path d="M 397.095456 520.074775 
L 397.095456 6.85 
" clip-path="url(#p8d69ad7ad2)" style="fill: none; stroke: #ffffff; stroke-width: 0.5; stroke-linecap: square"/>
     </g>
     <g id="line2d_11">
      <g>
       <use xlink:href="#m8b94e96355" x="397.095456" y="520.074775" style="fill: #ffffff; stroke: #ffffff; stroke-width: 1.5"/>
      </g>
     </g>
     <g id="line2d_12">
      <g>
       <use xlink:href="#m8b94e96355" x="397.095456" y="6.85" style="fill: #ffffff; stroke: #ffffff; stroke-width: 1.5"/>
      </g>
     </g>
     <g id="text_4">
      <!-- $\mathdefault{1500}$ -->
      <g style="fill: #ffffff" transform="translate(377.170175 540.33393) scale(0.2 -0.2)">
       <use xlink:href="#NimbusRomNo9L-Regu-31" transform="scale(0.996264)"/>
       <use xlink:href="#NimbusRomNo9L-Regu-35" transform="translate(49.8132 0) scale(0.996264)"/>
       <use xlink:href="#NimbusRomNo9L-Regu-30" transform="translate(99.626401 0) scale(0.996264)"/>
       <use xlink:href="#NimbusRomNo9L-Regu-30" transform="translate(149.439601 0) scale(0.996264)"/>
      </g>
     </g>
    </g>
    <g id="xtick_5">
     <g id="line2d_13">
      <path d="M 497.047918 520.074775 
L 497.047918 6.85 
" clip-path="url(#p8d69ad7ad2)" style="fill: none; stroke: #ffffff; stroke-width: 0.5; stroke-linecap: square"/>
     </g>
     <g id="line2d_14">
      <g>
       <use xlink:href="#m8b94e96355" x="497.047918" y="520.074775" style="fill: #ffffff; stroke: #ffffff; stroke-width: 1.5"/>
      </g>
     </g>
     <g id="line2d_15">
      <g>
       <use xlink:href="#m8b94e96355" x="497.047918" y="6.85" style="fill: #ffffff; stroke: #ffffff; stroke-width: 1.5"/>
      </g>
     </g>
     <g id="text_5">
      <!-- $\mathdefault{2000}$ -->
      <g style="fill: #ffffff" transform="translate(477.122638 540.33393) scale(0.2 -0.2)">
       <defs>
        <path id="NimbusRomNo9L-Regu-32" d="M 3040 879 
L 2957 912 
C 2720 544 2637 486 2349 486 
L 819 486 
L 1894 1621 
C 2464 2221 2714 2711 2714 3214 
C 2714 3858 2195 4352 1530 4352 
C 1178 4352 845 4211 608 3955 
C 403 3736 307 3530 198 3072 
L 333 3039 
C 589 3671 819 3878 1261 3878 
C 1798 3878 2163 3510 2163 2969 
C 2163 2466 1869 1866 1331 1292 
L 192 76 
L 192 0 
L 2688 0 
L 3040 879 
z
" transform="scale(0.015625)"/>
       </defs>
       <use xlink:href="#NimbusRomNo9L-Regu-32" transform="scale(0.996264)"/>
       <use xlink:href="#NimbusRomNo9L-Regu-30" transform="translate(49.8132 0) scale(0.996264)"/>
       <use xlink:href="#NimbusRomNo9L-Regu-30" transform="translate(99.626401 0) scale(0.996264)"/>
       <use xlink:href="#NimbusRomNo9L-Regu-30" transform="translate(149.439601 0) scale(0.996264)"/>
      </g>
     </g>
    </g>
    <g id="xtick_6">
     <g id="line2d_16">
      <path d="M 77.247575 520.074775 
L 77.247575 6.85 
" clip-path="url(#p8d69ad7ad2)" style="fill: none; stroke: #ffffff; stroke-width: 0.5; stroke-linecap: square"/>
     </g>
     <g id="line2d_17">
      <defs>
       <path id="me4b1aa1952" d="M 0 2 
L 0 -2 
" style="stroke: #ffffff; stroke-width: 0.5"/>
      </defs>
      <g>
       <use xlink:href="#me4b1aa1952" x="77.247575" y="520.074775" style="fill: #ffffff; stroke: #ffffff; stroke-width: 0.5"/>
      </g>
     </g>
     <g id="line2d_18">
      <g>
       <use xlink:href="#me4b1aa1952" x="77.247575" y="6.85" style="fill: #ffffff; stroke: #ffffff; stroke-width: 0.5"/>
      </g>
     </g>
    </g>
    <g id="xtick_7">
     <g id="line2d_19">
      <path d="M 117.22856 520.074775 
L 117.22856 6.85 
" clip-path="url(#p8d69ad7ad2)" style="fill: none; stroke: #ffffff; stroke-width: 0.5; stroke-linecap: square"/>
     </g>
     <g id="line2d_20">
      <g>
       <use xlink:href="#me4b1aa1952" x="117.22856" y="520.074775" style="fill: #ffffff; stroke: #ffffff; stroke-width: 0.5"/>
      </g>
     </g>
     <g id="line2d_21">
      <g>
       <use xlink:href="#me4b1aa1952" x="117.22856" y="6.85" style="fill: #ffffff; stroke: #ffffff; stroke-width: 0.5"/>
      </g>
     </g>
    </g>
    <g id="xtick_8">
     <g id="line2d_22">
      <path d="M 137.219052 520.074775 
L 137.219052 6.85 
" clip-path="url(#p8d69ad7ad2)" style="fill: none; stroke: #ffffff; stroke-width: 0.5; stroke-linecap: square"/>
     </g>
     <g id="line2d_23">
      <g>
       <use xlink:href="#me4b1aa1952" x="137.219052" y="520.074775" style="fill: #ffffff; stroke: #ffffff; stroke-width: 0.5"/>
      </g>
     </g>
     <g id="line2d_24">
      <g>
       <use xlink:href="#me4b1aa1952" x="137.219052" y="6.85" style="fill: #ffffff; stroke: #ffffff; stroke-width: 0.5"/>
      </g>
     </g>
    </g>
    <g id="xtick_9">
     <g id="line2d_25">
      <path d="M 157.209545 520.074775 
L 157.209545 6.85 
" clip-path="url(#p8d69ad7ad2)" style="fill: none; stroke: #ffffff; stroke-width: 0.5; stroke-linecap: square"/>
     </g>
     <g id="line2d_26">
      <g>
       <use xlink:href="#me4b1aa1952" x="157.209545" y="520.074775" style="fill: #ffffff; stroke: #ffffff; stroke-width: 0.5"/>
      </g>
     </g>
     <g id="line2d_27">
      <g>
       <use xlink:href="#me4b1aa1952" x="157.209545" y="6.85" style="fill: #ffffff; stroke: #ffffff; stroke-width: 0.5"/>
      </g>
     </g>
    </g>
    <g id="xtick_10">
     <g id="line2d_28">
      <path d="M 177.200038 520.074775 
L 177.200038 6.85 
" clip-path="url(#p8d69ad7ad2)" style="fill: none; stroke: #ffffff; stroke-width: 0.5; stroke-linecap: square"/>
     </g>
     <g id="line2d_29">
      <g>
       <use xlink:href="#me4b1aa1952" x="177.200038" y="520.074775" style="fill: #ffffff; stroke: #ffffff; stroke-width: 0.5"/>
      </g>
     </g>
     <g id="line2d_30">
      <g>
       <use xlink:href="#me4b1aa1952" x="177.200038" y="6.85" style="fill: #ffffff; stroke: #ffffff; stroke-width: 0.5"/>
      </g>
     </g>
    </g>
    <g id="xtick_11">
     <g id="line2d_31">
      <path d="M 217.181023 520.074775 
L 217.181023 6.85 
" clip-path="url(#p8d69ad7ad2)" style="fill: none; stroke: #ffffff; stroke-width: 0.5; stroke-linecap: square"/>
     </g>
     <g id="line2d_32">
      <g>
       <use xlink:href="#me4b1aa1952" x="217.181023" y="520.074775" style="fill: #ffffff; stroke: #ffffff; stroke-width: 0.5"/>
      </g>
     </g>
     <g id="line2d_33">
      <g>
       <use xlink:href="#me4b1aa1952" x="217.181023" y="6.85" style="fill: #ffffff; stroke: #ffffff; stroke-width: 0.5"/>
      </g>
     </g>
    </g>
    <g id="xtick_12">
     <g id="line2d_34">
      <path d="M 237.171515 520.074775 
L 237.171515 6.85 
" clip-path="url(#p8d69ad7ad2)" style="fill: none; stroke: #ffffff; stroke-width: 0.5; stroke-linecap: square"/>
     </g>
     <g id="line2d_35">
      <g>
       <use xlink:href="#me4b1aa1952" x="237.171515" y="520.074775" style="fill: #ffffff; stroke: #ffffff; stroke-width: 0.5"/>
      </g>
     </g>
     <g id="line2d_36">
      <g>
       <use xlink:href="#me4b1aa1952" x="237.171515" y="6.85" style="fill: #ffffff; stroke: #ffffff; stroke-width: 0.5"/>
      </g>
     </g>
    </g>
    <g id="xtick_13">
     <g id="line2d_37">
      <path d="M 257.162008 520.074775 
L 257.162008 6.85 
" clip-path="url(#p8d69ad7ad2)" style="fill: none; stroke: #ffffff; stroke-width: 0.5; stroke-linecap: square"/>
     </g>
     <g id="line2d_38">
      <g>
       <use xlink:href="#me4b1aa1952" x="257.162008" y="520.074775" style="fill: #ffffff; stroke: #ffffff; stroke-width: 0.5"/>
      </g>
     </g>
     <g id="line2d_39">
      <g>
       <use xlink:href="#me4b1aa1952" x="257.162008" y="6.85" style="fill: #ffffff; stroke: #ffffff; stroke-width: 0.5"/>
      </g>
     </g>
    </g>
    <g id="xtick_14">
     <g id="line2d_40">
      <path d="M 277.1525 520.074775 
L 277.1525 6.85 
" clip-path="url(#p8d69ad7ad2)" style="fill: none; stroke: #ffffff; stroke-width: 0.5; stroke-linecap: square"/>
     </g>
     <g id="line2d_41">
      <g>
       <use xlink:href="#me4b1aa1952" x="277.1525" y="520.074775" style="fill: #ffffff; stroke: #ffffff; stroke-width: 0.5"/>
      </g>
     </g>
     <g id="line2d_42">
      <g>
       <use xlink:href="#me4b1aa1952" x="277.1525" y="6.85" style="fill: #ffffff; stroke: #ffffff; stroke-width: 0.5"/>
      </g>
     </g>
    </g>
    <g id="xtick_15">
     <g id="line2d_43">
      <path d="M 317.133485 520.074775 
L 317.133485 6.85 
" clip-path="url(#p8d69ad7ad2)" style="fill: none; stroke: #ffffff; stroke-width: 0.5; stroke-linecap: square"/>
     </g>
     <g id="line2d_44">
      <g>
       <use xlink:href="#me4b1aa1952" x="317.133485" y="520.074775" style="fill: #ffffff; stroke: #ffffff; stroke-width: 0.5"/>
      </g>
     </g>
     <g id="line2d_45">
      <g>
       <use xlink:href="#me4b1aa1952" x="317.133485" y="6.85" style="fill: #ffffff; stroke: #ffffff; stroke-width: 0.5"/>
      </g>
     </g>
    </g>
    <g id="xtick_16">
     <g id="line2d_46">
      <path d="M 337.123978 520.074775 
L 337.123978 6.85 
" clip-path="url(#p8d69ad7ad2)" style="fill: none; stroke: #ffffff; stroke-width: 0.5; stroke-linecap: square"/>
     </g>
     <g id="line2d_47">
      <g>
       <use xlink:href="#me4b1aa1952" x="337.123978" y="520.074775" style="fill: #ffffff; stroke: #ffffff; stroke-width: 0.5"/>
      </g>
     </g>
     <g id="line2d_48">
      <g>
       <use xlink:href="#me4b1aa1952" x="337.123978" y="6.85" style="fill: #ffffff; stroke: #ffffff; stroke-width: 0.5"/>
      </g>
     </g>
    </g>
    <g id="xtick_17">
     <g id="line2d_49">
      <path d="M 357.114471 520.074775 
L 357.114471 6.85 
" clip-path="url(#p8d69ad7ad2)" style="fill: none; stroke: #ffffff; stroke-width: 0.5; stroke-linecap: square"/>
     </g>
     <g id="line2d_50">
      <g>
       <use xlink:href="#me4b1aa1952" x="357.114471" y="520.074775" style="fill: #ffffff; stroke: #ffffff; stroke-width: 0.5"/>
      </g>
     </g>
     <g id="line2d_51">
      <g>
       <use xlink:href="#me4b1aa1952" x="357.114471" y="6.85" style="fill: #ffffff; stroke: #ffffff; stroke-width: 0.5"/>
      </g>
     </g>
    </g>
    <g id="xtick_18">
     <g id="line2d_52">
      <path d="M 377.104963 520.074775 
L 377.104963 6.85 
" clip-path="url(#p8d69ad7ad2)" style="fill: none; stroke: #ffffff; stroke-width: 0.5; stroke-linecap: square"/>
     </g>
     <g id="line2d_53">
      <g>
       <use xlink:href="#me4b1aa1952" x="377.104963" y="520.074775" style="fill: #ffffff; stroke: #ffffff; stroke-width: 0.5"/>
      </g>
     </g>
     <g id="line2d_54">
      <g>
       <use xlink:href="#me4b1aa1952" x="377.104963" y="6.85" style="fill: #ffffff; stroke: #ffffff; stroke-width: 0.5"/>
      </g>
     </g>
    </g>
    <g id="xtick_19">
     <g id="line2d_55">
      <path d="M 417.085948 520.074775 
L 417.085948 6.85 
" clip-path="url(#p8d69ad7ad2)" style="fill: none; stroke: #ffffff; stroke-width: 0.5; stroke-linecap: square"/>
     </g>
     <g id="line2d_56">
      <g>
       <use xlink:href="#me4b1aa1952" x="417.085948" y="520.074775" style="fill: #ffffff; stroke: #ffffff; stroke-width: 0.5"/>
      </g>
     </g>
     <g id="line2d_57">
      <g>
       <use xlink:href="#me4b1aa1952" x="417.085948" y="6.85" style="fill: #ffffff; stroke: #ffffff; stroke-width: 0.5"/>
      </g>
     </g>
    </g>
    <g id="xtick_20">
     <g id="line2d_58">
      <path d="M 437.076441 520.074775 
L 437.076441 6.85 
" clip-path="url(#p8d69ad7ad2)" style="fill: none; stroke: #ffffff; stroke-width: 0.5; stroke-linecap: square"/>
     </g>
     <g id="line2d_59">
      <g>
       <use xlink:href="#me4b1aa1952" x="437.076441" y="520.074775" style="fill: #ffffff; stroke: #ffffff; stroke-width: 0.5"/>
      </g>
     </g>
     <g id="line2d_60">
      <g>
       <use xlink:href="#me4b1aa1952" x="437.076441" y="6.85" style="fill: #ffffff; stroke: #ffffff; stroke-width: 0.5"/>
      </g>
     </g>
    </g>
    <g id="xtick_21">
     <g id="line2d_61">
      <path d="M 457.066933 520.074775 
L 457.066933 6.85 
" clip-path="url(#p8d69ad7ad2)" style="fill: none; stroke: #ffffff; stroke-width: 0.5; stroke-linecap: square"/>
     </g>
     <g id="line2d_62">
      <g>
       <use xlink:href="#me4b1aa1952" x="457.066933" y="520.074775" style="fill: #ffffff; stroke: #ffffff; stroke-width: 0.5"/>
      </g>
     </g>
     <g id="line2d_63">
      <g>
       <use xlink:href="#me4b1aa1952" x="457.066933" y="6.85" style="fill: #ffffff; stroke: #ffffff; stroke-width: 0.5"/>
      </g>
     </g>
    </g>
    <g id="xtick_22">
     <g id="line2d_64">
      <path d="M 477.057426 520.074775 
L 477.057426 6.85 
" clip-path="url(#p8d69ad7ad2)" style="fill: none; stroke: #ffffff; stroke-width: 0.5; stroke-linecap: square"/>
     </g>
     <g id="line2d_65">
      <g>
       <use xlink:href="#me4b1aa1952" x="477.057426" y="520.074775" style="fill: #ffffff; stroke: #ffffff; stroke-width: 0.5"/>
      </g>
     </g>
     <g id="line2d_66">
      <g>
       <use xlink:href="#me4b1aa1952" x="477.057426" y="6.85" style="fill: #ffffff; stroke: #ffffff; stroke-width: 0.5"/>
      </g>
     </g>
    </g>
    <g id="xtick_23">
     <g id="line2d_67">
      <path d="M 517.038411 520.074775 
L 517.038411 6.85 
" clip-path="url(#p8d69ad7ad2)" style="fill: none; stroke: #ffffff; stroke-width: 0.5; stroke-linecap: square"/>
     </g>
     <g id="line2d_68">
      <g>
       <use xlink:href="#me4b1aa1952" x="517.038411" y="520.074775" style="fill: #ffffff; stroke: #ffffff; stroke-width: 0.5"/>
      </g>
     </g>
     <g id="line2d_69">
      <g>
       <use xlink:href="#me4b1aa1952" x="517.038411" y="6.85" style="fill: #ffffff; stroke: #ffffff; stroke-width: 0.5"/>
      </g>
     </g>
    </g>
    <g id="xtick_24">
     <g id="line2d_70">
      <path d="M 537.028904 520.074775 
L 537.028904 6.85 
" clip-path="url(#p8d69ad7ad2)" style="fill: none; stroke: #ffffff; stroke-width: 0.5; stroke-linecap: square"/>
     </g>
     <g id="line2d_71">
      <g>
       <use xlink:href="#me4b1aa1952" x="537.028904" y="520.074775" style="fill: #ffffff; stroke: #ffffff; stroke-width: 0.5"/>
      </g>
     </g>
     <g id="line2d_72">
      <g>
       <use xlink:href="#me4b1aa1952" x="537.028904" y="6.85" style="fill: #ffffff; stroke: #ffffff; stroke-width: 0.5"/>
      </g>
     </g>
    </g>
    <g id="xtick_25">
     <g id="line2d_73">
      <path d="M 557.019396 520.074775 
L 557.019396 6.85 
" clip-path="url(#p8d69ad7ad2)" style="fill: none; stroke: #ffffff; stroke-width: 0.5; stroke-linecap: square"/>
     </g>
     <g id="line2d_74">
      <g>
       <use xlink:href="#me4b1aa1952" x="557.019396" y="520.074775" style="fill: #ffffff; stroke: #ffffff; stroke-width: 0.5"/>
      </g>
     </g>
     <g id="line2d_75">
      <g>
       <use xlink:href="#me4b1aa1952" x="557.019396" y="6.85" style="fill: #ffffff; stroke: #ffffff; stroke-width: 0.5"/>
      </g>
     </g>
    </g>
    <g id="text_6">
     <!-- $t$ -->
     <g style="fill: #ffffff" transform="translate(318.651914 567.560399) scale(0.28 -0.28)">
      <defs>
       <path id="NimbusRomNo9L-ReguItal-74" d="M 1894 2752 
L 1382 2752 
L 1562 3411 
C 1568 3424 1568 3436 1568 3443 
C 1568 3488 1549 3507 1517 3507 
C 1478 3507 1459 3500 1421 3449 
C 1171 3123 774 2803 570 2745 
C 410 2694 365 2655 365 2585 
C 365 2579 365 2566 371 2547 
L 845 2547 
L 384 782 
C 371 724 365 705 346 647 
C 288 454 237 230 237 179 
C 237 38 371 -64 544 -64 
C 838 -64 1050 115 1453 711 
L 1370 756 
C 1056 352 954 249 851 249 
C 794 249 755 300 755 377 
C 755 384 755 390 762 410 
L 1325 2547 
L 1862 2547 
L 1894 2752 
z
" transform="scale(0.015625)"/>
      </defs>
      <use xlink:href="#NimbusRomNo9L-ReguItal-74" transform="scale(0.996264)"/>
     </g>
    </g>
   </g>
   <g id="matplotlib.axis_2">
    <g id="ytick_1">
     <g id="line2d_76">
      <path d="M 74.708951 503.924854 
L 570.34952 503.924854 
" clip-path="url(#p8d69ad7ad2)" style="fill: none; stroke: #ffffff; stroke-width: 0.5; stroke-linecap: square"/>
     </g>
     <g id="line2d_77">
      <defs>
       <path id="mac266d4bed" d="M 3.25 0 
L -3.25 -0 
" style="stroke: #ffffff; stroke-width: 1.5"/>
      </defs>
      <g>
       <use xlink:href="#mac266d4bed" x="74.708951" y="503.924854" style="fill: #ffffff; stroke: #ffffff; stroke-width: 1.5"/>
      </g>
     </g>
     <g id="line2d_78">
      <g>
       <use xlink:href="#mac266d4bed" x="570.34952" y="503.924854" style="fill: #ffffff; stroke: #ffffff; stroke-width: 1.5"/>
      </g>
     </g>
     <g id="text_7">
      <!-- $\mathdefault{−75}$ -->
      <g style="fill: #ffffff" transform="translate(32.551932 510.679432) scale(0.2 -0.2)">
       <defs>
        <path id="CMSY10-0" d="M 4218 1472 
C 4326 1472 4442 1472 4442 1600 
C 4442 1728 4326 1728 4218 1728 
L 755 1728 
C 646 1728 531 1728 531 1600 
C 531 1472 646 1472 755 1472 
L 4218 1472 
z
" transform="scale(0.015625)"/>
        <path id="NimbusRomNo9L-Regu-37" d="M 2874 4224 
L 506 4224 
L 128 3283 
L 237 3232 
C 512 3667 627 3750 979 3750 
L 2368 3750 
L 1101 -64 
L 1517 -64 
L 2874 4121 
L 2874 4224 
z
" transform="scale(0.015625)"/>
       </defs>
       <use xlink:href="#CMSY10-0" transform="scale(0.996264)"/>
       <use xlink:href="#NimbusRomNo9L-Regu-37" transform="translate(77.408707 0) scale(0.996264)"/>
       <use xlink:href="#NimbusRomNo9L-Regu-35" transform="translate(127.221908 0) scale(0.996264)"/>
      </g>
     </g>
    </g>
    <g id="ytick_2">
     <g id="line2d_79">
      <path d="M 74.708951 409.175563 
L 570.34952 409.175563 
" clip-path="url(#p8d69ad7ad2)" style="fill: none; stroke: #ffffff; stroke-width: 0.5; stroke-linecap: square"/>
     </g>
     <g id="line2d_80">
      <g>
       <use xlink:href="#mac266d4bed" x="74.708951" y="409.175563" style="fill: #ffffff; stroke: #ffffff; stroke-width: 1.5"/>
      </g>
     </g>
     <g id="line2d_81">
      <g>
       <use xlink:href="#mac266d4bed" x="570.34952" y="409.175563" style="fill: #ffffff; stroke: #ffffff; stroke-width: 1.5"/>
      </g>
     </g>
     <g id="text_8">
      <!-- $\mathdefault{−70}$ -->
      <g style="fill: #ffffff" transform="translate(32.551932 415.930141) scale(0.2 -0.2)">
       <use xlink:href="#CMSY10-0" transform="scale(0.996264)"/>
       <use xlink:href="#NimbusRomNo9L-Regu-37" transform="translate(77.408707 0) scale(0.996264)"/>
       <use xlink:href="#NimbusRomNo9L-Regu-30" transform="translate(127.221908 0) scale(0.996264)"/>
      </g>
     </g>
    </g>
    <g id="ytick_3">
     <g id="line2d_82">
      <path d="M 74.708951 314.426272 
L 570.34952 314.426272 
" clip-path="url(#p8d69ad7ad2)" style="fill: none; stroke: #ffffff; stroke-width: 0.5; stroke-linecap: square"/>
     </g>
     <g id="line2d_83">
      <g>
       <use xlink:href="#mac266d4bed" x="74.708951" y="314.426272" style="fill: #ffffff; stroke: #ffffff; stroke-width: 1.5"/>
      </g>
     </g>
     <g id="line2d_84">
      <g>
       <use xlink:href="#mac266d4bed" x="570.34952" y="314.426272" style="fill: #ffffff; stroke: #ffffff; stroke-width: 1.5"/>
      </g>
     </g>
     <g id="text_9">
      <!-- $\mathdefault{−65}$ -->
      <g style="fill: #ffffff" transform="translate(32.551932 321.18085) scale(0.2 -0.2)">
       <defs>
        <path id="NimbusRomNo9L-Regu-36" d="M 2854 4390 
C 2125 4326 1754 4204 1286 3878 
C 595 3385 218 2655 218 1801 
C 218 1248 390 688 666 369 
C 909 89 1254 -64 1651 -64 
C 2445 -64 2995 541 2995 1420 
C 2995 2234 2528 2752 1792 2752 
C 1510 2752 1376 2707 973 2463 
C 1146 3430 1862 4121 2867 4288 
L 2854 4390 
z
M 1549 2457 
C 2099 2457 2419 1999 2419 1203 
C 2419 503 2170 115 1722 115 
C 1158 115 813 713 813 1700 
C 813 2024 864 2203 992 2298 
C 1126 2400 1325 2457 1549 2457 
z
" transform="scale(0.015625)"/>
       </defs>
       <use xlink:href="#CMSY10-0" transform="scale(0.996264)"/>
       <use xlink:href="#NimbusRomNo9L-Regu-36" transform="translate(77.408707 0) scale(0.996264)"/>
       <use xlink:href="#NimbusRomNo9L-Regu-35" transform="translate(127.221908 0) scale(0.996264)"/>
      </g>
     </g>
    </g>
    <g id="ytick_4">
     <g id="line2d_85">
      <path d="M 74.708951 219.676981 
L 570.34952 219.676981 
" clip-path="url(#p8d69ad7ad2)" style="fill: none; stroke: #ffffff; stroke-width: 0.5; stroke-linecap: square"/>
     </g>
     <g id="line2d_86">
      <g>
       <use xlink:href="#mac266d4bed" x="74.708951" y="219.676981" style="fill: #ffffff; stroke: #ffffff; stroke-width: 1.5"/>
      </g>
     </g>
     <g id="line2d_87">
      <g>
       <use xlink:href="#mac266d4bed" x="570.34952" y="219.676981" style="fill: #ffffff; stroke: #ffffff; stroke-width: 1.5"/>
      </g>
     </g>
     <g id="text_10">
      <!-- $\mathdefault{−60}$ -->
      <g style="fill: #ffffff" transform="translate(32.551932 226.431559) scale(0.2 -0.2)">
       <use xlink:href="#CMSY10-0" transform="scale(0.996264)"/>
       <use xlink:href="#NimbusRomNo9L-Regu-36" transform="translate(77.408707 0) scale(0.996264)"/>
       <use xlink:href="#NimbusRomNo9L-Regu-30" transform="translate(127.221908 0) scale(0.996264)"/>
      </g>
     </g>
    </g>
    <g id="ytick_5">
     <g id="line2d_88">
      <path d="M 74.708951 124.92769 
L 570.34952 124.92769 
" clip-path="url(#p8d69ad7ad2)" style="fill: none; stroke: #ffffff; stroke-width: 0.5; stroke-linecap: square"/>
     </g>
     <g id="line2d_89">
      <g>
       <use xlink:href="#mac266d4bed" x="74.708951" y="124.92769" style="fill: #ffffff; stroke: #ffffff; stroke-width: 1.5"/>
      </g>
     </g>
     <g id="line2d_90">
      <g>
       <use xlink:href="#mac266d4bed" x="570.34952" y="124.92769" style="fill: #ffffff; stroke: #ffffff; stroke-width: 1.5"/>
      </g>
     </g>
     <g id="text_11">
      <!-- $\mathdefault{−55}$ -->
      <g style="fill: #ffffff" transform="translate(32.551932 131.682267) scale(0.2 -0.2)">
       <use xlink:href="#CMSY10-0" transform="scale(0.996264)"/>
       <use xlink:href="#NimbusRomNo9L-Regu-35" transform="translate(77.408707 0) scale(0.996264)"/>
       <use xlink:href="#NimbusRomNo9L-Regu-35" transform="translate(127.221908 0) scale(0.996264)"/>
      </g>
     </g>
    </g>
    <g id="ytick_6">
     <g id="line2d_91">
      <path d="M 74.708951 30.178399 
L 570.34952 30.178399 
" clip-path="url(#p8d69ad7ad2)" style="fill: none; stroke: #ffffff; stroke-width: 0.5; stroke-linecap: square"/>
     </g>
     <g id="line2d_92">
      <g>
       <use xlink:href="#mac266d4bed" x="74.708951" y="30.178399" style="fill: #ffffff; stroke: #ffffff; stroke-width: 1.5"/>
      </g>
     </g>
     <g id="line2d_93">
      <g>
       <use xlink:href="#mac266d4bed" x="570.34952" y="30.178399" style="fill: #ffffff; stroke: #ffffff; stroke-width: 1.5"/>
      </g>
     </g>
     <g id="text_12">
      <!-- $\mathdefault{−50}$ -->
      <g style="fill: #ffffff" transform="translate(32.551932 36.932976) scale(0.2 -0.2)">
       <use xlink:href="#CMSY10-0" transform="scale(0.996264)"/>
       <use xlink:href="#NimbusRomNo9L-Regu-35" transform="translate(77.408707 0) scale(0.996264)"/>
       <use xlink:href="#NimbusRomNo9L-Regu-30" transform="translate(127.221908 0) scale(0.996264)"/>
      </g>
     </g>
    </g>
    <g id="ytick_7">
     <g id="line2d_94">
      <path d="M 74.708951 484.974996 
L 570.34952 484.974996 
" clip-path="url(#p8d69ad7ad2)" style="fill: none; stroke: #ffffff; stroke-width: 0.5; stroke-linecap: square"/>
     </g>
     <g id="line2d_95">
      <defs>
       <path id="mcd37bb10bd" d="M 2 0 
L -2 -0 
" style="stroke: #ffffff; stroke-width: 0.5"/>
      </defs>
      <g>
       <use xlink:href="#mcd37bb10bd" x="74.708951" y="484.974996" style="fill: #ffffff; stroke: #ffffff; stroke-width: 0.5"/>
      </g>
     </g>
     <g id="line2d_96">
      <g>
       <use xlink:href="#mcd37bb10bd" x="570.34952" y="484.974996" style="fill: #ffffff; stroke: #ffffff; stroke-width: 0.5"/>
      </g>
     </g>
    </g>
    <g id="ytick_8">
     <g id="line2d_97">
      <path d="M 74.708951 466.025138 
L 570.34952 466.025138 
" clip-path="url(#p8d69ad7ad2)" style="fill: none; stroke: #ffffff; stroke-width: 0.5; stroke-linecap: square"/>
     </g>
     <g id="line2d_98">
      <g>
       <use xlink:href="#mcd37bb10bd" x="74.708951" y="466.025138" style="fill: #ffffff; stroke: #ffffff; stroke-width: 0.5"/>
      </g>
     </g>
     <g id="line2d_99">
      <g>
       <use xlink:href="#mcd37bb10bd" x="570.34952" y="466.025138" style="fill: #ffffff; stroke: #ffffff; stroke-width: 0.5"/>
      </g>
     </g>
    </g>
    <g id="ytick_9">
     <g id="line2d_100">
      <path d="M 74.708951 447.07528 
L 570.34952 447.07528 
" clip-path="url(#p8d69ad7ad2)" style="fill: none; stroke: #ffffff; stroke-width: 0.5; stroke-linecap: square"/>
     </g>
     <g id="line2d_101">
      <g>
       <use xlink:href="#mcd37bb10bd" x="74.708951" y="447.07528" style="fill: #ffffff; stroke: #ffffff; stroke-width: 0.5"/>
      </g>
     </g>
     <g id="line2d_102">
      <g>
       <use xlink:href="#mcd37bb10bd" x="570.34952" y="447.07528" style="fill: #ffffff; stroke: #ffffff; stroke-width: 0.5"/>
      </g>
     </g>
    </g>
    <g id="ytick_10">
     <g id="line2d_103">
      <path d="M 74.708951 428.125421 
L 570.34952 428.125421 
" clip-path="url(#p8d69ad7ad2)" style="fill: none; stroke: #ffffff; stroke-width: 0.5; stroke-linecap: square"/>
     </g>
     <g id="line2d_104">
      <g>
       <use xlink:href="#mcd37bb10bd" x="74.708951" y="428.125421" style="fill: #ffffff; stroke: #ffffff; stroke-width: 0.5"/>
      </g>
     </g>
     <g id="line2d_105">
      <g>
       <use xlink:href="#mcd37bb10bd" x="570.34952" y="428.125421" style="fill: #ffffff; stroke: #ffffff; stroke-width: 0.5"/>
      </g>
     </g>
    </g>
    <g id="ytick_11">
     <g id="line2d_106">
      <path d="M 74.708951 390.225705 
L 570.34952 390.225705 
" clip-path="url(#p8d69ad7ad2)" style="fill: none; stroke: #ffffff; stroke-width: 0.5; stroke-linecap: square"/>
     </g>
     <g id="line2d_107">
      <g>
       <use xlink:href="#mcd37bb10bd" x="74.708951" y="390.225705" style="fill: #ffffff; stroke: #ffffff; stroke-width: 0.5"/>
      </g>
     </g>
     <g id="line2d_108">
      <g>
       <use xlink:href="#mcd37bb10bd" x="570.34952" y="390.225705" style="fill: #ffffff; stroke: #ffffff; stroke-width: 0.5"/>
      </g>
     </g>
    </g>
    <g id="ytick_12">
     <g id="line2d_109">
      <path d="M 74.708951 371.275847 
L 570.34952 371.275847 
" clip-path="url(#p8d69ad7ad2)" style="fill: none; stroke: #ffffff; stroke-width: 0.5; stroke-linecap: square"/>
     </g>
     <g id="line2d_110">
      <g>
       <use xlink:href="#mcd37bb10bd" x="74.708951" y="371.275847" style="fill: #ffffff; stroke: #ffffff; stroke-width: 0.5"/>
      </g>
     </g>
     <g id="line2d_111">
      <g>
       <use xlink:href="#mcd37bb10bd" x="570.34952" y="371.275847" style="fill: #ffffff; stroke: #ffffff; stroke-width: 0.5"/>
      </g>
     </g>
    </g>
    <g id="ytick_13">
     <g id="line2d_112">
      <path d="M 74.708951 352.325988 
L 570.34952 352.325988 
" clip-path="url(#p8d69ad7ad2)" style="fill: none; stroke: #ffffff; stroke-width: 0.5; stroke-linecap: square"/>
     </g>
     <g id="line2d_113">
      <g>
       <use xlink:href="#mcd37bb10bd" x="74.708951" y="352.325988" style="fill: #ffffff; stroke: #ffffff; stroke-width: 0.5"/>
      </g>
     </g>
     <g id="line2d_114">
      <g>
       <use xlink:href="#mcd37bb10bd" x="570.34952" y="352.325988" style="fill: #ffffff; stroke: #ffffff; stroke-width: 0.5"/>
      </g>
     </g>
    </g>
    <g id="ytick_14">
     <g id="line2d_115">
      <path d="M 74.708951 333.37613 
L 570.34952 333.37613 
" clip-path="url(#p8d69ad7ad2)" style="fill: none; stroke: #ffffff; stroke-width: 0.5; stroke-linecap: square"/>
     </g>
     <g id="line2d_116">
      <g>
       <use xlink:href="#mcd37bb10bd" x="74.708951" y="333.37613" style="fill: #ffffff; stroke: #ffffff; stroke-width: 0.5"/>
      </g>
     </g>
     <g id="line2d_117">
      <g>
       <use xlink:href="#mcd37bb10bd" x="570.34952" y="333.37613" style="fill: #ffffff; stroke: #ffffff; stroke-width: 0.5"/>
      </g>
     </g>
    </g>
    <g id="ytick_15">
     <g id="line2d_118">
      <path d="M 74.708951 295.476414 
L 570.34952 295.476414 
" clip-path="url(#p8d69ad7ad2)" style="fill: none; stroke: #ffffff; stroke-width: 0.5; stroke-linecap: square"/>
     </g>
     <g id="line2d_119">
      <g>
       <use xlink:href="#mcd37bb10bd" x="74.708951" y="295.476414" style="fill: #ffffff; stroke: #ffffff; stroke-width: 0.5"/>
      </g>
     </g>
     <g id="line2d_120">
      <g>
       <use xlink:href="#mcd37bb10bd" x="570.34952" y="295.476414" style="fill: #ffffff; stroke: #ffffff; stroke-width: 0.5"/>
      </g>
     </g>
    </g>
    <g id="ytick_16">
     <g id="line2d_121">
      <path d="M 74.708951 276.526556 
L 570.34952 276.526556 
" clip-path="url(#p8d69ad7ad2)" style="fill: none; stroke: #ffffff; stroke-width: 0.5; stroke-linecap: square"/>
     </g>
     <g id="line2d_122">
      <g>
       <use xlink:href="#mcd37bb10bd" x="74.708951" y="276.526556" style="fill: #ffffff; stroke: #ffffff; stroke-width: 0.5"/>
      </g>
     </g>
     <g id="line2d_123">
      <g>
       <use xlink:href="#mcd37bb10bd" x="570.34952" y="276.526556" style="fill: #ffffff; stroke: #ffffff; stroke-width: 0.5"/>
      </g>
     </g>
    </g>
    <g id="ytick_17">
     <g id="line2d_124">
      <path d="M 74.708951 257.576697 
L 570.34952 257.576697 
" clip-path="url(#p8d69ad7ad2)" style="fill: none; stroke: #ffffff; stroke-width: 0.5; stroke-linecap: square"/>
     </g>
     <g id="line2d_125">
      <g>
       <use xlink:href="#mcd37bb10bd" x="74.708951" y="257.576697" style="fill: #ffffff; stroke: #ffffff; stroke-width: 0.5"/>
      </g>
     </g>
     <g id="line2d_126">
      <g>
       <use xlink:href="#mcd37bb10bd" x="570.34952" y="257.576697" style="fill: #ffffff; stroke: #ffffff; stroke-width: 0.5"/>
      </g>
     </g>
    </g>
    <g id="ytick_18">
     <g id="line2d_127">
      <path d="M 74.708951 238.626839 
L 570.34952 238.626839 
" clip-path="url(#p8d69ad7ad2)" style="fill: none; stroke: #ffffff; stroke-width: 0.5; stroke-linecap: square"/>
     </g>
     <g id="line2d_128">
      <g>
       <use xlink:href="#mcd37bb10bd" x="74.708951" y="238.626839" style="fill: #ffffff; stroke: #ffffff; stroke-width: 0.5"/>
      </g>
     </g>
     <g id="line2d_129">
      <g>
       <use xlink:href="#mcd37bb10bd" x="570.34952" y="238.626839" style="fill: #ffffff; stroke: #ffffff; stroke-width: 0.5"/>
      </g>
     </g>
    </g>
    <g id="ytick_19">
     <g id="line2d_130">
      <path d="M 74.708951 200.727123 
L 570.34952 200.727123 
" clip-path="url(#p8d69ad7ad2)" style="fill: none; stroke: #ffffff; stroke-width: 0.5; stroke-linecap: square"/>
     </g>
     <g id="line2d_131">
      <g>
       <use xlink:href="#mcd37bb10bd" x="74.708951" y="200.727123" style="fill: #ffffff; stroke: #ffffff; stroke-width: 0.5"/>
      </g>
     </g>
     <g id="line2d_132">
      <g>
       <use xlink:href="#mcd37bb10bd" x="570.34952" y="200.727123" style="fill: #ffffff; stroke: #ffffff; stroke-width: 0.5"/>
      </g>
     </g>
    </g>
    <g id="ytick_20">
     <g id="line2d_133">
      <path d="M 74.708951 181.777265 
L 570.34952 181.777265 
" clip-path="url(#p8d69ad7ad2)" style="fill: none; stroke: #ffffff; stroke-width: 0.5; stroke-linecap: square"/>
     </g>
     <g id="line2d_134">
      <g>
       <use xlink:href="#mcd37bb10bd" x="74.708951" y="181.777265" style="fill: #ffffff; stroke: #ffffff; stroke-width: 0.5"/>
      </g>
     </g>
     <g id="line2d_135">
      <g>
       <use xlink:href="#mcd37bb10bd" x="570.34952" y="181.777265" style="fill: #ffffff; stroke: #ffffff; stroke-width: 0.5"/>
      </g>
     </g>
    </g>
    <g id="ytick_21">
     <g id="line2d_136">
      <path d="M 74.708951 162.827406 
L 570.34952 162.827406 
" clip-path="url(#p8d69ad7ad2)" style="fill: none; stroke: #ffffff; stroke-width: 0.5; stroke-linecap: square"/>
     </g>
     <g id="line2d_137">
      <g>
       <use xlink:href="#mcd37bb10bd" x="74.708951" y="162.827406" style="fill: #ffffff; stroke: #ffffff; stroke-width: 0.5"/>
      </g>
     </g>
     <g id="line2d_138">
      <g>
       <use xlink:href="#mcd37bb10bd" x="570.34952" y="162.827406" style="fill: #ffffff; stroke: #ffffff; stroke-width: 0.5"/>
      </g>
     </g>
    </g>
    <g id="ytick_22">
     <g id="line2d_139">
      <path d="M 74.708951 143.877548 
L 570.34952 143.877548 
" clip-path="url(#p8d69ad7ad2)" style="fill: none; stroke: #ffffff; stroke-width: 0.5; stroke-linecap: square"/>
     </g>
     <g id="line2d_140">
      <g>
       <use xlink:href="#mcd37bb10bd" x="74.708951" y="143.877548" style="fill: #ffffff; stroke: #ffffff; stroke-width: 0.5"/>
      </g>
     </g>
     <g id="line2d_141">
      <g>
       <use xlink:href="#mcd37bb10bd" x="570.34952" y="143.877548" style="fill: #ffffff; stroke: #ffffff; stroke-width: 0.5"/>
      </g>
     </g>
    </g>
    <g id="ytick_23">
     <g id="line2d_142">
      <path d="M 74.708951 105.977832 
L 570.34952 105.977832 
" clip-path="url(#p8d69ad7ad2)" style="fill: none; stroke: #ffffff; stroke-width: 0.5; stroke-linecap: square"/>
     </g>
     <g id="line2d_143">
      <g>
       <use xlink:href="#mcd37bb10bd" x="74.708951" y="105.977832" style="fill: #ffffff; stroke: #ffffff; stroke-width: 0.5"/>
      </g>
     </g>
     <g id="line2d_144">
      <g>
       <use xlink:href="#mcd37bb10bd" x="570.34952" y="105.977832" style="fill: #ffffff; stroke: #ffffff; stroke-width: 0.5"/>
      </g>
     </g>
    </g>
    <g id="ytick_24">
     <g id="line2d_145">
      <path d="M 74.708951 87.027974 
L 570.34952 87.027974 
" clip-path="url(#p8d69ad7ad2)" style="fill: none; stroke: #ffffff; stroke-width: 0.5; stroke-linecap: square"/>
     </g>
     <g id="line2d_146">
      <g>
       <use xlink:href="#mcd37bb10bd" x="74.708951" y="87.027974" style="fill: #ffffff; stroke: #ffffff; stroke-width: 0.5"/>
      </g>
     </g>
     <g id="line2d_147">
      <g>
       <use xlink:href="#mcd37bb10bd" x="570.34952" y="87.027974" style="fill: #ffffff; stroke: #ffffff; stroke-width: 0.5"/>
      </g>
     </g>
    </g>
    <g id="ytick_25">
     <g id="line2d_148">
      <path d="M 74.708951 68.078115 
L 570.34952 68.078115 
" clip-path="url(#p8d69ad7ad2)" style="fill: none; stroke: #ffffff; stroke-width: 0.5; stroke-linecap: square"/>
     </g>
     <g id="line2d_149">
      <g>
       <use xlink:href="#mcd37bb10bd" x="74.708951" y="68.078115" style="fill: #ffffff; stroke: #ffffff; stroke-width: 0.5"/>
      </g>
     </g>
     <g id="line2d_150">
      <g>
       <use xlink:href="#mcd37bb10bd" x="570.34952" y="68.078115" style="fill: #ffffff; stroke: #ffffff; stroke-width: 0.5"/>
      </g>
     </g>
    </g>
    <g id="ytick_26">
     <g id="line2d_151">
      <path d="M 74.708951 49.128257 
L 570.34952 49.128257 
" clip-path="url(#p8d69ad7ad2)" style="fill: none; stroke: #ffffff; stroke-width: 0.5; stroke-linecap: square"/>
     </g>
     <g id="line2d_152">
      <g>
       <use xlink:href="#mcd37bb10bd" x="74.708951" y="49.128257" style="fill: #ffffff; stroke: #ffffff; stroke-width: 0.5"/>
      </g>
     </g>
     <g id="line2d_153">
      <g>
       <use xlink:href="#mcd37bb10bd" x="570.34952" y="49.128257" style="fill: #ffffff; stroke: #ffffff; stroke-width: 0.5"/>
      </g>
     </g>
    </g>
    <g id="ytick_27">
     <g id="line2d_154">
      <path d="M 74.708951 11.228541 
L 570.34952 11.228541 
" clip-path="url(#p8d69ad7ad2)" style="fill: none; stroke: #ffffff; stroke-width: 0.5; stroke-linecap: square"/>
     </g>
     <g id="line2d_155">
      <g>
       <use xlink:href="#mcd37bb10bd" x="74.708951" y="11.228541" style="fill: #ffffff; stroke: #ffffff; stroke-width: 0.5"/>
      </g>
     </g>
     <g id="line2d_156">
      <g>
       <use xlink:href="#mcd37bb10bd" x="570.34952" y="11.228541" style="fill: #ffffff; stroke: #ffffff; stroke-width: 0.5"/>
      </g>
     </g>
    </g>
    <g id="text_13">
     <!-- $V$ -->
     <g style="fill: #ffffff" transform="translate(22.512811 271.984416) rotate(-90) scale(0.28 -0.28)">
      <defs>
       <path id="NimbusRomNo9L-ReguItal-56" d="M 4403 4160 
L 3213 4160 
L 3213 4057 
C 3501 4025 3616 3961 3616 3840 
C 3616 3718 3494 3444 3283 3079 
L 1965 805 
L 1542 3635 
C 1536 3667 1536 3693 1536 3731 
C 1536 3948 1626 4012 2029 4057 
L 2029 4160 
L 486 4160 
L 486 4057 
C 845 4012 858 3993 992 3194 
L 1536 -128 
L 1658 -128 
L 4045 3801 
C 4154 3974 4256 4051 4403 4057 
L 4403 4160 
z
" transform="scale(0.015625)"/>
      </defs>
      <use xlink:href="#NimbusRomNo9L-ReguItal-56" transform="scale(0.996264)"/>
     </g>
    </g>
   </g>
   <g id="line2d_157">
    <path d="M 97.238067 409.175563 
L 210.806881 409.094472 
L 211.629905 408.796865 
L 212.233455 408.342018 
L 212.86444 407.578058 
L 213.504145 406.437306 
L 214.202533 404.701673 
L 214.945977 402.21538 
L 215.757008 398.666054 
L 216.635624 393.741695 
L 217.581826 387.087289 
L 218.595614 378.314153 
L 219.699517 366.758521 
L 220.916063 351.576856 
L 222.245252 332.107734 
L 223.732141 306.962488 
L 225.444316 274.096336 
L 227.539478 229.363877 
L 230.828657 153.63293 
L 234.433237 72.089728 
L 236.483342 30.604094 
L 236.505825 30.178399 
L 236.505825 314.426272 
L 236.59594 312.727106 
L 238.263058 283.475446 
L 239.70489 261.854301 
L 240.989022 245.741415 
L 242.137981 233.942053 
L 243.174298 225.440655 
L 244.097972 219.552979 
L 244.931531 215.566932 
L 245.674975 213.030688 
L 246.305777 211.595443 
L 246.846464 210.86133 
L 247.297036 210.580766 
L 247.695511 210.57865 
L 248.151716 210.835875 
L 248.664946 211.420707 
L 249.270051 212.493043 
L 250.013496 214.31123 
L 250.937169 217.20588 
L 252.198772 221.972201 
L 256.298982 238.080145 
L 257.245184 240.658262 
L 257.988629 242.094665 
L 258.574373 242.79793 
L 259.047474 243.060286 
L 259.389628 243.059421 
L 259.874345 242.781279 
L 260.33055 242.219621 
L 260.854692 241.182588 
L 261.462965 239.428751 
L 262.138824 236.756844 
L 262.904797 232.772985 
L 263.760885 227.081904 
L 264.707087 219.240876 
L 265.765932 208.527029 
L 266.937421 194.324949 
L 268.26661 175.356375 
L 269.776027 150.45083 
L 271.555789 117.181693 
L 273.853709 69.70881 
L 275.675177 30.178399 
L 275.675177 314.426272 
L 275.765292 312.457227 
L 279.5501 232.181083 
L 281.555148 194.318271 
L 283.199738 167.243654 
L 284.619041 147.347458 
L 285.880644 132.632508 
L 287.007075 121.969108 
L 288.020863 114.397027 
L 288.922008 109.263403 
L 289.71051 105.974849 
L 290.386369 104.019217 
L 290.972113 102.942594 
L 291.467743 102.460485 
L 291.845097 102.34679 
L 292.263285 102.477143 
L 292.719489 102.884259 
L 293.235888 103.672011 
L 293.866689 105.072146 
L 294.632663 107.350166 
L 295.601393 110.992704 
L 296.862996 116.681109 
L 299.566431 130.2619 
L 301.143435 137.461738 
L 302.224809 141.449065 
L 303.080897 143.831765 
L 303.779284 145.166864 
L 304.319971 145.778779 
L 304.748015 145.981273 
L 305.094393 145.945336 
L 305.51258 145.66593 
L 305.980049 145.039017 
L 306.498207 143.931731 
L 307.10648 142.056938 
L 307.804868 139.112438 
L 308.59337 134.740583 
L 309.471986 128.533162 
L 310.463245 119.825085 
L 311.567148 108.018875 
L 312.783694 92.517844 
L 314.180468 71.713064 
L 315.780001 44.39877 
L 316.546853 30.178399 
L 316.546853 314.426272 
L 316.636967 312.71354 
L 318.88983 267.652151 
L 325.738532 127.742061 
L 327.495764 97.807046 
L 328.982653 76.035507 
L 330.289314 59.969336 
L 331.460802 48.17498 
L 332.497119 39.859884 
L 333.420792 34.130756 
L 334.231823 30.388647 
L 334.286674 30.178399 
L 334.286674 314.426272 
L 334.376789 314.092247 
L 335.075176 311.986373 
L 335.66092 310.862655 
L 336.15655 310.351768 
L 336.556433 310.223141 
L 336.936603 310.334806 
L 337.415337 310.76336 
L 337.933495 311.57779 
L 338.564297 313.031899 
L 339.33027 315.41231 
L 340.276472 319.148841 
L 341.493018 324.951613 
L 343.385422 335.236675 
L 345.841042 348.336614 
L 347.080117 353.761182 
L 348.026319 356.986235 
L 348.792292 358.874865 
L 349.400565 359.850121 
L 349.896195 360.270458 
L 350.281997 360.34754 
L 350.738202 360.137034 
L 351.194407 359.611784 
L 351.690036 358.655672 
L 352.275781 356.988038 
L 352.951639 354.317842 
L 353.717613 350.299501 
L 354.5737 344.537361 
L 355.542431 336.387253 
L 356.623805 325.264473 
L 357.817822 310.580842 
L 359.16954 291.109744 
L 360.746543 264.999601 
L 362.661477 229.339426 
L 365.409969 173.495447 
L 369.690407 86.749543 
L 371.650398 51.647424 
L 373.013505 30.178399 
L 373.013505 314.426272 
L 373.10362 313.104917 
L 374.522923 294.03951 
L 375.761997 280.239559 
L 376.8659 270.298415 
L 377.834631 263.437403 
L 378.713247 258.716436 
L 379.47922 255.745203 
L 380.13255 254.029497 
L 380.673237 253.160209 
L 381.12381 252.80307 
L 381.464555 252.750532 
L 381.882743 252.934538 
L 382.322051 253.394601 
L 382.840209 254.281787 
L 383.471011 255.83349 
L 384.236984 258.347248 
L 385.183186 262.273022 
L 386.399732 268.362271 
L 388.224551 278.79678 
L 390.950514 294.251436 
L 392.212117 300.115381 
L 393.180848 303.638899 
L 393.96935 305.728555 
L 394.600151 306.82744 
L 395.095781 307.301832 
L 395.473136 307.418923 
L 395.834298 307.312623 
L 396.26199 306.934435 
L 396.725938 306.186792 
L 397.266625 304.854872 
L 397.897427 302.655498 
L 398.618343 299.268633 
L 399.429373 294.32301 
L 400.353047 287.212026 
L 401.366835 277.60338 
L 402.515795 264.487926 
L 403.799926 247.178555 
L 405.286816 223.970481 
L 407.044048 192.870688 
L 409.364497 147.515822 
L 415.250712 30.178399 
L 415.250712 314.426272 
L 415.340827 312.790822 
L 417.165645 281.74946 
L 418.697592 259.280578 
L 420.026781 242.880476 
L 421.198269 231.012062 
L 422.234586 222.612897 
L 423.15826 216.807002 
L 423.96929 213.004885 
L 424.690206 210.62127 
L 425.298479 209.318075 
L 425.794109 208.719343 
L 426.199624 208.528287 
L 426.512209 208.566462 
L 426.930396 208.845346 
L 427.404905 209.466979 
L 427.968121 210.61038 
L 428.64398 212.520893 
L 429.477539 215.600724 
L 430.491327 220.255866 
L 431.820516 227.492148 
L 434.276136 242.402285 
L 436.326241 254.190683 
L 438.488989 265.256543 
L 440.899551 276.429194 
L 443.5354 287.588946 
L 446.374007 298.638785 
L 449.415371 309.581626 
L 452.636965 320.343779 
L 456.038787 330.937021 
L 459.620838 341.369508 
L 463.383119 351.647081 
L 467.325628 361.774067 
L 471.448366 371.753781 
L 475.751333 381.588858 
L 480.23453 391.281472 
L 484.897955 400.833497 
L 489.741609 410.246611 
L 494.742964 419.481805 
L 499.924547 428.585045 
L 505.28636 437.557393 
L 510.85093 446.435073 
L 516.59573 455.180974 
L 522.520758 463.796634 
L 528.648544 472.314251 
L 534.956559 480.702177 
L 541.467331 488.990358 
L 547.820403 496.746376 
L 547.820403 496.746376 
" clip-path="url(#p8d69ad7ad2)" style="fill: none; stroke: #3f90da; stroke-width: 2; stroke-linecap: square"/>
   </g>
   <g id="patch_3">
    <path d="M 74.708951 520.074775 
L 74.708951 6.85 
" style="fill: none; stroke: #ffffff; stroke-width: 0.5; stroke-linejoin: miter; stroke-linecap: square"/>
   </g>
   <g id="patch_4">
    <path d="M 570.34952 520.074775 
L 570.34952 6.85 
" style="fill: none; stroke: #ffffff; stroke-width: 0.5; stroke-linejoin: miter; stroke-linecap: square"/>
   </g>
   <g id="patch_5">
    <path d="M 74.708951 520.074775 
L 570.34952 520.074775 
" style="fill: none; stroke: #ffffff; stroke-width: 0.5; stroke-linejoin: miter; stroke-linecap: square"/>
   </g>
   <g id="patch_6">
    <path d="M 74.708951 6.85 
L 570.34952 6.85 
" style="fill: none; stroke: #ffffff; stroke-width: 0.5; stroke-linejoin: miter; stroke-linecap: square"/>
   </g>
  </g>
 </g>
 <defs>
  <clipPath id="p8d69ad7ad2">
   <rect x="74.708951" y="6.85" width="495.640569" height="513.224775"/>
  </clipPath>
 </defs>
</svg>
