<?xml version="1.0" encoding="utf-8" standalone="no"?>
<!DOCTYPE svg PUBLIC "-//W3C//DTD SVG 1.1//EN"
  "http://www.w3.org/Graphics/SVG/1.1/DTD/svg11.dtd">
<svg xmlns:xlink="http://www.w3.org/1999/xlink" width="577.19952pt" height="577.19952pt" viewBox="0 0 577.19952 577.19952" xmlns="http://www.w3.org/2000/svg" version="1.1">
 <metadata>
  <rdf:RDF xmlns:dc="http://purl.org/dc/elements/1.1/" xmlns:cc="http://creativecommons.org/ns#" xmlns:rdf="http://www.w3.org/1999/02/22-rdf-syntax-ns#">
   <cc:Work>
    <dc:type rdf:resource="http://purl.org/dc/dcmitype/StillImage"/>
    <dc:date>2024-12-26T21:35:15.694054</dc:date>
    <dc:format>image/svg+xml</dc:format>
    <dc:creator>
     <cc:Agent>
      <dc:title>Matplotlib v3.10.0, https://matplotlib.org/</dc:title>
     </cc:Agent>
    </dc:creator>
   </cc:Work>
  </rdf:RDF>
 </metadata>
 <defs>
  <style type="text/css">*{stroke-linejoin: round; stroke-linecap: butt}</style>
 </defs>
 <g id="figure_1">
  <g id="patch_1">
   <path d="M 0 577.19952 
L 577.19952 577.19952 
L 577.19952 0 
L 0 0 
z
" style="fill: #ffffff"/>
  </g>
  <g id="axes_1">
   <g id="patch_2">
    <path d="M 74.708951 520.074775 
L 570.34952 520.074775 
L 570.34952 6.85 
L 74.708951 6.85 
z
" style="fill: #ffffff"/>
   </g>
   <g id="matplotlib.axis_1">
    <g id="xtick_1">
     <g id="line2d_1">
      <path d="M 97.238067 520.074775 
L 97.238067 6.85 
" clip-path="url(#pcb4adad4b7)" style="fill: none; stroke: #b0b0b0; stroke-width: 0.5; stroke-linecap: square"/>
     </g>
     <g id="line2d_2">
      <defs>
       <path id="mb8f10ebcfe" d="M 0 3.25 
L 0 -3.25 
" style="stroke: #000000; stroke-width: 1.5"/>
      </defs>
      <g>
       <use xlink:href="#mb8f10ebcfe" x="97.238067" y="520.074775" style="stroke: #000000; stroke-width: 1.5"/>
      </g>
     </g>
     <g id="line2d_3">
      <g>
       <use xlink:href="#mb8f10ebcfe" x="97.238067" y="6.85" style="stroke: #000000; stroke-width: 1.5"/>
      </g>
     </g>
     <g id="text_1">
      <!-- $\mathdefault{0}$ -->
      <g transform="translate(92.256747 540.33393) scale(0.2 -0.2)">
       <defs>
        <path id="NimbusRomNo9L-Regu-30" d="M 1626 4352 
C 1274 4352 1005 4243 768 4019 
C 397 3661 154 2924 154 2176 
C 154 1478 365 729 666 371 
C 902 89 1229 -64 1600 -64 
C 1926 -64 2202 44 2432 268 
C 2803 620 3046 1363 3046 2137 
C 3046 3449 2464 4352 1626 4352 
z
M 1606 4185 
C 2144 4185 2432 3462 2432 2124 
C 2432 787 2150 102 1600 102 
C 1050 102 768 787 768 2118 
C 768 3475 1056 4185 1606 4185 
z
" transform="scale(0.015625)"/>
       </defs>
       <use xlink:href="#NimbusRomNo9L-Regu-30" transform="scale(0.996264)"/>
      </g>
     </g>
    </g>
    <g id="xtick_2">
     <g id="line2d_4">
      <path d="M 185.436255 520.074775 
L 185.436255 6.85 
" clip-path="url(#pcb4adad4b7)" style="fill: none; stroke: #b0b0b0; stroke-width: 0.5; stroke-linecap: square"/>
     </g>
     <g id="line2d_5">
      <g>
       <use xlink:href="#mb8f10ebcfe" x="185.436255" y="520.074775" style="stroke: #000000; stroke-width: 1.5"/>
      </g>
     </g>
     <g id="line2d_6">
      <g>
       <use xlink:href="#mb8f10ebcfe" x="185.436255" y="6.85" style="stroke: #000000; stroke-width: 1.5"/>
      </g>
     </g>
     <g id="text_2">
      <!-- $\mathdefault{10}$ -->
      <g transform="translate(175.473615 540.33393) scale(0.2 -0.2)">
       <defs>
        <path id="NimbusRomNo9L-Regu-31" d="M 1862 4352 
L 710 3776 
L 710 3686 
C 787 3718 858 3743 883 3756 
C 998 3801 1107 3826 1171 3826 
C 1306 3826 1363 3731 1363 3525 
L 1363 599 
C 1363 386 1312 238 1210 179 
C 1114 121 1024 102 755 96 
L 755 0 
L 2522 0 
L 2522 96 
C 2016 102 1914 167 1914 477 
L 1914 4339 
L 1862 4352 
z
" transform="scale(0.015625)"/>
       </defs>
       <use xlink:href="#NimbusRomNo9L-Regu-31" transform="scale(0.996264)"/>
       <use xlink:href="#NimbusRomNo9L-Regu-30" transform="translate(49.8132 0) scale(0.996264)"/>
      </g>
     </g>
    </g>
    <g id="xtick_3">
     <g id="line2d_7">
      <path d="M 273.634442 520.074775 
L 273.634442 6.85 
" clip-path="url(#pcb4adad4b7)" style="fill: none; stroke: #b0b0b0; stroke-width: 0.5; stroke-linecap: square"/>
     </g>
     <g id="line2d_8">
      <g>
       <use xlink:href="#mb8f10ebcfe" x="273.634442" y="520.074775" style="stroke: #000000; stroke-width: 1.5"/>
      </g>
     </g>
     <g id="line2d_9">
      <g>
       <use xlink:href="#mb8f10ebcfe" x="273.634442" y="6.85" style="stroke: #000000; stroke-width: 1.5"/>
      </g>
     </g>
     <g id="text_3">
      <!-- $\mathdefault{20}$ -->
      <g transform="translate(263.671802 540.33393) scale(0.2 -0.2)">
       <defs>
        <path id="NimbusRomNo9L-Regu-32" d="M 3040 879 
L 2957 912 
C 2720 544 2637 486 2349 486 
L 819 486 
L 1894 1621 
C 2464 2221 2714 2711 2714 3214 
C 2714 3858 2195 4352 1530 4352 
C 1178 4352 845 4211 608 3955 
C 403 3736 307 3530 198 3072 
L 333 3039 
C 589 3671 819 3878 1261 3878 
C 1798 3878 2163 3510 2163 2969 
C 2163 2466 1869 1866 1331 1292 
L 192 76 
L 192 0 
L 2688 0 
L 3040 879 
z
" transform="scale(0.015625)"/>
       </defs>
       <use xlink:href="#NimbusRomNo9L-Regu-32" transform="scale(0.996264)"/>
       <use xlink:href="#NimbusRomNo9L-Regu-30" transform="translate(49.8132 0) scale(0.996264)"/>
      </g>
     </g>
    </g>
    <g id="xtick_4">
     <g id="line2d_10">
      <path d="M 361.832629 520.074775 
L 361.832629 6.85 
" clip-path="url(#pcb4adad4b7)" style="fill: none; stroke: #b0b0b0; stroke-width: 0.5; stroke-linecap: square"/>
     </g>
     <g id="line2d_11">
      <g>
       <use xlink:href="#mb8f10ebcfe" x="361.832629" y="520.074775" style="stroke: #000000; stroke-width: 1.5"/>
      </g>
     </g>
     <g id="line2d_12">
      <g>
       <use xlink:href="#mb8f10ebcfe" x="361.832629" y="6.85" style="stroke: #000000; stroke-width: 1.5"/>
      </g>
     </g>
     <g id="text_4">
      <!-- $\mathdefault{30}$ -->
      <g transform="translate(351.869989 540.33393) scale(0.2 -0.2)">
       <defs>
        <path id="NimbusRomNo9L-Regu-33" d="M 979 2137 
C 1357 2137 1504 2124 1658 2067 
C 2054 1926 2304 1561 2304 1120 
C 2304 582 1939 166 1466 166 
C 1293 166 1165 211 928 364 
C 736 480 627 524 518 524 
C 371 524 275 435 275 300 
C 275 76 550 -64 998 -64 
C 1491 -64 1997 102 2298 364 
C 2598 627 2765 998 2765 1427 
C 2765 1753 2662 2054 2477 2252 
C 2349 2393 2227 2470 1946 2592 
C 2387 2892 2547 3129 2547 3475 
C 2547 3993 2138 4352 1549 4352 
C 1229 4352 947 4243 717 4038 
C 525 3865 429 3699 288 3315 
L 384 3289 
C 646 3757 934 3967 1338 3967 
C 1754 3967 2042 3686 2042 3283 
C 2042 3052 1946 2822 1786 2662 
C 1594 2470 1414 2374 979 2220 
L 979 2137 
z
" transform="scale(0.015625)"/>
       </defs>
       <use xlink:href="#NimbusRomNo9L-Regu-33" transform="scale(0.996264)"/>
       <use xlink:href="#NimbusRomNo9L-Regu-30" transform="translate(49.8132 0) scale(0.996264)"/>
      </g>
     </g>
    </g>
    <g id="xtick_5">
     <g id="line2d_13">
      <path d="M 450.030816 520.074775 
L 450.030816 6.85 
" clip-path="url(#pcb4adad4b7)" style="fill: none; stroke: #b0b0b0; stroke-width: 0.5; stroke-linecap: square"/>
     </g>
     <g id="line2d_14">
      <g>
       <use xlink:href="#mb8f10ebcfe" x="450.030816" y="520.074775" style="stroke: #000000; stroke-width: 1.5"/>
      </g>
     </g>
     <g id="line2d_15">
      <g>
       <use xlink:href="#mb8f10ebcfe" x="450.030816" y="6.85" style="stroke: #000000; stroke-width: 1.5"/>
      </g>
     </g>
     <g id="text_5">
      <!-- $\mathdefault{40}$ -->
      <g transform="translate(440.068176 540.33393) scale(0.2 -0.2)">
       <defs>
        <path id="NimbusRomNo9L-Regu-34" d="M 3021 1497 
L 2368 1497 
L 2368 4352 
L 2086 4352 
L 77 1497 
L 77 1088 
L 1875 1088 
L 1875 0 
L 2368 0 
L 2368 1088 
L 3021 1088 
L 3021 1497 
z
M 1869 1497 
L 333 1497 
L 1869 3697 
L 1869 1497 
z
" transform="scale(0.015625)"/>
       </defs>
       <use xlink:href="#NimbusRomNo9L-Regu-34" transform="scale(0.996264)"/>
       <use xlink:href="#NimbusRomNo9L-Regu-30" transform="translate(49.8132 0) scale(0.996264)"/>
      </g>
     </g>
    </g>
    <g id="xtick_6">
     <g id="line2d_16">
      <path d="M 538.229004 520.074775 
L 538.229004 6.85 
" clip-path="url(#pcb4adad4b7)" style="fill: none; stroke: #b0b0b0; stroke-width: 0.5; stroke-linecap: square"/>
     </g>
     <g id="line2d_17">
      <g>
       <use xlink:href="#mb8f10ebcfe" x="538.229004" y="520.074775" style="stroke: #000000; stroke-width: 1.5"/>
      </g>
     </g>
     <g id="line2d_18">
      <g>
       <use xlink:href="#mb8f10ebcfe" x="538.229004" y="6.85" style="stroke: #000000; stroke-width: 1.5"/>
      </g>
     </g>
     <g id="text_6">
      <!-- $\mathdefault{50}$ -->
      <g transform="translate(528.266364 540.33393) scale(0.2 -0.2)">
       <defs>
        <path id="NimbusRomNo9L-Regu-35" d="M 1158 3718 
L 2413 3718 
C 2515 3718 2541 3731 2560 3775 
L 2803 4345 
L 2746 4390 
C 2650 4256 2586 4224 2451 4224 
L 1114 4224 
L 416 2717 
C 410 2705 410 2698 410 2686 
C 410 2654 435 2635 486 2635 
C 691 2635 947 2591 1210 2508 
C 1946 2274 2285 1882 2285 1255 
C 2285 647 1894 172 1395 172 
C 1267 172 1158 217 966 356 
C 762 502 614 565 480 565 
C 294 565 205 489 205 331 
C 205 89 506 -64 986 -64 
C 1523 -64 1984 108 2304 432 
C 2598 717 2733 1078 2733 1559 
C 2733 2015 2611 2306 2291 2622 
C 2010 2901 1645 3047 890 3180 
L 1158 3718 
z
" transform="scale(0.015625)"/>
       </defs>
       <use xlink:href="#NimbusRomNo9L-Regu-35" transform="scale(0.996264)"/>
       <use xlink:href="#NimbusRomNo9L-Regu-30" transform="translate(49.8132 0) scale(0.996264)"/>
      </g>
     </g>
    </g>
    <g id="xtick_7">
     <g id="line2d_19">
      <path d="M 79.59843 520.074775 
L 79.59843 6.85 
" clip-path="url(#pcb4adad4b7)" style="fill: none; stroke: #b0b0b0; stroke-width: 0.5; stroke-linecap: square"/>
     </g>
     <g id="line2d_20">
      <defs>
       <path id="m5efd0176fb" d="M 0 2 
L 0 -2 
" style="stroke: #000000; stroke-width: 0.5"/>
      </defs>
      <g>
       <use xlink:href="#m5efd0176fb" x="79.59843" y="520.074775" style="stroke: #000000; stroke-width: 0.5"/>
      </g>
     </g>
     <g id="line2d_21">
      <g>
       <use xlink:href="#m5efd0176fb" x="79.59843" y="6.85" style="stroke: #000000; stroke-width: 0.5"/>
      </g>
     </g>
    </g>
    <g id="xtick_8">
     <g id="line2d_22">
      <path d="M 114.877705 520.074775 
L 114.877705 6.85 
" clip-path="url(#pcb4adad4b7)" style="fill: none; stroke: #b0b0b0; stroke-width: 0.5; stroke-linecap: square"/>
     </g>
     <g id="line2d_23">
      <g>
       <use xlink:href="#m5efd0176fb" x="114.877705" y="520.074775" style="stroke: #000000; stroke-width: 0.5"/>
      </g>
     </g>
     <g id="line2d_24">
      <g>
       <use xlink:href="#m5efd0176fb" x="114.877705" y="6.85" style="stroke: #000000; stroke-width: 0.5"/>
      </g>
     </g>
    </g>
    <g id="xtick_9">
     <g id="line2d_25">
      <path d="M 132.517342 520.074775 
L 132.517342 6.85 
" clip-path="url(#pcb4adad4b7)" style="fill: none; stroke: #b0b0b0; stroke-width: 0.5; stroke-linecap: square"/>
     </g>
     <g id="line2d_26">
      <g>
       <use xlink:href="#m5efd0176fb" x="132.517342" y="520.074775" style="stroke: #000000; stroke-width: 0.5"/>
      </g>
     </g>
     <g id="line2d_27">
      <g>
       <use xlink:href="#m5efd0176fb" x="132.517342" y="6.85" style="stroke: #000000; stroke-width: 0.5"/>
      </g>
     </g>
    </g>
    <g id="xtick_10">
     <g id="line2d_28">
      <path d="M 150.15698 520.074775 
L 150.15698 6.85 
" clip-path="url(#pcb4adad4b7)" style="fill: none; stroke: #b0b0b0; stroke-width: 0.5; stroke-linecap: square"/>
     </g>
     <g id="line2d_29">
      <g>
       <use xlink:href="#m5efd0176fb" x="150.15698" y="520.074775" style="stroke: #000000; stroke-width: 0.5"/>
      </g>
     </g>
     <g id="line2d_30">
      <g>
       <use xlink:href="#m5efd0176fb" x="150.15698" y="6.85" style="stroke: #000000; stroke-width: 0.5"/>
      </g>
     </g>
    </g>
    <g id="xtick_11">
     <g id="line2d_31">
      <path d="M 167.796617 520.074775 
L 167.796617 6.85 
" clip-path="url(#pcb4adad4b7)" style="fill: none; stroke: #b0b0b0; stroke-width: 0.5; stroke-linecap: square"/>
     </g>
     <g id="line2d_32">
      <g>
       <use xlink:href="#m5efd0176fb" x="167.796617" y="520.074775" style="stroke: #000000; stroke-width: 0.5"/>
      </g>
     </g>
     <g id="line2d_33">
      <g>
       <use xlink:href="#m5efd0176fb" x="167.796617" y="6.85" style="stroke: #000000; stroke-width: 0.5"/>
      </g>
     </g>
    </g>
    <g id="xtick_12">
     <g id="line2d_34">
      <path d="M 203.075892 520.074775 
L 203.075892 6.85 
" clip-path="url(#pcb4adad4b7)" style="fill: none; stroke: #b0b0b0; stroke-width: 0.5; stroke-linecap: square"/>
     </g>
     <g id="line2d_35">
      <g>
       <use xlink:href="#m5efd0176fb" x="203.075892" y="520.074775" style="stroke: #000000; stroke-width: 0.5"/>
      </g>
     </g>
     <g id="line2d_36">
      <g>
       <use xlink:href="#m5efd0176fb" x="203.075892" y="6.85" style="stroke: #000000; stroke-width: 0.5"/>
      </g>
     </g>
    </g>
    <g id="xtick_13">
     <g id="line2d_37">
      <path d="M 220.71553 520.074775 
L 220.71553 6.85 
" clip-path="url(#pcb4adad4b7)" style="fill: none; stroke: #b0b0b0; stroke-width: 0.5; stroke-linecap: square"/>
     </g>
     <g id="line2d_38">
      <g>
       <use xlink:href="#m5efd0176fb" x="220.71553" y="520.074775" style="stroke: #000000; stroke-width: 0.5"/>
      </g>
     </g>
     <g id="line2d_39">
      <g>
       <use xlink:href="#m5efd0176fb" x="220.71553" y="6.85" style="stroke: #000000; stroke-width: 0.5"/>
      </g>
     </g>
    </g>
    <g id="xtick_14">
     <g id="line2d_40">
      <path d="M 238.355167 520.074775 
L 238.355167 6.85 
" clip-path="url(#pcb4adad4b7)" style="fill: none; stroke: #b0b0b0; stroke-width: 0.5; stroke-linecap: square"/>
     </g>
     <g id="line2d_41">
      <g>
       <use xlink:href="#m5efd0176fb" x="238.355167" y="520.074775" style="stroke: #000000; stroke-width: 0.5"/>
      </g>
     </g>
     <g id="line2d_42">
      <g>
       <use xlink:href="#m5efd0176fb" x="238.355167" y="6.85" style="stroke: #000000; stroke-width: 0.5"/>
      </g>
     </g>
    </g>
    <g id="xtick_15">
     <g id="line2d_43">
      <path d="M 255.994804 520.074775 
L 255.994804 6.85 
" clip-path="url(#pcb4adad4b7)" style="fill: none; stroke: #b0b0b0; stroke-width: 0.5; stroke-linecap: square"/>
     </g>
     <g id="line2d_44">
      <g>
       <use xlink:href="#m5efd0176fb" x="255.994804" y="520.074775" style="stroke: #000000; stroke-width: 0.5"/>
      </g>
     </g>
     <g id="line2d_45">
      <g>
       <use xlink:href="#m5efd0176fb" x="255.994804" y="6.85" style="stroke: #000000; stroke-width: 0.5"/>
      </g>
     </g>
    </g>
    <g id="xtick_16">
     <g id="line2d_46">
      <path d="M 291.274079 520.074775 
L 291.274079 6.85 
" clip-path="url(#pcb4adad4b7)" style="fill: none; stroke: #b0b0b0; stroke-width: 0.5; stroke-linecap: square"/>
     </g>
     <g id="line2d_47">
      <g>
       <use xlink:href="#m5efd0176fb" x="291.274079" y="520.074775" style="stroke: #000000; stroke-width: 0.5"/>
      </g>
     </g>
     <g id="line2d_48">
      <g>
       <use xlink:href="#m5efd0176fb" x="291.274079" y="6.85" style="stroke: #000000; stroke-width: 0.5"/>
      </g>
     </g>
    </g>
    <g id="xtick_17">
     <g id="line2d_49">
      <path d="M 308.913717 520.074775 
L 308.913717 6.85 
" clip-path="url(#pcb4adad4b7)" style="fill: none; stroke: #b0b0b0; stroke-width: 0.5; stroke-linecap: square"/>
     </g>
     <g id="line2d_50">
      <g>
       <use xlink:href="#m5efd0176fb" x="308.913717" y="520.074775" style="stroke: #000000; stroke-width: 0.5"/>
      </g>
     </g>
     <g id="line2d_51">
      <g>
       <use xlink:href="#m5efd0176fb" x="308.913717" y="6.85" style="stroke: #000000; stroke-width: 0.5"/>
      </g>
     </g>
    </g>
    <g id="xtick_18">
     <g id="line2d_52">
      <path d="M 326.553354 520.074775 
L 326.553354 6.85 
" clip-path="url(#pcb4adad4b7)" style="fill: none; stroke: #b0b0b0; stroke-width: 0.5; stroke-linecap: square"/>
     </g>
     <g id="line2d_53">
      <g>
       <use xlink:href="#m5efd0176fb" x="326.553354" y="520.074775" style="stroke: #000000; stroke-width: 0.5"/>
      </g>
     </g>
     <g id="line2d_54">
      <g>
       <use xlink:href="#m5efd0176fb" x="326.553354" y="6.85" style="stroke: #000000; stroke-width: 0.5"/>
      </g>
     </g>
    </g>
    <g id="xtick_19">
     <g id="line2d_55">
      <path d="M 344.192992 520.074775 
L 344.192992 6.85 
" clip-path="url(#pcb4adad4b7)" style="fill: none; stroke: #b0b0b0; stroke-width: 0.5; stroke-linecap: square"/>
     </g>
     <g id="line2d_56">
      <g>
       <use xlink:href="#m5efd0176fb" x="344.192992" y="520.074775" style="stroke: #000000; stroke-width: 0.5"/>
      </g>
     </g>
     <g id="line2d_57">
      <g>
       <use xlink:href="#m5efd0176fb" x="344.192992" y="6.85" style="stroke: #000000; stroke-width: 0.5"/>
      </g>
     </g>
    </g>
    <g id="xtick_20">
     <g id="line2d_58">
      <path d="M 379.472267 520.074775 
L 379.472267 6.85 
" clip-path="url(#pcb4adad4b7)" style="fill: none; stroke: #b0b0b0; stroke-width: 0.5; stroke-linecap: square"/>
     </g>
     <g id="line2d_59">
      <g>
       <use xlink:href="#m5efd0176fb" x="379.472267" y="520.074775" style="stroke: #000000; stroke-width: 0.5"/>
      </g>
     </g>
     <g id="line2d_60">
      <g>
       <use xlink:href="#m5efd0176fb" x="379.472267" y="6.85" style="stroke: #000000; stroke-width: 0.5"/>
      </g>
     </g>
    </g>
    <g id="xtick_21">
     <g id="line2d_61">
      <path d="M 397.111904 520.074775 
L 397.111904 6.85 
" clip-path="url(#pcb4adad4b7)" style="fill: none; stroke: #b0b0b0; stroke-width: 0.5; stroke-linecap: square"/>
     </g>
     <g id="line2d_62">
      <g>
       <use xlink:href="#m5efd0176fb" x="397.111904" y="520.074775" style="stroke: #000000; stroke-width: 0.5"/>
      </g>
     </g>
     <g id="line2d_63">
      <g>
       <use xlink:href="#m5efd0176fb" x="397.111904" y="6.85" style="stroke: #000000; stroke-width: 0.5"/>
      </g>
     </g>
    </g>
    <g id="xtick_22">
     <g id="line2d_64">
      <path d="M 414.751542 520.074775 
L 414.751542 6.85 
" clip-path="url(#pcb4adad4b7)" style="fill: none; stroke: #b0b0b0; stroke-width: 0.5; stroke-linecap: square"/>
     </g>
     <g id="line2d_65">
      <g>
       <use xlink:href="#m5efd0176fb" x="414.751542" y="520.074775" style="stroke: #000000; stroke-width: 0.5"/>
      </g>
     </g>
     <g id="line2d_66">
      <g>
       <use xlink:href="#m5efd0176fb" x="414.751542" y="6.85" style="stroke: #000000; stroke-width: 0.5"/>
      </g>
     </g>
    </g>
    <g id="xtick_23">
     <g id="line2d_67">
      <path d="M 432.391179 520.074775 
L 432.391179 6.85 
" clip-path="url(#pcb4adad4b7)" style="fill: none; stroke: #b0b0b0; stroke-width: 0.5; stroke-linecap: square"/>
     </g>
     <g id="line2d_68">
      <g>
       <use xlink:href="#m5efd0176fb" x="432.391179" y="520.074775" style="stroke: #000000; stroke-width: 0.5"/>
      </g>
     </g>
     <g id="line2d_69">
      <g>
       <use xlink:href="#m5efd0176fb" x="432.391179" y="6.85" style="stroke: #000000; stroke-width: 0.5"/>
      </g>
     </g>
    </g>
    <g id="xtick_24">
     <g id="line2d_70">
      <path d="M 467.670454 520.074775 
L 467.670454 6.85 
" clip-path="url(#pcb4adad4b7)" style="fill: none; stroke: #b0b0b0; stroke-width: 0.5; stroke-linecap: square"/>
     </g>
     <g id="line2d_71">
      <g>
       <use xlink:href="#m5efd0176fb" x="467.670454" y="520.074775" style="stroke: #000000; stroke-width: 0.5"/>
      </g>
     </g>
     <g id="line2d_72">
      <g>
       <use xlink:href="#m5efd0176fb" x="467.670454" y="6.85" style="stroke: #000000; stroke-width: 0.5"/>
      </g>
     </g>
    </g>
    <g id="xtick_25">
     <g id="line2d_73">
      <path d="M 485.310091 520.074775 
L 485.310091 6.85 
" clip-path="url(#pcb4adad4b7)" style="fill: none; stroke: #b0b0b0; stroke-width: 0.5; stroke-linecap: square"/>
     </g>
     <g id="line2d_74">
      <g>
       <use xlink:href="#m5efd0176fb" x="485.310091" y="520.074775" style="stroke: #000000; stroke-width: 0.5"/>
      </g>
     </g>
     <g id="line2d_75">
      <g>
       <use xlink:href="#m5efd0176fb" x="485.310091" y="6.85" style="stroke: #000000; stroke-width: 0.5"/>
      </g>
     </g>
    </g>
    <g id="xtick_26">
     <g id="line2d_76">
      <path d="M 502.949729 520.074775 
L 502.949729 6.85 
" clip-path="url(#pcb4adad4b7)" style="fill: none; stroke: #b0b0b0; stroke-width: 0.5; stroke-linecap: square"/>
     </g>
     <g id="line2d_77">
      <g>
       <use xlink:href="#m5efd0176fb" x="502.949729" y="520.074775" style="stroke: #000000; stroke-width: 0.5"/>
      </g>
     </g>
     <g id="line2d_78">
      <g>
       <use xlink:href="#m5efd0176fb" x="502.949729" y="6.85" style="stroke: #000000; stroke-width: 0.5"/>
      </g>
     </g>
    </g>
    <g id="xtick_27">
     <g id="line2d_79">
      <path d="M 520.589366 520.074775 
L 520.589366 6.85 
" clip-path="url(#pcb4adad4b7)" style="fill: none; stroke: #b0b0b0; stroke-width: 0.5; stroke-linecap: square"/>
     </g>
     <g id="line2d_80">
      <g>
       <use xlink:href="#m5efd0176fb" x="520.589366" y="520.074775" style="stroke: #000000; stroke-width: 0.5"/>
      </g>
     </g>
     <g id="line2d_81">
      <g>
       <use xlink:href="#m5efd0176fb" x="520.589366" y="6.85" style="stroke: #000000; stroke-width: 0.5"/>
      </g>
     </g>
    </g>
    <g id="xtick_28">
     <g id="line2d_82">
      <path d="M 555.868641 520.074775 
L 555.868641 6.85 
" clip-path="url(#pcb4adad4b7)" style="fill: none; stroke: #b0b0b0; stroke-width: 0.5; stroke-linecap: square"/>
     </g>
     <g id="line2d_83">
      <g>
       <use xlink:href="#m5efd0176fb" x="555.868641" y="520.074775" style="stroke: #000000; stroke-width: 0.5"/>
      </g>
     </g>
     <g id="line2d_84">
      <g>
       <use xlink:href="#m5efd0176fb" x="555.868641" y="6.85" style="stroke: #000000; stroke-width: 0.5"/>
      </g>
     </g>
    </g>
    <g id="text_7">
     <!-- $t$ -->
     <g transform="translate(318.651914 567.560399) scale(0.28 -0.28)">
      <defs>
       <path id="NimbusRomNo9L-ReguItal-74" d="M 1894 2752 
L 1382 2752 
L 1562 3411 
C 1568 3424 1568 3436 1568 3443 
C 1568 3488 1549 3507 1517 3507 
C 1478 3507 1459 3500 1421 3449 
C 1171 3123 774 2803 570 2745 
C 410 2694 365 2655 365 2585 
C 365 2579 365 2566 371 2547 
L 845 2547 
L 384 782 
C 371 724 365 705 346 647 
C 288 454 237 230 237 179 
C 237 38 371 -64 544 -64 
C 838 -64 1050 115 1453 711 
L 1370 756 
C 1056 352 954 249 851 249 
C 794 249 755 300 755 377 
C 755 384 755 390 762 410 
L 1325 2547 
L 1862 2547 
L 1894 2752 
z
" transform="scale(0.015625)"/>
      </defs>
      <use xlink:href="#NimbusRomNo9L-ReguItal-74" transform="scale(0.996264)"/>
     </g>
    </g>
   </g>
   <g id="matplotlib.axis_2">
    <g id="ytick_1">
     <g id="line2d_85">
      <path d="M 74.708951 475.229667 
L 570.34952 475.229667 
" clip-path="url(#pcb4adad4b7)" style="fill: none; stroke: #b0b0b0; stroke-width: 0.5; stroke-linecap: square"/>
     </g>
     <g id="line2d_86">
      <defs>
       <path id="m3fb044cac7" d="M 3.25 0 
L -3.25 -0 
" style="stroke: #000000; stroke-width: 1.5"/>
      </defs>
      <g>
       <use xlink:href="#m3fb044cac7" x="74.708951" y="475.229667" style="stroke: #000000; stroke-width: 1.5"/>
      </g>
     </g>
     <g id="line2d_87">
      <g>
       <use xlink:href="#m3fb044cac7" x="570.34952" y="475.229667" style="stroke: #000000; stroke-width: 1.5"/>
      </g>
     </g>
     <g id="text_8">
      <!-- $\mathdefault{−70}$ -->
      <g transform="translate(32.551932 481.984244) scale(0.2 -0.2)">
       <defs>
        <path id="CMSY10-0" d="M 4218 1472 
C 4326 1472 4442 1472 4442 1600 
C 4442 1728 4326 1728 4218 1728 
L 755 1728 
C 646 1728 531 1728 531 1600 
C 531 1472 646 1472 755 1472 
L 4218 1472 
z
" transform="scale(0.015625)"/>
        <path id="NimbusRomNo9L-Regu-37" d="M 2874 4224 
L 506 4224 
L 128 3283 
L 237 3232 
C 512 3667 627 3750 979 3750 
L 2368 3750 
L 1101 -64 
L 1517 -64 
L 2874 4121 
L 2874 4224 
z
" transform="scale(0.015625)"/>
       </defs>
       <use xlink:href="#CMSY10-0" transform="scale(0.996264)"/>
       <use xlink:href="#NimbusRomNo9L-Regu-37" transform="translate(77.408707 0) scale(0.996264)"/>
       <use xlink:href="#NimbusRomNo9L-Regu-30" transform="translate(127.221908 0) scale(0.996264)"/>
      </g>
     </g>
    </g>
    <g id="ytick_2">
     <g id="line2d_88">
      <path d="M 74.708951 363.96685 
L 570.34952 363.96685 
" clip-path="url(#pcb4adad4b7)" style="fill: none; stroke: #b0b0b0; stroke-width: 0.5; stroke-linecap: square"/>
     </g>
     <g id="line2d_89">
      <g>
       <use xlink:href="#m3fb044cac7" x="74.708951" y="363.96685" style="stroke: #000000; stroke-width: 1.5"/>
      </g>
     </g>
     <g id="line2d_90">
      <g>
       <use xlink:href="#m3fb044cac7" x="570.34952" y="363.96685" style="stroke: #000000; stroke-width: 1.5"/>
      </g>
     </g>
     <g id="text_9">
      <!-- $\mathdefault{−65}$ -->
      <g transform="translate(32.551932 370.721427) scale(0.2 -0.2)">
       <defs>
        <path id="NimbusRomNo9L-Regu-36" d="M 2854 4390 
C 2125 4326 1754 4204 1286 3878 
C 595 3385 218 2655 218 1801 
C 218 1248 390 688 666 369 
C 909 89 1254 -64 1651 -64 
C 2445 -64 2995 541 2995 1420 
C 2995 2234 2528 2752 1792 2752 
C 1510 2752 1376 2707 973 2463 
C 1146 3430 1862 4121 2867 4288 
L 2854 4390 
z
M 1549 2457 
C 2099 2457 2419 1999 2419 1203 
C 2419 503 2170 115 1722 115 
C 1158 115 813 713 813 1700 
C 813 2024 864 2203 992 2298 
C 1126 2400 1325 2457 1549 2457 
z
" transform="scale(0.015625)"/>
       </defs>
       <use xlink:href="#CMSY10-0" transform="scale(0.996264)"/>
       <use xlink:href="#NimbusRomNo9L-Regu-36" transform="translate(77.408707 0) scale(0.996264)"/>
       <use xlink:href="#NimbusRomNo9L-Regu-35" transform="translate(127.221908 0) scale(0.996264)"/>
      </g>
     </g>
    </g>
    <g id="ytick_3">
     <g id="line2d_91">
      <path d="M 74.708951 252.704033 
L 570.34952 252.704033 
" clip-path="url(#pcb4adad4b7)" style="fill: none; stroke: #b0b0b0; stroke-width: 0.5; stroke-linecap: square"/>
     </g>
     <g id="line2d_92">
      <g>
       <use xlink:href="#m3fb044cac7" x="74.708951" y="252.704033" style="stroke: #000000; stroke-width: 1.5"/>
      </g>
     </g>
     <g id="line2d_93">
      <g>
       <use xlink:href="#m3fb044cac7" x="570.34952" y="252.704033" style="stroke: #000000; stroke-width: 1.5"/>
      </g>
     </g>
     <g id="text_10">
      <!-- $\mathdefault{−60}$ -->
      <g transform="translate(32.551932 259.45861) scale(0.2 -0.2)">
       <use xlink:href="#CMSY10-0" transform="scale(0.996264)"/>
       <use xlink:href="#NimbusRomNo9L-Regu-36" transform="translate(77.408707 0) scale(0.996264)"/>
       <use xlink:href="#NimbusRomNo9L-Regu-30" transform="translate(127.221908 0) scale(0.996264)"/>
      </g>
     </g>
    </g>
    <g id="ytick_4">
     <g id="line2d_94">
      <path d="M 74.708951 141.441216 
L 570.34952 141.441216 
" clip-path="url(#pcb4adad4b7)" style="fill: none; stroke: #b0b0b0; stroke-width: 0.5; stroke-linecap: square"/>
     </g>
     <g id="line2d_95">
      <g>
       <use xlink:href="#m3fb044cac7" x="74.708951" y="141.441216" style="stroke: #000000; stroke-width: 1.5"/>
      </g>
     </g>
     <g id="line2d_96">
      <g>
       <use xlink:href="#m3fb044cac7" x="570.34952" y="141.441216" style="stroke: #000000; stroke-width: 1.5"/>
      </g>
     </g>
     <g id="text_11">
      <!-- $\mathdefault{−55}$ -->
      <g transform="translate(32.551932 148.195793) scale(0.2 -0.2)">
       <use xlink:href="#CMSY10-0" transform="scale(0.996264)"/>
       <use xlink:href="#NimbusRomNo9L-Regu-35" transform="translate(77.408707 0) scale(0.996264)"/>
       <use xlink:href="#NimbusRomNo9L-Regu-35" transform="translate(127.221908 0) scale(0.996264)"/>
      </g>
     </g>
    </g>
    <g id="ytick_5">
     <g id="line2d_97">
      <path d="M 74.708951 30.178399 
L 570.34952 30.178399 
" clip-path="url(#pcb4adad4b7)" style="fill: none; stroke: #b0b0b0; stroke-width: 0.5; stroke-linecap: square"/>
     </g>
     <g id="line2d_98">
      <g>
       <use xlink:href="#m3fb044cac7" x="74.708951" y="30.178399" style="stroke: #000000; stroke-width: 1.5"/>
      </g>
     </g>
     <g id="line2d_99">
      <g>
       <use xlink:href="#m3fb044cac7" x="570.34952" y="30.178399" style="stroke: #000000; stroke-width: 1.5"/>
      </g>
     </g>
     <g id="text_12">
      <!-- $\mathdefault{−50}$ -->
      <g transform="translate(32.551932 36.932976) scale(0.2 -0.2)">
       <use xlink:href="#CMSY10-0" transform="scale(0.996264)"/>
       <use xlink:href="#NimbusRomNo9L-Regu-35" transform="translate(77.408707 0) scale(0.996264)"/>
       <use xlink:href="#NimbusRomNo9L-Regu-30" transform="translate(127.221908 0) scale(0.996264)"/>
      </g>
     </g>
    </g>
    <g id="ytick_6">
     <g id="line2d_100">
      <path d="M 74.708951 519.734793 
L 570.34952 519.734793 
" clip-path="url(#pcb4adad4b7)" style="fill: none; stroke: #b0b0b0; stroke-width: 0.5; stroke-linecap: square"/>
     </g>
     <g id="line2d_101">
      <defs>
       <path id="m80ed5778ae" d="M 2 0 
L -2 -0 
" style="stroke: #000000; stroke-width: 0.5"/>
      </defs>
      <g>
       <use xlink:href="#m80ed5778ae" x="74.708951" y="519.734793" style="stroke: #000000; stroke-width: 0.5"/>
      </g>
     </g>
     <g id="line2d_102">
      <g>
       <use xlink:href="#m80ed5778ae" x="570.34952" y="519.734793" style="stroke: #000000; stroke-width: 0.5"/>
      </g>
     </g>
    </g>
    <g id="ytick_7">
     <g id="line2d_103">
      <path d="M 74.708951 497.48223 
L 570.34952 497.48223 
" clip-path="url(#pcb4adad4b7)" style="fill: none; stroke: #b0b0b0; stroke-width: 0.5; stroke-linecap: square"/>
     </g>
     <g id="line2d_104">
      <g>
       <use xlink:href="#m80ed5778ae" x="74.708951" y="497.48223" style="stroke: #000000; stroke-width: 0.5"/>
      </g>
     </g>
     <g id="line2d_105">
      <g>
       <use xlink:href="#m80ed5778ae" x="570.34952" y="497.48223" style="stroke: #000000; stroke-width: 0.5"/>
      </g>
     </g>
    </g>
    <g id="ytick_8">
     <g id="line2d_106">
      <path d="M 74.708951 452.977103 
L 570.34952 452.977103 
" clip-path="url(#pcb4adad4b7)" style="fill: none; stroke: #b0b0b0; stroke-width: 0.5; stroke-linecap: square"/>
     </g>
     <g id="line2d_107">
      <g>
       <use xlink:href="#m80ed5778ae" x="74.708951" y="452.977103" style="stroke: #000000; stroke-width: 0.5"/>
      </g>
     </g>
     <g id="line2d_108">
      <g>
       <use xlink:href="#m80ed5778ae" x="570.34952" y="452.977103" style="stroke: #000000; stroke-width: 0.5"/>
      </g>
     </g>
    </g>
    <g id="ytick_9">
     <g id="line2d_109">
      <path d="M 74.708951 430.72454 
L 570.34952 430.72454 
" clip-path="url(#pcb4adad4b7)" style="fill: none; stroke: #b0b0b0; stroke-width: 0.5; stroke-linecap: square"/>
     </g>
     <g id="line2d_110">
      <g>
       <use xlink:href="#m80ed5778ae" x="74.708951" y="430.72454" style="stroke: #000000; stroke-width: 0.5"/>
      </g>
     </g>
     <g id="line2d_111">
      <g>
       <use xlink:href="#m80ed5778ae" x="570.34952" y="430.72454" style="stroke: #000000; stroke-width: 0.5"/>
      </g>
     </g>
    </g>
    <g id="ytick_10">
     <g id="line2d_112">
      <path d="M 74.708951 408.471976 
L 570.34952 408.471976 
" clip-path="url(#pcb4adad4b7)" style="fill: none; stroke: #b0b0b0; stroke-width: 0.5; stroke-linecap: square"/>
     </g>
     <g id="line2d_113">
      <g>
       <use xlink:href="#m80ed5778ae" x="74.708951" y="408.471976" style="stroke: #000000; stroke-width: 0.5"/>
      </g>
     </g>
     <g id="line2d_114">
      <g>
       <use xlink:href="#m80ed5778ae" x="570.34952" y="408.471976" style="stroke: #000000; stroke-width: 0.5"/>
      </g>
     </g>
    </g>
    <g id="ytick_11">
     <g id="line2d_115">
      <path d="M 74.708951 386.219413 
L 570.34952 386.219413 
" clip-path="url(#pcb4adad4b7)" style="fill: none; stroke: #b0b0b0; stroke-width: 0.5; stroke-linecap: square"/>
     </g>
     <g id="line2d_116">
      <g>
       <use xlink:href="#m80ed5778ae" x="74.708951" y="386.219413" style="stroke: #000000; stroke-width: 0.5"/>
      </g>
     </g>
     <g id="line2d_117">
      <g>
       <use xlink:href="#m80ed5778ae" x="570.34952" y="386.219413" style="stroke: #000000; stroke-width: 0.5"/>
      </g>
     </g>
    </g>
    <g id="ytick_12">
     <g id="line2d_118">
      <path d="M 74.708951 341.714286 
L 570.34952 341.714286 
" clip-path="url(#pcb4adad4b7)" style="fill: none; stroke: #b0b0b0; stroke-width: 0.5; stroke-linecap: square"/>
     </g>
     <g id="line2d_119">
      <g>
       <use xlink:href="#m80ed5778ae" x="74.708951" y="341.714286" style="stroke: #000000; stroke-width: 0.5"/>
      </g>
     </g>
     <g id="line2d_120">
      <g>
       <use xlink:href="#m80ed5778ae" x="570.34952" y="341.714286" style="stroke: #000000; stroke-width: 0.5"/>
      </g>
     </g>
    </g>
    <g id="ytick_13">
     <g id="line2d_121">
      <path d="M 74.708951 319.461723 
L 570.34952 319.461723 
" clip-path="url(#pcb4adad4b7)" style="fill: none; stroke: #b0b0b0; stroke-width: 0.5; stroke-linecap: square"/>
     </g>
     <g id="line2d_122">
      <g>
       <use xlink:href="#m80ed5778ae" x="74.708951" y="319.461723" style="stroke: #000000; stroke-width: 0.5"/>
      </g>
     </g>
     <g id="line2d_123">
      <g>
       <use xlink:href="#m80ed5778ae" x="570.34952" y="319.461723" style="stroke: #000000; stroke-width: 0.5"/>
      </g>
     </g>
    </g>
    <g id="ytick_14">
     <g id="line2d_124">
      <path d="M 74.708951 297.20916 
L 570.34952 297.20916 
" clip-path="url(#pcb4adad4b7)" style="fill: none; stroke: #b0b0b0; stroke-width: 0.5; stroke-linecap: square"/>
     </g>
     <g id="line2d_125">
      <g>
       <use xlink:href="#m80ed5778ae" x="74.708951" y="297.20916" style="stroke: #000000; stroke-width: 0.5"/>
      </g>
     </g>
     <g id="line2d_126">
      <g>
       <use xlink:href="#m80ed5778ae" x="570.34952" y="297.20916" style="stroke: #000000; stroke-width: 0.5"/>
      </g>
     </g>
    </g>
    <g id="ytick_15">
     <g id="line2d_127">
      <path d="M 74.708951 274.956596 
L 570.34952 274.956596 
" clip-path="url(#pcb4adad4b7)" style="fill: none; stroke: #b0b0b0; stroke-width: 0.5; stroke-linecap: square"/>
     </g>
     <g id="line2d_128">
      <g>
       <use xlink:href="#m80ed5778ae" x="74.708951" y="274.956596" style="stroke: #000000; stroke-width: 0.5"/>
      </g>
     </g>
     <g id="line2d_129">
      <g>
       <use xlink:href="#m80ed5778ae" x="570.34952" y="274.956596" style="stroke: #000000; stroke-width: 0.5"/>
      </g>
     </g>
    </g>
    <g id="ytick_16">
     <g id="line2d_130">
      <path d="M 74.708951 230.451469 
L 570.34952 230.451469 
" clip-path="url(#pcb4adad4b7)" style="fill: none; stroke: #b0b0b0; stroke-width: 0.5; stroke-linecap: square"/>
     </g>
     <g id="line2d_131">
      <g>
       <use xlink:href="#m80ed5778ae" x="74.708951" y="230.451469" style="stroke: #000000; stroke-width: 0.5"/>
      </g>
     </g>
     <g id="line2d_132">
      <g>
       <use xlink:href="#m80ed5778ae" x="570.34952" y="230.451469" style="stroke: #000000; stroke-width: 0.5"/>
      </g>
     </g>
    </g>
    <g id="ytick_17">
     <g id="line2d_133">
      <path d="M 74.708951 208.198906 
L 570.34952 208.198906 
" clip-path="url(#pcb4adad4b7)" style="fill: none; stroke: #b0b0b0; stroke-width: 0.5; stroke-linecap: square"/>
     </g>
     <g id="line2d_134">
      <g>
       <use xlink:href="#m80ed5778ae" x="74.708951" y="208.198906" style="stroke: #000000; stroke-width: 0.5"/>
      </g>
     </g>
     <g id="line2d_135">
      <g>
       <use xlink:href="#m80ed5778ae" x="570.34952" y="208.198906" style="stroke: #000000; stroke-width: 0.5"/>
      </g>
     </g>
    </g>
    <g id="ytick_18">
     <g id="line2d_136">
      <path d="M 74.708951 185.946343 
L 570.34952 185.946343 
" clip-path="url(#pcb4adad4b7)" style="fill: none; stroke: #b0b0b0; stroke-width: 0.5; stroke-linecap: square"/>
     </g>
     <g id="line2d_137">
      <g>
       <use xlink:href="#m80ed5778ae" x="74.708951" y="185.946343" style="stroke: #000000; stroke-width: 0.5"/>
      </g>
     </g>
     <g id="line2d_138">
      <g>
       <use xlink:href="#m80ed5778ae" x="570.34952" y="185.946343" style="stroke: #000000; stroke-width: 0.5"/>
      </g>
     </g>
    </g>
    <g id="ytick_19">
     <g id="line2d_139">
      <path d="M 74.708951 163.693779 
L 570.34952 163.693779 
" clip-path="url(#pcb4adad4b7)" style="fill: none; stroke: #b0b0b0; stroke-width: 0.5; stroke-linecap: square"/>
     </g>
     <g id="line2d_140">
      <g>
       <use xlink:href="#m80ed5778ae" x="74.708951" y="163.693779" style="stroke: #000000; stroke-width: 0.5"/>
      </g>
     </g>
     <g id="line2d_141">
      <g>
       <use xlink:href="#m80ed5778ae" x="570.34952" y="163.693779" style="stroke: #000000; stroke-width: 0.5"/>
      </g>
     </g>
    </g>
    <g id="ytick_20">
     <g id="line2d_142">
      <path d="M 74.708951 119.188652 
L 570.34952 119.188652 
" clip-path="url(#pcb4adad4b7)" style="fill: none; stroke: #b0b0b0; stroke-width: 0.5; stroke-linecap: square"/>
     </g>
     <g id="line2d_143">
      <g>
       <use xlink:href="#m80ed5778ae" x="74.708951" y="119.188652" style="stroke: #000000; stroke-width: 0.5"/>
      </g>
     </g>
     <g id="line2d_144">
      <g>
       <use xlink:href="#m80ed5778ae" x="570.34952" y="119.188652" style="stroke: #000000; stroke-width: 0.5"/>
      </g>
     </g>
    </g>
    <g id="ytick_21">
     <g id="line2d_145">
      <path d="M 74.708951 96.936089 
L 570.34952 96.936089 
" clip-path="url(#pcb4adad4b7)" style="fill: none; stroke: #b0b0b0; stroke-width: 0.5; stroke-linecap: square"/>
     </g>
     <g id="line2d_146">
      <g>
       <use xlink:href="#m80ed5778ae" x="74.708951" y="96.936089" style="stroke: #000000; stroke-width: 0.5"/>
      </g>
     </g>
     <g id="line2d_147">
      <g>
       <use xlink:href="#m80ed5778ae" x="570.34952" y="96.936089" style="stroke: #000000; stroke-width: 0.5"/>
      </g>
     </g>
    </g>
    <g id="ytick_22">
     <g id="line2d_148">
      <path d="M 74.708951 74.683526 
L 570.34952 74.683526 
" clip-path="url(#pcb4adad4b7)" style="fill: none; stroke: #b0b0b0; stroke-width: 0.5; stroke-linecap: square"/>
     </g>
     <g id="line2d_149">
      <g>
       <use xlink:href="#m80ed5778ae" x="74.708951" y="74.683526" style="stroke: #000000; stroke-width: 0.5"/>
      </g>
     </g>
     <g id="line2d_150">
      <g>
       <use xlink:href="#m80ed5778ae" x="570.34952" y="74.683526" style="stroke: #000000; stroke-width: 0.5"/>
      </g>
     </g>
    </g>
    <g id="ytick_23">
     <g id="line2d_151">
      <path d="M 74.708951 52.430962 
L 570.34952 52.430962 
" clip-path="url(#pcb4adad4b7)" style="fill: none; stroke: #b0b0b0; stroke-width: 0.5; stroke-linecap: square"/>
     </g>
     <g id="line2d_152">
      <g>
       <use xlink:href="#m80ed5778ae" x="74.708951" y="52.430962" style="stroke: #000000; stroke-width: 0.5"/>
      </g>
     </g>
     <g id="line2d_153">
      <g>
       <use xlink:href="#m80ed5778ae" x="570.34952" y="52.430962" style="stroke: #000000; stroke-width: 0.5"/>
      </g>
     </g>
    </g>
    <g id="ytick_24">
     <g id="line2d_154">
      <path d="M 74.708951 7.925835 
L 570.34952 7.925835 
" clip-path="url(#pcb4adad4b7)" style="fill: none; stroke: #b0b0b0; stroke-width: 0.5; stroke-linecap: square"/>
     </g>
     <g id="line2d_155">
      <g>
       <use xlink:href="#m80ed5778ae" x="74.708951" y="7.925835" style="stroke: #000000; stroke-width: 0.5"/>
      </g>
     </g>
     <g id="line2d_156">
      <g>
       <use xlink:href="#m80ed5778ae" x="570.34952" y="7.925835" style="stroke: #000000; stroke-width: 0.5"/>
      </g>
     </g>
    </g>
    <g id="text_13">
     <!-- $y$ -->
     <g transform="translate(22.512811 269.655084) rotate(-90) scale(0.28 -0.28)">
      <defs>
       <path id="NimbusRomNo9L-ReguItal-79" d="M 96 2553 
C 179 2572 224 2579 294 2579 
C 659 2579 755 2419 1050 1318 
C 1158 902 1312 153 1312 44 
C 1312 -58 1274 -161 1178 -276 
C 979 -538 851 -705 781 -782 
C 646 -922 570 -974 486 -974 
C 448 -974 403 -954 333 -903 
C 237 -826 166 -794 96 -794 
C -45 -794 -154 -903 -154 -1044 
C -154 -1204 -13 -1326 173 -1326 
C 582 -1326 1421 -365 2112 902 
C 2547 1689 2726 2150 2726 2463 
C 2726 2655 2566 2816 2374 2816 
C 2227 2816 2125 2719 2125 2579 
C 2125 2483 2176 2412 2304 2329 
C 2426 2259 2470 2201 2470 2111 
C 2470 1855 2234 1356 1690 454 
L 1562 1196 
C 1466 1759 1107 2816 1011 2816 
L 986 2816 
C 979 2809 954 2809 928 2809 
C 870 2803 640 2764 301 2700 
C 269 2694 186 2675 96 2662 
L 96 2553 
z
" transform="scale(0.015625)"/>
      </defs>
      <use xlink:href="#NimbusRomNo9L-ReguItal-79" transform="scale(0.996264)"/>
     </g>
    </g>
   </g>
   <g id="line2d_157">
    <path d="M 97.238067 475.229667 
L 210.807106 475.136444 
L 211.575263 474.82974 
L 212.178815 474.337487 
L 212.809801 473.505928 
L 213.456411 472.24817 
L 214.1548 470.357219 
L 214.898246 467.66043 
L 215.709278 463.832796 
L 216.587896 458.559375 
L 217.556629 451.30475 
L 218.615477 441.580974 
L 219.764439 428.881709 
L 221.048573 412.089865 
L 222.490408 390.158464 
L 224.157529 361.224395 
L 226.230167 321.107667 
L 230.127627 240.166236 
L 232.78601 187.502059 
L 234.610832 155.563556 
L 236.097724 133.205902 
L 237.381858 117.055826 
L 238.508291 105.551492 
L 239.477024 97.762716 
L 240.333114 92.546651 
L 241.07656 89.298744 
L 241.684834 87.525871 
L 242.202993 86.637594 
L 242.608509 86.336303 
L 242.912646 86.341532 
L 243.292818 86.61226 
L 243.70115 87.217115 
L 244.19678 88.387737 
L 244.805054 90.458921 
L 245.525972 93.774078 
L 246.382061 98.837207 
L 247.395851 106.252392 
L 248.634928 117.08228 
L 250.211935 132.970876 
L 253.163191 165.528763 
L 255.393529 188.891317 
L 256.857892 202.019893 
L 258.029383 210.655376 
L 258.998116 216.284241 
L 259.809148 219.819802 
L 260.485008 221.886882 
L 261.048225 222.970519 
L 261.498798 223.406878 
L 261.839544 223.473731 
L 262.219716 223.27434 
L 262.613967 222.781363 
L 263.087069 221.787028 
L 263.650286 220.025247 
L 264.303618 217.197414 
L 265.069592 212.821849 
L 265.94821 206.427947 
L 266.962001 197.30409 
L 268.133491 184.597778 
L 269.485211 167.38603 
L 271.129804 143.45501 
L 273.427729 106.445788 
L 277.865876 34.540064 
L 278.161891 30.178399 
L 278.161891 363.96685 
L 278.252006 360.949888 
L 279.108095 337.824247 
L 280.459815 306.997066 
L 281.834064 280.475175 
L 283.118198 259.823975 
L 284.26716 244.731216 
L 285.303479 233.867588 
L 286.227155 226.369064 
L 287.038187 221.455546 
L 287.736576 218.446908 
L 288.34485 216.721976 
L 288.84048 215.914003 
L 289.245996 215.639774 
L 289.527605 215.655863 
L 289.907776 215.92725 
L 290.345677 216.577631 
L 290.863836 217.80642 
L 291.494639 219.93794 
L 292.260614 223.390715 
L 293.184289 228.675192 
L 294.310723 236.506411 
L 295.775086 248.367057 
L 298.906571 276.181285 
L 300.753922 291.312993 
L 302.038056 300.132758 
L 303.074375 305.833636 
L 303.930464 309.409453 
L 304.651382 311.536017 
L 305.237127 312.625827 
L 305.687701 313.056956 
L 306.050975 313.134942 
L 306.450155 312.930463 
L 306.877848 312.397678 
L 307.352358 311.403139 
L 307.915575 309.662216 
L 308.568906 306.875401 
L 309.334881 302.55898 
L 310.213499 296.229417 
L 311.20476 287.369881 
L 312.331194 275.205597 
L 313.637857 258.545856 
L 315.192335 235.679651 
L 317.152329 203.32923 
L 324.136217 84.885366 
L 325.645637 64.624217 
L 326.929772 50.237774 
L 328.033676 40.248712 
L 328.97988 33.571395 
L 329.599838 30.178399 
L 329.599838 363.96685 
L 329.689952 361.832132 
L 330.320755 350.787616 
L 331.221902 338.753251 
L 332.123048 329.552791 
L 332.956609 323.17355 
L 333.700055 319.051795 
L 334.353387 316.563008 
L 334.916603 315.215825 
L 335.367177 314.64092 
L 335.744532 314.487841 
L 336.124703 314.632899 
L 336.527403 315.073517 
L 337.000505 315.960992 
L 337.586251 317.580041 
L 338.307168 320.28781 
L 339.185786 324.514034 
L 340.289691 330.985317 
L 341.821641 341.412398 
L 345.831744 369.330859 
L 347.025763 375.828761 
L 347.971967 379.855456 
L 348.760471 382.308803 
L 349.391273 383.614047 
L 349.886904 384.19998 
L 350.281156 384.376502 
L 350.635982 384.293072 
L 351.035162 383.951874 
L 351.48996 383.220398 
L 352.008119 381.92704 
L 352.616393 379.771225 
L 353.314782 376.435972 
L 354.125814 371.40273 
L 355.049489 364.162134 
L 356.085808 354.173082 
L 357.257299 340.62373 
L 358.609019 322.272502 
L 360.208555 297.350211 
L 362.258663 261.660574 
L 368.972207 141.889996 
L 370.549214 119.155747 
L 371.878405 103.038079 
L 373.027367 91.675116 
L 374.018629 83.942421 
L 374.874718 78.877478 
L 375.618164 75.719111 
L 376.226438 73.998944 
L 376.722069 73.171352 
L 377.127585 72.875103 
L 377.431722 72.883344 
L 377.811893 73.158229 
L 378.234306 73.795772 
L 378.729937 74.993335 
L 379.338211 77.10921 
L 380.059128 80.501058 
L 380.915218 85.699891 
L 381.906479 93.169149 
L 383.100498 103.961312 
L 384.587391 119.575465 
L 386.750143 144.936181 
L 390.332201 186.916928 
L 391.886679 202.446622 
L 393.125756 212.741974 
L 394.162075 219.618391 
L 395.040693 224.055921 
L 395.76161 226.669795 
L 396.369885 228.120775 
L 396.865515 228.777469 
L 397.237238 228.95446 
L 397.516031 228.898798 
L 397.896202 228.581336 
L 398.332695 227.868673 
L 398.850854 226.527609 
L 399.459128 224.269804 
L 400.180046 220.648648 
L 401.013606 215.212121 
L 401.959811 207.480495 
L 403.063715 196.497399 
L 404.347849 181.332069 
L 405.879799 160.431015 
L 407.884851 129.784599 
L 413.742304 38.321853 
L 414.350711 30.178399 
L 414.350711 363.96685 
L 414.440826 361.092607 
L 415.251858 340.453279 
L 416.513463 313.745418 
L 417.797597 291.092613 
L 418.991617 273.8034 
L 420.072993 261.221481 
L 421.041726 252.401724 
L 421.897815 246.502283 
L 422.641261 242.787218 
L 423.294593 240.572 
L 423.835281 239.457812 
L 424.263325 239.022946 
L 424.550566 238.947883 
L 424.89272 239.087501 
L 425.286972 239.52398 
L 425.737545 240.38432 
L 426.300762 241.980301 
L 426.976622 244.609247 
L 427.810183 248.826521 
L 428.801444 255.061162 
L 430.040521 264.350948 
L 431.775228 279.204396 
L 435.785332 314.065838 
L 437.610154 327.400192 
L 439.592677 340.258149 
L 441.665314 352.262037 
L 443.828066 363.502314 
L 446.080933 374.042262 
L 448.401386 383.839802 
L 450.766896 392.878172 
L 453.199993 401.308486 
L 455.678146 409.10687 
L 458.223886 416.39133 
L 460.814683 423.138151 
L 463.450537 429.391525 
L 466.153977 435.236938 
L 468.902475 440.654415 
L 471.69603 445.676223 
L 474.557171 450.36674 
L 477.485898 454.743047 
L 480.482211 458.821486 
L 483.54611 462.617718 
L 486.677595 466.146765 
L 489.899195 469.445022 
L 493.233438 472.540087 
L 496.657795 475.416386 
L 500.217325 478.115281 
L 503.912027 480.636114 
L 507.741901 482.979886 
L 511.752004 485.172299 
L 515.942336 487.209217 
L 520.357955 489.10698 
L 525.02139 490.866989 
L 529.955169 492.489341 
L 535.204348 493.979285 
L 540.813987 495.338203 
L 546.840406 496.566827 
L 547.820403 496.746376 
L 547.820403 496.746376 
" clip-path="url(#pcb4adad4b7)" style="fill: none; stroke: #3f90da; stroke-width: 2; stroke-linecap: square"/>
   </g>
   <g id="patch_3">
    <path d="M 74.708951 520.074775 
L 74.708951 6.85 
" style="fill: none; stroke: #000000; stroke-width: 0.5; stroke-linejoin: miter; stroke-linecap: square"/>
   </g>
   <g id="patch_4">
    <path d="M 570.34952 520.074775 
L 570.34952 6.85 
" style="fill: none; stroke: #000000; stroke-width: 0.5; stroke-linejoin: miter; stroke-linecap: square"/>
   </g>
   <g id="patch_5">
    <path d="M 74.708951 520.074775 
L 570.34952 520.074775 
" style="fill: none; stroke: #000000; stroke-width: 0.5; stroke-linejoin: miter; stroke-linecap: square"/>
   </g>
   <g id="patch_6">
    <path d="M 74.708951 6.85 
L 570.34952 6.85 
" style="fill: none; stroke: #000000; stroke-width: 0.5; stroke-linejoin: miter; stroke-linecap: square"/>
   </g>
  </g>
 </g>
 <defs>
  <clipPath id="pcb4adad4b7">
   <rect x="74.708951" y="6.85" width="495.640569" height="513.224775"/>
  </clipPath>
 </defs>
</svg>
