<?xml version="1.0" encoding="utf-8" standalone="no"?>
<!DOCTYPE svg PUBLIC "-//W3C//DTD SVG 1.1//EN"
  "http://www.w3.org/Graphics/SVG/1.1/DTD/svg11.dtd">
<svg xmlns:xlink="http://www.w3.org/1999/xlink" width="570.69952pt" height="570.69952pt" viewBox="0 0 570.69952 570.69952" xmlns="http://www.w3.org/2000/svg" version="1.1">
 <metadata>
  <rdf:RDF xmlns:dc="http://purl.org/dc/elements/1.1/" xmlns:cc="http://creativecommons.org/ns#" xmlns:rdf="http://www.w3.org/1999/02/22-rdf-syntax-ns#">
   <cc:Work>
    <dc:type rdf:resource="http://purl.org/dc/dcmitype/StillImage"/>
    <dc:date>2024-12-27T11:48:04.697335</dc:date>
    <dc:format>image/svg+xml</dc:format>
    <dc:creator>
     <cc:Agent>
      <dc:title>Matplotlib v3.10.0, https://matplotlib.org/</dc:title>
     </cc:Agent>
    </dc:creator>
   </cc:Work>
  </rdf:RDF>
 </metadata>
 <defs>
  <style type="text/css">*{stroke-linejoin: round; stroke-linecap: butt}</style>
 </defs>
 <g id="figure_1">
  <g id="patch_1">
   <path d="M 0 570.69952 
L 570.69952 570.69952 
L 570.69952 0 
L 0 0 
z
" style="fill: #ffffff"/>
  </g>
  <g id="axes_1">
   <g id="patch_2">
    <path d="M 77.958951 510.324775 
L 567.09952 510.324775 
L 567.09952 3.6 
L 77.958951 3.6 
z
" style="fill: #ffffff"/>
   </g>
   <g id="matplotlib.axis_1">
    <g id="xtick_1">
     <g id="line2d_1">
      <path d="M 100.192613 510.324775 
L 100.192613 3.6 
" clip-path="url(#pa1b35c8b82)" style="fill: none; stroke: #b0b0b0; stroke-width: 0.5; stroke-linecap: square"/>
     </g>
     <g id="line2d_2">
      <defs>
       <path id="mc79837725b" d="M 0 0 
L 0 6.5 
" style="stroke: #000000; stroke-width: 1.5"/>
      </defs>
      <g>
       <use xlink:href="#mc79837725b" x="100.192613" y="510.324775" style="stroke: #000000; stroke-width: 1.5"/>
      </g>
     </g>
     <g id="line2d_3">
      <defs>
       <path id="m1b3ed09b6f" d="M 0 0 
L 0 -6.5 
" style="stroke: #000000; stroke-width: 1.5"/>
      </defs>
      <g>
       <use xlink:href="#m1b3ed09b6f" x="100.192613" y="3.6" style="stroke: #000000; stroke-width: 1.5"/>
      </g>
     </g>
     <g id="text_1">
      <!-- $\mathdefault{0}$ -->
      <g transform="translate(95.211293 533.83393) scale(0.2 -0.2)">
       <defs>
        <path id="NimbusRomNo9L-Regu-30" d="M 1626 4352 
C 1274 4352 1005 4243 768 4019 
C 397 3661 154 2924 154 2176 
C 154 1478 365 729 666 371 
C 902 89 1229 -64 1600 -64 
C 1926 -64 2202 44 2432 268 
C 2803 620 3046 1363 3046 2137 
C 3046 3449 2464 4352 1626 4352 
z
M 1606 4185 
C 2144 4185 2432 3462 2432 2124 
C 2432 787 2150 102 1600 102 
C 1050 102 768 787 768 2118 
C 768 3475 1056 4185 1606 4185 
z
" transform="scale(0.015625)"/>
       </defs>
       <use xlink:href="#NimbusRomNo9L-Regu-30" transform="scale(0.996264)"/>
      </g>
     </g>
    </g>
    <g id="xtick_2">
     <g id="line2d_4">
      <path d="M 198.834265 510.324775 
L 198.834265 3.6 
" clip-path="url(#pa1b35c8b82)" style="fill: none; stroke: #b0b0b0; stroke-width: 0.5; stroke-linecap: square"/>
     </g>
     <g id="line2d_5">
      <g>
       <use xlink:href="#mc79837725b" x="198.834265" y="510.324775" style="stroke: #000000; stroke-width: 1.5"/>
      </g>
     </g>
     <g id="line2d_6">
      <g>
       <use xlink:href="#m1b3ed09b6f" x="198.834265" y="3.6" style="stroke: #000000; stroke-width: 1.5"/>
      </g>
     </g>
     <g id="text_2">
      <!-- $\mathdefault{500}$ -->
      <g transform="translate(183.890305 533.83393) scale(0.2 -0.2)">
       <defs>
        <path id="NimbusRomNo9L-Regu-35" d="M 1158 3718 
L 2413 3718 
C 2515 3718 2541 3731 2560 3775 
L 2803 4345 
L 2746 4390 
C 2650 4256 2586 4224 2451 4224 
L 1114 4224 
L 416 2717 
C 410 2705 410 2698 410 2686 
C 410 2654 435 2635 486 2635 
C 691 2635 947 2591 1210 2508 
C 1946 2274 2285 1882 2285 1255 
C 2285 647 1894 172 1395 172 
C 1267 172 1158 217 966 356 
C 762 502 614 565 480 565 
C 294 565 205 489 205 331 
C 205 89 506 -64 986 -64 
C 1523 -64 1984 108 2304 432 
C 2598 717 2733 1078 2733 1559 
C 2733 2015 2611 2306 2291 2622 
C 2010 2901 1645 3047 890 3180 
L 1158 3718 
z
" transform="scale(0.015625)"/>
       </defs>
       <use xlink:href="#NimbusRomNo9L-Regu-35" transform="scale(0.996264)"/>
       <use xlink:href="#NimbusRomNo9L-Regu-30" transform="translate(49.8132 0) scale(0.996264)"/>
       <use xlink:href="#NimbusRomNo9L-Regu-30" transform="translate(99.626401 0) scale(0.996264)"/>
      </g>
     </g>
    </g>
    <g id="xtick_3">
     <g id="line2d_7">
      <path d="M 297.475917 510.324775 
L 297.475917 3.6 
" clip-path="url(#pa1b35c8b82)" style="fill: none; stroke: #b0b0b0; stroke-width: 0.5; stroke-linecap: square"/>
     </g>
     <g id="line2d_8">
      <g>
       <use xlink:href="#mc79837725b" x="297.475917" y="510.324775" style="stroke: #000000; stroke-width: 1.5"/>
      </g>
     </g>
     <g id="line2d_9">
      <g>
       <use xlink:href="#m1b3ed09b6f" x="297.475917" y="3.6" style="stroke: #000000; stroke-width: 1.5"/>
      </g>
     </g>
     <g id="text_3">
      <!-- $\mathdefault{1000}$ -->
      <g transform="translate(277.550637 533.83393) scale(0.2 -0.2)">
       <defs>
        <path id="NimbusRomNo9L-Regu-31" d="M 1862 4352 
L 710 3776 
L 710 3686 
C 787 3718 858 3743 883 3756 
C 998 3801 1107 3826 1171 3826 
C 1306 3826 1363 3731 1363 3525 
L 1363 599 
C 1363 386 1312 238 1210 179 
C 1114 121 1024 102 755 96 
L 755 0 
L 2522 0 
L 2522 96 
C 2016 102 1914 167 1914 477 
L 1914 4339 
L 1862 4352 
z
" transform="scale(0.015625)"/>
       </defs>
       <use xlink:href="#NimbusRomNo9L-Regu-31" transform="scale(0.996264)"/>
       <use xlink:href="#NimbusRomNo9L-Regu-30" transform="translate(49.8132 0) scale(0.996264)"/>
       <use xlink:href="#NimbusRomNo9L-Regu-30" transform="translate(99.626401 0) scale(0.996264)"/>
       <use xlink:href="#NimbusRomNo9L-Regu-30" transform="translate(149.439601 0) scale(0.996264)"/>
      </g>
     </g>
    </g>
    <g id="xtick_4">
     <g id="line2d_10">
      <path d="M 396.117569 510.324775 
L 396.117569 3.6 
" clip-path="url(#pa1b35c8b82)" style="fill: none; stroke: #b0b0b0; stroke-width: 0.5; stroke-linecap: square"/>
     </g>
     <g id="line2d_11">
      <g>
       <use xlink:href="#mc79837725b" x="396.117569" y="510.324775" style="stroke: #000000; stroke-width: 1.5"/>
      </g>
     </g>
     <g id="line2d_12">
      <g>
       <use xlink:href="#m1b3ed09b6f" x="396.117569" y="3.6" style="stroke: #000000; stroke-width: 1.5"/>
      </g>
     </g>
     <g id="text_4">
      <!-- $\mathdefault{1500}$ -->
      <g transform="translate(376.192289 533.83393) scale(0.2 -0.2)">
       <use xlink:href="#NimbusRomNo9L-Regu-31" transform="scale(0.996264)"/>
       <use xlink:href="#NimbusRomNo9L-Regu-35" transform="translate(49.8132 0) scale(0.996264)"/>
       <use xlink:href="#NimbusRomNo9L-Regu-30" transform="translate(99.626401 0) scale(0.996264)"/>
       <use xlink:href="#NimbusRomNo9L-Regu-30" transform="translate(149.439601 0) scale(0.996264)"/>
      </g>
     </g>
    </g>
    <g id="xtick_5">
     <g id="line2d_13">
      <path d="M 494.759221 510.324775 
L 494.759221 3.6 
" clip-path="url(#pa1b35c8b82)" style="fill: none; stroke: #b0b0b0; stroke-width: 0.5; stroke-linecap: square"/>
     </g>
     <g id="line2d_14">
      <g>
       <use xlink:href="#mc79837725b" x="494.759221" y="510.324775" style="stroke: #000000; stroke-width: 1.5"/>
      </g>
     </g>
     <g id="line2d_15">
      <g>
       <use xlink:href="#m1b3ed09b6f" x="494.759221" y="3.6" style="stroke: #000000; stroke-width: 1.5"/>
      </g>
     </g>
     <g id="text_5">
      <!-- $\mathdefault{2000}$ -->
      <g transform="translate(474.83394 533.83393) scale(0.2 -0.2)">
       <defs>
        <path id="NimbusRomNo9L-Regu-32" d="M 3040 879 
L 2957 912 
C 2720 544 2637 486 2349 486 
L 819 486 
L 1894 1621 
C 2464 2221 2714 2711 2714 3214 
C 2714 3858 2195 4352 1530 4352 
C 1178 4352 845 4211 608 3955 
C 403 3736 307 3530 198 3072 
L 333 3039 
C 589 3671 819 3878 1261 3878 
C 1798 3878 2163 3510 2163 2969 
C 2163 2466 1869 1866 1331 1292 
L 192 76 
L 192 0 
L 2688 0 
L 3040 879 
z
" transform="scale(0.015625)"/>
       </defs>
       <use xlink:href="#NimbusRomNo9L-Regu-32" transform="scale(0.996264)"/>
       <use xlink:href="#NimbusRomNo9L-Regu-30" transform="translate(49.8132 0) scale(0.996264)"/>
       <use xlink:href="#NimbusRomNo9L-Regu-30" transform="translate(99.626401 0) scale(0.996264)"/>
       <use xlink:href="#NimbusRomNo9L-Regu-30" transform="translate(149.439601 0) scale(0.996264)"/>
      </g>
     </g>
    </g>
    <g id="xtick_6">
     <g id="line2d_16">
      <path d="M 80.464282 510.324775 
L 80.464282 3.6 
" clip-path="url(#pa1b35c8b82)" style="fill: none; stroke: #b0b0b0; stroke-width: 0.5; stroke-linecap: square"/>
     </g>
     <g id="line2d_17">
      <defs>
       <path id="m51103700cc" d="M 0 0 
L 0 4 
" style="stroke: #000000; stroke-width: 0.5"/>
      </defs>
      <g>
       <use xlink:href="#m51103700cc" x="80.464282" y="510.324775" style="stroke: #000000; stroke-width: 0.5"/>
      </g>
     </g>
     <g id="line2d_18">
      <defs>
       <path id="mc4edcc5894" d="M 0 0 
L 0 -4 
" style="stroke: #000000; stroke-width: 0.5"/>
      </defs>
      <g>
       <use xlink:href="#mc4edcc5894" x="80.464282" y="3.6" style="stroke: #000000; stroke-width: 0.5"/>
      </g>
     </g>
    </g>
    <g id="xtick_7">
     <g id="line2d_19">
      <path d="M 119.920943 510.324775 
L 119.920943 3.6 
" clip-path="url(#pa1b35c8b82)" style="fill: none; stroke: #b0b0b0; stroke-width: 0.5; stroke-linecap: square"/>
     </g>
     <g id="line2d_20">
      <g>
       <use xlink:href="#m51103700cc" x="119.920943" y="510.324775" style="stroke: #000000; stroke-width: 0.5"/>
      </g>
     </g>
     <g id="line2d_21">
      <g>
       <use xlink:href="#mc4edcc5894" x="119.920943" y="3.6" style="stroke: #000000; stroke-width: 0.5"/>
      </g>
     </g>
    </g>
    <g id="xtick_8">
     <g id="line2d_22">
      <path d="M 139.649274 510.324775 
L 139.649274 3.6 
" clip-path="url(#pa1b35c8b82)" style="fill: none; stroke: #b0b0b0; stroke-width: 0.5; stroke-linecap: square"/>
     </g>
     <g id="line2d_23">
      <g>
       <use xlink:href="#m51103700cc" x="139.649274" y="510.324775" style="stroke: #000000; stroke-width: 0.5"/>
      </g>
     </g>
     <g id="line2d_24">
      <g>
       <use xlink:href="#mc4edcc5894" x="139.649274" y="3.6" style="stroke: #000000; stroke-width: 0.5"/>
      </g>
     </g>
    </g>
    <g id="xtick_9">
     <g id="line2d_25">
      <path d="M 159.377604 510.324775 
L 159.377604 3.6 
" clip-path="url(#pa1b35c8b82)" style="fill: none; stroke: #b0b0b0; stroke-width: 0.5; stroke-linecap: square"/>
     </g>
     <g id="line2d_26">
      <g>
       <use xlink:href="#m51103700cc" x="159.377604" y="510.324775" style="stroke: #000000; stroke-width: 0.5"/>
      </g>
     </g>
     <g id="line2d_27">
      <g>
       <use xlink:href="#mc4edcc5894" x="159.377604" y="3.6" style="stroke: #000000; stroke-width: 0.5"/>
      </g>
     </g>
    </g>
    <g id="xtick_10">
     <g id="line2d_28">
      <path d="M 179.105934 510.324775 
L 179.105934 3.6 
" clip-path="url(#pa1b35c8b82)" style="fill: none; stroke: #b0b0b0; stroke-width: 0.5; stroke-linecap: square"/>
     </g>
     <g id="line2d_29">
      <g>
       <use xlink:href="#m51103700cc" x="179.105934" y="510.324775" style="stroke: #000000; stroke-width: 0.5"/>
      </g>
     </g>
     <g id="line2d_30">
      <g>
       <use xlink:href="#mc4edcc5894" x="179.105934" y="3.6" style="stroke: #000000; stroke-width: 0.5"/>
      </g>
     </g>
    </g>
    <g id="xtick_11">
     <g id="line2d_31">
      <path d="M 218.562595 510.324775 
L 218.562595 3.6 
" clip-path="url(#pa1b35c8b82)" style="fill: none; stroke: #b0b0b0; stroke-width: 0.5; stroke-linecap: square"/>
     </g>
     <g id="line2d_32">
      <g>
       <use xlink:href="#m51103700cc" x="218.562595" y="510.324775" style="stroke: #000000; stroke-width: 0.5"/>
      </g>
     </g>
     <g id="line2d_33">
      <g>
       <use xlink:href="#mc4edcc5894" x="218.562595" y="3.6" style="stroke: #000000; stroke-width: 0.5"/>
      </g>
     </g>
    </g>
    <g id="xtick_12">
     <g id="line2d_34">
      <path d="M 238.290926 510.324775 
L 238.290926 3.6 
" clip-path="url(#pa1b35c8b82)" style="fill: none; stroke: #b0b0b0; stroke-width: 0.5; stroke-linecap: square"/>
     </g>
     <g id="line2d_35">
      <g>
       <use xlink:href="#m51103700cc" x="238.290926" y="510.324775" style="stroke: #000000; stroke-width: 0.5"/>
      </g>
     </g>
     <g id="line2d_36">
      <g>
       <use xlink:href="#mc4edcc5894" x="238.290926" y="3.6" style="stroke: #000000; stroke-width: 0.5"/>
      </g>
     </g>
    </g>
    <g id="xtick_13">
     <g id="line2d_37">
      <path d="M 258.019256 510.324775 
L 258.019256 3.6 
" clip-path="url(#pa1b35c8b82)" style="fill: none; stroke: #b0b0b0; stroke-width: 0.5; stroke-linecap: square"/>
     </g>
     <g id="line2d_38">
      <g>
       <use xlink:href="#m51103700cc" x="258.019256" y="510.324775" style="stroke: #000000; stroke-width: 0.5"/>
      </g>
     </g>
     <g id="line2d_39">
      <g>
       <use xlink:href="#mc4edcc5894" x="258.019256" y="3.6" style="stroke: #000000; stroke-width: 0.5"/>
      </g>
     </g>
    </g>
    <g id="xtick_14">
     <g id="line2d_40">
      <path d="M 277.747586 510.324775 
L 277.747586 3.6 
" clip-path="url(#pa1b35c8b82)" style="fill: none; stroke: #b0b0b0; stroke-width: 0.5; stroke-linecap: square"/>
     </g>
     <g id="line2d_41">
      <g>
       <use xlink:href="#m51103700cc" x="277.747586" y="510.324775" style="stroke: #000000; stroke-width: 0.5"/>
      </g>
     </g>
     <g id="line2d_42">
      <g>
       <use xlink:href="#mc4edcc5894" x="277.747586" y="3.6" style="stroke: #000000; stroke-width: 0.5"/>
      </g>
     </g>
    </g>
    <g id="xtick_15">
     <g id="line2d_43">
      <path d="M 317.204247 510.324775 
L 317.204247 3.6 
" clip-path="url(#pa1b35c8b82)" style="fill: none; stroke: #b0b0b0; stroke-width: 0.5; stroke-linecap: square"/>
     </g>
     <g id="line2d_44">
      <g>
       <use xlink:href="#m51103700cc" x="317.204247" y="510.324775" style="stroke: #000000; stroke-width: 0.5"/>
      </g>
     </g>
     <g id="line2d_45">
      <g>
       <use xlink:href="#mc4edcc5894" x="317.204247" y="3.6" style="stroke: #000000; stroke-width: 0.5"/>
      </g>
     </g>
    </g>
    <g id="xtick_16">
     <g id="line2d_46">
      <path d="M 336.932578 510.324775 
L 336.932578 3.6 
" clip-path="url(#pa1b35c8b82)" style="fill: none; stroke: #b0b0b0; stroke-width: 0.5; stroke-linecap: square"/>
     </g>
     <g id="line2d_47">
      <g>
       <use xlink:href="#m51103700cc" x="336.932578" y="510.324775" style="stroke: #000000; stroke-width: 0.5"/>
      </g>
     </g>
     <g id="line2d_48">
      <g>
       <use xlink:href="#mc4edcc5894" x="336.932578" y="3.6" style="stroke: #000000; stroke-width: 0.5"/>
      </g>
     </g>
    </g>
    <g id="xtick_17">
     <g id="line2d_49">
      <path d="M 356.660908 510.324775 
L 356.660908 3.6 
" clip-path="url(#pa1b35c8b82)" style="fill: none; stroke: #b0b0b0; stroke-width: 0.5; stroke-linecap: square"/>
     </g>
     <g id="line2d_50">
      <g>
       <use xlink:href="#m51103700cc" x="356.660908" y="510.324775" style="stroke: #000000; stroke-width: 0.5"/>
      </g>
     </g>
     <g id="line2d_51">
      <g>
       <use xlink:href="#mc4edcc5894" x="356.660908" y="3.6" style="stroke: #000000; stroke-width: 0.5"/>
      </g>
     </g>
    </g>
    <g id="xtick_18">
     <g id="line2d_52">
      <path d="M 376.389238 510.324775 
L 376.389238 3.6 
" clip-path="url(#pa1b35c8b82)" style="fill: none; stroke: #b0b0b0; stroke-width: 0.5; stroke-linecap: square"/>
     </g>
     <g id="line2d_53">
      <g>
       <use xlink:href="#m51103700cc" x="376.389238" y="510.324775" style="stroke: #000000; stroke-width: 0.5"/>
      </g>
     </g>
     <g id="line2d_54">
      <g>
       <use xlink:href="#mc4edcc5894" x="376.389238" y="3.6" style="stroke: #000000; stroke-width: 0.5"/>
      </g>
     </g>
    </g>
    <g id="xtick_19">
     <g id="line2d_55">
      <path d="M 415.845899 510.324775 
L 415.845899 3.6 
" clip-path="url(#pa1b35c8b82)" style="fill: none; stroke: #b0b0b0; stroke-width: 0.5; stroke-linecap: square"/>
     </g>
     <g id="line2d_56">
      <g>
       <use xlink:href="#m51103700cc" x="415.845899" y="510.324775" style="stroke: #000000; stroke-width: 0.5"/>
      </g>
     </g>
     <g id="line2d_57">
      <g>
       <use xlink:href="#mc4edcc5894" x="415.845899" y="3.6" style="stroke: #000000; stroke-width: 0.5"/>
      </g>
     </g>
    </g>
    <g id="xtick_20">
     <g id="line2d_58">
      <path d="M 435.57423 510.324775 
L 435.57423 3.6 
" clip-path="url(#pa1b35c8b82)" style="fill: none; stroke: #b0b0b0; stroke-width: 0.5; stroke-linecap: square"/>
     </g>
     <g id="line2d_59">
      <g>
       <use xlink:href="#m51103700cc" x="435.57423" y="510.324775" style="stroke: #000000; stroke-width: 0.5"/>
      </g>
     </g>
     <g id="line2d_60">
      <g>
       <use xlink:href="#mc4edcc5894" x="435.57423" y="3.6" style="stroke: #000000; stroke-width: 0.5"/>
      </g>
     </g>
    </g>
    <g id="xtick_21">
     <g id="line2d_61">
      <path d="M 455.30256 510.324775 
L 455.30256 3.6 
" clip-path="url(#pa1b35c8b82)" style="fill: none; stroke: #b0b0b0; stroke-width: 0.5; stroke-linecap: square"/>
     </g>
     <g id="line2d_62">
      <g>
       <use xlink:href="#m51103700cc" x="455.30256" y="510.324775" style="stroke: #000000; stroke-width: 0.5"/>
      </g>
     </g>
     <g id="line2d_63">
      <g>
       <use xlink:href="#mc4edcc5894" x="455.30256" y="3.6" style="stroke: #000000; stroke-width: 0.5"/>
      </g>
     </g>
    </g>
    <g id="xtick_22">
     <g id="line2d_64">
      <path d="M 475.03089 510.324775 
L 475.03089 3.6 
" clip-path="url(#pa1b35c8b82)" style="fill: none; stroke: #b0b0b0; stroke-width: 0.5; stroke-linecap: square"/>
     </g>
     <g id="line2d_65">
      <g>
       <use xlink:href="#m51103700cc" x="475.03089" y="510.324775" style="stroke: #000000; stroke-width: 0.5"/>
      </g>
     </g>
     <g id="line2d_66">
      <g>
       <use xlink:href="#mc4edcc5894" x="475.03089" y="3.6" style="stroke: #000000; stroke-width: 0.5"/>
      </g>
     </g>
    </g>
    <g id="xtick_23">
     <g id="line2d_67">
      <path d="M 514.487551 510.324775 
L 514.487551 3.6 
" clip-path="url(#pa1b35c8b82)" style="fill: none; stroke: #b0b0b0; stroke-width: 0.5; stroke-linecap: square"/>
     </g>
     <g id="line2d_68">
      <g>
       <use xlink:href="#m51103700cc" x="514.487551" y="510.324775" style="stroke: #000000; stroke-width: 0.5"/>
      </g>
     </g>
     <g id="line2d_69">
      <g>
       <use xlink:href="#mc4edcc5894" x="514.487551" y="3.6" style="stroke: #000000; stroke-width: 0.5"/>
      </g>
     </g>
    </g>
    <g id="xtick_24">
     <g id="line2d_70">
      <path d="M 534.215881 510.324775 
L 534.215881 3.6 
" clip-path="url(#pa1b35c8b82)" style="fill: none; stroke: #b0b0b0; stroke-width: 0.5; stroke-linecap: square"/>
     </g>
     <g id="line2d_71">
      <g>
       <use xlink:href="#m51103700cc" x="534.215881" y="510.324775" style="stroke: #000000; stroke-width: 0.5"/>
      </g>
     </g>
     <g id="line2d_72">
      <g>
       <use xlink:href="#mc4edcc5894" x="534.215881" y="3.6" style="stroke: #000000; stroke-width: 0.5"/>
      </g>
     </g>
    </g>
    <g id="xtick_25">
     <g id="line2d_73">
      <path d="M 553.944212 510.324775 
L 553.944212 3.6 
" clip-path="url(#pa1b35c8b82)" style="fill: none; stroke: #b0b0b0; stroke-width: 0.5; stroke-linecap: square"/>
     </g>
     <g id="line2d_74">
      <g>
       <use xlink:href="#m51103700cc" x="553.944212" y="510.324775" style="stroke: #000000; stroke-width: 0.5"/>
      </g>
     </g>
     <g id="line2d_75">
      <g>
       <use xlink:href="#mc4edcc5894" x="553.944212" y="3.6" style="stroke: #000000; stroke-width: 0.5"/>
      </g>
     </g>
    </g>
    <g id="text_6">
     <!-- $t$ -->
     <g transform="translate(318.651914 561.060399) scale(0.28 -0.28)">
      <defs>
       <path id="NimbusRomNo9L-ReguItal-74" d="M 1894 2752 
L 1382 2752 
L 1562 3411 
C 1568 3424 1568 3436 1568 3443 
C 1568 3488 1549 3507 1517 3507 
C 1478 3507 1459 3500 1421 3449 
C 1171 3123 774 2803 570 2745 
C 410 2694 365 2655 365 2585 
C 365 2579 365 2566 371 2547 
L 845 2547 
L 384 782 
C 371 724 365 705 346 647 
C 288 454 237 230 237 179 
C 237 38 371 -64 544 -64 
C 838 -64 1050 115 1453 711 
L 1370 756 
C 1056 352 954 249 851 249 
C 794 249 755 300 755 377 
C 755 384 755 390 762 410 
L 1325 2547 
L 1862 2547 
L 1894 2752 
z
" transform="scale(0.015625)"/>
      </defs>
      <use xlink:href="#NimbusRomNo9L-ReguItal-74" transform="scale(0.996264)"/>
     </g>
    </g>
   </g>
   <g id="matplotlib.axis_2">
    <g id="ytick_1">
     <g id="line2d_76">
      <path d="M 77.958951 494.379393 
L 567.09952 494.379393 
" clip-path="url(#pa1b35c8b82)" style="fill: none; stroke: #b0b0b0; stroke-width: 0.5; stroke-linecap: square"/>
     </g>
     <g id="line2d_77">
      <defs>
       <path id="m33985c7bf8" d="M 0 0 
L -6.5 0 
" style="stroke: #000000; stroke-width: 1.5"/>
      </defs>
      <g>
       <use xlink:href="#m33985c7bf8" x="77.958951" y="494.379393" style="stroke: #000000; stroke-width: 1.5"/>
      </g>
     </g>
     <g id="line2d_78">
      <defs>
       <path id="m8ddfe5f6dc" d="M 0 0 
L 6.5 0 
" style="stroke: #000000; stroke-width: 1.5"/>
      </defs>
      <g>
       <use xlink:href="#m8ddfe5f6dc" x="567.09952" y="494.379393" style="stroke: #000000; stroke-width: 1.5"/>
      </g>
     </g>
     <g id="text_7">
      <!-- $\mathdefault{−75}$ -->
      <g transform="translate(32.551932 501.133971) scale(0.2 -0.2)">
       <defs>
        <path id="CMSY10-0" d="M 4218 1472 
C 4326 1472 4442 1472 4442 1600 
C 4442 1728 4326 1728 4218 1728 
L 755 1728 
C 646 1728 531 1728 531 1600 
C 531 1472 646 1472 755 1472 
L 4218 1472 
z
" transform="scale(0.015625)"/>
        <path id="NimbusRomNo9L-Regu-37" d="M 2874 4224 
L 506 4224 
L 128 3283 
L 237 3232 
C 512 3667 627 3750 979 3750 
L 2368 3750 
L 1101 -64 
L 1517 -64 
L 2874 4121 
L 2874 4224 
z
" transform="scale(0.015625)"/>
       </defs>
       <use xlink:href="#CMSY10-0" transform="scale(0.996264)"/>
       <use xlink:href="#NimbusRomNo9L-Regu-37" transform="translate(77.408707 0) scale(0.996264)"/>
       <use xlink:href="#NimbusRomNo9L-Regu-35" transform="translate(127.221908 0) scale(0.996264)"/>
      </g>
     </g>
    </g>
    <g id="ytick_2">
     <g id="line2d_79">
      <path d="M 77.958951 400.830103 
L 567.09952 400.830103 
" clip-path="url(#pa1b35c8b82)" style="fill: none; stroke: #b0b0b0; stroke-width: 0.5; stroke-linecap: square"/>
     </g>
     <g id="line2d_80">
      <g>
       <use xlink:href="#m33985c7bf8" x="77.958951" y="400.830103" style="stroke: #000000; stroke-width: 1.5"/>
      </g>
     </g>
     <g id="line2d_81">
      <g>
       <use xlink:href="#m8ddfe5f6dc" x="567.09952" y="400.830103" style="stroke: #000000; stroke-width: 1.5"/>
      </g>
     </g>
     <g id="text_8">
      <!-- $\mathdefault{−70}$ -->
      <g transform="translate(32.551932 407.584681) scale(0.2 -0.2)">
       <use xlink:href="#CMSY10-0" transform="scale(0.996264)"/>
       <use xlink:href="#NimbusRomNo9L-Regu-37" transform="translate(77.408707 0) scale(0.996264)"/>
       <use xlink:href="#NimbusRomNo9L-Regu-30" transform="translate(127.221908 0) scale(0.996264)"/>
      </g>
     </g>
    </g>
    <g id="ytick_3">
     <g id="line2d_82">
      <path d="M 77.958951 307.280814 
L 567.09952 307.280814 
" clip-path="url(#pa1b35c8b82)" style="fill: none; stroke: #b0b0b0; stroke-width: 0.5; stroke-linecap: square"/>
     </g>
     <g id="line2d_83">
      <g>
       <use xlink:href="#m33985c7bf8" x="77.958951" y="307.280814" style="stroke: #000000; stroke-width: 1.5"/>
      </g>
     </g>
     <g id="line2d_84">
      <g>
       <use xlink:href="#m8ddfe5f6dc" x="567.09952" y="307.280814" style="stroke: #000000; stroke-width: 1.5"/>
      </g>
     </g>
     <g id="text_9">
      <!-- $\mathdefault{−65}$ -->
      <g transform="translate(32.551932 314.035391) scale(0.2 -0.2)">
       <defs>
        <path id="NimbusRomNo9L-Regu-36" d="M 2854 4390 
C 2125 4326 1754 4204 1286 3878 
C 595 3385 218 2655 218 1801 
C 218 1248 390 688 666 369 
C 909 89 1254 -64 1651 -64 
C 2445 -64 2995 541 2995 1420 
C 2995 2234 2528 2752 1792 2752 
C 1510 2752 1376 2707 973 2463 
C 1146 3430 1862 4121 2867 4288 
L 2854 4390 
z
M 1549 2457 
C 2099 2457 2419 1999 2419 1203 
C 2419 503 2170 115 1722 115 
C 1158 115 813 713 813 1700 
C 813 2024 864 2203 992 2298 
C 1126 2400 1325 2457 1549 2457 
z
" transform="scale(0.015625)"/>
       </defs>
       <use xlink:href="#CMSY10-0" transform="scale(0.996264)"/>
       <use xlink:href="#NimbusRomNo9L-Regu-36" transform="translate(77.408707 0) scale(0.996264)"/>
       <use xlink:href="#NimbusRomNo9L-Regu-35" transform="translate(127.221908 0) scale(0.996264)"/>
      </g>
     </g>
    </g>
    <g id="ytick_4">
     <g id="line2d_85">
      <path d="M 77.958951 213.731524 
L 567.09952 213.731524 
" clip-path="url(#pa1b35c8b82)" style="fill: none; stroke: #b0b0b0; stroke-width: 0.5; stroke-linecap: square"/>
     </g>
     <g id="line2d_86">
      <g>
       <use xlink:href="#m33985c7bf8" x="77.958951" y="213.731524" style="stroke: #000000; stroke-width: 1.5"/>
      </g>
     </g>
     <g id="line2d_87">
      <g>
       <use xlink:href="#m8ddfe5f6dc" x="567.09952" y="213.731524" style="stroke: #000000; stroke-width: 1.5"/>
      </g>
     </g>
     <g id="text_10">
      <!-- $\mathdefault{−60}$ -->
      <g transform="translate(32.551932 220.486101) scale(0.2 -0.2)">
       <use xlink:href="#CMSY10-0" transform="scale(0.996264)"/>
       <use xlink:href="#NimbusRomNo9L-Regu-36" transform="translate(77.408707 0) scale(0.996264)"/>
       <use xlink:href="#NimbusRomNo9L-Regu-30" transform="translate(127.221908 0) scale(0.996264)"/>
      </g>
     </g>
    </g>
    <g id="ytick_5">
     <g id="line2d_88">
      <path d="M 77.958951 120.182234 
L 567.09952 120.182234 
" clip-path="url(#pa1b35c8b82)" style="fill: none; stroke: #b0b0b0; stroke-width: 0.5; stroke-linecap: square"/>
     </g>
     <g id="line2d_89">
      <g>
       <use xlink:href="#m33985c7bf8" x="77.958951" y="120.182234" style="stroke: #000000; stroke-width: 1.5"/>
      </g>
     </g>
     <g id="line2d_90">
      <g>
       <use xlink:href="#m8ddfe5f6dc" x="567.09952" y="120.182234" style="stroke: #000000; stroke-width: 1.5"/>
      </g>
     </g>
     <g id="text_11">
      <!-- $\mathdefault{−55}$ -->
      <g transform="translate(32.551932 126.936812) scale(0.2 -0.2)">
       <use xlink:href="#CMSY10-0" transform="scale(0.996264)"/>
       <use xlink:href="#NimbusRomNo9L-Regu-35" transform="translate(77.408707 0) scale(0.996264)"/>
       <use xlink:href="#NimbusRomNo9L-Regu-35" transform="translate(127.221908 0) scale(0.996264)"/>
      </g>
     </g>
    </g>
    <g id="ytick_6">
     <g id="line2d_91">
      <path d="M 77.958951 26.632944 
L 567.09952 26.632944 
" clip-path="url(#pa1b35c8b82)" style="fill: none; stroke: #b0b0b0; stroke-width: 0.5; stroke-linecap: square"/>
     </g>
     <g id="line2d_92">
      <g>
       <use xlink:href="#m33985c7bf8" x="77.958951" y="26.632944" style="stroke: #000000; stroke-width: 1.5"/>
      </g>
     </g>
     <g id="line2d_93">
      <g>
       <use xlink:href="#m8ddfe5f6dc" x="567.09952" y="26.632944" style="stroke: #000000; stroke-width: 1.5"/>
      </g>
     </g>
     <g id="text_12">
      <!-- $\mathdefault{−50}$ -->
      <g transform="translate(32.551932 33.387522) scale(0.2 -0.2)">
       <use xlink:href="#CMSY10-0" transform="scale(0.996264)"/>
       <use xlink:href="#NimbusRomNo9L-Regu-35" transform="translate(77.408707 0) scale(0.996264)"/>
       <use xlink:href="#NimbusRomNo9L-Regu-30" transform="translate(127.221908 0) scale(0.996264)"/>
      </g>
     </g>
    </g>
    <g id="ytick_7">
     <g id="line2d_94">
      <path d="M 77.958951 475.669535 
L 567.09952 475.669535 
" clip-path="url(#pa1b35c8b82)" style="fill: none; stroke: #b0b0b0; stroke-width: 0.5; stroke-linecap: square"/>
     </g>
     <g id="line2d_95">
      <defs>
       <path id="m1a94b02191" d="M 0 0 
L -4 0 
" style="stroke: #000000; stroke-width: 0.5"/>
      </defs>
      <g>
       <use xlink:href="#m1a94b02191" x="77.958951" y="475.669535" style="stroke: #000000; stroke-width: 0.5"/>
      </g>
     </g>
     <g id="line2d_96">
      <defs>
       <path id="m6d7e1c655a" d="M 0 0 
L 4 0 
" style="stroke: #000000; stroke-width: 0.5"/>
      </defs>
      <g>
       <use xlink:href="#m6d7e1c655a" x="567.09952" y="475.669535" style="stroke: #000000; stroke-width: 0.5"/>
      </g>
     </g>
    </g>
    <g id="ytick_8">
     <g id="line2d_97">
      <path d="M 77.958951 456.959677 
L 567.09952 456.959677 
" clip-path="url(#pa1b35c8b82)" style="fill: none; stroke: #b0b0b0; stroke-width: 0.5; stroke-linecap: square"/>
     </g>
     <g id="line2d_98">
      <g>
       <use xlink:href="#m1a94b02191" x="77.958951" y="456.959677" style="stroke: #000000; stroke-width: 0.5"/>
      </g>
     </g>
     <g id="line2d_99">
      <g>
       <use xlink:href="#m6d7e1c655a" x="567.09952" y="456.959677" style="stroke: #000000; stroke-width: 0.5"/>
      </g>
     </g>
    </g>
    <g id="ytick_9">
     <g id="line2d_100">
      <path d="M 77.958951 438.249819 
L 567.09952 438.249819 
" clip-path="url(#pa1b35c8b82)" style="fill: none; stroke: #b0b0b0; stroke-width: 0.5; stroke-linecap: square"/>
     </g>
     <g id="line2d_101">
      <g>
       <use xlink:href="#m1a94b02191" x="77.958951" y="438.249819" style="stroke: #000000; stroke-width: 0.5"/>
      </g>
     </g>
     <g id="line2d_102">
      <g>
       <use xlink:href="#m6d7e1c655a" x="567.09952" y="438.249819" style="stroke: #000000; stroke-width: 0.5"/>
      </g>
     </g>
    </g>
    <g id="ytick_10">
     <g id="line2d_103">
      <path d="M 77.958951 419.539961 
L 567.09952 419.539961 
" clip-path="url(#pa1b35c8b82)" style="fill: none; stroke: #b0b0b0; stroke-width: 0.5; stroke-linecap: square"/>
     </g>
     <g id="line2d_104">
      <g>
       <use xlink:href="#m1a94b02191" x="77.958951" y="419.539961" style="stroke: #000000; stroke-width: 0.5"/>
      </g>
     </g>
     <g id="line2d_105">
      <g>
       <use xlink:href="#m6d7e1c655a" x="567.09952" y="419.539961" style="stroke: #000000; stroke-width: 0.5"/>
      </g>
     </g>
    </g>
    <g id="ytick_11">
     <g id="line2d_106">
      <path d="M 77.958951 382.120245 
L 567.09952 382.120245 
" clip-path="url(#pa1b35c8b82)" style="fill: none; stroke: #b0b0b0; stroke-width: 0.5; stroke-linecap: square"/>
     </g>
     <g id="line2d_107">
      <g>
       <use xlink:href="#m1a94b02191" x="77.958951" y="382.120245" style="stroke: #000000; stroke-width: 0.5"/>
      </g>
     </g>
     <g id="line2d_108">
      <g>
       <use xlink:href="#m6d7e1c655a" x="567.09952" y="382.120245" style="stroke: #000000; stroke-width: 0.5"/>
      </g>
     </g>
    </g>
    <g id="ytick_12">
     <g id="line2d_109">
      <path d="M 77.958951 363.410387 
L 567.09952 363.410387 
" clip-path="url(#pa1b35c8b82)" style="fill: none; stroke: #b0b0b0; stroke-width: 0.5; stroke-linecap: square"/>
     </g>
     <g id="line2d_110">
      <g>
       <use xlink:href="#m1a94b02191" x="77.958951" y="363.410387" style="stroke: #000000; stroke-width: 0.5"/>
      </g>
     </g>
     <g id="line2d_111">
      <g>
       <use xlink:href="#m6d7e1c655a" x="567.09952" y="363.410387" style="stroke: #000000; stroke-width: 0.5"/>
      </g>
     </g>
    </g>
    <g id="ytick_13">
     <g id="line2d_112">
      <path d="M 77.958951 344.70053 
L 567.09952 344.70053 
" clip-path="url(#pa1b35c8b82)" style="fill: none; stroke: #b0b0b0; stroke-width: 0.5; stroke-linecap: square"/>
     </g>
     <g id="line2d_113">
      <g>
       <use xlink:href="#m1a94b02191" x="77.958951" y="344.70053" style="stroke: #000000; stroke-width: 0.5"/>
      </g>
     </g>
     <g id="line2d_114">
      <g>
       <use xlink:href="#m6d7e1c655a" x="567.09952" y="344.70053" style="stroke: #000000; stroke-width: 0.5"/>
      </g>
     </g>
    </g>
    <g id="ytick_14">
     <g id="line2d_115">
      <path d="M 77.958951 325.990672 
L 567.09952 325.990672 
" clip-path="url(#pa1b35c8b82)" style="fill: none; stroke: #b0b0b0; stroke-width: 0.5; stroke-linecap: square"/>
     </g>
     <g id="line2d_116">
      <g>
       <use xlink:href="#m1a94b02191" x="77.958951" y="325.990672" style="stroke: #000000; stroke-width: 0.5"/>
      </g>
     </g>
     <g id="line2d_117">
      <g>
       <use xlink:href="#m6d7e1c655a" x="567.09952" y="325.990672" style="stroke: #000000; stroke-width: 0.5"/>
      </g>
     </g>
    </g>
    <g id="ytick_15">
     <g id="line2d_118">
      <path d="M 77.958951 288.570956 
L 567.09952 288.570956 
" clip-path="url(#pa1b35c8b82)" style="fill: none; stroke: #b0b0b0; stroke-width: 0.5; stroke-linecap: square"/>
     </g>
     <g id="line2d_119">
      <g>
       <use xlink:href="#m1a94b02191" x="77.958951" y="288.570956" style="stroke: #000000; stroke-width: 0.5"/>
      </g>
     </g>
     <g id="line2d_120">
      <g>
       <use xlink:href="#m6d7e1c655a" x="567.09952" y="288.570956" style="stroke: #000000; stroke-width: 0.5"/>
      </g>
     </g>
    </g>
    <g id="ytick_16">
     <g id="line2d_121">
      <path d="M 77.958951 269.861098 
L 567.09952 269.861098 
" clip-path="url(#pa1b35c8b82)" style="fill: none; stroke: #b0b0b0; stroke-width: 0.5; stroke-linecap: square"/>
     </g>
     <g id="line2d_122">
      <g>
       <use xlink:href="#m1a94b02191" x="77.958951" y="269.861098" style="stroke: #000000; stroke-width: 0.5"/>
      </g>
     </g>
     <g id="line2d_123">
      <g>
       <use xlink:href="#m6d7e1c655a" x="567.09952" y="269.861098" style="stroke: #000000; stroke-width: 0.5"/>
      </g>
     </g>
    </g>
    <g id="ytick_17">
     <g id="line2d_124">
      <path d="M 77.958951 251.15124 
L 567.09952 251.15124 
" clip-path="url(#pa1b35c8b82)" style="fill: none; stroke: #b0b0b0; stroke-width: 0.5; stroke-linecap: square"/>
     </g>
     <g id="line2d_125">
      <g>
       <use xlink:href="#m1a94b02191" x="77.958951" y="251.15124" style="stroke: #000000; stroke-width: 0.5"/>
      </g>
     </g>
     <g id="line2d_126">
      <g>
       <use xlink:href="#m6d7e1c655a" x="567.09952" y="251.15124" style="stroke: #000000; stroke-width: 0.5"/>
      </g>
     </g>
    </g>
    <g id="ytick_18">
     <g id="line2d_127">
      <path d="M 77.958951 232.441382 
L 567.09952 232.441382 
" clip-path="url(#pa1b35c8b82)" style="fill: none; stroke: #b0b0b0; stroke-width: 0.5; stroke-linecap: square"/>
     </g>
     <g id="line2d_128">
      <g>
       <use xlink:href="#m1a94b02191" x="77.958951" y="232.441382" style="stroke: #000000; stroke-width: 0.5"/>
      </g>
     </g>
     <g id="line2d_129">
      <g>
       <use xlink:href="#m6d7e1c655a" x="567.09952" y="232.441382" style="stroke: #000000; stroke-width: 0.5"/>
      </g>
     </g>
    </g>
    <g id="ytick_19">
     <g id="line2d_130">
      <path d="M 77.958951 195.021666 
L 567.09952 195.021666 
" clip-path="url(#pa1b35c8b82)" style="fill: none; stroke: #b0b0b0; stroke-width: 0.5; stroke-linecap: square"/>
     </g>
     <g id="line2d_131">
      <g>
       <use xlink:href="#m1a94b02191" x="77.958951" y="195.021666" style="stroke: #000000; stroke-width: 0.5"/>
      </g>
     </g>
     <g id="line2d_132">
      <g>
       <use xlink:href="#m6d7e1c655a" x="567.09952" y="195.021666" style="stroke: #000000; stroke-width: 0.5"/>
      </g>
     </g>
    </g>
    <g id="ytick_20">
     <g id="line2d_133">
      <path d="M 77.958951 176.311808 
L 567.09952 176.311808 
" clip-path="url(#pa1b35c8b82)" style="fill: none; stroke: #b0b0b0; stroke-width: 0.5; stroke-linecap: square"/>
     </g>
     <g id="line2d_134">
      <g>
       <use xlink:href="#m1a94b02191" x="77.958951" y="176.311808" style="stroke: #000000; stroke-width: 0.5"/>
      </g>
     </g>
     <g id="line2d_135">
      <g>
       <use xlink:href="#m6d7e1c655a" x="567.09952" y="176.311808" style="stroke: #000000; stroke-width: 0.5"/>
      </g>
     </g>
    </g>
    <g id="ytick_21">
     <g id="line2d_136">
      <path d="M 77.958951 157.60195 
L 567.09952 157.60195 
" clip-path="url(#pa1b35c8b82)" style="fill: none; stroke: #b0b0b0; stroke-width: 0.5; stroke-linecap: square"/>
     </g>
     <g id="line2d_137">
      <g>
       <use xlink:href="#m1a94b02191" x="77.958951" y="157.60195" style="stroke: #000000; stroke-width: 0.5"/>
      </g>
     </g>
     <g id="line2d_138">
      <g>
       <use xlink:href="#m6d7e1c655a" x="567.09952" y="157.60195" style="stroke: #000000; stroke-width: 0.5"/>
      </g>
     </g>
    </g>
    <g id="ytick_22">
     <g id="line2d_139">
      <path d="M 77.958951 138.892092 
L 567.09952 138.892092 
" clip-path="url(#pa1b35c8b82)" style="fill: none; stroke: #b0b0b0; stroke-width: 0.5; stroke-linecap: square"/>
     </g>
     <g id="line2d_140">
      <g>
       <use xlink:href="#m1a94b02191" x="77.958951" y="138.892092" style="stroke: #000000; stroke-width: 0.5"/>
      </g>
     </g>
     <g id="line2d_141">
      <g>
       <use xlink:href="#m6d7e1c655a" x="567.09952" y="138.892092" style="stroke: #000000; stroke-width: 0.5"/>
      </g>
     </g>
    </g>
    <g id="ytick_23">
     <g id="line2d_142">
      <path d="M 77.958951 101.472376 
L 567.09952 101.472376 
" clip-path="url(#pa1b35c8b82)" style="fill: none; stroke: #b0b0b0; stroke-width: 0.5; stroke-linecap: square"/>
     </g>
     <g id="line2d_143">
      <g>
       <use xlink:href="#m1a94b02191" x="77.958951" y="101.472376" style="stroke: #000000; stroke-width: 0.5"/>
      </g>
     </g>
     <g id="line2d_144">
      <g>
       <use xlink:href="#m6d7e1c655a" x="567.09952" y="101.472376" style="stroke: #000000; stroke-width: 0.5"/>
      </g>
     </g>
    </g>
    <g id="ytick_24">
     <g id="line2d_145">
      <path d="M 77.958951 82.762518 
L 567.09952 82.762518 
" clip-path="url(#pa1b35c8b82)" style="fill: none; stroke: #b0b0b0; stroke-width: 0.5; stroke-linecap: square"/>
     </g>
     <g id="line2d_146">
      <g>
       <use xlink:href="#m1a94b02191" x="77.958951" y="82.762518" style="stroke: #000000; stroke-width: 0.5"/>
      </g>
     </g>
     <g id="line2d_147">
      <g>
       <use xlink:href="#m6d7e1c655a" x="567.09952" y="82.762518" style="stroke: #000000; stroke-width: 0.5"/>
      </g>
     </g>
    </g>
    <g id="ytick_25">
     <g id="line2d_148">
      <path d="M 77.958951 64.05266 
L 567.09952 64.05266 
" clip-path="url(#pa1b35c8b82)" style="fill: none; stroke: #b0b0b0; stroke-width: 0.5; stroke-linecap: square"/>
     </g>
     <g id="line2d_149">
      <g>
       <use xlink:href="#m1a94b02191" x="77.958951" y="64.05266" style="stroke: #000000; stroke-width: 0.5"/>
      </g>
     </g>
     <g id="line2d_150">
      <g>
       <use xlink:href="#m6d7e1c655a" x="567.09952" y="64.05266" style="stroke: #000000; stroke-width: 0.5"/>
      </g>
     </g>
    </g>
    <g id="ytick_26">
     <g id="line2d_151">
      <path d="M 77.958951 45.342802 
L 567.09952 45.342802 
" clip-path="url(#pa1b35c8b82)" style="fill: none; stroke: #b0b0b0; stroke-width: 0.5; stroke-linecap: square"/>
     </g>
     <g id="line2d_152">
      <g>
       <use xlink:href="#m1a94b02191" x="77.958951" y="45.342802" style="stroke: #000000; stroke-width: 0.5"/>
      </g>
     </g>
     <g id="line2d_153">
      <g>
       <use xlink:href="#m6d7e1c655a" x="567.09952" y="45.342802" style="stroke: #000000; stroke-width: 0.5"/>
      </g>
     </g>
    </g>
    <g id="ytick_27">
     <g id="line2d_154">
      <path d="M 77.958951 7.923086 
L 567.09952 7.923086 
" clip-path="url(#pa1b35c8b82)" style="fill: none; stroke: #b0b0b0; stroke-width: 0.5; stroke-linecap: square"/>
     </g>
     <g id="line2d_155">
      <g>
       <use xlink:href="#m1a94b02191" x="77.958951" y="7.923086" style="stroke: #000000; stroke-width: 0.5"/>
      </g>
     </g>
     <g id="line2d_156">
      <g>
       <use xlink:href="#m6d7e1c655a" x="567.09952" y="7.923086" style="stroke: #000000; stroke-width: 0.5"/>
      </g>
     </g>
    </g>
    <g id="text_13">
     <!-- $V$ -->
     <g transform="translate(22.512811 265.484416) rotate(-90) scale(0.28 -0.28)">
      <defs>
       <path id="NimbusRomNo9L-ReguItal-56" d="M 4403 4160 
L 3213 4160 
L 3213 4057 
C 3501 4025 3616 3961 3616 3840 
C 3616 3718 3494 3444 3283 3079 
L 1965 805 
L 1542 3635 
C 1536 3667 1536 3693 1536 3731 
C 1536 3948 1626 4012 2029 4057 
L 2029 4160 
L 486 4160 
L 486 4057 
C 845 4012 858 3993 992 3194 
L 1536 -128 
L 1658 -128 
L 4045 3801 
C 4154 3974 4256 4051 4403 4057 
L 4403 4160 
z
" transform="scale(0.015625)"/>
      </defs>
      <use xlink:href="#NimbusRomNo9L-ReguItal-56" transform="scale(0.996264)"/>
     </g>
    </g>
   </g>
   <g id="line2d_157">
    <path d="M 100.192613 400.830103 
L 212.272046 400.750039 
L 213.084276 400.456201 
L 213.679912 400.007115 
L 214.329696 399.212417 
L 214.978404 398.031942 
L 215.667632 396.283355 
L 216.401327 393.786765 
L 217.201722 390.232074 
L 218.068815 385.310902 
L 219.002609 378.672791 
L 220.025335 369.720756 
L 221.136994 357.926774 
L 222.359818 342.44567 
L 223.693809 322.622237 
L 225.205665 296.679613 
L 226.939853 262.922458 
L 229.096471 216.326707 
L 233.00951 125.773856 
L 235.944289 60.46822 
L 237.633966 26.632944 
L 237.633966 307.280814 
L 237.722898 305.603168 
L 239.390387 276.361392 
L 240.835543 254.76587 
L 242.102834 238.962631 
L 243.258959 227.207479 
L 244.281685 218.943993 
L 245.193246 213.244321 
L 246.015873 209.407394 
L 246.727335 207.047081 
L 247.349864 205.675034 
L 247.88346 204.986732 
L 248.328124 204.73853 
L 248.676907 204.748423 
L 249.127128 205.002391 
L 249.633628 205.579815 
L 250.230797 206.638571 
L 250.964492 208.43373 
L 251.876052 211.29172 
L 253.12111 215.997675 
L 257.167548 231.901612 
L 258.101342 234.447077 
L 258.835036 235.865287 
L 259.413099 236.559646 
L 259.879996 236.818679 
L 260.217662 236.817825 
L 260.696023 236.543206 
L 261.146245 235.988661 
L 261.663513 234.964762 
L 262.263809 233.233138 
L 262.953037 230.493851 
L 263.708965 226.530474 
L 264.576059 220.710626 
L 265.532086 212.686072 
L 266.599278 201.729779 
L 267.777637 187.227093 
L 269.111627 167.908307 
L 270.623483 142.627644 
L 272.424371 108.570705 
L 274.803321 58.972634 
L 276.289637 26.632944 
L 276.289637 307.280814 
L 276.37857 305.336706 
L 280.113744 226.077261 
L 282.114729 188.301664 
L 283.737751 161.624518 
L 285.138441 142.033839 
L 286.383499 127.55609 
L 287.495158 117.0744 
L 288.495651 109.640257 
L 289.384978 104.608353 
L 290.163139 101.392579 
L 290.830135 99.487371 
L 291.408197 98.445666 
L 291.897327 97.98687 
L 292.2475 97.887322 
L 292.660203 98.016024 
L 293.110425 98.417984 
L 293.642284 99.237171 
L 294.264813 100.635765 
L 295.042974 102.977244 
L 295.999001 106.608359 
L 297.266292 112.362418 
L 302.024191 134.890483 
L 302.980218 137.948834 
L 303.736146 139.683011 
L 304.336442 140.563871 
L 304.825572 140.925113 
L 305.172965 140.971428 
L 305.585668 140.786797 
L 306.019215 140.317746 
L 306.508345 139.425467 
L 307.086408 137.852897 
L 307.73117 135.413478 
L 308.464865 131.730725 
L 309.309725 126.264982 
L 310.243519 118.677514 
L 311.288478 108.264809 
L 312.444603 94.43264 
L 313.756361 75.950591 
L 315.268217 51.323591 
L 316.625308 26.632944 
L 316.625308 307.280814 
L 316.71424 305.589774 
L 318.937558 261.099087 
L 325.718677 122.55706 
L 327.475098 92.70337 
L 328.964721 71.016987 
L 330.254245 55.307439 
L 331.41037 43.806015 
L 332.433096 35.724987 
L 333.344656 30.182309 
L 334.132483 26.632944 
L 334.132483 307.280814 
L 334.221416 306.951019 
L 334.910644 304.871816 
L 335.488707 303.76233 
L 335.977837 303.257913 
L 336.372475 303.130915 
L 336.74766 303.241166 
L 337.220115 303.664293 
L 337.731478 304.468407 
L 338.354007 305.9041 
L 339.109935 308.254364 
L 340.043729 311.943572 
L 341.24432 317.672851 
L 343.13414 327.952006 
L 345.535323 340.761681 
L 346.758148 346.117546 
L 347.691941 349.301754 
L 348.447869 351.166464 
L 349.048165 352.129369 
L 349.537295 352.544382 
L 349.918038 352.620488 
L 350.36826 352.412648 
L 350.818482 351.89405 
L 351.307612 350.950047 
L 351.885674 349.303534 
L 352.55267 346.667156 
L 353.308598 342.699708 
L 354.153458 337.010545 
L 355.109485 328.963658 
L 356.176677 317.981749 
L 357.377269 303.187473 
L 358.733493 283.570658 
L 360.289815 257.696478 
L 362.201868 221.966944 
L 365.003248 164.895276 
L 369.049686 82.909842 
L 371.006206 47.830064 
L 372.351437 26.632944 
L 372.351437 307.280814 
L 372.44037 305.976193 
L 373.84106 287.152251 
L 375.063885 273.527076 
L 376.15331 263.711837 
L 377.13157 256.800658 
L 377.998664 252.175374 
L 378.754592 249.272293 
L 379.399354 247.603508 
L 379.93295 246.765335 
L 380.377614 246.428871 
L 380.766694 246.400209 
L 381.179398 246.626864 
L 381.649074 247.181714 
L 382.204903 248.234708 
L 382.871898 250.023909 
L 383.672293 252.846936 
L 384.672786 257.249523 
L 385.984543 264.118979 
L 388.541358 279.039023 
L 390.320012 288.702295 
L 391.498371 293.957161 
L 392.409931 297.101627 
L 393.165859 298.969952 
L 393.766155 299.91524 
L 394.255285 300.303613 
L 394.591561 300.357468 
L 395.041783 300.141317 
L 395.463866 299.652611 
L 395.952996 298.710701 
L 396.531059 297.060386 
L 397.198054 294.412691 
L 397.953982 290.42577 
L 398.798843 284.709883 
L 399.754869 276.631377 
L 400.822062 265.619364 
L 402.022653 250.807365 
L 403.378877 231.204126 
L 404.957432 205.015957 
L 406.891719 169.022406 
L 409.870964 108.829535 
L 413.494972 36.608531 
L 414.034731 26.632944 
L 414.034731 307.280814 
L 414.123664 305.666077 
L 415.946784 274.666429 
L 417.45864 252.534515 
L 418.770398 236.392787 
L 419.926523 224.721905 
L 420.971482 216.314352 
L 421.883042 210.658141 
L 422.683437 206.969992 
L 423.372665 204.73158 
L 423.972961 203.468154 
L 424.462091 202.895309 
L 424.873405 202.720246 
L 425.223577 202.793526 
L 425.673799 203.15597 
L 426.162929 203.883085 
L 426.740992 205.169853 
L 427.452453 207.33689 
L 428.319547 210.746878 
L 429.408973 216.016976 
L 430.876362 224.333942 
L 435.47863 251.23143 
L 437.701947 262.248815 
L 440.16983 273.354708 
L 442.860044 284.431808 
L 445.750357 295.387471 
L 448.818536 306.150519 
L 452.086813 316.80675 
L 455.532955 327.287709 
L 459.156963 337.602381 
L 462.981069 347.814962 
L 466.983041 357.866209 
L 471.162878 367.760985 
L 475.498347 377.454903 
L 480.011682 387.004746 
L 484.702882 396.412765 
L 489.571948 405.680978 
L 494.618879 414.811252 
L 499.843675 423.805355 
L 505.268571 432.700597 
L 510.871331 441.459795 
L 516.651957 450.084949 
L 522.632681 458.609008 
L 528.791271 467.000246 
L 535.14996 475.28921 
L 541.708747 483.474475 
L 544.865858 487.291831 
L 544.865858 487.291831 
" clip-path="url(#pa1b35c8b82)" style="fill: none; stroke: #3f90da; stroke-width: 2; stroke-linecap: square"/>
   </g>
   <g id="patch_3">
    <path d="M 77.958951 510.324775 
L 77.958951 3.6 
" style="fill: none; stroke: #000000; stroke-width: 0.5; stroke-linejoin: miter; stroke-linecap: square"/>
   </g>
   <g id="patch_4">
    <path d="M 567.09952 510.324775 
L 567.09952 3.6 
" style="fill: none; stroke: #000000; stroke-width: 0.5; stroke-linejoin: miter; stroke-linecap: square"/>
   </g>
   <g id="patch_5">
    <path d="M 77.958951 510.324775 
L 567.09952 510.324775 
" style="fill: none; stroke: #000000; stroke-width: 0.5; stroke-linejoin: miter; stroke-linecap: square"/>
   </g>
   <g id="patch_6">
    <path d="M 77.958951 3.6 
L 567.09952 3.6 
" style="fill: none; stroke: #000000; stroke-width: 0.5; stroke-linejoin: miter; stroke-linecap: square"/>
   </g>
  </g>
 </g>
 <defs>
  <clipPath id="pa1b35c8b82">
   <rect x="77.958951" y="3.6" width="489.140569" height="506.724775"/>
  </clipPath>
 </defs>
</svg>
