<?xml version="1.0" encoding="utf-8" standalone="no"?>
<!DOCTYPE svg PUBLIC "-//W3C//DTD SVG 1.1//EN"
  "http://www.w3.org/Graphics/SVG/1.1/DTD/svg11.dtd">
<svg xmlns:xlink="http://www.w3.org/1999/xlink" width="570.69952pt" height="576.826923pt" viewBox="0 0 570.69952 576.826923" xmlns="http://www.w3.org/2000/svg" version="1.1">
 <metadata>
  <rdf:RDF xmlns:dc="http://purl.org/dc/elements/1.1/" xmlns:cc="http://creativecommons.org/ns#" xmlns:rdf="http://www.w3.org/1999/02/22-rdf-syntax-ns#">
   <cc:Work>
    <dc:type rdf:resource="http://purl.org/dc/dcmitype/StillImage"/>
    <dc:date>2025-02-06T09:44:41.601316</dc:date>
    <dc:format>image/svg+xml</dc:format>
    <dc:creator>
     <cc:Agent>
      <dc:title>Matplotlib v3.10.0, https://matplotlib.org/</dc:title>
     </cc:Agent>
    </dc:creator>
   </cc:Work>
  </rdf:RDF>
 </metadata>
 <defs>
  <style type="text/css">*{stroke-linejoin: round; stroke-linecap: butt}</style>
 </defs>
 <g id="figure_1">
  <g id="patch_1">
   <path d="M 0 576.826923 
L 570.69952 576.826923 
L 570.69952 0 
L 0 0 
z
" style="fill: #111111"/>
  </g>
  <g id="axes_1">
   <g id="patch_2">
    <path d="M 49.007019 516.452178 
L 567.09952 516.452178 
L 567.09952 53.751136 
L 49.007019 53.751136 
z
" style="fill: #28313d"/>
   </g>
   <g id="matplotlib.axis_1">
    <g id="xtick_1">
     <g id="line2d_1">
      <path d="M 72.556678 516.452178 
L 72.556678 53.751136 
" clip-path="url(#p7c77ac5fb6)" style="fill: none; stroke: #b0b0b0; stroke-width: 0.5; stroke-linecap: square"/>
     </g>
     <g id="line2d_2">
      <defs>
       <path id="m067e84fc3d" d="M 0 0 
L 0 6.5 
" style="stroke: #ffffff; stroke-width: 1.5"/>
      </defs>
      <g>
       <use xlink:href="#m067e84fc3d" x="72.556678" y="516.452178" style="fill: #ffffff; stroke: #ffffff; stroke-width: 1.5"/>
      </g>
     </g>
     <g id="line2d_3">
      <defs>
       <path id="med1e74d6a1" d="M 0 0 
L 0 -6.5 
" style="stroke: #ffffff; stroke-width: 1.5"/>
      </defs>
      <g>
       <use xlink:href="#med1e74d6a1" x="72.556678" y="53.751136" style="fill: #ffffff; stroke: #ffffff; stroke-width: 1.5"/>
      </g>
     </g>
     <g id="text_1">
      <!-- $\mathdefault{0}$ -->
      <g style="fill: #ffffff" transform="translate(67.575358 539.961333) scale(0.2 -0.2)">
       <defs>
        <path id="NimbusRomNo9L-Regu-30" d="M 1626 4352 
C 1274 4352 1005 4243 768 4019 
C 397 3661 154 2924 154 2176 
C 154 1478 365 729 666 371 
C 902 89 1229 -64 1600 -64 
C 1926 -64 2202 44 2432 268 
C 2803 620 3046 1363 3046 2137 
C 3046 3449 2464 4352 1626 4352 
z
M 1606 4185 
C 2144 4185 2432 3462 2432 2124 
C 2432 787 2150 102 1600 102 
C 1050 102 768 787 768 2118 
C 768 3475 1056 4185 1606 4185 
z
" transform="scale(0.015625)"/>
       </defs>
       <use xlink:href="#NimbusRomNo9L-Regu-30" transform="scale(0.996264)"/>
      </g>
     </g>
    </g>
    <g id="xtick_2">
     <g id="line2d_4">
      <path d="M 166.755314 516.452178 
L 166.755314 53.751136 
" clip-path="url(#p7c77ac5fb6)" style="fill: none; stroke: #b0b0b0; stroke-width: 0.5; stroke-linecap: square"/>
     </g>
     <g id="line2d_5">
      <g>
       <use xlink:href="#m067e84fc3d" x="166.755314" y="516.452178" style="fill: #ffffff; stroke: #ffffff; stroke-width: 1.5"/>
      </g>
     </g>
     <g id="line2d_6">
      <g>
       <use xlink:href="#med1e74d6a1" x="166.755314" y="53.751136" style="fill: #ffffff; stroke: #ffffff; stroke-width: 1.5"/>
      </g>
     </g>
     <g id="text_2">
      <!-- $\mathdefault{10}$ -->
      <g style="fill: #ffffff" transform="translate(156.792674 539.961333) scale(0.2 -0.2)">
       <defs>
        <path id="NimbusRomNo9L-Regu-31" d="M 1862 4352 
L 710 3776 
L 710 3686 
C 787 3718 858 3743 883 3756 
C 998 3801 1107 3826 1171 3826 
C 1306 3826 1363 3731 1363 3525 
L 1363 599 
C 1363 386 1312 238 1210 179 
C 1114 121 1024 102 755 96 
L 755 0 
L 2522 0 
L 2522 96 
C 2016 102 1914 167 1914 477 
L 1914 4339 
L 1862 4352 
z
" transform="scale(0.015625)"/>
       </defs>
       <use xlink:href="#NimbusRomNo9L-Regu-31" transform="scale(0.996264)"/>
       <use xlink:href="#NimbusRomNo9L-Regu-30" transform="translate(49.8132 0) scale(0.996264)"/>
      </g>
     </g>
    </g>
    <g id="xtick_3">
     <g id="line2d_7">
      <path d="M 260.953951 516.452178 
L 260.953951 53.751136 
" clip-path="url(#p7c77ac5fb6)" style="fill: none; stroke: #b0b0b0; stroke-width: 0.5; stroke-linecap: square"/>
     </g>
     <g id="line2d_8">
      <g>
       <use xlink:href="#m067e84fc3d" x="260.953951" y="516.452178" style="fill: #ffffff; stroke: #ffffff; stroke-width: 1.5"/>
      </g>
     </g>
     <g id="line2d_9">
      <g>
       <use xlink:href="#med1e74d6a1" x="260.953951" y="53.751136" style="fill: #ffffff; stroke: #ffffff; stroke-width: 1.5"/>
      </g>
     </g>
     <g id="text_3">
      <!-- $\mathdefault{20}$ -->
      <g style="fill: #ffffff" transform="translate(250.991311 539.961333) scale(0.2 -0.2)">
       <defs>
        <path id="NimbusRomNo9L-Regu-32" d="M 3040 879 
L 2957 912 
C 2720 544 2637 486 2349 486 
L 819 486 
L 1894 1621 
C 2464 2221 2714 2711 2714 3214 
C 2714 3858 2195 4352 1530 4352 
C 1178 4352 845 4211 608 3955 
C 403 3736 307 3530 198 3072 
L 333 3039 
C 589 3671 819 3878 1261 3878 
C 1798 3878 2163 3510 2163 2969 
C 2163 2466 1869 1866 1331 1292 
L 192 76 
L 192 0 
L 2688 0 
L 3040 879 
z
" transform="scale(0.015625)"/>
       </defs>
       <use xlink:href="#NimbusRomNo9L-Regu-32" transform="scale(0.996264)"/>
       <use xlink:href="#NimbusRomNo9L-Regu-30" transform="translate(49.8132 0) scale(0.996264)"/>
      </g>
     </g>
    </g>
    <g id="xtick_4">
     <g id="line2d_10">
      <path d="M 355.152588 516.452178 
L 355.152588 53.751136 
" clip-path="url(#p7c77ac5fb6)" style="fill: none; stroke: #b0b0b0; stroke-width: 0.5; stroke-linecap: square"/>
     </g>
     <g id="line2d_11">
      <g>
       <use xlink:href="#m067e84fc3d" x="355.152588" y="516.452178" style="fill: #ffffff; stroke: #ffffff; stroke-width: 1.5"/>
      </g>
     </g>
     <g id="line2d_12">
      <g>
       <use xlink:href="#med1e74d6a1" x="355.152588" y="53.751136" style="fill: #ffffff; stroke: #ffffff; stroke-width: 1.5"/>
      </g>
     </g>
     <g id="text_4">
      <!-- $\mathdefault{30}$ -->
      <g style="fill: #ffffff" transform="translate(345.189948 539.961333) scale(0.2 -0.2)">
       <defs>
        <path id="NimbusRomNo9L-Regu-33" d="M 979 2137 
C 1357 2137 1504 2124 1658 2067 
C 2054 1926 2304 1561 2304 1120 
C 2304 582 1939 166 1466 166 
C 1293 166 1165 211 928 364 
C 736 480 627 524 518 524 
C 371 524 275 435 275 300 
C 275 76 550 -64 998 -64 
C 1491 -64 1997 102 2298 364 
C 2598 627 2765 998 2765 1427 
C 2765 1753 2662 2054 2477 2252 
C 2349 2393 2227 2470 1946 2592 
C 2387 2892 2547 3129 2547 3475 
C 2547 3993 2138 4352 1549 4352 
C 1229 4352 947 4243 717 4038 
C 525 3865 429 3699 288 3315 
L 384 3289 
C 646 3757 934 3967 1338 3967 
C 1754 3967 2042 3686 2042 3283 
C 2042 3052 1946 2822 1786 2662 
C 1594 2470 1414 2374 979 2220 
L 979 2137 
z
" transform="scale(0.015625)"/>
       </defs>
       <use xlink:href="#NimbusRomNo9L-Regu-33" transform="scale(0.996264)"/>
       <use xlink:href="#NimbusRomNo9L-Regu-30" transform="translate(49.8132 0) scale(0.996264)"/>
      </g>
     </g>
    </g>
    <g id="xtick_5">
     <g id="line2d_13">
      <path d="M 449.351224 516.452178 
L 449.351224 53.751136 
" clip-path="url(#p7c77ac5fb6)" style="fill: none; stroke: #b0b0b0; stroke-width: 0.5; stroke-linecap: square"/>
     </g>
     <g id="line2d_14">
      <g>
       <use xlink:href="#m067e84fc3d" x="449.351224" y="516.452178" style="fill: #ffffff; stroke: #ffffff; stroke-width: 1.5"/>
      </g>
     </g>
     <g id="line2d_15">
      <g>
       <use xlink:href="#med1e74d6a1" x="449.351224" y="53.751136" style="fill: #ffffff; stroke: #ffffff; stroke-width: 1.5"/>
      </g>
     </g>
     <g id="text_5">
      <!-- $\mathdefault{40}$ -->
      <g style="fill: #ffffff" transform="translate(439.388584 539.961333) scale(0.2 -0.2)">
       <defs>
        <path id="NimbusRomNo9L-Regu-34" d="M 3021 1497 
L 2368 1497 
L 2368 4352 
L 2086 4352 
L 77 1497 
L 77 1088 
L 1875 1088 
L 1875 0 
L 2368 0 
L 2368 1088 
L 3021 1088 
L 3021 1497 
z
M 1869 1497 
L 333 1497 
L 1869 3697 
L 1869 1497 
z
" transform="scale(0.015625)"/>
       </defs>
       <use xlink:href="#NimbusRomNo9L-Regu-34" transform="scale(0.996264)"/>
       <use xlink:href="#NimbusRomNo9L-Regu-30" transform="translate(49.8132 0) scale(0.996264)"/>
      </g>
     </g>
    </g>
    <g id="xtick_6">
     <g id="line2d_16">
      <path d="M 543.549861 516.452178 
L 543.549861 53.751136 
" clip-path="url(#p7c77ac5fb6)" style="fill: none; stroke: #b0b0b0; stroke-width: 0.5; stroke-linecap: square"/>
     </g>
     <g id="line2d_17">
      <g>
       <use xlink:href="#m067e84fc3d" x="543.549861" y="516.452178" style="fill: #ffffff; stroke: #ffffff; stroke-width: 1.5"/>
      </g>
     </g>
     <g id="line2d_18">
      <g>
       <use xlink:href="#med1e74d6a1" x="543.549861" y="53.751136" style="fill: #ffffff; stroke: #ffffff; stroke-width: 1.5"/>
      </g>
     </g>
     <g id="text_6">
      <!-- $\mathdefault{50}$ -->
      <g style="fill: #ffffff" transform="translate(533.587221 539.961333) scale(0.2 -0.2)">
       <defs>
        <path id="NimbusRomNo9L-Regu-35" d="M 1158 3718 
L 2413 3718 
C 2515 3718 2541 3731 2560 3775 
L 2803 4345 
L 2746 4390 
C 2650 4256 2586 4224 2451 4224 
L 1114 4224 
L 416 2717 
C 410 2705 410 2698 410 2686 
C 410 2654 435 2635 486 2635 
C 691 2635 947 2591 1210 2508 
C 1946 2274 2285 1882 2285 1255 
C 2285 647 1894 172 1395 172 
C 1267 172 1158 217 966 356 
C 762 502 614 565 480 565 
C 294 565 205 489 205 331 
C 205 89 506 -64 986 -64 
C 1523 -64 1984 108 2304 432 
C 2598 717 2733 1078 2733 1559 
C 2733 2015 2611 2306 2291 2622 
C 2010 2901 1645 3047 890 3180 
L 1158 3718 
z
" transform="scale(0.015625)"/>
       </defs>
       <use xlink:href="#NimbusRomNo9L-Regu-35" transform="scale(0.996264)"/>
       <use xlink:href="#NimbusRomNo9L-Regu-30" transform="translate(49.8132 0) scale(0.996264)"/>
      </g>
     </g>
    </g>
    <g id="xtick_7">
     <g id="line2d_19">
      <path d="M 53.71695 516.452178 
L 53.71695 53.751136 
" clip-path="url(#p7c77ac5fb6)" style="fill: none; stroke: #b0b0b0; stroke-width: 0.5; stroke-linecap: square"/>
     </g>
     <g id="line2d_20">
      <defs>
       <path id="mda001d8503" d="M 0 0 
L 0 4 
" style="stroke: #ffffff; stroke-width: 0.5"/>
      </defs>
      <g>
       <use xlink:href="#mda001d8503" x="53.71695" y="516.452178" style="fill: #ffffff; stroke: #ffffff; stroke-width: 0.5"/>
      </g>
     </g>
     <g id="line2d_21">
      <defs>
       <path id="mc97b1b7ea6" d="M 0 0 
L 0 -4 
" style="stroke: #ffffff; stroke-width: 0.5"/>
      </defs>
      <g>
       <use xlink:href="#mc97b1b7ea6" x="53.71695" y="53.751136" style="fill: #ffffff; stroke: #ffffff; stroke-width: 0.5"/>
      </g>
     </g>
    </g>
    <g id="xtick_8">
     <g id="line2d_22">
      <path d="M 91.396405 516.452178 
L 91.396405 53.751136 
" clip-path="url(#p7c77ac5fb6)" style="fill: none; stroke: #b0b0b0; stroke-width: 0.5; stroke-linecap: square"/>
     </g>
     <g id="line2d_23">
      <g>
       <use xlink:href="#mda001d8503" x="91.396405" y="516.452178" style="fill: #ffffff; stroke: #ffffff; stroke-width: 0.5"/>
      </g>
     </g>
     <g id="line2d_24">
      <g>
       <use xlink:href="#mc97b1b7ea6" x="91.396405" y="53.751136" style="fill: #ffffff; stroke: #ffffff; stroke-width: 0.5"/>
      </g>
     </g>
    </g>
    <g id="xtick_9">
     <g id="line2d_25">
      <path d="M 110.236132 516.452178 
L 110.236132 53.751136 
" clip-path="url(#p7c77ac5fb6)" style="fill: none; stroke: #b0b0b0; stroke-width: 0.5; stroke-linecap: square"/>
     </g>
     <g id="line2d_26">
      <g>
       <use xlink:href="#mda001d8503" x="110.236132" y="516.452178" style="fill: #ffffff; stroke: #ffffff; stroke-width: 0.5"/>
      </g>
     </g>
     <g id="line2d_27">
      <g>
       <use xlink:href="#mc97b1b7ea6" x="110.236132" y="53.751136" style="fill: #ffffff; stroke: #ffffff; stroke-width: 0.5"/>
      </g>
     </g>
    </g>
    <g id="xtick_10">
     <g id="line2d_28">
      <path d="M 129.07586 516.452178 
L 129.07586 53.751136 
" clip-path="url(#p7c77ac5fb6)" style="fill: none; stroke: #b0b0b0; stroke-width: 0.5; stroke-linecap: square"/>
     </g>
     <g id="line2d_29">
      <g>
       <use xlink:href="#mda001d8503" x="129.07586" y="516.452178" style="fill: #ffffff; stroke: #ffffff; stroke-width: 0.5"/>
      </g>
     </g>
     <g id="line2d_30">
      <g>
       <use xlink:href="#mc97b1b7ea6" x="129.07586" y="53.751136" style="fill: #ffffff; stroke: #ffffff; stroke-width: 0.5"/>
      </g>
     </g>
    </g>
    <g id="xtick_11">
     <g id="line2d_31">
      <path d="M 147.915587 516.452178 
L 147.915587 53.751136 
" clip-path="url(#p7c77ac5fb6)" style="fill: none; stroke: #b0b0b0; stroke-width: 0.5; stroke-linecap: square"/>
     </g>
     <g id="line2d_32">
      <g>
       <use xlink:href="#mda001d8503" x="147.915587" y="516.452178" style="fill: #ffffff; stroke: #ffffff; stroke-width: 0.5"/>
      </g>
     </g>
     <g id="line2d_33">
      <g>
       <use xlink:href="#mc97b1b7ea6" x="147.915587" y="53.751136" style="fill: #ffffff; stroke: #ffffff; stroke-width: 0.5"/>
      </g>
     </g>
    </g>
    <g id="xtick_12">
     <g id="line2d_34">
      <path d="M 185.595042 516.452178 
L 185.595042 53.751136 
" clip-path="url(#p7c77ac5fb6)" style="fill: none; stroke: #b0b0b0; stroke-width: 0.5; stroke-linecap: square"/>
     </g>
     <g id="line2d_35">
      <g>
       <use xlink:href="#mda001d8503" x="185.595042" y="516.452178" style="fill: #ffffff; stroke: #ffffff; stroke-width: 0.5"/>
      </g>
     </g>
     <g id="line2d_36">
      <g>
       <use xlink:href="#mc97b1b7ea6" x="185.595042" y="53.751136" style="fill: #ffffff; stroke: #ffffff; stroke-width: 0.5"/>
      </g>
     </g>
    </g>
    <g id="xtick_13">
     <g id="line2d_37">
      <path d="M 204.434769 516.452178 
L 204.434769 53.751136 
" clip-path="url(#p7c77ac5fb6)" style="fill: none; stroke: #b0b0b0; stroke-width: 0.5; stroke-linecap: square"/>
     </g>
     <g id="line2d_38">
      <g>
       <use xlink:href="#mda001d8503" x="204.434769" y="516.452178" style="fill: #ffffff; stroke: #ffffff; stroke-width: 0.5"/>
      </g>
     </g>
     <g id="line2d_39">
      <g>
       <use xlink:href="#mc97b1b7ea6" x="204.434769" y="53.751136" style="fill: #ffffff; stroke: #ffffff; stroke-width: 0.5"/>
      </g>
     </g>
    </g>
    <g id="xtick_14">
     <g id="line2d_40">
      <path d="M 223.274496 516.452178 
L 223.274496 53.751136 
" clip-path="url(#p7c77ac5fb6)" style="fill: none; stroke: #b0b0b0; stroke-width: 0.5; stroke-linecap: square"/>
     </g>
     <g id="line2d_41">
      <g>
       <use xlink:href="#mda001d8503" x="223.274496" y="516.452178" style="fill: #ffffff; stroke: #ffffff; stroke-width: 0.5"/>
      </g>
     </g>
     <g id="line2d_42">
      <g>
       <use xlink:href="#mc97b1b7ea6" x="223.274496" y="53.751136" style="fill: #ffffff; stroke: #ffffff; stroke-width: 0.5"/>
      </g>
     </g>
    </g>
    <g id="xtick_15">
     <g id="line2d_43">
      <path d="M 242.114224 516.452178 
L 242.114224 53.751136 
" clip-path="url(#p7c77ac5fb6)" style="fill: none; stroke: #b0b0b0; stroke-width: 0.5; stroke-linecap: square"/>
     </g>
     <g id="line2d_44">
      <g>
       <use xlink:href="#mda001d8503" x="242.114224" y="516.452178" style="fill: #ffffff; stroke: #ffffff; stroke-width: 0.5"/>
      </g>
     </g>
     <g id="line2d_45">
      <g>
       <use xlink:href="#mc97b1b7ea6" x="242.114224" y="53.751136" style="fill: #ffffff; stroke: #ffffff; stroke-width: 0.5"/>
      </g>
     </g>
    </g>
    <g id="xtick_16">
     <g id="line2d_46">
      <path d="M 279.793678 516.452178 
L 279.793678 53.751136 
" clip-path="url(#p7c77ac5fb6)" style="fill: none; stroke: #b0b0b0; stroke-width: 0.5; stroke-linecap: square"/>
     </g>
     <g id="line2d_47">
      <g>
       <use xlink:href="#mda001d8503" x="279.793678" y="516.452178" style="fill: #ffffff; stroke: #ffffff; stroke-width: 0.5"/>
      </g>
     </g>
     <g id="line2d_48">
      <g>
       <use xlink:href="#mc97b1b7ea6" x="279.793678" y="53.751136" style="fill: #ffffff; stroke: #ffffff; stroke-width: 0.5"/>
      </g>
     </g>
    </g>
    <g id="xtick_17">
     <g id="line2d_49">
      <path d="M 298.633406 516.452178 
L 298.633406 53.751136 
" clip-path="url(#p7c77ac5fb6)" style="fill: none; stroke: #b0b0b0; stroke-width: 0.5; stroke-linecap: square"/>
     </g>
     <g id="line2d_50">
      <g>
       <use xlink:href="#mda001d8503" x="298.633406" y="516.452178" style="fill: #ffffff; stroke: #ffffff; stroke-width: 0.5"/>
      </g>
     </g>
     <g id="line2d_51">
      <g>
       <use xlink:href="#mc97b1b7ea6" x="298.633406" y="53.751136" style="fill: #ffffff; stroke: #ffffff; stroke-width: 0.5"/>
      </g>
     </g>
    </g>
    <g id="xtick_18">
     <g id="line2d_52">
      <path d="M 317.473133 516.452178 
L 317.473133 53.751136 
" clip-path="url(#p7c77ac5fb6)" style="fill: none; stroke: #b0b0b0; stroke-width: 0.5; stroke-linecap: square"/>
     </g>
     <g id="line2d_53">
      <g>
       <use xlink:href="#mda001d8503" x="317.473133" y="516.452178" style="fill: #ffffff; stroke: #ffffff; stroke-width: 0.5"/>
      </g>
     </g>
     <g id="line2d_54">
      <g>
       <use xlink:href="#mc97b1b7ea6" x="317.473133" y="53.751136" style="fill: #ffffff; stroke: #ffffff; stroke-width: 0.5"/>
      </g>
     </g>
    </g>
    <g id="xtick_19">
     <g id="line2d_55">
      <path d="M 336.31286 516.452178 
L 336.31286 53.751136 
" clip-path="url(#p7c77ac5fb6)" style="fill: none; stroke: #b0b0b0; stroke-width: 0.5; stroke-linecap: square"/>
     </g>
     <g id="line2d_56">
      <g>
       <use xlink:href="#mda001d8503" x="336.31286" y="516.452178" style="fill: #ffffff; stroke: #ffffff; stroke-width: 0.5"/>
      </g>
     </g>
     <g id="line2d_57">
      <g>
       <use xlink:href="#mc97b1b7ea6" x="336.31286" y="53.751136" style="fill: #ffffff; stroke: #ffffff; stroke-width: 0.5"/>
      </g>
     </g>
    </g>
    <g id="xtick_20">
     <g id="line2d_58">
      <path d="M 373.992315 516.452178 
L 373.992315 53.751136 
" clip-path="url(#p7c77ac5fb6)" style="fill: none; stroke: #b0b0b0; stroke-width: 0.5; stroke-linecap: square"/>
     </g>
     <g id="line2d_59">
      <g>
       <use xlink:href="#mda001d8503" x="373.992315" y="516.452178" style="fill: #ffffff; stroke: #ffffff; stroke-width: 0.5"/>
      </g>
     </g>
     <g id="line2d_60">
      <g>
       <use xlink:href="#mc97b1b7ea6" x="373.992315" y="53.751136" style="fill: #ffffff; stroke: #ffffff; stroke-width: 0.5"/>
      </g>
     </g>
    </g>
    <g id="xtick_21">
     <g id="line2d_61">
      <path d="M 392.832042 516.452178 
L 392.832042 53.751136 
" clip-path="url(#p7c77ac5fb6)" style="fill: none; stroke: #b0b0b0; stroke-width: 0.5; stroke-linecap: square"/>
     </g>
     <g id="line2d_62">
      <g>
       <use xlink:href="#mda001d8503" x="392.832042" y="516.452178" style="fill: #ffffff; stroke: #ffffff; stroke-width: 0.5"/>
      </g>
     </g>
     <g id="line2d_63">
      <g>
       <use xlink:href="#mc97b1b7ea6" x="392.832042" y="53.751136" style="fill: #ffffff; stroke: #ffffff; stroke-width: 0.5"/>
      </g>
     </g>
    </g>
    <g id="xtick_22">
     <g id="line2d_64">
      <path d="M 411.67177 516.452178 
L 411.67177 53.751136 
" clip-path="url(#p7c77ac5fb6)" style="fill: none; stroke: #b0b0b0; stroke-width: 0.5; stroke-linecap: square"/>
     </g>
     <g id="line2d_65">
      <g>
       <use xlink:href="#mda001d8503" x="411.67177" y="516.452178" style="fill: #ffffff; stroke: #ffffff; stroke-width: 0.5"/>
      </g>
     </g>
     <g id="line2d_66">
      <g>
       <use xlink:href="#mc97b1b7ea6" x="411.67177" y="53.751136" style="fill: #ffffff; stroke: #ffffff; stroke-width: 0.5"/>
      </g>
     </g>
    </g>
    <g id="xtick_23">
     <g id="line2d_67">
      <path d="M 430.511497 516.452178 
L 430.511497 53.751136 
" clip-path="url(#p7c77ac5fb6)" style="fill: none; stroke: #b0b0b0; stroke-width: 0.5; stroke-linecap: square"/>
     </g>
     <g id="line2d_68">
      <g>
       <use xlink:href="#mda001d8503" x="430.511497" y="516.452178" style="fill: #ffffff; stroke: #ffffff; stroke-width: 0.5"/>
      </g>
     </g>
     <g id="line2d_69">
      <g>
       <use xlink:href="#mc97b1b7ea6" x="430.511497" y="53.751136" style="fill: #ffffff; stroke: #ffffff; stroke-width: 0.5"/>
      </g>
     </g>
    </g>
    <g id="xtick_24">
     <g id="line2d_70">
      <path d="M 468.190952 516.452178 
L 468.190952 53.751136 
" clip-path="url(#p7c77ac5fb6)" style="fill: none; stroke: #b0b0b0; stroke-width: 0.5; stroke-linecap: square"/>
     </g>
     <g id="line2d_71">
      <g>
       <use xlink:href="#mda001d8503" x="468.190952" y="516.452178" style="fill: #ffffff; stroke: #ffffff; stroke-width: 0.5"/>
      </g>
     </g>
     <g id="line2d_72">
      <g>
       <use xlink:href="#mc97b1b7ea6" x="468.190952" y="53.751136" style="fill: #ffffff; stroke: #ffffff; stroke-width: 0.5"/>
      </g>
     </g>
    </g>
    <g id="xtick_25">
     <g id="line2d_73">
      <path d="M 487.030679 516.452178 
L 487.030679 53.751136 
" clip-path="url(#p7c77ac5fb6)" style="fill: none; stroke: #b0b0b0; stroke-width: 0.5; stroke-linecap: square"/>
     </g>
     <g id="line2d_74">
      <g>
       <use xlink:href="#mda001d8503" x="487.030679" y="516.452178" style="fill: #ffffff; stroke: #ffffff; stroke-width: 0.5"/>
      </g>
     </g>
     <g id="line2d_75">
      <g>
       <use xlink:href="#mc97b1b7ea6" x="487.030679" y="53.751136" style="fill: #ffffff; stroke: #ffffff; stroke-width: 0.5"/>
      </g>
     </g>
    </g>
    <g id="xtick_26">
     <g id="line2d_76">
      <path d="M 505.870406 516.452178 
L 505.870406 53.751136 
" clip-path="url(#p7c77ac5fb6)" style="fill: none; stroke: #b0b0b0; stroke-width: 0.5; stroke-linecap: square"/>
     </g>
     <g id="line2d_77">
      <g>
       <use xlink:href="#mda001d8503" x="505.870406" y="516.452178" style="fill: #ffffff; stroke: #ffffff; stroke-width: 0.5"/>
      </g>
     </g>
     <g id="line2d_78">
      <g>
       <use xlink:href="#mc97b1b7ea6" x="505.870406" y="53.751136" style="fill: #ffffff; stroke: #ffffff; stroke-width: 0.5"/>
      </g>
     </g>
    </g>
    <g id="xtick_27">
     <g id="line2d_79">
      <path d="M 524.710134 516.452178 
L 524.710134 53.751136 
" clip-path="url(#p7c77ac5fb6)" style="fill: none; stroke: #b0b0b0; stroke-width: 0.5; stroke-linecap: square"/>
     </g>
     <g id="line2d_80">
      <g>
       <use xlink:href="#mda001d8503" x="524.710134" y="516.452178" style="fill: #ffffff; stroke: #ffffff; stroke-width: 0.5"/>
      </g>
     </g>
     <g id="line2d_81">
      <g>
       <use xlink:href="#mc97b1b7ea6" x="524.710134" y="53.751136" style="fill: #ffffff; stroke: #ffffff; stroke-width: 0.5"/>
      </g>
     </g>
    </g>
    <g id="xtick_28">
     <g id="line2d_82">
      <path d="M 562.389588 516.452178 
L 562.389588 53.751136 
" clip-path="url(#p7c77ac5fb6)" style="fill: none; stroke: #b0b0b0; stroke-width: 0.5; stroke-linecap: square"/>
     </g>
     <g id="line2d_83">
      <g>
       <use xlink:href="#mda001d8503" x="562.389588" y="516.452178" style="fill: #ffffff; stroke: #ffffff; stroke-width: 0.5"/>
      </g>
     </g>
     <g id="line2d_84">
      <g>
       <use xlink:href="#mc97b1b7ea6" x="562.389588" y="53.751136" style="fill: #ffffff; stroke: #ffffff; stroke-width: 0.5"/>
      </g>
     </g>
    </g>
    <g id="text_7">
     <!-- $t$ -->
     <g style="fill: #ffffff" transform="translate(304.175948 567.187802) scale(0.28 -0.28)">
      <defs>
       <path id="NimbusRomNo9L-ReguItal-74" d="M 1894 2752 
L 1382 2752 
L 1562 3411 
C 1568 3424 1568 3436 1568 3443 
C 1568 3488 1549 3507 1517 3507 
C 1478 3507 1459 3500 1421 3449 
C 1171 3123 774 2803 570 2745 
C 410 2694 365 2655 365 2585 
C 365 2579 365 2566 371 2547 
L 845 2547 
L 384 782 
C 371 724 365 705 346 647 
C 288 454 237 230 237 179 
C 237 38 371 -64 544 -64 
C 838 -64 1050 115 1453 711 
L 1370 756 
C 1056 352 954 249 851 249 
C 794 249 755 300 755 377 
C 755 384 755 390 762 410 
L 1325 2547 
L 1862 2547 
L 1894 2752 
z
" transform="scale(0.015625)"/>
      </defs>
      <use xlink:href="#NimbusRomNo9L-ReguItal-74" transform="scale(0.996264)"/>
     </g>
    </g>
   </g>
   <g id="matplotlib.axis_2">
    <g id="ytick_1">
     <g id="line2d_85">
      <path d="M 49.007019 495.420312 
L 567.09952 495.420312 
" clip-path="url(#p7c77ac5fb6)" style="fill: none; stroke: #b0b0b0; stroke-width: 0.5; stroke-linecap: square"/>
     </g>
     <g id="line2d_86">
      <defs>
       <path id="m96f5d8b6df" d="M 0 0 
L -6.5 0 
" style="stroke: #ffffff; stroke-width: 1.5"/>
      </defs>
      <g>
       <use xlink:href="#m96f5d8b6df" x="49.007019" y="495.420312" style="fill: #ffffff; stroke: #ffffff; stroke-width: 1.5"/>
      </g>
     </g>
     <g id="line2d_87">
      <defs>
       <path id="mdacd920878" d="M 0 0 
L 6.5 0 
" style="stroke: #ffffff; stroke-width: 1.5"/>
      </defs>
      <g>
       <use xlink:href="#mdacd920878" x="567.09952" y="495.420312" style="fill: #ffffff; stroke: #ffffff; stroke-width: 1.5"/>
      </g>
     </g>
     <g id="text_8">
      <!-- $\mathdefault{−12}$ -->
      <g style="fill: #ffffff" transform="translate(3.6 502.17489) scale(0.2 -0.2)">
       <defs>
        <path id="CMSY10-0" d="M 4218 1472 
C 4326 1472 4442 1472 4442 1600 
C 4442 1728 4326 1728 4218 1728 
L 755 1728 
C 646 1728 531 1728 531 1600 
C 531 1472 646 1472 755 1472 
L 4218 1472 
z
" transform="scale(0.015625)"/>
       </defs>
       <use xlink:href="#CMSY10-0" transform="scale(0.996264)"/>
       <use xlink:href="#NimbusRomNo9L-Regu-31" transform="translate(77.408707 0) scale(0.996264)"/>
       <use xlink:href="#NimbusRomNo9L-Regu-32" transform="translate(127.221908 0) scale(0.996264)"/>
      </g>
     </g>
    </g>
    <g id="ytick_2">
     <g id="line2d_88">
      <path d="M 49.007019 434.4704 
L 567.09952 434.4704 
" clip-path="url(#p7c77ac5fb6)" style="fill: none; stroke: #b0b0b0; stroke-width: 0.5; stroke-linecap: square"/>
     </g>
     <g id="line2d_89">
      <g>
       <use xlink:href="#m96f5d8b6df" x="49.007019" y="434.4704" style="fill: #ffffff; stroke: #ffffff; stroke-width: 1.5"/>
      </g>
     </g>
     <g id="line2d_90">
      <g>
       <use xlink:href="#mdacd920878" x="567.09952" y="434.4704" style="fill: #ffffff; stroke: #ffffff; stroke-width: 1.5"/>
      </g>
     </g>
     <g id="text_9">
      <!-- $\mathdefault{−10}$ -->
      <g style="fill: #ffffff" transform="translate(3.6 441.224977) scale(0.2 -0.2)">
       <use xlink:href="#CMSY10-0" transform="scale(0.996264)"/>
       <use xlink:href="#NimbusRomNo9L-Regu-31" transform="translate(77.408707 0) scale(0.996264)"/>
       <use xlink:href="#NimbusRomNo9L-Regu-30" transform="translate(127.221908 0) scale(0.996264)"/>
      </g>
     </g>
    </g>
    <g id="ytick_3">
     <g id="line2d_91">
      <path d="M 49.007019 373.520487 
L 567.09952 373.520487 
" clip-path="url(#p7c77ac5fb6)" style="fill: none; stroke: #b0b0b0; stroke-width: 0.5; stroke-linecap: square"/>
     </g>
     <g id="line2d_92">
      <g>
       <use xlink:href="#m96f5d8b6df" x="49.007019" y="373.520487" style="fill: #ffffff; stroke: #ffffff; stroke-width: 1.5"/>
      </g>
     </g>
     <g id="line2d_93">
      <g>
       <use xlink:href="#mdacd920878" x="567.09952" y="373.520487" style="fill: #ffffff; stroke: #ffffff; stroke-width: 1.5"/>
      </g>
     </g>
     <g id="text_10">
      <!-- $\mathdefault{−8}$ -->
      <g style="fill: #ffffff" transform="translate(13.56264 380.275064) scale(0.2 -0.2)">
       <defs>
        <path id="NimbusRomNo9L-Regu-38" d="M 1856 2400 
C 2490 2739 2714 3008 2714 3443 
C 2714 3968 2253 4352 1613 4352 
C 915 4352 397 3923 397 3341 
C 397 2924 518 2739 1190 2150 
C 499 1625 358 1427 358 992 
C 358 371 864 -64 1587 -64 
C 2355 -64 2848 358 2848 1017 
C 2848 1510 2630 1824 1856 2400 
z
M 1741 1740 
C 2208 1408 2362 1177 2362 819 
C 2362 403 2074 115 1658 115 
C 1171 115 845 486 845 1043 
C 845 1452 986 1721 1357 2022 
L 1741 1740 
z
M 1670 2515 
C 1101 2886 870 3180 870 3539 
C 870 3910 1158 4172 1562 4172 
C 1997 4172 2272 3891 2272 3449 
C 2272 3084 2093 2796 1728 2553 
C 1696 2534 1696 2534 1670 2515 
z
" transform="scale(0.015625)"/>
       </defs>
       <use xlink:href="#CMSY10-0" transform="scale(0.996264)"/>
       <use xlink:href="#NimbusRomNo9L-Regu-38" transform="translate(77.408707 0) scale(0.996264)"/>
      </g>
     </g>
    </g>
    <g id="ytick_4">
     <g id="line2d_94">
      <path d="M 49.007019 312.570574 
L 567.09952 312.570574 
" clip-path="url(#p7c77ac5fb6)" style="fill: none; stroke: #b0b0b0; stroke-width: 0.5; stroke-linecap: square"/>
     </g>
     <g id="line2d_95">
      <g>
       <use xlink:href="#m96f5d8b6df" x="49.007019" y="312.570574" style="fill: #ffffff; stroke: #ffffff; stroke-width: 1.5"/>
      </g>
     </g>
     <g id="line2d_96">
      <g>
       <use xlink:href="#mdacd920878" x="567.09952" y="312.570574" style="fill: #ffffff; stroke: #ffffff; stroke-width: 1.5"/>
      </g>
     </g>
     <g id="text_11">
      <!-- $\mathdefault{−6}$ -->
      <g style="fill: #ffffff" transform="translate(13.56264 319.325152) scale(0.2 -0.2)">
       <defs>
        <path id="NimbusRomNo9L-Regu-36" d="M 2854 4390 
C 2125 4326 1754 4204 1286 3878 
C 595 3385 218 2655 218 1801 
C 218 1248 390 688 666 369 
C 909 89 1254 -64 1651 -64 
C 2445 -64 2995 541 2995 1420 
C 2995 2234 2528 2752 1792 2752 
C 1510 2752 1376 2707 973 2463 
C 1146 3430 1862 4121 2867 4288 
L 2854 4390 
z
M 1549 2457 
C 2099 2457 2419 1999 2419 1203 
C 2419 503 2170 115 1722 115 
C 1158 115 813 713 813 1700 
C 813 2024 864 2203 992 2298 
C 1126 2400 1325 2457 1549 2457 
z
" transform="scale(0.015625)"/>
       </defs>
       <use xlink:href="#CMSY10-0" transform="scale(0.996264)"/>
       <use xlink:href="#NimbusRomNo9L-Regu-36" transform="translate(77.408707 0) scale(0.996264)"/>
      </g>
     </g>
    </g>
    <g id="ytick_5">
     <g id="line2d_97">
      <path d="M 49.007019 251.620661 
L 567.09952 251.620661 
" clip-path="url(#p7c77ac5fb6)" style="fill: none; stroke: #b0b0b0; stroke-width: 0.5; stroke-linecap: square"/>
     </g>
     <g id="line2d_98">
      <g>
       <use xlink:href="#m96f5d8b6df" x="49.007019" y="251.620661" style="fill: #ffffff; stroke: #ffffff; stroke-width: 1.5"/>
      </g>
     </g>
     <g id="line2d_99">
      <g>
       <use xlink:href="#mdacd920878" x="567.09952" y="251.620661" style="fill: #ffffff; stroke: #ffffff; stroke-width: 1.5"/>
      </g>
     </g>
     <g id="text_12">
      <!-- $\mathdefault{−4}$ -->
      <g style="fill: #ffffff" transform="translate(13.56264 258.375239) scale(0.2 -0.2)">
       <use xlink:href="#CMSY10-0" transform="scale(0.996264)"/>
       <use xlink:href="#NimbusRomNo9L-Regu-34" transform="translate(77.408707 0) scale(0.996264)"/>
      </g>
     </g>
    </g>
    <g id="ytick_6">
     <g id="line2d_100">
      <path d="M 49.007019 190.670748 
L 567.09952 190.670748 
" clip-path="url(#p7c77ac5fb6)" style="fill: none; stroke: #b0b0b0; stroke-width: 0.5; stroke-linecap: square"/>
     </g>
     <g id="line2d_101">
      <g>
       <use xlink:href="#m96f5d8b6df" x="49.007019" y="190.670748" style="fill: #ffffff; stroke: #ffffff; stroke-width: 1.5"/>
      </g>
     </g>
     <g id="line2d_102">
      <g>
       <use xlink:href="#mdacd920878" x="567.09952" y="190.670748" style="fill: #ffffff; stroke: #ffffff; stroke-width: 1.5"/>
      </g>
     </g>
     <g id="text_13">
      <!-- $\mathdefault{−2}$ -->
      <g style="fill: #ffffff" transform="translate(13.56264 197.425326) scale(0.2 -0.2)">
       <use xlink:href="#CMSY10-0" transform="scale(0.996264)"/>
       <use xlink:href="#NimbusRomNo9L-Regu-32" transform="translate(77.408707 0) scale(0.996264)"/>
      </g>
     </g>
    </g>
    <g id="ytick_7">
     <g id="line2d_103">
      <path d="M 49.007019 129.720836 
L 567.09952 129.720836 
" clip-path="url(#p7c77ac5fb6)" style="fill: none; stroke: #b0b0b0; stroke-width: 0.5; stroke-linecap: square"/>
     </g>
     <g id="line2d_104">
      <g>
       <use xlink:href="#m96f5d8b6df" x="49.007019" y="129.720836" style="fill: #ffffff; stroke: #ffffff; stroke-width: 1.5"/>
      </g>
     </g>
     <g id="line2d_105">
      <g>
       <use xlink:href="#mdacd920878" x="567.09952" y="129.720836" style="fill: #ffffff; stroke: #ffffff; stroke-width: 1.5"/>
      </g>
     </g>
     <g id="text_14">
      <!-- $\mathdefault{0}$ -->
      <g style="fill: #ffffff" transform="translate(29.044379 136.475413) scale(0.2 -0.2)">
       <use xlink:href="#NimbusRomNo9L-Regu-30" transform="scale(0.996264)"/>
      </g>
     </g>
    </g>
    <g id="ytick_8">
     <g id="line2d_106">
      <path d="M 49.007019 68.770923 
L 567.09952 68.770923 
" clip-path="url(#p7c77ac5fb6)" style="fill: none; stroke: #b0b0b0; stroke-width: 0.5; stroke-linecap: square"/>
     </g>
     <g id="line2d_107">
      <g>
       <use xlink:href="#m96f5d8b6df" x="49.007019" y="68.770923" style="fill: #ffffff; stroke: #ffffff; stroke-width: 1.5"/>
      </g>
     </g>
     <g id="line2d_108">
      <g>
       <use xlink:href="#mdacd920878" x="567.09952" y="68.770923" style="fill: #ffffff; stroke: #ffffff; stroke-width: 1.5"/>
      </g>
     </g>
     <g id="text_15">
      <!-- $\mathdefault{2}$ -->
      <g style="fill: #ffffff" transform="translate(29.044379 75.5255) scale(0.2 -0.2)">
       <use xlink:href="#NimbusRomNo9L-Regu-32" transform="scale(0.996264)"/>
      </g>
     </g>
    </g>
    <g id="ytick_9">
     <g id="line2d_109">
      <path d="M 49.007019 510.657791 
L 567.09952 510.657791 
" clip-path="url(#p7c77ac5fb6)" style="fill: none; stroke: #b0b0b0; stroke-width: 0.5; stroke-linecap: square"/>
     </g>
     <g id="line2d_110">
      <defs>
       <path id="m20dc4e0f54" d="M 0 0 
L -4 0 
" style="stroke: #ffffff; stroke-width: 0.5"/>
      </defs>
      <g>
       <use xlink:href="#m20dc4e0f54" x="49.007019" y="510.657791" style="fill: #ffffff; stroke: #ffffff; stroke-width: 0.5"/>
      </g>
     </g>
     <g id="line2d_111">
      <defs>
       <path id="m040c0221bf" d="M 0 0 
L 4 0 
" style="stroke: #ffffff; stroke-width: 0.5"/>
      </defs>
      <g>
       <use xlink:href="#m040c0221bf" x="567.09952" y="510.657791" style="fill: #ffffff; stroke: #ffffff; stroke-width: 0.5"/>
      </g>
     </g>
    </g>
    <g id="ytick_10">
     <g id="line2d_112">
      <path d="M 49.007019 480.182834 
L 567.09952 480.182834 
" clip-path="url(#p7c77ac5fb6)" style="fill: none; stroke: #b0b0b0; stroke-width: 0.5; stroke-linecap: square"/>
     </g>
     <g id="line2d_113">
      <g>
       <use xlink:href="#m20dc4e0f54" x="49.007019" y="480.182834" style="fill: #ffffff; stroke: #ffffff; stroke-width: 0.5"/>
      </g>
     </g>
     <g id="line2d_114">
      <g>
       <use xlink:href="#m040c0221bf" x="567.09952" y="480.182834" style="fill: #ffffff; stroke: #ffffff; stroke-width: 0.5"/>
      </g>
     </g>
    </g>
    <g id="ytick_11">
     <g id="line2d_115">
      <path d="M 49.007019 464.945356 
L 567.09952 464.945356 
" clip-path="url(#p7c77ac5fb6)" style="fill: none; stroke: #b0b0b0; stroke-width: 0.5; stroke-linecap: square"/>
     </g>
     <g id="line2d_116">
      <g>
       <use xlink:href="#m20dc4e0f54" x="49.007019" y="464.945356" style="fill: #ffffff; stroke: #ffffff; stroke-width: 0.5"/>
      </g>
     </g>
     <g id="line2d_117">
      <g>
       <use xlink:href="#m040c0221bf" x="567.09952" y="464.945356" style="fill: #ffffff; stroke: #ffffff; stroke-width: 0.5"/>
      </g>
     </g>
    </g>
    <g id="ytick_12">
     <g id="line2d_118">
      <path d="M 49.007019 449.707878 
L 567.09952 449.707878 
" clip-path="url(#p7c77ac5fb6)" style="fill: none; stroke: #b0b0b0; stroke-width: 0.5; stroke-linecap: square"/>
     </g>
     <g id="line2d_119">
      <g>
       <use xlink:href="#m20dc4e0f54" x="49.007019" y="449.707878" style="fill: #ffffff; stroke: #ffffff; stroke-width: 0.5"/>
      </g>
     </g>
     <g id="line2d_120">
      <g>
       <use xlink:href="#m040c0221bf" x="567.09952" y="449.707878" style="fill: #ffffff; stroke: #ffffff; stroke-width: 0.5"/>
      </g>
     </g>
    </g>
    <g id="ytick_13">
     <g id="line2d_121">
      <path d="M 49.007019 419.232921 
L 567.09952 419.232921 
" clip-path="url(#p7c77ac5fb6)" style="fill: none; stroke: #b0b0b0; stroke-width: 0.5; stroke-linecap: square"/>
     </g>
     <g id="line2d_122">
      <g>
       <use xlink:href="#m20dc4e0f54" x="49.007019" y="419.232921" style="fill: #ffffff; stroke: #ffffff; stroke-width: 0.5"/>
      </g>
     </g>
     <g id="line2d_123">
      <g>
       <use xlink:href="#m040c0221bf" x="567.09952" y="419.232921" style="fill: #ffffff; stroke: #ffffff; stroke-width: 0.5"/>
      </g>
     </g>
    </g>
    <g id="ytick_14">
     <g id="line2d_124">
      <path d="M 49.007019 403.995443 
L 567.09952 403.995443 
" clip-path="url(#p7c77ac5fb6)" style="fill: none; stroke: #b0b0b0; stroke-width: 0.5; stroke-linecap: square"/>
     </g>
     <g id="line2d_125">
      <g>
       <use xlink:href="#m20dc4e0f54" x="49.007019" y="403.995443" style="fill: #ffffff; stroke: #ffffff; stroke-width: 0.5"/>
      </g>
     </g>
     <g id="line2d_126">
      <g>
       <use xlink:href="#m040c0221bf" x="567.09952" y="403.995443" style="fill: #ffffff; stroke: #ffffff; stroke-width: 0.5"/>
      </g>
     </g>
    </g>
    <g id="ytick_15">
     <g id="line2d_127">
      <path d="M 49.007019 388.757965 
L 567.09952 388.757965 
" clip-path="url(#p7c77ac5fb6)" style="fill: none; stroke: #b0b0b0; stroke-width: 0.5; stroke-linecap: square"/>
     </g>
     <g id="line2d_128">
      <g>
       <use xlink:href="#m20dc4e0f54" x="49.007019" y="388.757965" style="fill: #ffffff; stroke: #ffffff; stroke-width: 0.5"/>
      </g>
     </g>
     <g id="line2d_129">
      <g>
       <use xlink:href="#m040c0221bf" x="567.09952" y="388.757965" style="fill: #ffffff; stroke: #ffffff; stroke-width: 0.5"/>
      </g>
     </g>
    </g>
    <g id="ytick_16">
     <g id="line2d_130">
      <path d="M 49.007019 358.283009 
L 567.09952 358.283009 
" clip-path="url(#p7c77ac5fb6)" style="fill: none; stroke: #b0b0b0; stroke-width: 0.5; stroke-linecap: square"/>
     </g>
     <g id="line2d_131">
      <g>
       <use xlink:href="#m20dc4e0f54" x="49.007019" y="358.283009" style="fill: #ffffff; stroke: #ffffff; stroke-width: 0.5"/>
      </g>
     </g>
     <g id="line2d_132">
      <g>
       <use xlink:href="#m040c0221bf" x="567.09952" y="358.283009" style="fill: #ffffff; stroke: #ffffff; stroke-width: 0.5"/>
      </g>
     </g>
    </g>
    <g id="ytick_17">
     <g id="line2d_133">
      <path d="M 49.007019 343.04553 
L 567.09952 343.04553 
" clip-path="url(#p7c77ac5fb6)" style="fill: none; stroke: #b0b0b0; stroke-width: 0.5; stroke-linecap: square"/>
     </g>
     <g id="line2d_134">
      <g>
       <use xlink:href="#m20dc4e0f54" x="49.007019" y="343.04553" style="fill: #ffffff; stroke: #ffffff; stroke-width: 0.5"/>
      </g>
     </g>
     <g id="line2d_135">
      <g>
       <use xlink:href="#m040c0221bf" x="567.09952" y="343.04553" style="fill: #ffffff; stroke: #ffffff; stroke-width: 0.5"/>
      </g>
     </g>
    </g>
    <g id="ytick_18">
     <g id="line2d_136">
      <path d="M 49.007019 327.808052 
L 567.09952 327.808052 
" clip-path="url(#p7c77ac5fb6)" style="fill: none; stroke: #b0b0b0; stroke-width: 0.5; stroke-linecap: square"/>
     </g>
     <g id="line2d_137">
      <g>
       <use xlink:href="#m20dc4e0f54" x="49.007019" y="327.808052" style="fill: #ffffff; stroke: #ffffff; stroke-width: 0.5"/>
      </g>
     </g>
     <g id="line2d_138">
      <g>
       <use xlink:href="#m040c0221bf" x="567.09952" y="327.808052" style="fill: #ffffff; stroke: #ffffff; stroke-width: 0.5"/>
      </g>
     </g>
    </g>
    <g id="ytick_19">
     <g id="line2d_139">
      <path d="M 49.007019 297.333096 
L 567.09952 297.333096 
" clip-path="url(#p7c77ac5fb6)" style="fill: none; stroke: #b0b0b0; stroke-width: 0.5; stroke-linecap: square"/>
     </g>
     <g id="line2d_140">
      <g>
       <use xlink:href="#m20dc4e0f54" x="49.007019" y="297.333096" style="fill: #ffffff; stroke: #ffffff; stroke-width: 0.5"/>
      </g>
     </g>
     <g id="line2d_141">
      <g>
       <use xlink:href="#m040c0221bf" x="567.09952" y="297.333096" style="fill: #ffffff; stroke: #ffffff; stroke-width: 0.5"/>
      </g>
     </g>
    </g>
    <g id="ytick_20">
     <g id="line2d_142">
      <path d="M 49.007019 282.095618 
L 567.09952 282.095618 
" clip-path="url(#p7c77ac5fb6)" style="fill: none; stroke: #b0b0b0; stroke-width: 0.5; stroke-linecap: square"/>
     </g>
     <g id="line2d_143">
      <g>
       <use xlink:href="#m20dc4e0f54" x="49.007019" y="282.095618" style="fill: #ffffff; stroke: #ffffff; stroke-width: 0.5"/>
      </g>
     </g>
     <g id="line2d_144">
      <g>
       <use xlink:href="#m040c0221bf" x="567.09952" y="282.095618" style="fill: #ffffff; stroke: #ffffff; stroke-width: 0.5"/>
      </g>
     </g>
    </g>
    <g id="ytick_21">
     <g id="line2d_145">
      <path d="M 49.007019 266.858139 
L 567.09952 266.858139 
" clip-path="url(#p7c77ac5fb6)" style="fill: none; stroke: #b0b0b0; stroke-width: 0.5; stroke-linecap: square"/>
     </g>
     <g id="line2d_146">
      <g>
       <use xlink:href="#m20dc4e0f54" x="49.007019" y="266.858139" style="fill: #ffffff; stroke: #ffffff; stroke-width: 0.5"/>
      </g>
     </g>
     <g id="line2d_147">
      <g>
       <use xlink:href="#m040c0221bf" x="567.09952" y="266.858139" style="fill: #ffffff; stroke: #ffffff; stroke-width: 0.5"/>
      </g>
     </g>
    </g>
    <g id="ytick_22">
     <g id="line2d_148">
      <path d="M 49.007019 236.383183 
L 567.09952 236.383183 
" clip-path="url(#p7c77ac5fb6)" style="fill: none; stroke: #b0b0b0; stroke-width: 0.5; stroke-linecap: square"/>
     </g>
     <g id="line2d_149">
      <g>
       <use xlink:href="#m20dc4e0f54" x="49.007019" y="236.383183" style="fill: #ffffff; stroke: #ffffff; stroke-width: 0.5"/>
      </g>
     </g>
     <g id="line2d_150">
      <g>
       <use xlink:href="#m040c0221bf" x="567.09952" y="236.383183" style="fill: #ffffff; stroke: #ffffff; stroke-width: 0.5"/>
      </g>
     </g>
    </g>
    <g id="ytick_23">
     <g id="line2d_151">
      <path d="M 49.007019 221.145705 
L 567.09952 221.145705 
" clip-path="url(#p7c77ac5fb6)" style="fill: none; stroke: #b0b0b0; stroke-width: 0.5; stroke-linecap: square"/>
     </g>
     <g id="line2d_152">
      <g>
       <use xlink:href="#m20dc4e0f54" x="49.007019" y="221.145705" style="fill: #ffffff; stroke: #ffffff; stroke-width: 0.5"/>
      </g>
     </g>
     <g id="line2d_153">
      <g>
       <use xlink:href="#m040c0221bf" x="567.09952" y="221.145705" style="fill: #ffffff; stroke: #ffffff; stroke-width: 0.5"/>
      </g>
     </g>
    </g>
    <g id="ytick_24">
     <g id="line2d_154">
      <path d="M 49.007019 205.908227 
L 567.09952 205.908227 
" clip-path="url(#p7c77ac5fb6)" style="fill: none; stroke: #b0b0b0; stroke-width: 0.5; stroke-linecap: square"/>
     </g>
     <g id="line2d_155">
      <g>
       <use xlink:href="#m20dc4e0f54" x="49.007019" y="205.908227" style="fill: #ffffff; stroke: #ffffff; stroke-width: 0.5"/>
      </g>
     </g>
     <g id="line2d_156">
      <g>
       <use xlink:href="#m040c0221bf" x="567.09952" y="205.908227" style="fill: #ffffff; stroke: #ffffff; stroke-width: 0.5"/>
      </g>
     </g>
    </g>
    <g id="ytick_25">
     <g id="line2d_157">
      <path d="M 49.007019 175.43327 
L 567.09952 175.43327 
" clip-path="url(#p7c77ac5fb6)" style="fill: none; stroke: #b0b0b0; stroke-width: 0.5; stroke-linecap: square"/>
     </g>
     <g id="line2d_158">
      <g>
       <use xlink:href="#m20dc4e0f54" x="49.007019" y="175.43327" style="fill: #ffffff; stroke: #ffffff; stroke-width: 0.5"/>
      </g>
     </g>
     <g id="line2d_159">
      <g>
       <use xlink:href="#m040c0221bf" x="567.09952" y="175.43327" style="fill: #ffffff; stroke: #ffffff; stroke-width: 0.5"/>
      </g>
     </g>
    </g>
    <g id="ytick_26">
     <g id="line2d_160">
      <path d="M 49.007019 160.195792 
L 567.09952 160.195792 
" clip-path="url(#p7c77ac5fb6)" style="fill: none; stroke: #b0b0b0; stroke-width: 0.5; stroke-linecap: square"/>
     </g>
     <g id="line2d_161">
      <g>
       <use xlink:href="#m20dc4e0f54" x="49.007019" y="160.195792" style="fill: #ffffff; stroke: #ffffff; stroke-width: 0.5"/>
      </g>
     </g>
     <g id="line2d_162">
      <g>
       <use xlink:href="#m040c0221bf" x="567.09952" y="160.195792" style="fill: #ffffff; stroke: #ffffff; stroke-width: 0.5"/>
      </g>
     </g>
    </g>
    <g id="ytick_27">
     <g id="line2d_163">
      <path d="M 49.007019 144.958314 
L 567.09952 144.958314 
" clip-path="url(#p7c77ac5fb6)" style="fill: none; stroke: #b0b0b0; stroke-width: 0.5; stroke-linecap: square"/>
     </g>
     <g id="line2d_164">
      <g>
       <use xlink:href="#m20dc4e0f54" x="49.007019" y="144.958314" style="fill: #ffffff; stroke: #ffffff; stroke-width: 0.5"/>
      </g>
     </g>
     <g id="line2d_165">
      <g>
       <use xlink:href="#m040c0221bf" x="567.09952" y="144.958314" style="fill: #ffffff; stroke: #ffffff; stroke-width: 0.5"/>
      </g>
     </g>
    </g>
    <g id="ytick_28">
     <g id="line2d_166">
      <path d="M 49.007019 114.483357 
L 567.09952 114.483357 
" clip-path="url(#p7c77ac5fb6)" style="fill: none; stroke: #b0b0b0; stroke-width: 0.5; stroke-linecap: square"/>
     </g>
     <g id="line2d_167">
      <g>
       <use xlink:href="#m20dc4e0f54" x="49.007019" y="114.483357" style="fill: #ffffff; stroke: #ffffff; stroke-width: 0.5"/>
      </g>
     </g>
     <g id="line2d_168">
      <g>
       <use xlink:href="#m040c0221bf" x="567.09952" y="114.483357" style="fill: #ffffff; stroke: #ffffff; stroke-width: 0.5"/>
      </g>
     </g>
    </g>
    <g id="ytick_29">
     <g id="line2d_169">
      <path d="M 49.007019 99.245879 
L 567.09952 99.245879 
" clip-path="url(#p7c77ac5fb6)" style="fill: none; stroke: #b0b0b0; stroke-width: 0.5; stroke-linecap: square"/>
     </g>
     <g id="line2d_170">
      <g>
       <use xlink:href="#m20dc4e0f54" x="49.007019" y="99.245879" style="fill: #ffffff; stroke: #ffffff; stroke-width: 0.5"/>
      </g>
     </g>
     <g id="line2d_171">
      <g>
       <use xlink:href="#m040c0221bf" x="567.09952" y="99.245879" style="fill: #ffffff; stroke: #ffffff; stroke-width: 0.5"/>
      </g>
     </g>
    </g>
    <g id="ytick_30">
     <g id="line2d_172">
      <path d="M 49.007019 84.008401 
L 567.09952 84.008401 
" clip-path="url(#p7c77ac5fb6)" style="fill: none; stroke: #b0b0b0; stroke-width: 0.5; stroke-linecap: square"/>
     </g>
     <g id="line2d_173">
      <g>
       <use xlink:href="#m20dc4e0f54" x="49.007019" y="84.008401" style="fill: #ffffff; stroke: #ffffff; stroke-width: 0.5"/>
      </g>
     </g>
     <g id="line2d_174">
      <g>
       <use xlink:href="#m040c0221bf" x="567.09952" y="84.008401" style="fill: #ffffff; stroke: #ffffff; stroke-width: 0.5"/>
      </g>
     </g>
    </g>
   </g>
   <g id="line2d_175">
    <path d="M 72.556678 175.43327 
L 72.792174 173.873635 
L 73.168969 172.982684 
L 73.78126 172.194272 
L 74.911644 171.175169 
L 77.172411 169.482869 
L 83.860514 164.867205 
L 88.711744 161.351869 
L 92.338391 158.452921 
L 95.352748 155.761804 
L 97.94321 153.154833 
L 100.203978 150.569442 
L 102.229248 147.914234 
L 104.019022 145.199917 
L 105.620399 142.366318 
L 107.080478 139.317829 
L 108.399259 136.027122 
L 109.576742 132.475664 
L 110.660026 128.474853 
L 111.649112 123.937885 
L 112.543999 118.794354 
L 113.438886 112.277016 
L 114.333773 104.002918 
L 115.558355 90.218779 
L 116.500342 80.515545 
L 117.065534 76.73781 
L 117.489427 75.22035 
L 117.772023 74.817138 
L 118.00752 74.819614 
L 118.243017 75.098585 
L 118.572712 75.894918 
L 119.043705 77.707306 
L 119.703095 81.231883 
L 120.692181 87.877422 
L 124.554325 115.188834 
L 125.307914 118.442291 
L 125.920205 120.241729 
L 126.438298 121.18018 
L 126.862192 121.568235 
L 127.238986 121.641075 
L 127.615781 121.46984 
L 128.039675 120.997313 
L 128.557767 120.0299 
L 129.170058 118.339607 
L 129.829449 115.839095 
L 130.583038 112.054115 
L 131.383726 106.844468 
L 132.325713 99.128744 
L 134.398083 81.396519 
L 134.916175 78.934208 
L 135.340069 77.886084 
L 135.622665 77.656355 
L 135.858162 77.729915 
L 136.140757 78.107106 
L 136.517552 79.040498 
L 137.035645 80.983323 
L 137.789234 84.80815 
L 138.919617 91.865277 
L 141.698477 109.660182 
L 142.593364 113.795769 
L 143.299854 116.097267 
L 143.865046 117.28048 
L 144.336039 117.818661 
L 144.712833 117.961584 
L 145.089628 117.85447 
L 145.466422 117.502054 
L 145.937416 116.721295 
L 146.502608 115.286331 
L 147.161998 112.911816 
L 147.868488 109.49284 
L 148.669176 104.476945 
L 149.658262 96.752528 
L 151.353837 83.274562 
L 151.919029 80.432644 
L 152.342923 79.194029 
L 152.672618 78.766835 
L 152.908115 78.733668 
L 153.143611 78.910588 
L 153.473307 79.478232 
L 153.9443 80.845716 
L 154.556591 83.394 
L 155.451478 88.183012 
L 157.194153 99.055884 
L 158.701331 107.831291 
L 159.596218 111.858944 
L 160.302708 114.149616 
L 160.914999 115.432602 
L 161.385992 115.96495 
L 161.762787 116.10714 
L 162.139581 115.999669 
L 162.516376 115.644867 
L 162.987369 114.855477 
L 163.552561 113.39902 
L 164.211951 110.983778 
L 164.918441 107.512119 
L 165.766229 102.133392 
L 166.943712 92.97319 
L 168.121195 84.229711 
L 168.733486 81.151941 
L 169.204479 79.788818 
L 169.534174 79.370156 
L 169.81677 79.344331 
L 170.099366 79.601833 
L 170.476161 80.338356 
L 170.994253 81.968207 
L 171.700743 85.064571 
L 172.736928 90.751998 
L 175.845483 108.481954 
L 176.693271 111.808072 
L 177.352661 113.604476 
L 177.917853 114.549528 
L 178.341747 114.890695 
L 178.718541 114.929183 
L 179.095336 114.719463 
L 179.51923 114.187812 
L 180.037322 113.112174 
L 180.602514 111.398652 
L 181.261904 108.671568 
L 182.015494 104.580035 
L 182.95748 98.116643 
L 185.02985 83.26944 
L 185.595042 80.928062 
L 186.018936 79.980618 
L 186.348631 79.720573 
L 186.584127 79.775359 
L 186.866723 80.084808 
L 187.243518 80.867655 
L 187.76161 82.524789 
L 188.4681 85.605953 
L 189.551384 91.466266 
L 192.377344 107.244637 
L 193.272231 110.80768 
L 193.97872 112.757179 
L 194.543912 113.71307 
L 194.967806 114.067161 
L 195.344601 114.119033 
L 195.721395 113.923428 
L 196.145289 113.407602 
L 196.616282 112.465998 
L 197.181474 110.818864 
L 197.840864 108.171441 
L 198.594454 104.181334 
L 199.53644 97.876874 
L 201.60881 83.459273 
L 202.174002 81.18692 
L 202.597896 80.264321 
L 202.927591 80.008793 
L 203.163087 80.059956 
L 203.445683 80.358728 
L 203.822478 81.118706 
L 204.34057 82.732734 
L 205.04706 85.741446 
L 206.130344 91.473906 
L 208.956304 106.890075 
L 209.804091 110.201346 
L 210.510581 112.139462 
L 211.075773 113.096002 
L 211.499667 113.454407 
L 211.876461 113.511805 
L 212.253256 113.322585 
L 212.67715 112.814303 
L 213.148143 111.881023 
L 213.713335 110.243814 
L 214.372725 107.609852 
L 215.126314 103.64513 
L 216.068301 97.411934 
L 218.046472 83.878436 
L 218.611664 81.550767 
L 219.035558 80.561562 
L 219.365253 80.245411 
L 219.647849 80.273939 
L 219.930445 80.557924 
L 220.307239 81.29256 
L 220.825332 82.864638 
L 221.531822 85.808755 
L 222.615106 91.435044 
L 225.441065 106.578617 
L 226.288853 109.825882 
L 226.995342 111.721115 
L 227.560534 112.649449 
L 227.984428 112.989406 
L 228.361223 113.031749 
L 228.738017 112.82825 
L 229.161911 112.304338 
L 229.680004 111.237294 
L 230.245195 109.532181 
L 230.904586 106.820497 
L 231.705274 102.495786 
L 232.741459 95.498994 
L 234.342836 84.658472 
L 234.955127 81.97004 
L 235.42612 80.789838 
L 235.755816 80.437029 
L 236.038412 80.430769 
L 236.321008 80.678317 
L 236.697802 81.363658 
L 237.215895 82.869505 
L 237.922384 85.729846 
L 238.958569 90.987784 
L 241.925826 106.6068 
L 242.773614 109.727416 
L 243.433005 111.420895 
L 243.998196 112.309098 
L 244.42209 112.620871 
L 244.798885 112.639183 
L 245.175679 112.412286 
L 245.599573 111.86245 
L 246.117666 110.763918 
L 246.729957 108.854205 
L 247.436447 105.820257 
L 248.237135 101.339108 
L 249.367519 93.589748 
L 250.6863 84.893557 
L 251.298591 82.190838 
L 251.769584 80.979203 
L 252.099279 80.597138 
L 252.381875 80.562849 
L 252.664471 80.780846 
L 253.041266 81.42597 
L 253.512259 82.721874 
L 254.171649 85.253035 
L 255.160735 90.084653 
L 258.504786 107.253999 
L 259.305475 109.953621 
L 259.964865 111.448843 
L 260.482958 112.123849 
L 260.906852 112.338359 
L 261.283646 112.270466 
L 261.660441 111.957527 
L 262.084335 111.310818 
L 262.602427 110.093369 
L 263.214718 108.042686 
L 263.921208 104.850678 
L 264.768996 99.918137 
L 267.547856 82.571304 
L 268.018849 81.243989 
L 268.395643 80.73873 
L 268.678239 80.673878 
L 268.960835 80.860469 
L 269.29053 81.367913 
L 269.761524 82.563442 
L 270.373815 84.782185 
L 271.268702 88.956353 
L 273.293972 99.8867 
L 274.565654 106.001571 
L 275.413442 109.103297 
L 276.072832 110.800703 
L 276.638024 111.702238 
L 277.061918 112.028324 
L 277.438712 112.061509 
L 277.815507 111.850884 
L 278.239401 111.32052 
L 278.757493 110.247147 
L 279.369784 108.369671 
L 280.076274 105.379529 
L 280.876963 100.965613 
L 282.054446 93.036192 
L 283.279028 85.166037 
L 283.891319 82.476378 
L 284.362312 81.245827 
L 284.739107 80.810386 
L 285.021703 80.791544 
L 285.304299 81.018045 
L 285.681093 81.665006 
L 286.199186 83.104501 
L 286.905675 85.859345 
L 287.94186 90.947653 
L 290.909117 106.077819 
L 291.756905 109.087155 
L 292.416296 110.709252 
L 292.934388 111.496369 
L 293.358282 111.807811 
L 293.735077 111.828668 
L 294.111871 111.606199 
L 294.535765 111.062921 
L 295.053857 109.974227 
L 295.666149 108.079568 
L 296.372638 105.072773 
L 297.220426 100.360776 
L 298.539207 91.456506 
L 299.575392 85.032022 
L 300.187683 82.434418 
L 300.658676 81.271137 
L 300.988372 80.90563 
L 301.270967 80.875204 
L 301.553563 81.088714 
L 301.930358 81.717006 
L 302.401351 82.978311 
L 303.060742 85.443471 
L 304.049827 90.152611 
L 307.34678 106.655625 
L 308.147468 109.304609 
L 308.806858 110.774368 
L 309.324951 111.437655 
L 309.748845 111.646621 
L 310.125639 111.576017 
L 310.502434 111.261872 
L 310.973427 110.524032 
L 311.49152 109.265667 
L 312.103811 107.170161 
L 312.8103 103.938636 
L 313.705187 98.700237 
L 316.154352 83.486353 
L 316.672445 81.794252 
L 317.096338 81.079987 
L 317.378934 80.934875 
L 317.66153 81.039642 
L 317.991225 81.45259 
L 318.415119 82.390016 
L 318.980311 84.226776 
L 319.781 87.666054 
L 321.14688 94.72348 
L 323.030853 104.270392 
L 323.972839 107.938877 
L 324.679329 109.909196 
L 325.24452 110.931165 
L 325.715514 111.383694 
L 326.092308 111.477526 
L 326.469103 111.329727 
L 326.892997 110.872045 
L 327.36399 109.998647 
L 327.929182 108.439116 
L 328.588572 105.911152 
L 329.38926 101.844147 
L 330.425445 95.260828 
L 332.026822 85.087195 
L 332.639113 82.541745 
L 333.110107 81.403926 
L 333.439802 81.048238 
L 333.722398 81.021352 
L 334.004994 81.234398 
L 334.381788 81.856773 
L 334.852781 83.10392 
L 335.512172 85.540237 
L 336.501258 90.193599 
L 339.79821 106.468155 
L 340.598898 109.066053 
L 341.258289 110.498373 
L 341.776381 111.135113 
L 342.200275 111.323945 
L 342.57707 111.236393 
L 342.953864 110.905996 
L 343.424857 110.148621 
L 343.94295 108.869791 
L 344.555241 106.752424 
L 345.30883 103.256544 
L 346.203717 97.964259 
L 348.464484 83.968695 
L 349.029676 82.024411 
L 349.45357 81.254889 
L 349.783265 81.06331 
L 350.065861 81.166807 
L 350.395556 81.574416 
L 350.81945 82.500077 
L 351.384642 84.314889 
L 352.185331 87.715201 
L 353.551211 94.694382 
L 355.435184 104.125118 
L 356.37717 107.740294 
L 357.08366 109.675582 
L 357.648851 110.672846 
L 358.119845 111.106804 
L 358.496639 111.186867 
L 358.873434 111.02607 
L 359.297328 110.554495 
L 359.768321 109.666445 
L 360.333513 108.090642 
L 360.992903 105.547083 
L 361.793591 101.472544 
L 362.876876 94.604157 
L 364.336955 85.423697 
L 364.996345 82.661056 
L 365.467338 81.526241 
L 365.844133 81.143754 
L 366.126729 81.150937 
L 366.409325 81.392573 
L 366.786119 82.044671 
L 367.304212 83.467956 
L 368.010702 86.168067 
L 369.046887 91.129871 
L 371.919945 105.365072 
L 372.767733 108.322891 
L 373.427123 109.926396 
L 373.992315 110.759349 
L 374.416209 111.040013 
L 374.793003 111.036222 
L 375.169798 110.79109 
L 375.593692 110.224193 
L 376.111784 109.109092 
L 376.724075 107.187992 
L 377.430565 104.163804 
L 378.278353 99.473416 
L 381.057213 83.020573 
L 381.528206 81.744136 
L 381.905 81.24622 
L 382.187596 81.16988 
L 382.470192 81.332759 
L 382.799887 81.799991 
L 383.270881 82.920564 
L 383.883172 85.02168 
L 384.778059 89.001744 
L 386.75623 99.220792 
L 388.027912 105.103872 
L 388.8757 108.097572 
L 389.582189 109.829705 
L 390.147381 110.655621 
L 390.571275 110.931689 
L 390.94807 110.92421 
L 391.324864 110.675694 
L 391.748758 110.105296 
L 392.26685 108.986345 
L 392.879142 107.061533 
L 393.585631 104.035223 
L 394.433419 99.348867 
L 397.16518 83.176208 
L 397.683272 81.761453 
L 398.060067 81.281322 
L 398.342662 81.2162 
L 398.625258 81.388378 
L 399.002053 81.954375 
L 399.473046 83.131107 
L 400.132437 85.473443 
L 401.074423 89.767054 
L 404.559773 106.527677 
L 405.360461 108.951728 
L 405.972752 110.167688 
L 406.443745 110.695989 
L 406.867639 110.857881 
L 407.244434 110.747833 
L 407.621228 110.396051 
L 408.092221 109.613297 
L 408.657413 108.166662 
L 409.316804 105.777075 
L 410.070393 102.14518 
L 411.059478 96.154856 
L 412.849253 85.076993 
L 413.461544 82.658745 
L 413.932537 81.597171 
L 414.262232 81.280936 
L 414.544828 81.278575 
L 414.827424 81.507992 
L 415.204218 82.1407 
L 415.722311 83.533575 
L 416.428801 86.188771 
L 417.464986 91.082928 
L 420.338044 105.148592 
L 421.185832 108.070456 
L 421.845222 109.652227 
L 422.410414 110.4705 
L 422.834308 110.742139 
L 423.211103 110.731476 
L 423.587897 110.480353 
L 424.011791 109.907612 
L 424.529883 108.786632 
L 425.142175 106.86099 
L 425.848664 103.83749 
L 426.696452 99.165125 
L 429.381113 83.34416 
L 429.899206 81.892105 
L 430.276 81.37933 
L 430.558596 81.288321 
L 430.841192 81.434354 
L 431.170887 81.88008 
L 431.641881 82.968093 
L 432.254172 85.026171 
L 433.149059 88.945555 
L 435.033031 98.573583 
L 436.351812 104.686157 
L 437.246699 107.84536 
L 437.953189 109.564481 
L 438.518381 110.384264 
L 438.942275 110.657731 
L 439.319069 110.649084 
L 439.695864 110.400274 
L 440.119758 109.830439 
L 440.63785 108.713435 
L 441.250141 106.793228 
L 441.956631 103.777521 
L 442.804419 99.118054 
L 445.48908 83.362992 
L 446.007173 81.919925 
L 446.383967 81.411355 
L 446.666563 81.322227 
L 446.949159 81.469132 
L 447.278854 81.914745 
L 447.749847 83.000827 
L 448.362139 85.054017 
L 449.257026 88.962952 
L 451.140998 98.561539 
L 452.459779 104.650933 
L 453.354666 107.795064 
L 454.061156 109.503305 
L 454.626348 110.315136 
L 455.050242 110.583049 
L 455.427036 110.56972 
L 455.803831 110.316434 
L 456.227725 109.741783 
L 456.745817 108.619217 
L 457.358108 106.693105 
L 458.064598 103.672371 
L 458.912386 99.012449 
L 461.597047 83.34376 
L 462.115139 81.925806 
L 462.491934 81.433428 
L 462.77453 81.354847 
L 463.057126 81.510787 
L 463.386821 81.964999 
L 463.857814 83.059899 
L 464.470105 85.11915 
L 465.364992 89.028105 
L 467.296065 98.838102 
L 468.567746 104.659698 
L 469.462633 107.778456 
L 470.122024 109.376791 
L 470.687215 110.214454 
L 471.111109 110.502979 
L 471.487904 110.508606 
L 471.864698 110.274733 
L 472.288592 109.722371 
L 472.806685 108.627626 
L 473.418976 106.73511 
L 474.125466 103.753499 
L 474.973253 99.137541 
L 477.705014 83.290931 
L 478.223106 81.912849 
L 478.599901 81.447557 
L 478.882497 81.387371 
L 479.165093 81.559717 
L 479.541887 82.11956 
L 480.01288 83.280345 
L 480.672271 85.58919 
L 481.614257 89.820395 
L 485.052508 106.128311 
L 485.853196 108.543702 
L 486.465487 109.762848 
L 486.98358 110.331885 
L 487.360374 110.469121 
L 487.737169 110.368777 
L 488.113963 110.028002 
L 488.584956 109.260641 
L 489.150148 107.835014 
L 489.809539 105.474698 
L 490.563128 101.886395 
L 491.552213 95.979608 
L 493.341988 85.119609 
L 493.954279 82.763958 
L 494.425272 81.735474 
L 494.754967 81.433833 
L 495.037563 81.438603 
L 495.320159 81.670623 
L 495.696953 82.300646 
L 496.215046 83.68047 
L 496.921536 86.305032 
L 497.957721 91.136621 
L 500.830779 104.976501 
L 501.678567 107.832015 
L 502.337957 109.366433 
L 502.85605 110.101982 
L 503.279944 110.380479 
L 503.656738 110.377611 
L 504.033533 110.13559 
L 504.457427 109.574436 
L 504.975519 108.469509 
L 505.58781 106.566114 
L 506.2943 103.575004 
L 507.142088 98.957139 
L 509.826749 83.422133 
L 510.344841 82.010201 
L 510.721636 81.516598 
L 511.004232 81.434462 
L 511.286828 81.584984 
L 511.616523 82.030999 
L 512.087516 83.111644 
L 512.699807 85.149588 
L 513.594694 89.024746 
L 515.525766 98.760198 
L 516.797448 104.537409 
L 517.692335 107.630479 
L 518.351726 109.213503 
L 518.916917 110.040368 
L 519.340811 110.322012 
L 519.717606 110.322255 
L 520.0944 110.083584 
L 520.518294 109.526446 
L 521.036387 108.42677 
L 521.648678 106.530132 
L 522.355168 103.547811 
L 523.202955 98.942334 
L 525.887616 83.44546 
L 526.405709 82.034962 
L 526.782504 81.540782 
L 527.065099 81.457459 
L 527.347695 81.606265 
L 527.677391 82.04975 
L 528.148384 83.126075 
L 528.760675 85.157655 
L 529.655562 89.022843 
L 531.586634 98.736656 
L 532.858316 104.501202 
L 533.753203 107.587044 
L 534.412593 109.165818 
L 534.977785 109.989727 
L 535.401679 110.269513 
L 535.778473 110.268321 
L 536.155268 110.028392 
L 536.579162 109.470025 
L 537.097254 108.369121 
L 537.709545 106.471549 
L 538.416035 103.489352 
L 539.263823 98.88732 
L 541.901385 83.611171 
L 542.419477 82.137377 
L 542.796272 81.595101 
L 543.078868 81.476512 
L 543.361464 81.59173 
L 543.549861 81.790216 
L 543.549861 81.790216 
" clip-path="url(#p7c77ac5fb6)" style="fill: none; stroke: #3f90da; stroke-width: 2; stroke-linecap: square"/>
   </g>
   <g id="line2d_176">
    <path d="M 72.556678 495.420312 
L 73.027671 488.392211 
L 74.158055 474.61511 
L 75.759431 457.928529 
L 77.878901 438.249249 
L 80.610661 415.033257 
L 84.14311 387.010797 
L 88.99434 350.430908 
L 110.330331 193.117185 
L 111.366516 187.510967 
L 112.073006 184.757959 
L 112.543999 183.673482 
L 112.826595 183.412733 
L 113.062092 183.470747 
L 113.297588 183.822791 
L 113.580184 184.701196 
L 113.909879 186.477723 
L 114.286674 189.719952 
L 114.710568 195.276888 
L 115.22866 205.437415 
L 115.793852 221.377503 
L 116.547441 249.995086 
L 118.431414 325.580525 
L 119.043705 340.946072 
L 119.561797 348.96335 
L 119.938592 352.033443 
L 120.221188 352.919503 
L 120.362486 352.937195 
L 120.503784 352.686776 
L 120.73928 351.706664 
L 121.068976 349.250582 
L 121.539969 343.845835 
L 122.199359 333.364832 
L 123.235544 312.816188 
L 125.496312 267.377718 
L 126.673794 248.517914 
L 127.757079 234.550271 
L 128.746164 224.50835 
L 129.546853 218.425573 
L 130.159144 215.271865 
L 130.583038 214.035819 
L 130.865634 213.730476 
L 131.054031 213.790821 
L 131.289528 214.197626 
L 131.572124 215.228405 
L 131.948918 217.657271 
L 132.372812 222.064224 
L 132.843805 229.35957 
L 133.408997 241.754535 
L 134.162586 263.984404 
L 136.329155 332.032254 
L 136.941446 343.177784 
L 137.412439 348.236121 
L 137.789234 350.150974 
L 138.02473 350.4426 
L 138.166028 350.302322 
L 138.401525 349.572076 
L 138.73122 347.582754 
L 139.202213 343.020991 
L 139.814504 334.654382 
L 140.756491 318.242939 
L 143.865046 261.538454 
L 144.995429 245.957279 
L 145.984515 235.27779 
L 146.785203 228.896761 
L 147.397495 225.666927 
L 147.821388 224.456929 
L 148.103984 224.202744 
L 148.292382 224.310653 
L 148.527878 224.789682 
L 148.810474 225.920647 
L 149.187269 228.489472 
L 149.611163 233.021849 
L 150.129255 241.201293 
L 150.741546 254.751482 
L 151.589334 279.150487 
L 153.23781 327.229886 
L 153.8972 339.946918 
L 154.415293 346.147006 
L 154.792088 348.552727 
L 155.074683 349.247841 
L 155.215981 349.256718 
L 155.404379 348.93417 
L 155.686975 347.773767 
L 156.063769 345.07484 
L 156.581862 339.520659 
L 157.288351 329.306182 
L 158.465834 308.454485 
L 160.679502 269.249863 
L 161.856985 252.529573 
L 162.846071 241.496803 
L 163.646759 234.886159 
L 164.259051 231.519111 
L 164.682944 230.227999 
L 164.96554 229.921906 
L 165.153938 229.994255 
L 165.389434 230.425501 
L 165.67203 231.490098 
L 166.048825 233.94414 
L 166.472718 238.289461 
L 166.990811 246.11428 
L 167.603102 259.008935 
L 168.45089 282.089922 
L 170.099366 327.522841 
L 170.758756 339.610145 
L 171.276849 345.5296 
L 171.653643 347.837332 
L 171.936239 348.510243 
L 172.077537 348.522774 
L 172.265935 348.219017 
L 172.548531 347.113702 
L 172.925325 344.531087 
L 173.443418 339.198667 
L 174.149907 329.359445 
L 175.280291 310.030268 
L 177.635257 269.48579 
L 178.765641 253.985141 
L 179.707627 243.869295 
L 180.461216 237.936414 
L 181.026408 235.007889 
L 181.450302 233.841085 
L 181.685798 233.633711 
L 181.874196 233.719498 
L 182.109692 234.16816 
L 182.392288 235.252113 
L 182.769083 237.722302 
L 183.192976 242.057114 
L 183.711069 249.793972 
L 184.370459 263.535237 
L 185.312446 288.805378 
L 186.725425 326.251481 
L 187.384816 338.388622 
L 187.902908 344.516104 
L 188.326802 347.243546 
L 188.609398 347.960143 
L 188.797795 347.972525 
L 188.986193 347.630577 
L 189.268789 346.491346 
L 189.645583 343.903054 
L 190.163676 338.625715 
L 190.870165 328.951109 
L 192.047648 309.17286 
L 194.308416 270.982531 
L 195.438799 255.692595 
L 196.380786 245.776447 
L 197.134375 240.060363 
L 197.699567 237.346859 
L 198.076361 236.435408 
L 198.311858 236.284026 
L 198.500255 236.417932 
L 198.735752 236.93023 
L 199.065447 238.349939 
L 199.442241 241.081489 
L 199.913234 246.336968 
L 200.478426 255.527748 
L 201.184916 271.208393 
L 202.644995 310.70362 
L 203.539882 331.165248 
L 204.152173 340.753972 
L 204.623166 345.305901 
L 204.999961 347.181235 
L 205.235457 347.588175 
L 205.376755 347.562382 
L 205.565153 347.226238 
L 205.847749 346.109598 
L 206.224543 343.573913 
L 206.742636 338.402247 
L 207.449125 328.913394 
L 208.579509 310.302495 
L 210.934475 271.155666 
L 212.064859 256.233643 
L 212.959746 247.084464 
L 213.666235 241.867972 
L 214.184328 239.400839 
L 214.561122 238.461849 
L 214.796619 238.291288 
L 214.985016 238.408091 
L 215.220513 238.89595 
L 215.550208 240.273545 
L 215.927003 242.941125 
L 216.397996 248.083456 
L 216.963188 257.074769 
L 217.669677 272.398747 
L 219.082657 309.782037 
L 219.977544 330.157618 
L 220.636935 340.474428 
L 221.107928 344.971309 
L 221.484722 346.838723 
L 221.720219 347.254885 
L 221.861517 347.239285 
L 222.049914 346.921669 
L 222.33251 345.842265 
L 222.709305 343.371011 
L 223.227397 338.308576 
L 223.933887 328.991208 
L 225.06427 310.661913 
L 227.466336 271.279363 
L 228.54962 257.201296 
L 229.444507 248.199117 
L 230.150997 243.130579 
L 230.669089 240.798675 
L 231.045884 239.975085 
L 231.28138 239.884375 
L 231.469778 240.06929 
L 231.705274 240.64726 
L 232.03497 242.158859 
L 232.458863 245.427521 
L 232.929857 250.97317 
L 233.495048 260.405344 
L 234.248638 277.227849 
L 236.650703 334.505274 
L 237.215895 342.016629 
L 237.686888 345.663656 
L 238.016583 346.826882 
L 238.20498 346.999699 
L 238.346278 346.904264 
L 238.581775 346.335109 
L 238.91147 344.731285 
L 239.335364 341.427831 
L 239.947655 334.607457 
L 240.795443 322.310647 
L 243.009111 285.287428 
L 244.327892 265.868196 
L 245.364077 253.747976 
L 246.164765 246.762251 
L 246.777056 243.126376 
L 247.20095 241.646239 
L 247.530645 241.175837 
L 247.719043 241.204527 
L 247.90744 241.467513 
L 248.190036 242.334339 
L 248.519731 244.123717 
L 248.943625 247.77469 
L 249.461717 254.466939 
L 250.074008 265.578266 
L 250.921796 285.620277 
L 252.71157 328.989054 
L 253.370961 339.402502 
L 253.889053 344.421525 
L 254.265848 346.299706 
L 254.548444 346.766247 
L 254.689742 346.710281 
L 254.878139 346.34894 
L 255.160735 345.224548 
L 255.537529 342.728816 
L 256.055622 337.690692 
L 256.809211 327.805673 
L 257.986694 308.895907 
L 260.247461 272.567812 
L 261.330746 258.717578 
L 262.225633 249.927111 
L 262.885023 245.327232 
L 263.403116 243.06536 
L 263.77991 242.30077 
L 264.015407 242.249667 
L 264.203804 242.467214 
L 264.4864 243.258712 
L 264.816095 244.947932 
L 265.239989 248.448522 
L 265.758081 254.923304 
L 266.370373 265.740996 
L 267.21816 285.378685 
L 269.055034 329.279228 
L 269.714424 339.469632 
L 270.232517 344.350692 
L 270.609311 346.151531 
L 270.844808 346.556072 
L 270.986106 346.5436 
L 271.174503 346.24106 
L 271.457099 345.205572 
L 271.833894 342.827346 
L 272.351986 337.943851 
L 273.058476 328.934121 
L 274.188859 311.153383 
L 276.638024 272.105837 
L 277.721308 258.547588 
L 278.569096 250.425255 
L 279.228486 245.959153 
L 279.746579 243.823576 
L 280.076274 243.201994 
L 280.311771 243.153612 
L 280.500168 243.372838 
L 280.782764 244.165465 
L 281.112459 245.852678 
L 281.536353 249.342354 
L 282.054446 255.784322 
L 282.666737 266.524481 
L 283.514524 285.97633 
L 285.351398 329.359335 
L 286.010788 339.416804 
L 286.528881 344.22779 
L 286.905675 345.996343 
L 287.141172 346.388176 
L 287.28247 346.370667 
L 287.470867 346.064262 
L 287.753463 345.028678 
L 288.130258 342.659871 
L 288.64835 337.804255 
L 289.35484 328.853195 
L 290.485224 311.192637 
L 292.934388 272.403355 
L 294.017672 258.953467 
L 294.86546 250.929043 
L 295.524851 246.555806 
L 295.995844 244.637125 
L 296.325539 243.990357 
L 296.561036 243.921566 
L 296.749433 244.122696 
L 296.984929 244.717627 
L 297.314625 246.24228 
L 297.738519 249.496545 
L 298.209512 254.959484 
L 298.821803 265.046349 
L 299.622491 282.633711 
L 301.741961 331.639539 
L 302.354252 340.2656 
L 302.825245 344.31902 
L 303.20204 345.941724 
L 303.437536 346.252104 
L 303.578834 346.189515 
L 303.767231 345.827531 
L 304.049827 344.718389 
L 304.426622 342.269752 
L 304.944714 337.337314 
L 305.698303 327.6656 
L 306.875786 309.152546 
L 309.136554 273.530754 
L 310.219838 259.990758 
L 311.067626 251.87071 
L 311.727016 247.406426 
L 312.245109 245.272396 
L 312.574804 244.650712 
L 312.8103 244.600963 
L 312.998698 244.817854 
L 313.281294 245.60398 
L 313.610989 247.277111 
L 314.034883 250.733638 
L 314.552975 257.102196 
L 315.165266 267.694073 
L 316.013054 286.825331 
L 317.849928 329.403654 
L 318.509318 339.274241 
L 319.02741 343.995041 
L 319.404205 345.727726 
L 319.639702 346.108775 
L 319.781 346.088771 
L 319.969397 345.783375 
L 320.251993 344.757878 
L 320.628787 342.416637 
L 321.14688 337.620431 
L 321.85337 328.778778 
L 322.983753 311.324775 
L 325.432918 272.949737 
L 326.516202 259.667628 
L 327.36399 251.793735 
L 328.02338 247.562566 
L 328.494373 245.763816 
L 328.824069 245.211368 
L 329.012466 245.186382 
L 329.200863 245.389464 
L 329.483459 246.152152 
L 329.813154 247.793047 
L 330.237048 251.19889 
L 330.755141 257.489392 
L 331.367432 267.966637 
L 332.21522 286.917519 
L 334.052093 329.233504 
L 334.711483 339.092286 
L 335.229576 343.830274 
L 335.606371 345.586744 
L 335.841867 345.986425 
L 335.983165 345.978741 
L 336.171562 345.6909 
L 336.454158 344.693702 
L 336.830953 342.392795 
L 337.349045 337.65445 
L 338.055535 328.891006 
L 339.185919 311.547346 
L 341.635083 273.317948 
L 342.718368 260.075665 
L 343.566155 252.234662 
L 344.225546 248.033984 
L 344.696539 246.260579 
L 345.026234 245.727638 
L 345.214631 245.714349 
L 345.403029 245.929423 
L 345.685625 246.710367 
L 346.01532 248.372221 
L 346.439214 251.80233 
L 346.957306 258.112872 
L 347.569597 268.58863 
L 348.417385 287.471008 
L 350.207159 328.582163 
L 350.86655 338.600416 
L 351.384642 343.496837 
L 351.761437 345.376591 
L 352.044033 345.887348 
L 352.185331 345.865688 
L 352.373728 345.561444 
L 352.656324 344.544318 
L 353.033118 342.225179 
L 353.551211 337.476036 
L 354.257701 328.720587 
L 355.388084 311.429078 
L 357.837249 273.38202 
L 358.920533 260.233907 
L 359.768321 252.479998 
L 360.427711 248.361407 
L 360.898704 246.657072 
L 361.2284 246.178433 
L 361.416797 246.198456 
L 361.605194 246.44847 
L 361.88779 247.28466 
L 362.217485 249.014488 
L 362.641379 252.534706 
L 363.159472 258.950667 
L 363.771763 269.522014 
L 364.619551 288.429118 
L 366.362225 328.2591 
L 367.021616 338.328633 
L 367.539708 343.29062 
L 367.916503 345.226668 
L 368.199099 345.782414 
L 368.387496 345.744487 
L 368.575893 345.394426 
L 368.858489 344.315637 
L 369.235284 341.927662 
L 369.753376 337.108525 
L 370.459866 328.300768 
L 371.59025 311.011987 
L 373.992315 273.817625 
L 375.075599 260.671462 
L 375.923387 252.913897 
L 376.582777 248.790791 
L 377.053771 247.081965 
L 377.383466 246.599083 
L 377.571863 246.616085 
L 377.76026 246.862515 
L 378.042856 247.692009 
L 378.372552 249.411458 
L 378.796445 252.913001 
L 379.314538 259.295666 
L 379.926829 269.81029 
L 380.774617 288.611794 
L 382.517292 328.231636 
L 383.176682 338.258606 
L 383.694775 343.204583 
L 384.071569 345.137675 
L 384.354165 345.69542 
L 384.542562 345.660611 
L 384.73096 345.314956 
L 385.013555 344.24493 
L 385.39035 341.872042 
L 385.908442 337.078493 
L 386.614932 328.31116 
L 387.745316 311.09014 
L 390.147381 274.014346 
L 391.230665 260.913683 
L 392.078453 253.19598 
L 392.690744 249.33809 
L 393.161737 247.54761 
L 393.491433 246.999173 
L 393.67983 246.975148 
L 393.868227 247.177736 
L 394.150823 247.935874 
L 394.480518 249.563274 
L 394.904412 252.932928 
L 395.422505 259.138129 
L 396.034796 269.437682 
L 396.882584 287.99689 
L 398.719457 329.30302 
L 399.378848 338.918956 
L 399.89694 343.536151 
L 400.273735 345.242086 
L 400.509231 345.624933 
L 400.650529 345.612221 
L 400.838926 345.323236 
L 401.121522 344.335367 
L 401.498317 342.065224 
L 402.016409 337.397422 
L 402.722899 328.76828 
L 403.806183 312.439841 
L 406.349547 273.36802 
L 407.385732 260.982845 
L 408.233519 253.344667 
L 408.84581 249.555869 
L 409.316804 247.827427 
L 409.646499 247.327708 
L 409.834896 247.333569 
L 410.023293 247.567516 
L 410.305889 248.3753 
L 410.635585 250.06396 
L 411.059478 253.515344 
L 411.577571 259.817599 
L 412.189862 270.208934 
L 413.03765 288.805655 
L 414.827424 328.932273 
L 415.486814 338.63313 
L 416.004907 343.337776 
L 416.381701 345.112931 
L 416.664297 345.564353 
L 416.805595 345.51898 
L 416.993993 345.189078 
L 417.276588 344.145679 
L 417.653383 341.812682 
L 418.171476 337.079327 
L 418.877965 328.397828 
L 420.008349 311.306384 
L 422.457513 273.793899 
L 423.493698 261.389166 
L 424.341486 253.726301 
L 424.953777 249.914761 
L 425.424771 248.165062 
L 425.754466 247.647885 
L 425.942863 247.64261 
L 426.13126 247.864458 
L 426.413856 248.652077 
L 426.743551 250.313783 
L 427.167445 253.72451 
L 427.685538 259.967714 
L 428.297829 270.278755 
L 429.145617 288.762594 
L 430.935391 328.774067 
L 431.594781 338.489562 
L 432.112874 343.221414 
L 432.489668 345.022345 
L 432.772264 345.495355 
L 432.913562 345.461293 
L 433.101959 345.146858 
L 433.384555 344.127193 
L 433.76135 341.82616 
L 434.279442 337.135867 
L 434.985932 328.508519 
L 436.116316 311.486347 
L 438.56548 274.046629 
L 439.601665 261.653895 
L 440.449453 253.999226 
L 441.061744 250.193935 
L 441.532737 248.449285 
L 441.862433 247.935579 
L 442.05083 247.932161 
L 442.239227 248.1557 
L 442.521823 248.945364 
L 442.851518 250.608309 
L 443.275412 254.017795 
L 443.793505 260.252915 
L 444.405796 270.54137 
L 445.253584 288.967186 
L 447.043358 328.810295 
L 447.702748 338.477324 
L 448.220841 343.181945 
L 448.597635 344.969257 
L 448.880231 345.435333 
L 449.021529 345.398805 
L 449.209926 345.082072 
L 449.492522 344.060956 
L 449.869317 341.761387 
L 450.387409 337.078547 
L 451.093899 328.4692 
L 452.224283 311.486968 
L 454.673447 274.141935 
L 455.709632 261.790012 
L 456.55742 254.173711 
L 457.169711 250.401301 
L 457.640704 248.685852 
L 457.970399 248.194811 
L 458.158797 248.205159 
L 458.347194 248.443013 
L 458.62979 249.255034 
L 458.959485 250.944955 
L 459.383379 254.38909 
L 459.901472 260.662375 
L 460.513763 270.980355 
L 461.36155 289.39726 
L 463.104225 328.193628 
L 463.763616 338.034244 
L 464.281708 342.898719 
L 464.658503 344.805942 
L 464.941099 345.360864 
L 465.129496 345.331318 
L 465.317893 344.996147 
L 465.600489 343.950705 
L 465.977284 341.624901 
L 466.495376 336.917184 
L 467.201866 328.293032 
L 468.33225 311.324167 
L 470.781414 274.094165 
L 471.817599 261.80971 
L 472.618287 254.610396 
L 473.230579 250.771808 
L 473.701572 248.995803 
L 474.031267 248.45621 
L 474.219664 248.436223 
L 474.408062 248.641714 
L 474.690657 249.401195 
L 475.020353 251.023606 
L 475.444247 254.371574 
L 475.962339 260.516571 
L 476.57463 270.681008 
L 477.422418 288.928881 
L 479.212192 328.574817 
L 479.871582 338.257073 
L 480.389675 342.998952 
L 480.76647 344.823321 
L 481.049065 345.321083 
L 481.190363 345.301327 
L 481.378761 345.007685 
L 481.661357 344.022307 
L 482.038151 341.771369 
L 482.556244 337.154854 
L 483.262733 328.630197 
L 484.346018 312.504431 
L 486.889381 273.916473 
L 487.925566 261.724458 
L 488.726254 254.612199 
L 489.338545 250.853581 
L 489.809539 249.149462 
L 490.139234 248.66644 
L 490.327631 248.681241 
L 490.516028 248.923327 
L 490.798624 249.740992 
L 491.12832 251.435748 
L 491.552213 254.881586 
L 492.070306 261.146156 
L 492.682597 271.431826 
L 493.577484 290.862877 
L 495.27306 328.277001 
L 495.93245 338.030022 
L 496.450543 342.842947 
L 496.827337 344.72292 
L 497.109933 345.262956 
L 497.29833 345.226021 
L 497.486728 344.885402 
L 497.769323 343.835233 
L 498.146118 341.509044 
L 498.66421 336.81041 
L 499.3707 328.212819 
L 500.501084 311.3077 
L 502.903149 274.861028 
L 503.939334 262.513008 
L 504.787122 254.889857 
L 505.399413 251.108636 
L 505.870406 249.38348 
L 506.200101 248.883321 
L 506.388499 248.887277 
L 506.576896 249.117669 
L 506.859492 249.916054 
L 507.189187 251.585463 
L 507.613081 254.993976 
L 508.131173 261.206185 
L 508.743465 271.424058 
L 509.591252 289.661723 
L 511.381026 328.94339 
L 512.040417 338.445011 
L 512.558509 343.05516 
L 512.935304 344.794254 
L 513.2179 345.23511 
L 513.359198 345.189331 
L 513.547595 344.863587 
L 513.830191 343.835699 
L 514.206986 341.538626 
L 514.725078 336.877791 
L 515.431568 328.325507 
L 516.561951 311.474052 
L 519.011116 274.447899 
L 520.047301 262.235737 
L 520.847989 255.097778 
L 521.460281 251.313587 
L 521.931274 249.585204 
L 522.260969 249.082059 
L 522.449366 249.083947 
L 522.637764 249.311944 
L 522.920359 250.106002 
L 523.250055 251.768991 
L 523.673949 255.166524 
L 524.192041 261.360216 
L 524.804332 271.548223 
L 525.65212 289.733309 
L 527.441894 328.916871 
L 528.101284 338.402412 
L 528.619377 343.008379 
L 528.996171 344.748503 
L 529.278767 345.19206 
L 529.420065 345.148177 
L 529.608463 344.825467 
L 529.891059 343.803094 
L 530.267853 341.514862 
L 530.785946 336.868212 
L 531.492435 328.337366 
L 532.622819 311.520452 
L 535.071984 274.553207 
L 536.108169 262.361615 
L 536.908857 255.241007 
L 537.521148 251.472129 
L 537.992141 249.757098 
L 538.321837 249.264129 
L 538.510234 249.272105 
L 538.698631 249.50635 
L 538.981227 250.309964 
L 539.310922 251.98409 
L 539.734816 255.395058 
L 540.252909 261.601557 
L 540.8652 271.794769 
L 541.760087 291.056022 
L 543.455662 328.192881 
L 543.549861 329.809593 
L 543.549861 329.809593 
" clip-path="url(#p7c77ac5fb6)" style="fill: none; stroke: #ffa90e; stroke-width: 2; stroke-linecap: square"/>
   </g>
   <g id="patch_3">
    <path d="M 49.007019 516.452178 
L 49.007019 53.751136 
" style="fill: none; stroke: #ffffff; stroke-width: 0.5; stroke-linejoin: miter; stroke-linecap: square"/>
   </g>
   <g id="patch_4">
    <path d="M 567.09952 516.452178 
L 567.09952 53.751136 
" style="fill: none; stroke: #ffffff; stroke-width: 0.5; stroke-linejoin: miter; stroke-linecap: square"/>
   </g>
   <g id="patch_5">
    <path d="M 49.007019 516.452178 
L 567.09952 516.452178 
" style="fill: none; stroke: #ffffff; stroke-width: 0.5; stroke-linejoin: miter; stroke-linecap: square"/>
   </g>
   <g id="patch_6">
    <path d="M 49.007019 53.751136 
L 567.09952 53.751136 
" style="fill: none; stroke: #ffffff; stroke-width: 0.5; stroke-linejoin: miter; stroke-linecap: square"/>
   </g>
   <g id="legend_1">
    <g id="line2d_177">
     <path d="M 223.206562 18.6 
L 243.206562 18.6 
L 263.206562 18.6 
" style="fill: none; stroke: #3f90da; stroke-width: 2; stroke-linecap: square"/>
    </g>
    <g id="text_16">
     <!-- $x$ -->
     <g style="fill: #ffffff" transform="translate(279.206562 25.6) scale(0.2 -0.2)">
      <defs>
       <path id="NimbusRomNo9L-ReguItal-78" d="M 2573 714 
C 2522 657 2490 618 2432 542 
C 2285 351 2208 288 2138 288 
C 2042 288 1984 370 1939 548 
C 1926 599 1920 638 1914 657 
C 1754 1299 1683 1592 1683 1687 
C 1965 2177 2195 2457 2310 2457 
C 2349 2457 2400 2438 2464 2406 
C 2541 2362 2586 2349 2637 2349 
C 2771 2349 2861 2444 2861 2579 
C 2861 2713 2752 2816 2598 2816 
C 2317 2816 2074 2585 1632 1904 
L 1562 2254 
C 1472 2687 1402 2816 1229 2816 
C 1088 2816 870 2758 480 2630 
L 410 2604 
L 435 2508 
C 678 2566 736 2579 794 2579 
C 954 2579 992 2521 1082 2139 
L 1267 1357 
L 742 612 
C 614 421 486 307 416 307 
C 378 307 314 326 250 364 
C 166 409 96 428 45 428 
C -77 428 -173 332 -173 204 
C -173 38 -45 -64 147 -64 
C 346 -64 422 -7 742 383 
C 915 587 1050 758 1318 1127 
L 1510 364 
C 1594 38 1677 -64 1882 -64 
C 2125 -64 2291 89 2662 663 
L 2573 714 
z
" transform="scale(0.015625)"/>
      </defs>
      <use xlink:href="#NimbusRomNo9L-ReguItal-78" transform="scale(0.996264)"/>
     </g>
    </g>
    <g id="line2d_178">
     <path d="M 328.053269 18.6 
L 348.053269 18.6 
L 368.053269 18.6 
" style="fill: none; stroke: #ffa90e; stroke-width: 2; stroke-linecap: square"/>
    </g>
    <g id="text_17">
     <!-- $y$ -->
     <g style="fill: #ffffff" transform="translate(384.053269 25.6) scale(0.2 -0.2)">
      <defs>
       <path id="NimbusRomNo9L-ReguItal-79" d="M 96 2553 
C 179 2572 224 2579 294 2579 
C 659 2579 755 2419 1050 1318 
C 1158 902 1312 153 1312 44 
C 1312 -58 1274 -161 1178 -276 
C 979 -538 851 -705 781 -782 
C 646 -922 570 -974 486 -974 
C 448 -974 403 -954 333 -903 
C 237 -826 166 -794 96 -794 
C -45 -794 -154 -903 -154 -1044 
C -154 -1204 -13 -1326 173 -1326 
C 582 -1326 1421 -365 2112 902 
C 2547 1689 2726 2150 2726 2463 
C 2726 2655 2566 2816 2374 2816 
C 2227 2816 2125 2719 2125 2579 
C 2125 2483 2176 2412 2304 2329 
C 2426 2259 2470 2201 2470 2111 
C 2470 1855 2234 1356 1690 454 
L 1562 1196 
C 1466 1759 1107 2816 1011 2816 
L 986 2816 
C 979 2809 954 2809 928 2809 
C 870 2803 640 2764 301 2700 
C 269 2694 186 2675 96 2662 
L 96 2553 
z
" transform="scale(0.015625)"/>
      </defs>
      <use xlink:href="#NimbusRomNo9L-ReguItal-79" transform="scale(0.996264)"/>
     </g>
    </g>
   </g>
  </g>
 </g>
 <defs>
  <clipPath id="p7c77ac5fb6">
   <rect x="49.007019" y="53.751136" width="518.092501" height="462.701042"/>
  </clipPath>
 </defs>
</svg>
