<?xml version="1.0" encoding="utf-8" standalone="no"?>
<!DOCTYPE svg PUBLIC "-//W3C//DTD SVG 1.1//EN"
  "http://www.w3.org/Graphics/SVG/1.1/DTD/svg11.dtd">
<svg xmlns:xlink="http://www.w3.org/1999/xlink" width="570.69952pt" height="570.69952pt" viewBox="0 0 570.69952 570.69952" xmlns="http://www.w3.org/2000/svg" version="1.1">
 <metadata>
  <rdf:RDF xmlns:dc="http://purl.org/dc/elements/1.1/" xmlns:cc="http://creativecommons.org/ns#" xmlns:rdf="http://www.w3.org/1999/02/22-rdf-syntax-ns#">
   <cc:Work>
    <dc:type rdf:resource="http://purl.org/dc/dcmitype/StillImage"/>
    <dc:date>2024-12-27T11:17:13.702569</dc:date>
    <dc:format>image/svg+xml</dc:format>
    <dc:creator>
     <cc:Agent>
      <dc:title>Matplotlib v3.10.0, https://matplotlib.org/</dc:title>
     </cc:Agent>
    </dc:creator>
   </cc:Work>
  </rdf:RDF>
 </metadata>
 <defs>
  <style type="text/css">*{stroke-linejoin: round; stroke-linecap: butt}</style>
 </defs>
 <g id="figure_1">
  <g id="patch_1">
   <path d="M 0 570.69952 
L 570.69952 570.69952 
L 570.69952 0 
L 0 0 
z
" style="fill: #ffffff"/>
  </g>
  <g id="axes_1">
   <g id="patch_2">
    <path d="M 52.514572 510.324775 
L 567.09952 510.324775 
L 567.09952 3.6 
L 52.514572 3.6 
z
" style="fill: #ffffff"/>
   </g>
   <g id="matplotlib.axis_1">
    <g id="xtick_1">
     <g id="line2d_1">
      <path d="M 144.528263 510.324775 
L 144.528263 3.6 
" clip-path="url(#pdd08781189)" style="fill: none; stroke: #b0b0b0; stroke-width: 0.5; stroke-linecap: square"/>
     </g>
     <g id="line2d_2">
      <defs>
       <path id="mc5f66e5b41" d="M 0 0 
L 0 6.5 
" style="stroke: #000000; stroke-width: 1.5"/>
      </defs>
      <g>
       <use xlink:href="#mc5f66e5b41" x="144.528263" y="510.324775" style="stroke: #000000; stroke-width: 1.5"/>
      </g>
     </g>
     <g id="line2d_3">
      <defs>
       <path id="md123cc8fd4" d="M 0 0 
L 0 -6.5 
" style="stroke: #000000; stroke-width: 1.5"/>
      </defs>
      <g>
       <use xlink:href="#md123cc8fd4" x="144.528263" y="3.6" style="stroke: #000000; stroke-width: 1.5"/>
      </g>
     </g>
     <g id="text_1">
      <!-- $\mathdefault{1}$ -->
      <g transform="translate(139.546943 533.83393) scale(0.2 -0.2)">
       <defs>
        <path id="NimbusRomNo9L-Regu-31" d="M 1862 4352 
L 710 3776 
L 710 3686 
C 787 3718 858 3743 883 3756 
C 998 3801 1107 3826 1171 3826 
C 1306 3826 1363 3731 1363 3525 
L 1363 599 
C 1363 386 1312 238 1210 179 
C 1114 121 1024 102 755 96 
L 755 0 
L 2522 0 
L 2522 96 
C 2016 102 1914 167 1914 477 
L 1914 4339 
L 1862 4352 
z
" transform="scale(0.015625)"/>
       </defs>
       <use xlink:href="#NimbusRomNo9L-Regu-31" transform="scale(0.996264)"/>
      </g>
     </g>
    </g>
    <g id="xtick_2">
     <g id="line2d_4">
      <path d="M 240.413015 510.324775 
L 240.413015 3.6 
" clip-path="url(#pdd08781189)" style="fill: none; stroke: #b0b0b0; stroke-width: 0.5; stroke-linecap: square"/>
     </g>
     <g id="line2d_5">
      <g>
       <use xlink:href="#mc5f66e5b41" x="240.413015" y="510.324775" style="stroke: #000000; stroke-width: 1.5"/>
      </g>
     </g>
     <g id="line2d_6">
      <g>
       <use xlink:href="#md123cc8fd4" x="240.413015" y="3.6" style="stroke: #000000; stroke-width: 1.5"/>
      </g>
     </g>
     <g id="text_2">
      <!-- $\mathdefault{2}$ -->
      <g transform="translate(235.431695 533.83393) scale(0.2 -0.2)">
       <defs>
        <path id="NimbusRomNo9L-Regu-32" d="M 3040 879 
L 2957 912 
C 2720 544 2637 486 2349 486 
L 819 486 
L 1894 1621 
C 2464 2221 2714 2711 2714 3214 
C 2714 3858 2195 4352 1530 4352 
C 1178 4352 845 4211 608 3955 
C 403 3736 307 3530 198 3072 
L 333 3039 
C 589 3671 819 3878 1261 3878 
C 1798 3878 2163 3510 2163 2969 
C 2163 2466 1869 1866 1331 1292 
L 192 76 
L 192 0 
L 2688 0 
L 3040 879 
z
" transform="scale(0.015625)"/>
       </defs>
       <use xlink:href="#NimbusRomNo9L-Regu-32" transform="scale(0.996264)"/>
      </g>
     </g>
    </g>
    <g id="xtick_3">
     <g id="line2d_7">
      <path d="M 336.297767 510.324775 
L 336.297767 3.6 
" clip-path="url(#pdd08781189)" style="fill: none; stroke: #b0b0b0; stroke-width: 0.5; stroke-linecap: square"/>
     </g>
     <g id="line2d_8">
      <g>
       <use xlink:href="#mc5f66e5b41" x="336.297767" y="510.324775" style="stroke: #000000; stroke-width: 1.5"/>
      </g>
     </g>
     <g id="line2d_9">
      <g>
       <use xlink:href="#md123cc8fd4" x="336.297767" y="3.6" style="stroke: #000000; stroke-width: 1.5"/>
      </g>
     </g>
     <g id="text_3">
      <!-- $\mathdefault{3}$ -->
      <g transform="translate(331.316447 533.83393) scale(0.2 -0.2)">
       <defs>
        <path id="NimbusRomNo9L-Regu-33" d="M 979 2137 
C 1357 2137 1504 2124 1658 2067 
C 2054 1926 2304 1561 2304 1120 
C 2304 582 1939 166 1466 166 
C 1293 166 1165 211 928 364 
C 736 480 627 524 518 524 
C 371 524 275 435 275 300 
C 275 76 550 -64 998 -64 
C 1491 -64 1997 102 2298 364 
C 2598 627 2765 998 2765 1427 
C 2765 1753 2662 2054 2477 2252 
C 2349 2393 2227 2470 1946 2592 
C 2387 2892 2547 3129 2547 3475 
C 2547 3993 2138 4352 1549 4352 
C 1229 4352 947 4243 717 4038 
C 525 3865 429 3699 288 3315 
L 384 3289 
C 646 3757 934 3967 1338 3967 
C 1754 3967 2042 3686 2042 3283 
C 2042 3052 1946 2822 1786 2662 
C 1594 2470 1414 2374 979 2220 
L 979 2137 
z
" transform="scale(0.015625)"/>
       </defs>
       <use xlink:href="#NimbusRomNo9L-Regu-33" transform="scale(0.996264)"/>
      </g>
     </g>
    </g>
    <g id="xtick_4">
     <g id="line2d_10">
      <path d="M 432.182519 510.324775 
L 432.182519 3.6 
" clip-path="url(#pdd08781189)" style="fill: none; stroke: #b0b0b0; stroke-width: 0.5; stroke-linecap: square"/>
     </g>
     <g id="line2d_11">
      <g>
       <use xlink:href="#mc5f66e5b41" x="432.182519" y="510.324775" style="stroke: #000000; stroke-width: 1.5"/>
      </g>
     </g>
     <g id="line2d_12">
      <g>
       <use xlink:href="#md123cc8fd4" x="432.182519" y="3.6" style="stroke: #000000; stroke-width: 1.5"/>
      </g>
     </g>
     <g id="text_4">
      <!-- $\mathdefault{4}$ -->
      <g transform="translate(427.201199 533.83393) scale(0.2 -0.2)">
       <defs>
        <path id="NimbusRomNo9L-Regu-34" d="M 3021 1497 
L 2368 1497 
L 2368 4352 
L 2086 4352 
L 77 1497 
L 77 1088 
L 1875 1088 
L 1875 0 
L 2368 0 
L 2368 1088 
L 3021 1088 
L 3021 1497 
z
M 1869 1497 
L 333 1497 
L 1869 3697 
L 1869 1497 
z
" transform="scale(0.015625)"/>
       </defs>
       <use xlink:href="#NimbusRomNo9L-Regu-34" transform="scale(0.996264)"/>
      </g>
     </g>
    </g>
    <g id="xtick_5">
     <g id="line2d_13">
      <path d="M 528.067271 510.324775 
L 528.067271 3.6 
" clip-path="url(#pdd08781189)" style="fill: none; stroke: #b0b0b0; stroke-width: 0.5; stroke-linecap: square"/>
     </g>
     <g id="line2d_14">
      <g>
       <use xlink:href="#mc5f66e5b41" x="528.067271" y="510.324775" style="stroke: #000000; stroke-width: 1.5"/>
      </g>
     </g>
     <g id="line2d_15">
      <g>
       <use xlink:href="#md123cc8fd4" x="528.067271" y="3.6" style="stroke: #000000; stroke-width: 1.5"/>
      </g>
     </g>
     <g id="text_5">
      <!-- $\mathdefault{5}$ -->
      <g transform="translate(523.085951 533.83393) scale(0.2 -0.2)">
       <defs>
        <path id="NimbusRomNo9L-Regu-35" d="M 1158 3718 
L 2413 3718 
C 2515 3718 2541 3731 2560 3775 
L 2803 4345 
L 2746 4390 
C 2650 4256 2586 4224 2451 4224 
L 1114 4224 
L 416 2717 
C 410 2705 410 2698 410 2686 
C 410 2654 435 2635 486 2635 
C 691 2635 947 2591 1210 2508 
C 1946 2274 2285 1882 2285 1255 
C 2285 647 1894 172 1395 172 
C 1267 172 1158 217 966 356 
C 762 502 614 565 480 565 
C 294 565 205 489 205 331 
C 205 89 506 -64 986 -64 
C 1523 -64 1984 108 2304 432 
C 2598 717 2733 1078 2733 1559 
C 2733 2015 2611 2306 2291 2622 
C 2010 2901 1645 3047 890 3180 
L 1158 3718 
z
" transform="scale(0.015625)"/>
       </defs>
       <use xlink:href="#NimbusRomNo9L-Regu-35" transform="scale(0.996264)"/>
      </g>
     </g>
    </g>
    <g id="xtick_6">
     <g id="line2d_16">
      <path d="M 67.820462 510.324775 
L 67.820462 3.6 
" clip-path="url(#pdd08781189)" style="fill: none; stroke: #b0b0b0; stroke-width: 0.5; stroke-linecap: square"/>
     </g>
     <g id="line2d_17">
      <defs>
       <path id="me272933486" d="M 0 0 
L 0 4 
" style="stroke: #000000; stroke-width: 0.5"/>
      </defs>
      <g>
       <use xlink:href="#me272933486" x="67.820462" y="510.324775" style="stroke: #000000; stroke-width: 0.5"/>
      </g>
     </g>
     <g id="line2d_18">
      <defs>
       <path id="m69f4edb074" d="M 0 0 
L 0 -4 
" style="stroke: #000000; stroke-width: 0.5"/>
      </defs>
      <g>
       <use xlink:href="#m69f4edb074" x="67.820462" y="3.6" style="stroke: #000000; stroke-width: 0.5"/>
      </g>
     </g>
    </g>
    <g id="xtick_7">
     <g id="line2d_19">
      <path d="M 86.997412 510.324775 
L 86.997412 3.6 
" clip-path="url(#pdd08781189)" style="fill: none; stroke: #b0b0b0; stroke-width: 0.5; stroke-linecap: square"/>
     </g>
     <g id="line2d_20">
      <g>
       <use xlink:href="#me272933486" x="86.997412" y="510.324775" style="stroke: #000000; stroke-width: 0.5"/>
      </g>
     </g>
     <g id="line2d_21">
      <g>
       <use xlink:href="#m69f4edb074" x="86.997412" y="3.6" style="stroke: #000000; stroke-width: 0.5"/>
      </g>
     </g>
    </g>
    <g id="xtick_8">
     <g id="line2d_22">
      <path d="M 106.174362 510.324775 
L 106.174362 3.6 
" clip-path="url(#pdd08781189)" style="fill: none; stroke: #b0b0b0; stroke-width: 0.5; stroke-linecap: square"/>
     </g>
     <g id="line2d_23">
      <g>
       <use xlink:href="#me272933486" x="106.174362" y="510.324775" style="stroke: #000000; stroke-width: 0.5"/>
      </g>
     </g>
     <g id="line2d_24">
      <g>
       <use xlink:href="#m69f4edb074" x="106.174362" y="3.6" style="stroke: #000000; stroke-width: 0.5"/>
      </g>
     </g>
    </g>
    <g id="xtick_9">
     <g id="line2d_25">
      <path d="M 125.351313 510.324775 
L 125.351313 3.6 
" clip-path="url(#pdd08781189)" style="fill: none; stroke: #b0b0b0; stroke-width: 0.5; stroke-linecap: square"/>
     </g>
     <g id="line2d_26">
      <g>
       <use xlink:href="#me272933486" x="125.351313" y="510.324775" style="stroke: #000000; stroke-width: 0.5"/>
      </g>
     </g>
     <g id="line2d_27">
      <g>
       <use xlink:href="#m69f4edb074" x="125.351313" y="3.6" style="stroke: #000000; stroke-width: 0.5"/>
      </g>
     </g>
    </g>
    <g id="xtick_10">
     <g id="line2d_28">
      <path d="M 163.705214 510.324775 
L 163.705214 3.6 
" clip-path="url(#pdd08781189)" style="fill: none; stroke: #b0b0b0; stroke-width: 0.5; stroke-linecap: square"/>
     </g>
     <g id="line2d_29">
      <g>
       <use xlink:href="#me272933486" x="163.705214" y="510.324775" style="stroke: #000000; stroke-width: 0.5"/>
      </g>
     </g>
     <g id="line2d_30">
      <g>
       <use xlink:href="#m69f4edb074" x="163.705214" y="3.6" style="stroke: #000000; stroke-width: 0.5"/>
      </g>
     </g>
    </g>
    <g id="xtick_11">
     <g id="line2d_31">
      <path d="M 182.882164 510.324775 
L 182.882164 3.6 
" clip-path="url(#pdd08781189)" style="fill: none; stroke: #b0b0b0; stroke-width: 0.5; stroke-linecap: square"/>
     </g>
     <g id="line2d_32">
      <g>
       <use xlink:href="#me272933486" x="182.882164" y="510.324775" style="stroke: #000000; stroke-width: 0.5"/>
      </g>
     </g>
     <g id="line2d_33">
      <g>
       <use xlink:href="#m69f4edb074" x="182.882164" y="3.6" style="stroke: #000000; stroke-width: 0.5"/>
      </g>
     </g>
    </g>
    <g id="xtick_12">
     <g id="line2d_34">
      <path d="M 202.059114 510.324775 
L 202.059114 3.6 
" clip-path="url(#pdd08781189)" style="fill: none; stroke: #b0b0b0; stroke-width: 0.5; stroke-linecap: square"/>
     </g>
     <g id="line2d_35">
      <g>
       <use xlink:href="#me272933486" x="202.059114" y="510.324775" style="stroke: #000000; stroke-width: 0.5"/>
      </g>
     </g>
     <g id="line2d_36">
      <g>
       <use xlink:href="#m69f4edb074" x="202.059114" y="3.6" style="stroke: #000000; stroke-width: 0.5"/>
      </g>
     </g>
    </g>
    <g id="xtick_13">
     <g id="line2d_37">
      <path d="M 221.236065 510.324775 
L 221.236065 3.6 
" clip-path="url(#pdd08781189)" style="fill: none; stroke: #b0b0b0; stroke-width: 0.5; stroke-linecap: square"/>
     </g>
     <g id="line2d_38">
      <g>
       <use xlink:href="#me272933486" x="221.236065" y="510.324775" style="stroke: #000000; stroke-width: 0.5"/>
      </g>
     </g>
     <g id="line2d_39">
      <g>
       <use xlink:href="#m69f4edb074" x="221.236065" y="3.6" style="stroke: #000000; stroke-width: 0.5"/>
      </g>
     </g>
    </g>
    <g id="xtick_14">
     <g id="line2d_40">
      <path d="M 259.589966 510.324775 
L 259.589966 3.6 
" clip-path="url(#pdd08781189)" style="fill: none; stroke: #b0b0b0; stroke-width: 0.5; stroke-linecap: square"/>
     </g>
     <g id="line2d_41">
      <g>
       <use xlink:href="#me272933486" x="259.589966" y="510.324775" style="stroke: #000000; stroke-width: 0.5"/>
      </g>
     </g>
     <g id="line2d_42">
      <g>
       <use xlink:href="#m69f4edb074" x="259.589966" y="3.6" style="stroke: #000000; stroke-width: 0.5"/>
      </g>
     </g>
    </g>
    <g id="xtick_15">
     <g id="line2d_43">
      <path d="M 278.766916 510.324775 
L 278.766916 3.6 
" clip-path="url(#pdd08781189)" style="fill: none; stroke: #b0b0b0; stroke-width: 0.5; stroke-linecap: square"/>
     </g>
     <g id="line2d_44">
      <g>
       <use xlink:href="#me272933486" x="278.766916" y="510.324775" style="stroke: #000000; stroke-width: 0.5"/>
      </g>
     </g>
     <g id="line2d_45">
      <g>
       <use xlink:href="#m69f4edb074" x="278.766916" y="3.6" style="stroke: #000000; stroke-width: 0.5"/>
      </g>
     </g>
    </g>
    <g id="xtick_16">
     <g id="line2d_46">
      <path d="M 297.943866 510.324775 
L 297.943866 3.6 
" clip-path="url(#pdd08781189)" style="fill: none; stroke: #b0b0b0; stroke-width: 0.5; stroke-linecap: square"/>
     </g>
     <g id="line2d_47">
      <g>
       <use xlink:href="#me272933486" x="297.943866" y="510.324775" style="stroke: #000000; stroke-width: 0.5"/>
      </g>
     </g>
     <g id="line2d_48">
      <g>
       <use xlink:href="#m69f4edb074" x="297.943866" y="3.6" style="stroke: #000000; stroke-width: 0.5"/>
      </g>
     </g>
    </g>
    <g id="xtick_17">
     <g id="line2d_49">
      <path d="M 317.120817 510.324775 
L 317.120817 3.6 
" clip-path="url(#pdd08781189)" style="fill: none; stroke: #b0b0b0; stroke-width: 0.5; stroke-linecap: square"/>
     </g>
     <g id="line2d_50">
      <g>
       <use xlink:href="#me272933486" x="317.120817" y="510.324775" style="stroke: #000000; stroke-width: 0.5"/>
      </g>
     </g>
     <g id="line2d_51">
      <g>
       <use xlink:href="#m69f4edb074" x="317.120817" y="3.6" style="stroke: #000000; stroke-width: 0.5"/>
      </g>
     </g>
    </g>
    <g id="xtick_18">
     <g id="line2d_52">
      <path d="M 355.474718 510.324775 
L 355.474718 3.6 
" clip-path="url(#pdd08781189)" style="fill: none; stroke: #b0b0b0; stroke-width: 0.5; stroke-linecap: square"/>
     </g>
     <g id="line2d_53">
      <g>
       <use xlink:href="#me272933486" x="355.474718" y="510.324775" style="stroke: #000000; stroke-width: 0.5"/>
      </g>
     </g>
     <g id="line2d_54">
      <g>
       <use xlink:href="#m69f4edb074" x="355.474718" y="3.6" style="stroke: #000000; stroke-width: 0.5"/>
      </g>
     </g>
    </g>
    <g id="xtick_19">
     <g id="line2d_55">
      <path d="M 374.651668 510.324775 
L 374.651668 3.6 
" clip-path="url(#pdd08781189)" style="fill: none; stroke: #b0b0b0; stroke-width: 0.5; stroke-linecap: square"/>
     </g>
     <g id="line2d_56">
      <g>
       <use xlink:href="#me272933486" x="374.651668" y="510.324775" style="stroke: #000000; stroke-width: 0.5"/>
      </g>
     </g>
     <g id="line2d_57">
      <g>
       <use xlink:href="#m69f4edb074" x="374.651668" y="3.6" style="stroke: #000000; stroke-width: 0.5"/>
      </g>
     </g>
    </g>
    <g id="xtick_20">
     <g id="line2d_58">
      <path d="M 393.828618 510.324775 
L 393.828618 3.6 
" clip-path="url(#pdd08781189)" style="fill: none; stroke: #b0b0b0; stroke-width: 0.5; stroke-linecap: square"/>
     </g>
     <g id="line2d_59">
      <g>
       <use xlink:href="#me272933486" x="393.828618" y="510.324775" style="stroke: #000000; stroke-width: 0.5"/>
      </g>
     </g>
     <g id="line2d_60">
      <g>
       <use xlink:href="#m69f4edb074" x="393.828618" y="3.6" style="stroke: #000000; stroke-width: 0.5"/>
      </g>
     </g>
    </g>
    <g id="xtick_21">
     <g id="line2d_61">
      <path d="M 413.005569 510.324775 
L 413.005569 3.6 
" clip-path="url(#pdd08781189)" style="fill: none; stroke: #b0b0b0; stroke-width: 0.5; stroke-linecap: square"/>
     </g>
     <g id="line2d_62">
      <g>
       <use xlink:href="#me272933486" x="413.005569" y="510.324775" style="stroke: #000000; stroke-width: 0.5"/>
      </g>
     </g>
     <g id="line2d_63">
      <g>
       <use xlink:href="#m69f4edb074" x="413.005569" y="3.6" style="stroke: #000000; stroke-width: 0.5"/>
      </g>
     </g>
    </g>
    <g id="xtick_22">
     <g id="line2d_64">
      <path d="M 451.359469 510.324775 
L 451.359469 3.6 
" clip-path="url(#pdd08781189)" style="fill: none; stroke: #b0b0b0; stroke-width: 0.5; stroke-linecap: square"/>
     </g>
     <g id="line2d_65">
      <g>
       <use xlink:href="#me272933486" x="451.359469" y="510.324775" style="stroke: #000000; stroke-width: 0.5"/>
      </g>
     </g>
     <g id="line2d_66">
      <g>
       <use xlink:href="#m69f4edb074" x="451.359469" y="3.6" style="stroke: #000000; stroke-width: 0.5"/>
      </g>
     </g>
    </g>
    <g id="xtick_23">
     <g id="line2d_67">
      <path d="M 470.53642 510.324775 
L 470.53642 3.6 
" clip-path="url(#pdd08781189)" style="fill: none; stroke: #b0b0b0; stroke-width: 0.5; stroke-linecap: square"/>
     </g>
     <g id="line2d_68">
      <g>
       <use xlink:href="#me272933486" x="470.53642" y="510.324775" style="stroke: #000000; stroke-width: 0.5"/>
      </g>
     </g>
     <g id="line2d_69">
      <g>
       <use xlink:href="#m69f4edb074" x="470.53642" y="3.6" style="stroke: #000000; stroke-width: 0.5"/>
      </g>
     </g>
    </g>
    <g id="xtick_24">
     <g id="line2d_70">
      <path d="M 489.71337 510.324775 
L 489.71337 3.6 
" clip-path="url(#pdd08781189)" style="fill: none; stroke: #b0b0b0; stroke-width: 0.5; stroke-linecap: square"/>
     </g>
     <g id="line2d_71">
      <g>
       <use xlink:href="#me272933486" x="489.71337" y="510.324775" style="stroke: #000000; stroke-width: 0.5"/>
      </g>
     </g>
     <g id="line2d_72">
      <g>
       <use xlink:href="#m69f4edb074" x="489.71337" y="3.6" style="stroke: #000000; stroke-width: 0.5"/>
      </g>
     </g>
    </g>
    <g id="xtick_25">
     <g id="line2d_73">
      <path d="M 508.890321 510.324775 
L 508.890321 3.6 
" clip-path="url(#pdd08781189)" style="fill: none; stroke: #b0b0b0; stroke-width: 0.5; stroke-linecap: square"/>
     </g>
     <g id="line2d_74">
      <g>
       <use xlink:href="#me272933486" x="508.890321" y="510.324775" style="stroke: #000000; stroke-width: 0.5"/>
      </g>
     </g>
     <g id="line2d_75">
      <g>
       <use xlink:href="#m69f4edb074" x="508.890321" y="3.6" style="stroke: #000000; stroke-width: 0.5"/>
      </g>
     </g>
    </g>
    <g id="xtick_26">
     <g id="line2d_76">
      <path d="M 547.244221 510.324775 
L 547.244221 3.6 
" clip-path="url(#pdd08781189)" style="fill: none; stroke: #b0b0b0; stroke-width: 0.5; stroke-linecap: square"/>
     </g>
     <g id="line2d_77">
      <g>
       <use xlink:href="#me272933486" x="547.244221" y="510.324775" style="stroke: #000000; stroke-width: 0.5"/>
      </g>
     </g>
     <g id="line2d_78">
      <g>
       <use xlink:href="#m69f4edb074" x="547.244221" y="3.6" style="stroke: #000000; stroke-width: 0.5"/>
      </g>
     </g>
    </g>
    <g id="xtick_27">
     <g id="line2d_79">
      <path d="M 566.421172 510.324775 
L 566.421172 3.6 
" clip-path="url(#pdd08781189)" style="fill: none; stroke: #b0b0b0; stroke-width: 0.5; stroke-linecap: square"/>
     </g>
     <g id="line2d_80">
      <g>
       <use xlink:href="#me272933486" x="566.421172" y="510.324775" style="stroke: #000000; stroke-width: 0.5"/>
      </g>
     </g>
     <g id="line2d_81">
      <g>
       <use xlink:href="#m69f4edb074" x="566.421172" y="3.6" style="stroke: #000000; stroke-width: 0.5"/>
      </g>
     </g>
    </g>
    <g id="text_6">
     <!-- $x$ -->
     <g transform="translate(303.614349 561.060399) scale(0.28 -0.28)">
      <defs>
       <path id="NimbusRomNo9L-ReguItal-78" d="M 2573 714 
C 2522 657 2490 618 2432 542 
C 2285 351 2208 288 2138 288 
C 2042 288 1984 370 1939 548 
C 1926 599 1920 638 1914 657 
C 1754 1299 1683 1592 1683 1687 
C 1965 2177 2195 2457 2310 2457 
C 2349 2457 2400 2438 2464 2406 
C 2541 2362 2586 2349 2637 2349 
C 2771 2349 2861 2444 2861 2579 
C 2861 2713 2752 2816 2598 2816 
C 2317 2816 2074 2585 1632 1904 
L 1562 2254 
C 1472 2687 1402 2816 1229 2816 
C 1088 2816 870 2758 480 2630 
L 410 2604 
L 435 2508 
C 678 2566 736 2579 794 2579 
C 954 2579 992 2521 1082 2139 
L 1267 1357 
L 742 612 
C 614 421 486 307 416 307 
C 378 307 314 326 250 364 
C 166 409 96 428 45 428 
C -77 428 -173 332 -173 204 
C -173 38 -45 -64 147 -64 
C 346 -64 422 -7 742 383 
C 915 587 1050 758 1318 1127 
L 1510 364 
C 1594 38 1677 -64 1882 -64 
C 2125 -64 2291 89 2662 663 
L 2573 714 
z
" transform="scale(0.015625)"/>
      </defs>
      <use xlink:href="#NimbusRomNo9L-ReguItal-78" transform="scale(0.996264)"/>
     </g>
    </g>
   </g>
   <g id="matplotlib.axis_2">
    <g id="ytick_1">
     <g id="line2d_82">
      <path d="M 52.514572 489.437762 
L 567.09952 489.437762 
" clip-path="url(#pdd08781189)" style="fill: none; stroke: #b0b0b0; stroke-width: 0.5; stroke-linecap: square"/>
     </g>
     <g id="line2d_83">
      <defs>
       <path id="mfde9ab8e2a" d="M 0 0 
L -6.5 0 
" style="stroke: #000000; stroke-width: 1.5"/>
      </defs>
      <g>
       <use xlink:href="#mfde9ab8e2a" x="52.514572" y="489.437762" style="stroke: #000000; stroke-width: 1.5"/>
      </g>
     </g>
     <g id="line2d_84">
      <defs>
       <path id="m401bbc3e03" d="M 0 0 
L 6.5 0 
" style="stroke: #000000; stroke-width: 1.5"/>
      </defs>
      <g>
       <use xlink:href="#m401bbc3e03" x="567.09952" y="489.437762" style="stroke: #000000; stroke-width: 1.5"/>
      </g>
     </g>
     <g id="text_7">
      <!-- $\mathdefault{1}$ -->
      <g transform="translate(32.551932 496.19234) scale(0.2 -0.2)">
       <use xlink:href="#NimbusRomNo9L-Regu-31" transform="scale(0.996264)"/>
      </g>
     </g>
    </g>
    <g id="ytick_2">
     <g id="line2d_85">
      <path d="M 52.514572 407.369988 
L 567.09952 407.369988 
" clip-path="url(#pdd08781189)" style="fill: none; stroke: #b0b0b0; stroke-width: 0.5; stroke-linecap: square"/>
     </g>
     <g id="line2d_86">
      <g>
       <use xlink:href="#mfde9ab8e2a" x="52.514572" y="407.369988" style="stroke: #000000; stroke-width: 1.5"/>
      </g>
     </g>
     <g id="line2d_87">
      <g>
       <use xlink:href="#m401bbc3e03" x="567.09952" y="407.369988" style="stroke: #000000; stroke-width: 1.5"/>
      </g>
     </g>
     <g id="text_8">
      <!-- $\mathdefault{2}$ -->
      <g transform="translate(32.551932 414.124565) scale(0.2 -0.2)">
       <use xlink:href="#NimbusRomNo9L-Regu-32" transform="scale(0.996264)"/>
      </g>
     </g>
    </g>
    <g id="ytick_3">
     <g id="line2d_88">
      <path d="M 52.514572 325.302213 
L 567.09952 325.302213 
" clip-path="url(#pdd08781189)" style="fill: none; stroke: #b0b0b0; stroke-width: 0.5; stroke-linecap: square"/>
     </g>
     <g id="line2d_89">
      <g>
       <use xlink:href="#mfde9ab8e2a" x="52.514572" y="325.302213" style="stroke: #000000; stroke-width: 1.5"/>
      </g>
     </g>
     <g id="line2d_90">
      <g>
       <use xlink:href="#m401bbc3e03" x="567.09952" y="325.302213" style="stroke: #000000; stroke-width: 1.5"/>
      </g>
     </g>
     <g id="text_9">
      <!-- $\mathdefault{3}$ -->
      <g transform="translate(32.551932 332.056791) scale(0.2 -0.2)">
       <use xlink:href="#NimbusRomNo9L-Regu-33" transform="scale(0.996264)"/>
      </g>
     </g>
    </g>
    <g id="ytick_4">
     <g id="line2d_91">
      <path d="M 52.514572 243.234439 
L 567.09952 243.234439 
" clip-path="url(#pdd08781189)" style="fill: none; stroke: #b0b0b0; stroke-width: 0.5; stroke-linecap: square"/>
     </g>
     <g id="line2d_92">
      <g>
       <use xlink:href="#mfde9ab8e2a" x="52.514572" y="243.234439" style="stroke: #000000; stroke-width: 1.5"/>
      </g>
     </g>
     <g id="line2d_93">
      <g>
       <use xlink:href="#m401bbc3e03" x="567.09952" y="243.234439" style="stroke: #000000; stroke-width: 1.5"/>
      </g>
     </g>
     <g id="text_10">
      <!-- $\mathdefault{4}$ -->
      <g transform="translate(32.551932 249.989016) scale(0.2 -0.2)">
       <use xlink:href="#NimbusRomNo9L-Regu-34" transform="scale(0.996264)"/>
      </g>
     </g>
    </g>
    <g id="ytick_5">
     <g id="line2d_94">
      <path d="M 52.514572 161.166664 
L 567.09952 161.166664 
" clip-path="url(#pdd08781189)" style="fill: none; stroke: #b0b0b0; stroke-width: 0.5; stroke-linecap: square"/>
     </g>
     <g id="line2d_95">
      <g>
       <use xlink:href="#mfde9ab8e2a" x="52.514572" y="161.166664" style="stroke: #000000; stroke-width: 1.5"/>
      </g>
     </g>
     <g id="line2d_96">
      <g>
       <use xlink:href="#m401bbc3e03" x="567.09952" y="161.166664" style="stroke: #000000; stroke-width: 1.5"/>
      </g>
     </g>
     <g id="text_11">
      <!-- $\mathdefault{5}$ -->
      <g transform="translate(32.551932 167.921242) scale(0.2 -0.2)">
       <use xlink:href="#NimbusRomNo9L-Regu-35" transform="scale(0.996264)"/>
      </g>
     </g>
    </g>
    <g id="ytick_6">
     <g id="line2d_97">
      <path d="M 52.514572 79.09889 
L 567.09952 79.09889 
" clip-path="url(#pdd08781189)" style="fill: none; stroke: #b0b0b0; stroke-width: 0.5; stroke-linecap: square"/>
     </g>
     <g id="line2d_98">
      <g>
       <use xlink:href="#mfde9ab8e2a" x="52.514572" y="79.09889" style="stroke: #000000; stroke-width: 1.5"/>
      </g>
     </g>
     <g id="line2d_99">
      <g>
       <use xlink:href="#m401bbc3e03" x="567.09952" y="79.09889" style="stroke: #000000; stroke-width: 1.5"/>
      </g>
     </g>
     <g id="text_12">
      <!-- $\mathdefault{6}$ -->
      <g transform="translate(32.551932 85.853467) scale(0.2 -0.2)">
       <defs>
        <path id="NimbusRomNo9L-Regu-36" d="M 2854 4390 
C 2125 4326 1754 4204 1286 3878 
C 595 3385 218 2655 218 1801 
C 218 1248 390 688 666 369 
C 909 89 1254 -64 1651 -64 
C 2445 -64 2995 541 2995 1420 
C 2995 2234 2528 2752 1792 2752 
C 1510 2752 1376 2707 973 2463 
C 1146 3430 1862 4121 2867 4288 
L 2854 4390 
z
M 1549 2457 
C 2099 2457 2419 1999 2419 1203 
C 2419 503 2170 115 1722 115 
C 1158 115 813 713 813 1700 
C 813 2024 864 2203 992 2298 
C 1126 2400 1325 2457 1549 2457 
z
" transform="scale(0.015625)"/>
       </defs>
       <use xlink:href="#NimbusRomNo9L-Regu-36" transform="scale(0.996264)"/>
      </g>
     </g>
    </g>
    <g id="ytick_7">
     <g id="line2d_100">
      <path d="M 52.514572 505.851317 
L 567.09952 505.851317 
" clip-path="url(#pdd08781189)" style="fill: none; stroke: #b0b0b0; stroke-width: 0.5; stroke-linecap: square"/>
     </g>
     <g id="line2d_101">
      <defs>
       <path id="maf8867b1fa" d="M 0 0 
L -4 0 
" style="stroke: #000000; stroke-width: 0.5"/>
      </defs>
      <g>
       <use xlink:href="#maf8867b1fa" x="52.514572" y="505.851317" style="stroke: #000000; stroke-width: 0.5"/>
      </g>
     </g>
     <g id="line2d_102">
      <defs>
       <path id="mb0b29e1ad4" d="M 0 0 
L 4 0 
" style="stroke: #000000; stroke-width: 0.5"/>
      </defs>
      <g>
       <use xlink:href="#mb0b29e1ad4" x="567.09952" y="505.851317" style="stroke: #000000; stroke-width: 0.5"/>
      </g>
     </g>
    </g>
    <g id="ytick_8">
     <g id="line2d_103">
      <path d="M 52.514572 473.024207 
L 567.09952 473.024207 
" clip-path="url(#pdd08781189)" style="fill: none; stroke: #b0b0b0; stroke-width: 0.5; stroke-linecap: square"/>
     </g>
     <g id="line2d_104">
      <g>
       <use xlink:href="#maf8867b1fa" x="52.514572" y="473.024207" style="stroke: #000000; stroke-width: 0.5"/>
      </g>
     </g>
     <g id="line2d_105">
      <g>
       <use xlink:href="#mb0b29e1ad4" x="567.09952" y="473.024207" style="stroke: #000000; stroke-width: 0.5"/>
      </g>
     </g>
    </g>
    <g id="ytick_9">
     <g id="line2d_106">
      <path d="M 52.514572 456.610652 
L 567.09952 456.610652 
" clip-path="url(#pdd08781189)" style="fill: none; stroke: #b0b0b0; stroke-width: 0.5; stroke-linecap: square"/>
     </g>
     <g id="line2d_107">
      <g>
       <use xlink:href="#maf8867b1fa" x="52.514572" y="456.610652" style="stroke: #000000; stroke-width: 0.5"/>
      </g>
     </g>
     <g id="line2d_108">
      <g>
       <use xlink:href="#mb0b29e1ad4" x="567.09952" y="456.610652" style="stroke: #000000; stroke-width: 0.5"/>
      </g>
     </g>
    </g>
    <g id="ytick_10">
     <g id="line2d_109">
      <path d="M 52.514572 440.197097 
L 567.09952 440.197097 
" clip-path="url(#pdd08781189)" style="fill: none; stroke: #b0b0b0; stroke-width: 0.5; stroke-linecap: square"/>
     </g>
     <g id="line2d_110">
      <g>
       <use xlink:href="#maf8867b1fa" x="52.514572" y="440.197097" style="stroke: #000000; stroke-width: 0.5"/>
      </g>
     </g>
     <g id="line2d_111">
      <g>
       <use xlink:href="#mb0b29e1ad4" x="567.09952" y="440.197097" style="stroke: #000000; stroke-width: 0.5"/>
      </g>
     </g>
    </g>
    <g id="ytick_11">
     <g id="line2d_112">
      <path d="M 52.514572 423.783543 
L 567.09952 423.783543 
" clip-path="url(#pdd08781189)" style="fill: none; stroke: #b0b0b0; stroke-width: 0.5; stroke-linecap: square"/>
     </g>
     <g id="line2d_113">
      <g>
       <use xlink:href="#maf8867b1fa" x="52.514572" y="423.783543" style="stroke: #000000; stroke-width: 0.5"/>
      </g>
     </g>
     <g id="line2d_114">
      <g>
       <use xlink:href="#mb0b29e1ad4" x="567.09952" y="423.783543" style="stroke: #000000; stroke-width: 0.5"/>
      </g>
     </g>
    </g>
    <g id="ytick_12">
     <g id="line2d_115">
      <path d="M 52.514572 390.956433 
L 567.09952 390.956433 
" clip-path="url(#pdd08781189)" style="fill: none; stroke: #b0b0b0; stroke-width: 0.5; stroke-linecap: square"/>
     </g>
     <g id="line2d_116">
      <g>
       <use xlink:href="#maf8867b1fa" x="52.514572" y="390.956433" style="stroke: #000000; stroke-width: 0.5"/>
      </g>
     </g>
     <g id="line2d_117">
      <g>
       <use xlink:href="#mb0b29e1ad4" x="567.09952" y="390.956433" style="stroke: #000000; stroke-width: 0.5"/>
      </g>
     </g>
    </g>
    <g id="ytick_13">
     <g id="line2d_118">
      <path d="M 52.514572 374.542878 
L 567.09952 374.542878 
" clip-path="url(#pdd08781189)" style="fill: none; stroke: #b0b0b0; stroke-width: 0.5; stroke-linecap: square"/>
     </g>
     <g id="line2d_119">
      <g>
       <use xlink:href="#maf8867b1fa" x="52.514572" y="374.542878" style="stroke: #000000; stroke-width: 0.5"/>
      </g>
     </g>
     <g id="line2d_120">
      <g>
       <use xlink:href="#mb0b29e1ad4" x="567.09952" y="374.542878" style="stroke: #000000; stroke-width: 0.5"/>
      </g>
     </g>
    </g>
    <g id="ytick_14">
     <g id="line2d_121">
      <path d="M 52.514572 358.129323 
L 567.09952 358.129323 
" clip-path="url(#pdd08781189)" style="fill: none; stroke: #b0b0b0; stroke-width: 0.5; stroke-linecap: square"/>
     </g>
     <g id="line2d_122">
      <g>
       <use xlink:href="#maf8867b1fa" x="52.514572" y="358.129323" style="stroke: #000000; stroke-width: 0.5"/>
      </g>
     </g>
     <g id="line2d_123">
      <g>
       <use xlink:href="#mb0b29e1ad4" x="567.09952" y="358.129323" style="stroke: #000000; stroke-width: 0.5"/>
      </g>
     </g>
    </g>
    <g id="ytick_15">
     <g id="line2d_124">
      <path d="M 52.514572 341.715768 
L 567.09952 341.715768 
" clip-path="url(#pdd08781189)" style="fill: none; stroke: #b0b0b0; stroke-width: 0.5; stroke-linecap: square"/>
     </g>
     <g id="line2d_125">
      <g>
       <use xlink:href="#maf8867b1fa" x="52.514572" y="341.715768" style="stroke: #000000; stroke-width: 0.5"/>
      </g>
     </g>
     <g id="line2d_126">
      <g>
       <use xlink:href="#mb0b29e1ad4" x="567.09952" y="341.715768" style="stroke: #000000; stroke-width: 0.5"/>
      </g>
     </g>
    </g>
    <g id="ytick_16">
     <g id="line2d_127">
      <path d="M 52.514572 308.888658 
L 567.09952 308.888658 
" clip-path="url(#pdd08781189)" style="fill: none; stroke: #b0b0b0; stroke-width: 0.5; stroke-linecap: square"/>
     </g>
     <g id="line2d_128">
      <g>
       <use xlink:href="#maf8867b1fa" x="52.514572" y="308.888658" style="stroke: #000000; stroke-width: 0.5"/>
      </g>
     </g>
     <g id="line2d_129">
      <g>
       <use xlink:href="#mb0b29e1ad4" x="567.09952" y="308.888658" style="stroke: #000000; stroke-width: 0.5"/>
      </g>
     </g>
    </g>
    <g id="ytick_17">
     <g id="line2d_130">
      <path d="M 52.514572 292.475103 
L 567.09952 292.475103 
" clip-path="url(#pdd08781189)" style="fill: none; stroke: #b0b0b0; stroke-width: 0.5; stroke-linecap: square"/>
     </g>
     <g id="line2d_131">
      <g>
       <use xlink:href="#maf8867b1fa" x="52.514572" y="292.475103" style="stroke: #000000; stroke-width: 0.5"/>
      </g>
     </g>
     <g id="line2d_132">
      <g>
       <use xlink:href="#mb0b29e1ad4" x="567.09952" y="292.475103" style="stroke: #000000; stroke-width: 0.5"/>
      </g>
     </g>
    </g>
    <g id="ytick_18">
     <g id="line2d_133">
      <path d="M 52.514572 276.061548 
L 567.09952 276.061548 
" clip-path="url(#pdd08781189)" style="fill: none; stroke: #b0b0b0; stroke-width: 0.5; stroke-linecap: square"/>
     </g>
     <g id="line2d_134">
      <g>
       <use xlink:href="#maf8867b1fa" x="52.514572" y="276.061548" style="stroke: #000000; stroke-width: 0.5"/>
      </g>
     </g>
     <g id="line2d_135">
      <g>
       <use xlink:href="#mb0b29e1ad4" x="567.09952" y="276.061548" style="stroke: #000000; stroke-width: 0.5"/>
      </g>
     </g>
    </g>
    <g id="ytick_19">
     <g id="line2d_136">
      <path d="M 52.514572 259.647994 
L 567.09952 259.647994 
" clip-path="url(#pdd08781189)" style="fill: none; stroke: #b0b0b0; stroke-width: 0.5; stroke-linecap: square"/>
     </g>
     <g id="line2d_137">
      <g>
       <use xlink:href="#maf8867b1fa" x="52.514572" y="259.647994" style="stroke: #000000; stroke-width: 0.5"/>
      </g>
     </g>
     <g id="line2d_138">
      <g>
       <use xlink:href="#mb0b29e1ad4" x="567.09952" y="259.647994" style="stroke: #000000; stroke-width: 0.5"/>
      </g>
     </g>
    </g>
    <g id="ytick_20">
     <g id="line2d_139">
      <path d="M 52.514572 226.820884 
L 567.09952 226.820884 
" clip-path="url(#pdd08781189)" style="fill: none; stroke: #b0b0b0; stroke-width: 0.5; stroke-linecap: square"/>
     </g>
     <g id="line2d_140">
      <g>
       <use xlink:href="#maf8867b1fa" x="52.514572" y="226.820884" style="stroke: #000000; stroke-width: 0.5"/>
      </g>
     </g>
     <g id="line2d_141">
      <g>
       <use xlink:href="#mb0b29e1ad4" x="567.09952" y="226.820884" style="stroke: #000000; stroke-width: 0.5"/>
      </g>
     </g>
    </g>
    <g id="ytick_21">
     <g id="line2d_142">
      <path d="M 52.514572 210.407329 
L 567.09952 210.407329 
" clip-path="url(#pdd08781189)" style="fill: none; stroke: #b0b0b0; stroke-width: 0.5; stroke-linecap: square"/>
     </g>
     <g id="line2d_143">
      <g>
       <use xlink:href="#maf8867b1fa" x="52.514572" y="210.407329" style="stroke: #000000; stroke-width: 0.5"/>
      </g>
     </g>
     <g id="line2d_144">
      <g>
       <use xlink:href="#mb0b29e1ad4" x="567.09952" y="210.407329" style="stroke: #000000; stroke-width: 0.5"/>
      </g>
     </g>
    </g>
    <g id="ytick_22">
     <g id="line2d_145">
      <path d="M 52.514572 193.993774 
L 567.09952 193.993774 
" clip-path="url(#pdd08781189)" style="fill: none; stroke: #b0b0b0; stroke-width: 0.5; stroke-linecap: square"/>
     </g>
     <g id="line2d_146">
      <g>
       <use xlink:href="#maf8867b1fa" x="52.514572" y="193.993774" style="stroke: #000000; stroke-width: 0.5"/>
      </g>
     </g>
     <g id="line2d_147">
      <g>
       <use xlink:href="#mb0b29e1ad4" x="567.09952" y="193.993774" style="stroke: #000000; stroke-width: 0.5"/>
      </g>
     </g>
    </g>
    <g id="ytick_23">
     <g id="line2d_148">
      <path d="M 52.514572 177.580219 
L 567.09952 177.580219 
" clip-path="url(#pdd08781189)" style="fill: none; stroke: #b0b0b0; stroke-width: 0.5; stroke-linecap: square"/>
     </g>
     <g id="line2d_149">
      <g>
       <use xlink:href="#maf8867b1fa" x="52.514572" y="177.580219" style="stroke: #000000; stroke-width: 0.5"/>
      </g>
     </g>
     <g id="line2d_150">
      <g>
       <use xlink:href="#mb0b29e1ad4" x="567.09952" y="177.580219" style="stroke: #000000; stroke-width: 0.5"/>
      </g>
     </g>
    </g>
    <g id="ytick_24">
     <g id="line2d_151">
      <path d="M 52.514572 144.753109 
L 567.09952 144.753109 
" clip-path="url(#pdd08781189)" style="fill: none; stroke: #b0b0b0; stroke-width: 0.5; stroke-linecap: square"/>
     </g>
     <g id="line2d_152">
      <g>
       <use xlink:href="#maf8867b1fa" x="52.514572" y="144.753109" style="stroke: #000000; stroke-width: 0.5"/>
      </g>
     </g>
     <g id="line2d_153">
      <g>
       <use xlink:href="#mb0b29e1ad4" x="567.09952" y="144.753109" style="stroke: #000000; stroke-width: 0.5"/>
      </g>
     </g>
    </g>
    <g id="ytick_25">
     <g id="line2d_154">
      <path d="M 52.514572 128.339554 
L 567.09952 128.339554 
" clip-path="url(#pdd08781189)" style="fill: none; stroke: #b0b0b0; stroke-width: 0.5; stroke-linecap: square"/>
     </g>
     <g id="line2d_155">
      <g>
       <use xlink:href="#maf8867b1fa" x="52.514572" y="128.339554" style="stroke: #000000; stroke-width: 0.5"/>
      </g>
     </g>
     <g id="line2d_156">
      <g>
       <use xlink:href="#mb0b29e1ad4" x="567.09952" y="128.339554" style="stroke: #000000; stroke-width: 0.5"/>
      </g>
     </g>
    </g>
    <g id="ytick_26">
     <g id="line2d_157">
      <path d="M 52.514572 111.925999 
L 567.09952 111.925999 
" clip-path="url(#pdd08781189)" style="fill: none; stroke: #b0b0b0; stroke-width: 0.5; stroke-linecap: square"/>
     </g>
     <g id="line2d_158">
      <g>
       <use xlink:href="#maf8867b1fa" x="52.514572" y="111.925999" style="stroke: #000000; stroke-width: 0.5"/>
      </g>
     </g>
     <g id="line2d_159">
      <g>
       <use xlink:href="#mb0b29e1ad4" x="567.09952" y="111.925999" style="stroke: #000000; stroke-width: 0.5"/>
      </g>
     </g>
    </g>
    <g id="ytick_27">
     <g id="line2d_160">
      <path d="M 52.514572 95.512445 
L 567.09952 95.512445 
" clip-path="url(#pdd08781189)" style="fill: none; stroke: #b0b0b0; stroke-width: 0.5; stroke-linecap: square"/>
     </g>
     <g id="line2d_161">
      <g>
       <use xlink:href="#maf8867b1fa" x="52.514572" y="95.512445" style="stroke: #000000; stroke-width: 0.5"/>
      </g>
     </g>
     <g id="line2d_162">
      <g>
       <use xlink:href="#mb0b29e1ad4" x="567.09952" y="95.512445" style="stroke: #000000; stroke-width: 0.5"/>
      </g>
     </g>
    </g>
    <g id="ytick_28">
     <g id="line2d_163">
      <path d="M 52.514572 62.685335 
L 567.09952 62.685335 
" clip-path="url(#pdd08781189)" style="fill: none; stroke: #b0b0b0; stroke-width: 0.5; stroke-linecap: square"/>
     </g>
     <g id="line2d_164">
      <g>
       <use xlink:href="#maf8867b1fa" x="52.514572" y="62.685335" style="stroke: #000000; stroke-width: 0.5"/>
      </g>
     </g>
     <g id="line2d_165">
      <g>
       <use xlink:href="#mb0b29e1ad4" x="567.09952" y="62.685335" style="stroke: #000000; stroke-width: 0.5"/>
      </g>
     </g>
    </g>
    <g id="ytick_29">
     <g id="line2d_166">
      <path d="M 52.514572 46.27178 
L 567.09952 46.27178 
" clip-path="url(#pdd08781189)" style="fill: none; stroke: #b0b0b0; stroke-width: 0.5; stroke-linecap: square"/>
     </g>
     <g id="line2d_167">
      <g>
       <use xlink:href="#maf8867b1fa" x="52.514572" y="46.27178" style="stroke: #000000; stroke-width: 0.5"/>
      </g>
     </g>
     <g id="line2d_168">
      <g>
       <use xlink:href="#mb0b29e1ad4" x="567.09952" y="46.27178" style="stroke: #000000; stroke-width: 0.5"/>
      </g>
     </g>
    </g>
    <g id="ytick_30">
     <g id="line2d_169">
      <path d="M 52.514572 29.858225 
L 567.09952 29.858225 
" clip-path="url(#pdd08781189)" style="fill: none; stroke: #b0b0b0; stroke-width: 0.5; stroke-linecap: square"/>
     </g>
     <g id="line2d_170">
      <g>
       <use xlink:href="#maf8867b1fa" x="52.514572" y="29.858225" style="stroke: #000000; stroke-width: 0.5"/>
      </g>
     </g>
     <g id="line2d_171">
      <g>
       <use xlink:href="#mb0b29e1ad4" x="567.09952" y="29.858225" style="stroke: #000000; stroke-width: 0.5"/>
      </g>
     </g>
    </g>
    <g id="ytick_31">
     <g id="line2d_172">
      <path d="M 52.514572 13.44467 
L 567.09952 13.44467 
" clip-path="url(#pdd08781189)" style="fill: none; stroke: #b0b0b0; stroke-width: 0.5; stroke-linecap: square"/>
     </g>
     <g id="line2d_173">
      <g>
       <use xlink:href="#maf8867b1fa" x="52.514572" y="13.44467" style="stroke: #000000; stroke-width: 0.5"/>
      </g>
     </g>
     <g id="line2d_174">
      <g>
       <use xlink:href="#mb0b29e1ad4" x="567.09952" y="13.44467" style="stroke: #000000; stroke-width: 0.5"/>
      </g>
     </g>
    </g>
    <g id="text_13">
     <!-- $y$ -->
     <g transform="translate(22.512811 263.155084) rotate(-90) scale(0.28 -0.28)">
      <defs>
       <path id="NimbusRomNo9L-ReguItal-79" d="M 96 2553 
C 179 2572 224 2579 294 2579 
C 659 2579 755 2419 1050 1318 
C 1158 902 1312 153 1312 44 
C 1312 -58 1274 -161 1178 -276 
C 979 -538 851 -705 781 -782 
C 646 -922 570 -974 486 -974 
C 448 -974 403 -954 333 -903 
C 237 -826 166 -794 96 -794 
C -45 -794 -154 -903 -154 -1044 
C -154 -1204 -13 -1326 173 -1326 
C 582 -1326 1421 -365 2112 902 
C 2547 1689 2726 2150 2726 2463 
C 2726 2655 2566 2816 2374 2816 
C 2227 2816 2125 2719 2125 2579 
C 2125 2483 2176 2412 2304 2329 
C 2426 2259 2470 2201 2470 2111 
C 2470 1855 2234 1356 1690 454 
L 1562 1196 
C 1466 1759 1107 2816 1011 2816 
L 986 2816 
C 979 2809 954 2809 928 2809 
C 870 2803 640 2764 301 2700 
C 269 2694 186 2675 96 2662 
L 96 2553 
z
" transform="scale(0.015625)"/>
      </defs>
      <use xlink:href="#NimbusRomNo9L-ReguItal-79" transform="scale(0.996264)"/>
     </g>
    </g>
   </g>
   <g id="line2d_175">
    <path d="M 144.528263 407.369988 
L 137.026679 400.789143 
L 131.122879 395.349865 
L 124.145347 388.564067 
L 118.493407 382.71661 
L 113.749249 377.503086 
L 109.69359 372.769881 
L 105.122549 367.046223 
L 101.308123 361.860062 
L 98.095068 357.108114 
L 95.368862 352.714219 
L 92.513859 347.637192 
L 90.152217 342.940134 
L 88.184308 338.555005 
L 86.235749 333.630569 
L 84.643314 329.008068 
L 83.135191 323.924694 
L 81.765067 318.444243 
L 80.560947 312.612997 
L 79.530616 306.462522 
L 78.600801 299.441204 
L 77.811477 291.637328 
L 77.174538 283.117992 
L 76.641228 272.936904 
L 76.237066 260.782484 
L 75.980662 245.949659 
L 75.906338 228.309954 
L 76.043732 207.385545 
L 76.422909 183.628171 
L 77.035915 158.944779 
L 77.842756 135.279739 
L 78.764114 114.569871 
L 79.768666 96.854964 
L 80.819089 82.172538 
L 81.887665 70.258878 
L 82.969107 60.609221 
L 84.065059 52.784957 
L 85.142004 46.633457 
L 86.203137 41.779346 
L 87.265591 37.899439 
L 88.29742 34.903428 
L 89.333325 32.527953 
L 90.347609 30.712266 
L 91.407581 29.263578 
L 92.391147 28.262499 
L 93.37466 27.538947 
L 94.4853 27.002153 
L 95.586024 26.715696 
L 96.836711 26.635738 
L 98.057065 26.765625 
L 99.448754 27.118426 
L 101.056501 27.744943 
L 102.942633 28.714783 
L 105.196754 30.126293 
L 107.952618 32.123667 
L 111.419245 34.928104 
L 115.942543 38.898722 
L 122.13869 44.662628 
L 131.217943 53.426307 
L 198.790742 119.393823 
L 224.155303 143.732261 
L 261.058188 178.85363 
L 389.714775 300.703098 
L 430.568806 339.951079 
L 468.261092 377.021139 
L 498.455252 408.057265 
L 519.522908 431.478374 
L 532.590457 448.087966 
L 539.799678 459.61703 
L 543.0545 467.642178 
L 543.709295 473.299528 
L 542.65674 477.345846 
L 540.474512 480.276155 
L 537.538408 482.416417 
L 534.096418 483.984822 
L 530.315012 485.130341 
L 526.307872 485.956779 
L 522.153893 486.53793 
L 517.908625 486.927248 
L 513.611676 487.164149 
L 504.969106 487.291831 
L 496.373596 487.083673 
L 487.904232 486.638677 
L 479.603334 486.020041 
L 467.512029 484.854715 
L 455.874409 483.481761 
L 444.690031 481.956674 
L 430.458027 479.746095 
L 416.960036 477.380341 
L 404.144082 474.892396 
L 391.958892 472.303538 
L 380.356169 469.627975 
L 369.291341 466.875441 
L 358.723655 464.052721 
L 348.615985 461.164591 
L 336.577116 457.467473 
L 325.145004 453.677762 
L 314.266638 449.798175 
L 303.894608 445.830239 
L 293.986383 441.774633 
L 284.503697 437.631434 
L 275.41204 433.400297 
L 266.680231 429.080601 
L 258.280074 424.671572 
L 250.186072 420.172399 
L 242.375211 415.582348 
L 234.826787 410.900879 
L 227.522282 406.127769 
L 220.445278 401.26325 
L 213.581415 396.308152 
L 206.918364 391.264061 
L 199.17342 385.097279 
L 191.689026 378.812419 
L 184.455551 372.418518 
L 177.467617 365.927563 
L 170.723986 359.354715 
L 164.227297 352.718361 
L 157.983608 346.039962 
L 152.001712 339.34365 
L 146.292237 332.655569 
L 140.866565 326.002984 
L 134.909851 318.322901 
L 129.368776 310.769659 
L 124.2527 303.38034 
L 119.564283 296.185843 
L 115.298751 289.209682 
L 111.444018 282.467545 
L 107.98154 275.967589 
L 104.887658 269.711273 
L 102.135183 263.694552 
L 99.370116 257.100973 
L 96.968598 250.792658 
L 94.887519 244.749961 
L 92.879099 238.24356 
L 90.999974 231.342036 
L 89.431732 224.74896 
L 88.002921 217.811938 
L 86.732565 210.575618 
L 85.553487 202.51334 
L 84.573411 194.267539 
L 83.734361 185.34366 
L 83.025902 175.335599 
L 82.486738 164.386023 
L 82.137152 152.624922 
L 81.985684 139.755615 
L 82.054452 126.359591 
L 82.342796 112.933178 
L 82.841641 99.903221 
L 83.518148 87.9702 
L 84.315082 77.702966 
L 85.209454 68.959962 
L 86.141937 61.893505 
L 87.118868 56.082368 
L 88.113226 51.417651 
L 89.155304 47.570149 
L 90.152129 44.675256 
L 91.221411 42.251092 
L 92.263468 40.437022 
L 93.2338 39.145667 
L 94.206499 38.170391 
L 95.307039 37.387515 
L 96.399282 36.890058 
L 97.453528 36.629353 
L 98.641197 36.550403 
L 99.993162 36.68899 
L 101.551023 37.092563 
L 103.372265 37.825613 
L 105.538694 38.978371 
L 108.170916 40.681543 
L 111.454521 43.132635 
L 115.690675 46.646178 
L 120.314448 50.761005 
L 127.978555 57.930881 
L 139.741287 69.300698 
L 193.006768 121.192456 
L 229.066873 155.826042 
L 266.495577 191.464952 
L 354.307075 274.734552 
L 391.664366 310.388741 
L 429.596852 347.070211 
L 464.034164 381.231569 
L 491.503563 409.764507 
L 510.85143 431.516645 
L 523.083717 447.209533 
L 530.005878 458.29781 
L 533.257134 466.135379 
L 534.040526 471.729097 
L 533.172236 475.769301 
L 531.193261 478.718414 
L 528.462407 480.886733 
L 525.220181 482.485088 
L 521.630117 483.659146 
L 517.805105 484.511389 
L 513.824221 485.11523 
L 509.743604 485.524187 
L 505.603583 485.777925 
L 497.254575 485.93213 
L 488.929757 485.742953 
L 480.712266 485.311358 
L 472.647499 484.702003 
L 460.885836 483.54512 
L 449.553349 482.176109 
L 438.653652 480.652009 
L 424.774428 478.439829 
L 411.603228 476.070493 
L 399.091865 473.577938 
L 387.191969 470.984066 
L 375.85755 468.303521 
L 365.045917 465.546351 
L 354.717885 462.719582 
L 344.837661 459.828177 
L 333.067664 456.128289 
L 321.889058 452.337514 
L 311.25048 448.458786 
L 301.105949 444.493824 
L 291.41418 440.443483 
L 282.138012 436.308004 
L 273.243912 432.087192 
L 264.701569 427.780568 
L 256.483559 423.387489 
L 248.565076 418.907257 
L 240.923708 414.339233 
L 233.539276 409.682947 
L 226.393705 404.938214 
L 219.47094 400.105259 
L 212.756892 395.184857 
L 204.958568 389.167061 
L 197.426081 383.02965 
L 190.146131 376.778898 
L 183.109456 370.423552 
L 176.310802 363.975125 
L 169.748801 357.44809 
L 163.425721 350.859929 
L 157.347027 344.230983 
L 151.520754 337.584081 
L 145.956671 330.943935 
L 139.810643 323.240048 
L 134.051753 315.62142 
L 128.693053 308.126964 
L 123.742704 300.791448 
L 119.202607 293.643809 
L 115.067774 286.706085 
L 111.326483 279.993054 
L 107.961062 273.512499 
L 104.949134 267.265991 
L 101.906783 260.408953 
L 99.251511 253.84135 
L 96.941567 247.547251 
L 94.705292 240.770294 
L 92.801084 234.288451 
L 91.016107 227.399316 
L 89.388568 220.161165 
L 87.941368 212.623248 
L 86.68403 204.825841 
L 85.615682 196.801286 
L 84.677164 188.039626 
L 83.897143 178.632493 
L 83.264352 168.174274 
L 82.812143 156.80744 
L 82.558726 144.664494 
L 82.515472 131.873 
L 82.694962 118.563116 
L 83.089652 105.616495 
L 83.682404 93.41277 
L 84.427413 82.603582 
L 85.279965 73.39812 
L 86.217287 65.662149 
L 87.170117 59.543464 
L 88.142799 54.619694 
L 89.163587 50.54365 
L 90.215761 47.251711 
L 91.275085 44.67368 
L 92.307718 42.730472 
L 93.38364 41.190545 
L 94.361675 40.143398 
L 95.469254 39.291858 
L 96.56944 38.737383 
L 97.632191 38.430496 
L 98.83037 38.308332 
L 100.195441 38.407321 
L 101.769854 38.775829 
L 103.612349 39.479694 
L 105.806668 40.611188 
L 107.991534 41.975595 
L 110.610788 43.840992 
L 113.820818 46.371442 
L 117.864276 49.817462 
L 123.138575 54.582647 
L 130.340629 61.362825 
L 143.496758 74.088074 
L 187.410716 116.839038 
L 219.574329 147.78827 
L 252.541533 179.243725 
L 365.742078 286.675494 
L 403.329241 322.679569 
L 440.237719 358.620045 
L 472.440353 390.962322 
L 497.149413 417.171485 
L 514.001136 436.777096 
L 524.359314 450.823399 
L 530.00198 460.756739 
L 532.413815 467.808536 
L 532.653807 472.867722 
L 531.435298 476.539325 
L 529.231878 479.229368 
L 526.359243 481.211799 
L 523.030309 482.674011 
L 519.390764 483.746384 
L 515.541779 484.521269 
L 511.55461 485.065247 
L 507.480091 485.427143 
L 503.354902 485.643346 
L 495.052297 485.7424 
L 486.786573 485.515549 
L 478.63421 485.0572 
L 470.637009 484.428232 
L 458.977159 483.250559 
L 447.744261 481.867374 
L 436.940525 480.333312 
L 423.182822 478.112117 
L 410.12575 475.737032 
L 397.721516 473.240993 
L 385.92231 470.645331 
L 374.682723 467.964344 
L 363.96062 465.207871 
L 353.717329 462.382807 
L 341.533019 458.762319 
L 329.979618 455.048737 
L 319.001601 451.246293 
L 308.549348 447.357635 
L 298.5784 443.384291 
L 289.04881 439.326999 
L 279.924587 435.185924 
L 271.173233 430.960837 
L 262.765355 426.651244 
L 254.674346 422.256508 
L 246.876129 417.775951 
L 239.348946 413.208964 
L 232.073203 408.555112 
L 225.03135 403.814248 
L 218.2078 398.986637 
L 211.58888 394.073084 
L 203.899822 388.065527 
L 196.471765 381.940566 
L 189.29183 375.70444 
L 182.351062 369.365801 
L 175.644394 362.93599 
L 169.170526 356.429226 
L 162.931676 349.862636 
L 156.93315 343.256114 
L 151.182733 336.631956 
L 144.800164 328.913717 
L 138.784314 321.244274 
L 133.150382 313.66344 
L 127.910469 306.208766 
L 123.071755 298.913557 
L 118.635256 291.805325 
L 114.59532 284.904839 
L 110.939847 278.225842 
L 107.651103 271.775374 
L 104.706937 265.554553 
L 101.731718 258.721248 
L 99.133517 252.171447 
L 96.871713 245.889541 
L 94.680391 239.12021 
L 92.812957 232.64033 
L 91.061044 225.747754 
L 89.462405 218.500234 
L 88.039965 210.946879 
L 86.803636 203.128156 
L 85.753164 195.076863 
L 84.831049 186.281523 
L 84.066291 176.834286 
L 83.448985 166.328291 
L 83.013272 154.907696 
L 82.778606 142.707651 
L 82.758073 129.859497 
L 82.957202 116.89237 
L 83.36705 104.258696 
L 83.972946 92.346574 
L 84.728915 81.816173 
L 85.58909 72.880398 
L 86.529392 65.404623 
L 87.525739 59.266767 
L 88.549093 54.348407 
L 89.561431 50.528361 
L 90.592065 47.470828 
L 91.612435 45.101172 
L 92.688682 43.171704 
L 93.69514 41.798621 
L 94.708149 40.76266 
L 95.706709 40.024316 
L 96.833709 39.471649 
L 97.924694 39.172836 
L 99.157506 39.066489 
L 100.565727 39.19135 
L 102.194899 39.599124 
L 104.108431 40.360613 
L 105.984778 41.33627 
L 108.196286 42.707458 
L 110.850944 44.589126 
L 114.109543 47.149783 
L 118.222334 50.647528 
L 123.600731 55.499735 
L 130.969717 62.429473 
L 144.502622 75.506127 
L 190.258898 119.994038 
L 224.181441 152.589669 
L 259.106882 185.873348 
L 377.373614 298.166153 
L 415.03854 334.395984 
L 450.74607 369.446197 
L 480.673008 399.934285 
L 502.777789 423.955473 
L 517.375925 441.629501 
L 526.068515 454.219512 
L 530.56945 463.130106 
L 532.220567 469.478657 
L 531.956971 474.052578 
L 530.404634 477.384446 
L 527.979569 479.832146 
L 524.960198 481.638242 
L 521.535253 482.969618 
L 517.834548 483.943091 
L 513.948687 484.641902 
L 509.941775 485.126411 
L 505.859734 485.441121 
L 501.735817 485.619366 
L 493.453135 485.662021 
L 485.221174 485.39611 
L 477.109824 484.909685 
L 469.157227 484.259896 
L 457.5667 483.059836 
L 446.402944 481.661088 
L 435.666483 480.11581 
L 421.994394 477.884039 
L 409.017832 475.501671 
L 396.689072 473.000563 
L 384.960601 470.401413 
L 373.787385 467.718136 
L 363.127676 464.960325 
L 352.943167 462.134715 
L 340.827768 458.514503 
L 329.338753 454.802142 
L 318.421118 451.001788 
L 308.025698 447.116043 
L 298.108434 443.146416 
L 288.629727 439.093633 
L 279.553895 434.957864 
L 270.848709 430.738883 
L 262.485013 426.436209 
L 254.43641 422.049211 
L 246.679 417.577222 
L 239.191181 413.019632 
L 231.953486 408.376004 
L 224.948468 403.646175 
L 218.160619 398.830382 
L 210.282807 392.939074 
L 202.678184 386.927708 
L 195.330577 380.800607 
L 188.227665 374.564172 
L 181.360985 368.227204 
L 174.72589 361.801172 
L 168.321415 355.300379 
L 162.150018 348.741983 
L 156.217143 342.145831 
L 150.530604 335.534088 
L 144.220209 327.832614 
L 138.273729 320.181901 
L 132.705947 312.621116 
L 127.528484 305.187074 
L 122.748043 297.912324 
L 118.36524 290.823659 
L 114.37415 283.941232 
L 110.762554 277.278305 
L 107.512761 270.84159 
L 104.602805 264.632026 
L 101.661271 257.808478 
L 99.091529 251.265218 
L 96.853594 244.986859 
L 94.684442 238.218305 
L 92.835053 231.736248 
L 91.099298 224.838352 
L 89.514742 217.582126 
L 88.104362 210.016634 
L 86.878298 202.18247 
L 85.836637 194.1127 
L 84.922741 185.294759 
L 84.165829 175.821127 
L 83.55676 165.284064 
L 83.13017 153.828733 
L 82.906255 141.591841 
L 82.899139 128.706964 
L 83.115257 115.707337 
L 83.546802 103.049687 
L 84.158249 91.476994 
L 84.913505 81.260243 
L 85.765635 72.615489 
L 86.689058 65.408503 
L 87.657318 59.516159 
L 88.638469 54.818315 
L 89.660385 50.961194 
L 90.70247 47.876383 
L 91.735818 45.488266 
L 92.721625 43.712533 
L 93.729811 42.311792 
L 94.744887 41.25222 
L 95.745782 40.494096 
L 96.875744 39.922624 
L 97.96991 39.608629 
L 99.206672 39.488158 
L 100.619852 39.600214 
L 102.255343 39.996881 
L 103.833454 40.595546 
L 105.661042 41.497167 
L 107.809025 42.778579 
L 110.378645 44.547831 
L 113.519619 46.962256 
L 117.463016 50.260843 
L 122.584777 54.826085 
L 129.538576 61.31189 
L 142.125771 73.421052 
L 201.190245 130.732034 
L 242.435856 170.204112 
L 285.439761 211.050937 
L 345.974924 268.445257 
L 382.257636 303.026431 
L 419.833426 339.243792 
L 454.914727 373.810405 
L 483.828409 403.463767 
L 504.861995 426.579057 
L 518.57531 443.489946 
L 526.629594 455.517624 
L 530.697784 464.036645 
L 532.061997 470.116273 
L 531.609088 474.504245 
L 529.931767 477.705495 
L 527.424281 480.059679 
L 524.350979 481.797489 
L 520.891442 483.078033 
L 517.169464 484.012973 
L 513.271625 484.682074 
L 509.259302 485.143314 
L 505.176537 485.439535 
L 496.918862 485.657891 
L 488.665019 485.514313 
L 480.50583 485.116565 
L 472.491155 484.533335 
L 460.794851 483.406348 
L 449.520377 482.060264 
L 438.674137 480.55488 
L 424.861707 478.363804 
L 411.753976 476.013146 
L 399.303862 473.538125 
L 387.463629 470.961428 
L 376.187679 468.298208 
L 365.433584 465.558868 
L 355.162347 462.750686 
L 342.948316 459.151367 
L 331.370453 455.459381 
L 320.372725 451.679242 
L 309.905072 447.813808 
L 299.92265 443.864775 
L 290.385176 439.83301 
L 281.256363 435.718785 
L 272.503451 431.521952 
L 264.096803 427.242079 
L 256.009586 422.878565 
L 248.217496 418.430744 
L 240.698551 413.89799 
L 233.432919 409.279813 
L 226.402792 404.575973 
L 219.592297 399.786591 
L 212.987438 394.912277 
L 205.316065 388.952769 
L 197.905891 382.87635 
L 190.743204 376.688527 
L 183.818107 370.397061 
L 177.124503 364.012254 
L 170.659998 357.547163 
L 164.425704 351.017675 
L 158.425874 344.442424 
L 152.667369 337.842506 
L 146.265859 330.14227 
L 140.220255 322.478572 
L 134.545773 314.890539 
L 129.255217 307.415696 
L 124.35709 300.087987 
L 119.854221 292.936135 
L 115.743063 285.982547 
L 112.013692 279.242843 
L 108.650441 272.725997 
L 105.632959 266.434957 
L 102.577265 259.51878 
L 99.903611 252.885219 
L 97.572351 246.52019 
L 95.310614 239.659435 
L 93.380994 233.091269 
L 91.569201 226.104892 
L 89.914918 218.759676 
L 88.442463 211.106171 
L 87.81527 207.405808 
L 87.81527 207.405808 
" clip-path="url(#pdd08781189)" style="fill: none; stroke-dasharray: 7.4,3.2; stroke-dashoffset: 0; stroke: #3f90da; stroke-width: 2"/>
   </g>
   <g id="patch_3">
    <path d="M 52.514572 510.324775 
L 52.514572 3.6 
" style="fill: none; stroke: #000000; stroke-width: 0.5; stroke-linejoin: miter; stroke-linecap: square"/>
   </g>
   <g id="patch_4">
    <path d="M 567.09952 510.324775 
L 567.09952 3.6 
" style="fill: none; stroke: #000000; stroke-width: 0.5; stroke-linejoin: miter; stroke-linecap: square"/>
   </g>
   <g id="patch_5">
    <path d="M 52.514572 510.324775 
L 567.09952 510.324775 
" style="fill: none; stroke: #000000; stroke-width: 0.5; stroke-linejoin: miter; stroke-linecap: square"/>
   </g>
   <g id="patch_6">
    <path d="M 52.514572 3.6 
L 567.09952 3.6 
" style="fill: none; stroke: #000000; stroke-width: 0.5; stroke-linejoin: miter; stroke-linecap: square"/>
   </g>
  </g>
 </g>
 <defs>
  <clipPath id="pdd08781189">
   <rect x="52.514572" y="3.6" width="514.584948" height="506.724775"/>
  </clipPath>
 </defs>
</svg>
