<?xml version="1.0" encoding="utf-8" standalone="no"?>
<!DOCTYPE svg PUBLIC "-//W3C//DTD SVG 1.1//EN"
  "http://www.w3.org/Graphics/SVG/1.1/DTD/svg11.dtd">
<svg xmlns:xlink="http://www.w3.org/1999/xlink" width="577.19952pt" height="550.699864pt" viewBox="0 0 577.19952 550.699864" xmlns="http://www.w3.org/2000/svg" version="1.1">
 <metadata>
  <rdf:RDF xmlns:dc="http://purl.org/dc/elements/1.1/" xmlns:cc="http://creativecommons.org/ns#" xmlns:rdf="http://www.w3.org/1999/02/22-rdf-syntax-ns#">
   <cc:Work>
    <dc:type rdf:resource="http://purl.org/dc/dcmitype/StillImage"/>
    <dc:date>2024-12-26T21:03:50.820706</dc:date>
    <dc:format>image/svg+xml</dc:format>
    <dc:creator>
     <cc:Agent>
      <dc:title>Matplotlib v3.10.0, https://matplotlib.org/</dc:title>
     </cc:Agent>
    </dc:creator>
   </cc:Work>
  </rdf:RDF>
 </metadata>
 <defs>
  <style type="text/css">*{stroke-linejoin: round; stroke-linecap: butt}</style>
 </defs>
 <g id="figure_1">
  <g id="patch_1">
   <path d="M 0 550.699864 
L 577.19952 550.699864 
L 577.19952 0 
L 0 0 
z
" style="fill: #ffffff"/>
  </g>
  <g id="axes_1">
   <g id="patch_2">
    <path d="M 20.31264 493.575119 
L 570.34952 493.575119 
L 570.34952 6.85 
L 20.31264 6.85 
z
" style="fill: #ffffff"/>
   </g>
   <g id="matplotlib.axis_1">
    <g id="xtick_1">
     <g id="line2d_1">
      <path d="M 45.314316 493.575119 
L 45.314316 6.85 
" clip-path="url(#p22c755ea4b)" style="fill: none; stroke: #b0b0b0; stroke-width: 0.5; stroke-linecap: square"/>
     </g>
     <g id="line2d_2">
      <defs>
       <path id="m89da020da5" d="M 0 3.25 
L 0 -3.25 
" style="stroke: #000000; stroke-width: 1.5"/>
      </defs>
      <g>
       <use xlink:href="#m89da020da5" x="45.314316" y="493.575119" style="stroke: #000000; stroke-width: 1.5"/>
      </g>
     </g>
     <g id="line2d_3">
      <g>
       <use xlink:href="#m89da020da5" x="45.314316" y="6.85" style="stroke: #000000; stroke-width: 1.5"/>
      </g>
     </g>
     <g id="text_1">
      <!-- $\mathdefault{0}$ -->
      <g transform="translate(40.332996 513.834274) scale(0.2 -0.2)">
       <defs>
        <path id="NimbusRomNo9L-Regu-30" d="M 1626 4352 
C 1274 4352 1005 4243 768 4019 
C 397 3661 154 2924 154 2176 
C 154 1478 365 729 666 371 
C 902 89 1229 -64 1600 -64 
C 1926 -64 2202 44 2432 268 
C 2803 620 3046 1363 3046 2137 
C 3046 3449 2464 4352 1626 4352 
z
M 1606 4185 
C 2144 4185 2432 3462 2432 2124 
C 2432 787 2150 102 1600 102 
C 1050 102 768 787 768 2118 
C 768 3475 1056 4185 1606 4185 
z
" transform="scale(0.015625)"/>
       </defs>
       <use xlink:href="#NimbusRomNo9L-Regu-30" transform="scale(0.996264)"/>
      </g>
     </g>
    </g>
    <g id="xtick_2">
     <g id="line2d_4">
      <path d="M 145.327173 493.575119 
L 145.327173 6.85 
" clip-path="url(#p22c755ea4b)" style="fill: none; stroke: #b0b0b0; stroke-width: 0.5; stroke-linecap: square"/>
     </g>
     <g id="line2d_5">
      <g>
       <use xlink:href="#m89da020da5" x="145.327173" y="493.575119" style="stroke: #000000; stroke-width: 1.5"/>
      </g>
     </g>
     <g id="line2d_6">
      <g>
       <use xlink:href="#m89da020da5" x="145.327173" y="6.85" style="stroke: #000000; stroke-width: 1.5"/>
      </g>
     </g>
     <g id="text_2">
      <!-- $\mathdefault{10}$ -->
      <g transform="translate(135.364533 513.834274) scale(0.2 -0.2)">
       <defs>
        <path id="NimbusRomNo9L-Regu-31" d="M 1862 4352 
L 710 3776 
L 710 3686 
C 787 3718 858 3743 883 3756 
C 998 3801 1107 3826 1171 3826 
C 1306 3826 1363 3731 1363 3525 
L 1363 599 
C 1363 386 1312 238 1210 179 
C 1114 121 1024 102 755 96 
L 755 0 
L 2522 0 
L 2522 96 
C 2016 102 1914 167 1914 477 
L 1914 4339 
L 1862 4352 
z
" transform="scale(0.015625)"/>
       </defs>
       <use xlink:href="#NimbusRomNo9L-Regu-31" transform="scale(0.996264)"/>
       <use xlink:href="#NimbusRomNo9L-Regu-30" transform="translate(49.8132 0) scale(0.996264)"/>
      </g>
     </g>
    </g>
    <g id="xtick_3">
     <g id="line2d_7">
      <path d="M 245.34003 493.575119 
L 245.34003 6.85 
" clip-path="url(#p22c755ea4b)" style="fill: none; stroke: #b0b0b0; stroke-width: 0.5; stroke-linecap: square"/>
     </g>
     <g id="line2d_8">
      <g>
       <use xlink:href="#m89da020da5" x="245.34003" y="493.575119" style="stroke: #000000; stroke-width: 1.5"/>
      </g>
     </g>
     <g id="line2d_9">
      <g>
       <use xlink:href="#m89da020da5" x="245.34003" y="6.85" style="stroke: #000000; stroke-width: 1.5"/>
      </g>
     </g>
     <g id="text_3">
      <!-- $\mathdefault{20}$ -->
      <g transform="translate(235.37739 513.834274) scale(0.2 -0.2)">
       <defs>
        <path id="NimbusRomNo9L-Regu-32" d="M 3040 879 
L 2957 912 
C 2720 544 2637 486 2349 486 
L 819 486 
L 1894 1621 
C 2464 2221 2714 2711 2714 3214 
C 2714 3858 2195 4352 1530 4352 
C 1178 4352 845 4211 608 3955 
C 403 3736 307 3530 198 3072 
L 333 3039 
C 589 3671 819 3878 1261 3878 
C 1798 3878 2163 3510 2163 2969 
C 2163 2466 1869 1866 1331 1292 
L 192 76 
L 192 0 
L 2688 0 
L 3040 879 
z
" transform="scale(0.015625)"/>
       </defs>
       <use xlink:href="#NimbusRomNo9L-Regu-32" transform="scale(0.996264)"/>
       <use xlink:href="#NimbusRomNo9L-Regu-30" transform="translate(49.8132 0) scale(0.996264)"/>
      </g>
     </g>
    </g>
    <g id="xtick_4">
     <g id="line2d_10">
      <path d="M 345.352887 493.575119 
L 345.352887 6.85 
" clip-path="url(#p22c755ea4b)" style="fill: none; stroke: #b0b0b0; stroke-width: 0.5; stroke-linecap: square"/>
     </g>
     <g id="line2d_11">
      <g>
       <use xlink:href="#m89da020da5" x="345.352887" y="493.575119" style="stroke: #000000; stroke-width: 1.5"/>
      </g>
     </g>
     <g id="line2d_12">
      <g>
       <use xlink:href="#m89da020da5" x="345.352887" y="6.85" style="stroke: #000000; stroke-width: 1.5"/>
      </g>
     </g>
     <g id="text_4">
      <!-- $\mathdefault{30}$ -->
      <g transform="translate(335.390247 513.834274) scale(0.2 -0.2)">
       <defs>
        <path id="NimbusRomNo9L-Regu-33" d="M 979 2137 
C 1357 2137 1504 2124 1658 2067 
C 2054 1926 2304 1561 2304 1120 
C 2304 582 1939 166 1466 166 
C 1293 166 1165 211 928 364 
C 736 480 627 524 518 524 
C 371 524 275 435 275 300 
C 275 76 550 -64 998 -64 
C 1491 -64 1997 102 2298 364 
C 2598 627 2765 998 2765 1427 
C 2765 1753 2662 2054 2477 2252 
C 2349 2393 2227 2470 1946 2592 
C 2387 2892 2547 3129 2547 3475 
C 2547 3993 2138 4352 1549 4352 
C 1229 4352 947 4243 717 4038 
C 525 3865 429 3699 288 3315 
L 384 3289 
C 646 3757 934 3967 1338 3967 
C 1754 3967 2042 3686 2042 3283 
C 2042 3052 1946 2822 1786 2662 
C 1594 2470 1414 2374 979 2220 
L 979 2137 
z
" transform="scale(0.015625)"/>
       </defs>
       <use xlink:href="#NimbusRomNo9L-Regu-33" transform="scale(0.996264)"/>
       <use xlink:href="#NimbusRomNo9L-Regu-30" transform="translate(49.8132 0) scale(0.996264)"/>
      </g>
     </g>
    </g>
    <g id="xtick_5">
     <g id="line2d_13">
      <path d="M 445.365744 493.575119 
L 445.365744 6.85 
" clip-path="url(#p22c755ea4b)" style="fill: none; stroke: #b0b0b0; stroke-width: 0.5; stroke-linecap: square"/>
     </g>
     <g id="line2d_14">
      <g>
       <use xlink:href="#m89da020da5" x="445.365744" y="493.575119" style="stroke: #000000; stroke-width: 1.5"/>
      </g>
     </g>
     <g id="line2d_15">
      <g>
       <use xlink:href="#m89da020da5" x="445.365744" y="6.85" style="stroke: #000000; stroke-width: 1.5"/>
      </g>
     </g>
     <g id="text_5">
      <!-- $\mathdefault{40}$ -->
      <g transform="translate(435.403104 513.834274) scale(0.2 -0.2)">
       <defs>
        <path id="NimbusRomNo9L-Regu-34" d="M 3021 1497 
L 2368 1497 
L 2368 4352 
L 2086 4352 
L 77 1497 
L 77 1088 
L 1875 1088 
L 1875 0 
L 2368 0 
L 2368 1088 
L 3021 1088 
L 3021 1497 
z
M 1869 1497 
L 333 1497 
L 1869 3697 
L 1869 1497 
z
" transform="scale(0.015625)"/>
       </defs>
       <use xlink:href="#NimbusRomNo9L-Regu-34" transform="scale(0.996264)"/>
       <use xlink:href="#NimbusRomNo9L-Regu-30" transform="translate(49.8132 0) scale(0.996264)"/>
      </g>
     </g>
    </g>
    <g id="xtick_6">
     <g id="line2d_16">
      <path d="M 545.378601 493.575119 
L 545.378601 6.85 
" clip-path="url(#p22c755ea4b)" style="fill: none; stroke: #b0b0b0; stroke-width: 0.5; stroke-linecap: square"/>
     </g>
     <g id="line2d_17">
      <g>
       <use xlink:href="#m89da020da5" x="545.378601" y="493.575119" style="stroke: #000000; stroke-width: 1.5"/>
      </g>
     </g>
     <g id="line2d_18">
      <g>
       <use xlink:href="#m89da020da5" x="545.378601" y="6.85" style="stroke: #000000; stroke-width: 1.5"/>
      </g>
     </g>
     <g id="text_6">
      <!-- $\mathdefault{50}$ -->
      <g transform="translate(535.415961 513.834274) scale(0.2 -0.2)">
       <defs>
        <path id="NimbusRomNo9L-Regu-35" d="M 1158 3718 
L 2413 3718 
C 2515 3718 2541 3731 2560 3775 
L 2803 4345 
L 2746 4390 
C 2650 4256 2586 4224 2451 4224 
L 1114 4224 
L 416 2717 
C 410 2705 410 2698 410 2686 
C 410 2654 435 2635 486 2635 
C 691 2635 947 2591 1210 2508 
C 1946 2274 2285 1882 2285 1255 
C 2285 647 1894 172 1395 172 
C 1267 172 1158 217 966 356 
C 762 502 614 565 480 565 
C 294 565 205 489 205 331 
C 205 89 506 -64 986 -64 
C 1523 -64 1984 108 2304 432 
C 2598 717 2733 1078 2733 1559 
C 2733 2015 2611 2306 2291 2622 
C 2010 2901 1645 3047 890 3180 
L 1158 3718 
z
" transform="scale(0.015625)"/>
       </defs>
       <use xlink:href="#NimbusRomNo9L-Regu-35" transform="scale(0.996264)"/>
       <use xlink:href="#NimbusRomNo9L-Regu-30" transform="translate(49.8132 0) scale(0.996264)"/>
      </g>
     </g>
    </g>
    <g id="xtick_7">
     <g id="line2d_19">
      <path d="M 25.311745 493.575119 
L 25.311745 6.85 
" clip-path="url(#p22c755ea4b)" style="fill: none; stroke: #b0b0b0; stroke-width: 0.5; stroke-linecap: square"/>
     </g>
     <g id="line2d_20">
      <defs>
       <path id="mede1297511" d="M 0 2 
L 0 -2 
" style="stroke: #000000; stroke-width: 0.5"/>
      </defs>
      <g>
       <use xlink:href="#mede1297511" x="25.311745" y="493.575119" style="stroke: #000000; stroke-width: 0.5"/>
      </g>
     </g>
     <g id="line2d_21">
      <g>
       <use xlink:href="#mede1297511" x="25.311745" y="6.85" style="stroke: #000000; stroke-width: 0.5"/>
      </g>
     </g>
    </g>
    <g id="xtick_8">
     <g id="line2d_22">
      <path d="M 65.316888 493.575119 
L 65.316888 6.85 
" clip-path="url(#p22c755ea4b)" style="fill: none; stroke: #b0b0b0; stroke-width: 0.5; stroke-linecap: square"/>
     </g>
     <g id="line2d_23">
      <g>
       <use xlink:href="#mede1297511" x="65.316888" y="493.575119" style="stroke: #000000; stroke-width: 0.5"/>
      </g>
     </g>
     <g id="line2d_24">
      <g>
       <use xlink:href="#mede1297511" x="65.316888" y="6.85" style="stroke: #000000; stroke-width: 0.5"/>
      </g>
     </g>
    </g>
    <g id="xtick_9">
     <g id="line2d_25">
      <path d="M 85.319459 493.575119 
L 85.319459 6.85 
" clip-path="url(#p22c755ea4b)" style="fill: none; stroke: #b0b0b0; stroke-width: 0.5; stroke-linecap: square"/>
     </g>
     <g id="line2d_26">
      <g>
       <use xlink:href="#mede1297511" x="85.319459" y="493.575119" style="stroke: #000000; stroke-width: 0.5"/>
      </g>
     </g>
     <g id="line2d_27">
      <g>
       <use xlink:href="#mede1297511" x="85.319459" y="6.85" style="stroke: #000000; stroke-width: 0.5"/>
      </g>
     </g>
    </g>
    <g id="xtick_10">
     <g id="line2d_28">
      <path d="M 105.322031 493.575119 
L 105.322031 6.85 
" clip-path="url(#p22c755ea4b)" style="fill: none; stroke: #b0b0b0; stroke-width: 0.5; stroke-linecap: square"/>
     </g>
     <g id="line2d_29">
      <g>
       <use xlink:href="#mede1297511" x="105.322031" y="493.575119" style="stroke: #000000; stroke-width: 0.5"/>
      </g>
     </g>
     <g id="line2d_30">
      <g>
       <use xlink:href="#mede1297511" x="105.322031" y="6.85" style="stroke: #000000; stroke-width: 0.5"/>
      </g>
     </g>
    </g>
    <g id="xtick_11">
     <g id="line2d_31">
      <path d="M 125.324602 493.575119 
L 125.324602 6.85 
" clip-path="url(#p22c755ea4b)" style="fill: none; stroke: #b0b0b0; stroke-width: 0.5; stroke-linecap: square"/>
     </g>
     <g id="line2d_32">
      <g>
       <use xlink:href="#mede1297511" x="125.324602" y="493.575119" style="stroke: #000000; stroke-width: 0.5"/>
      </g>
     </g>
     <g id="line2d_33">
      <g>
       <use xlink:href="#mede1297511" x="125.324602" y="6.85" style="stroke: #000000; stroke-width: 0.5"/>
      </g>
     </g>
    </g>
    <g id="xtick_12">
     <g id="line2d_34">
      <path d="M 165.329745 493.575119 
L 165.329745 6.85 
" clip-path="url(#p22c755ea4b)" style="fill: none; stroke: #b0b0b0; stroke-width: 0.5; stroke-linecap: square"/>
     </g>
     <g id="line2d_35">
      <g>
       <use xlink:href="#mede1297511" x="165.329745" y="493.575119" style="stroke: #000000; stroke-width: 0.5"/>
      </g>
     </g>
     <g id="line2d_36">
      <g>
       <use xlink:href="#mede1297511" x="165.329745" y="6.85" style="stroke: #000000; stroke-width: 0.5"/>
      </g>
     </g>
    </g>
    <g id="xtick_13">
     <g id="line2d_37">
      <path d="M 185.332316 493.575119 
L 185.332316 6.85 
" clip-path="url(#p22c755ea4b)" style="fill: none; stroke: #b0b0b0; stroke-width: 0.5; stroke-linecap: square"/>
     </g>
     <g id="line2d_38">
      <g>
       <use xlink:href="#mede1297511" x="185.332316" y="493.575119" style="stroke: #000000; stroke-width: 0.5"/>
      </g>
     </g>
     <g id="line2d_39">
      <g>
       <use xlink:href="#mede1297511" x="185.332316" y="6.85" style="stroke: #000000; stroke-width: 0.5"/>
      </g>
     </g>
    </g>
    <g id="xtick_14">
     <g id="line2d_40">
      <path d="M 205.334888 493.575119 
L 205.334888 6.85 
" clip-path="url(#p22c755ea4b)" style="fill: none; stroke: #b0b0b0; stroke-width: 0.5; stroke-linecap: square"/>
     </g>
     <g id="line2d_41">
      <g>
       <use xlink:href="#mede1297511" x="205.334888" y="493.575119" style="stroke: #000000; stroke-width: 0.5"/>
      </g>
     </g>
     <g id="line2d_42">
      <g>
       <use xlink:href="#mede1297511" x="205.334888" y="6.85" style="stroke: #000000; stroke-width: 0.5"/>
      </g>
     </g>
    </g>
    <g id="xtick_15">
     <g id="line2d_43">
      <path d="M 225.337459 493.575119 
L 225.337459 6.85 
" clip-path="url(#p22c755ea4b)" style="fill: none; stroke: #b0b0b0; stroke-width: 0.5; stroke-linecap: square"/>
     </g>
     <g id="line2d_44">
      <g>
       <use xlink:href="#mede1297511" x="225.337459" y="493.575119" style="stroke: #000000; stroke-width: 0.5"/>
      </g>
     </g>
     <g id="line2d_45">
      <g>
       <use xlink:href="#mede1297511" x="225.337459" y="6.85" style="stroke: #000000; stroke-width: 0.5"/>
      </g>
     </g>
    </g>
    <g id="xtick_16">
     <g id="line2d_46">
      <path d="M 265.342602 493.575119 
L 265.342602 6.85 
" clip-path="url(#p22c755ea4b)" style="fill: none; stroke: #b0b0b0; stroke-width: 0.5; stroke-linecap: square"/>
     </g>
     <g id="line2d_47">
      <g>
       <use xlink:href="#mede1297511" x="265.342602" y="493.575119" style="stroke: #000000; stroke-width: 0.5"/>
      </g>
     </g>
     <g id="line2d_48">
      <g>
       <use xlink:href="#mede1297511" x="265.342602" y="6.85" style="stroke: #000000; stroke-width: 0.5"/>
      </g>
     </g>
    </g>
    <g id="xtick_17">
     <g id="line2d_49">
      <path d="M 285.345173 493.575119 
L 285.345173 6.85 
" clip-path="url(#p22c755ea4b)" style="fill: none; stroke: #b0b0b0; stroke-width: 0.5; stroke-linecap: square"/>
     </g>
     <g id="line2d_50">
      <g>
       <use xlink:href="#mede1297511" x="285.345173" y="493.575119" style="stroke: #000000; stroke-width: 0.5"/>
      </g>
     </g>
     <g id="line2d_51">
      <g>
       <use xlink:href="#mede1297511" x="285.345173" y="6.85" style="stroke: #000000; stroke-width: 0.5"/>
      </g>
     </g>
    </g>
    <g id="xtick_18">
     <g id="line2d_52">
      <path d="M 305.347745 493.575119 
L 305.347745 6.85 
" clip-path="url(#p22c755ea4b)" style="fill: none; stroke: #b0b0b0; stroke-width: 0.5; stroke-linecap: square"/>
     </g>
     <g id="line2d_53">
      <g>
       <use xlink:href="#mede1297511" x="305.347745" y="493.575119" style="stroke: #000000; stroke-width: 0.5"/>
      </g>
     </g>
     <g id="line2d_54">
      <g>
       <use xlink:href="#mede1297511" x="305.347745" y="6.85" style="stroke: #000000; stroke-width: 0.5"/>
      </g>
     </g>
    </g>
    <g id="xtick_19">
     <g id="line2d_55">
      <path d="M 325.350316 493.575119 
L 325.350316 6.85 
" clip-path="url(#p22c755ea4b)" style="fill: none; stroke: #b0b0b0; stroke-width: 0.5; stroke-linecap: square"/>
     </g>
     <g id="line2d_56">
      <g>
       <use xlink:href="#mede1297511" x="325.350316" y="493.575119" style="stroke: #000000; stroke-width: 0.5"/>
      </g>
     </g>
     <g id="line2d_57">
      <g>
       <use xlink:href="#mede1297511" x="325.350316" y="6.85" style="stroke: #000000; stroke-width: 0.5"/>
      </g>
     </g>
    </g>
    <g id="xtick_20">
     <g id="line2d_58">
      <path d="M 365.355459 493.575119 
L 365.355459 6.85 
" clip-path="url(#p22c755ea4b)" style="fill: none; stroke: #b0b0b0; stroke-width: 0.5; stroke-linecap: square"/>
     </g>
     <g id="line2d_59">
      <g>
       <use xlink:href="#mede1297511" x="365.355459" y="493.575119" style="stroke: #000000; stroke-width: 0.5"/>
      </g>
     </g>
     <g id="line2d_60">
      <g>
       <use xlink:href="#mede1297511" x="365.355459" y="6.85" style="stroke: #000000; stroke-width: 0.5"/>
      </g>
     </g>
    </g>
    <g id="xtick_21">
     <g id="line2d_61">
      <path d="M 385.35803 493.575119 
L 385.35803 6.85 
" clip-path="url(#p22c755ea4b)" style="fill: none; stroke: #b0b0b0; stroke-width: 0.5; stroke-linecap: square"/>
     </g>
     <g id="line2d_62">
      <g>
       <use xlink:href="#mede1297511" x="385.35803" y="493.575119" style="stroke: #000000; stroke-width: 0.5"/>
      </g>
     </g>
     <g id="line2d_63">
      <g>
       <use xlink:href="#mede1297511" x="385.35803" y="6.85" style="stroke: #000000; stroke-width: 0.5"/>
      </g>
     </g>
    </g>
    <g id="xtick_22">
     <g id="line2d_64">
      <path d="M 405.360602 493.575119 
L 405.360602 6.85 
" clip-path="url(#p22c755ea4b)" style="fill: none; stroke: #b0b0b0; stroke-width: 0.5; stroke-linecap: square"/>
     </g>
     <g id="line2d_65">
      <g>
       <use xlink:href="#mede1297511" x="405.360602" y="493.575119" style="stroke: #000000; stroke-width: 0.5"/>
      </g>
     </g>
     <g id="line2d_66">
      <g>
       <use xlink:href="#mede1297511" x="405.360602" y="6.85" style="stroke: #000000; stroke-width: 0.5"/>
      </g>
     </g>
    </g>
    <g id="xtick_23">
     <g id="line2d_67">
      <path d="M 425.363173 493.575119 
L 425.363173 6.85 
" clip-path="url(#p22c755ea4b)" style="fill: none; stroke: #b0b0b0; stroke-width: 0.5; stroke-linecap: square"/>
     </g>
     <g id="line2d_68">
      <g>
       <use xlink:href="#mede1297511" x="425.363173" y="493.575119" style="stroke: #000000; stroke-width: 0.5"/>
      </g>
     </g>
     <g id="line2d_69">
      <g>
       <use xlink:href="#mede1297511" x="425.363173" y="6.85" style="stroke: #000000; stroke-width: 0.5"/>
      </g>
     </g>
    </g>
    <g id="xtick_24">
     <g id="line2d_70">
      <path d="M 465.368316 493.575119 
L 465.368316 6.85 
" clip-path="url(#p22c755ea4b)" style="fill: none; stroke: #b0b0b0; stroke-width: 0.5; stroke-linecap: square"/>
     </g>
     <g id="line2d_71">
      <g>
       <use xlink:href="#mede1297511" x="465.368316" y="493.575119" style="stroke: #000000; stroke-width: 0.5"/>
      </g>
     </g>
     <g id="line2d_72">
      <g>
       <use xlink:href="#mede1297511" x="465.368316" y="6.85" style="stroke: #000000; stroke-width: 0.5"/>
      </g>
     </g>
    </g>
    <g id="xtick_25">
     <g id="line2d_73">
      <path d="M 485.370887 493.575119 
L 485.370887 6.85 
" clip-path="url(#p22c755ea4b)" style="fill: none; stroke: #b0b0b0; stroke-width: 0.5; stroke-linecap: square"/>
     </g>
     <g id="line2d_74">
      <g>
       <use xlink:href="#mede1297511" x="485.370887" y="493.575119" style="stroke: #000000; stroke-width: 0.5"/>
      </g>
     </g>
     <g id="line2d_75">
      <g>
       <use xlink:href="#mede1297511" x="485.370887" y="6.85" style="stroke: #000000; stroke-width: 0.5"/>
      </g>
     </g>
    </g>
    <g id="xtick_26">
     <g id="line2d_76">
      <path d="M 505.373458 493.575119 
L 505.373458 6.85 
" clip-path="url(#p22c755ea4b)" style="fill: none; stroke: #b0b0b0; stroke-width: 0.5; stroke-linecap: square"/>
     </g>
     <g id="line2d_77">
      <g>
       <use xlink:href="#mede1297511" x="505.373458" y="493.575119" style="stroke: #000000; stroke-width: 0.5"/>
      </g>
     </g>
     <g id="line2d_78">
      <g>
       <use xlink:href="#mede1297511" x="505.373458" y="6.85" style="stroke: #000000; stroke-width: 0.5"/>
      </g>
     </g>
    </g>
    <g id="xtick_27">
     <g id="line2d_79">
      <path d="M 525.37603 493.575119 
L 525.37603 6.85 
" clip-path="url(#p22c755ea4b)" style="fill: none; stroke: #b0b0b0; stroke-width: 0.5; stroke-linecap: square"/>
     </g>
     <g id="line2d_80">
      <g>
       <use xlink:href="#mede1297511" x="525.37603" y="493.575119" style="stroke: #000000; stroke-width: 0.5"/>
      </g>
     </g>
     <g id="line2d_81">
      <g>
       <use xlink:href="#mede1297511" x="525.37603" y="6.85" style="stroke: #000000; stroke-width: 0.5"/>
      </g>
     </g>
    </g>
    <g id="xtick_28">
     <g id="line2d_82">
      <path d="M 565.381173 493.575119 
L 565.381173 6.85 
" clip-path="url(#p22c755ea4b)" style="fill: none; stroke: #b0b0b0; stroke-width: 0.5; stroke-linecap: square"/>
     </g>
     <g id="line2d_83">
      <g>
       <use xlink:href="#mede1297511" x="565.381173" y="493.575119" style="stroke: #000000; stroke-width: 0.5"/>
      </g>
     </g>
     <g id="line2d_84">
      <g>
       <use xlink:href="#mede1297511" x="565.381173" y="6.85" style="stroke: #000000; stroke-width: 0.5"/>
      </g>
     </g>
    </g>
    <g id="text_7">
     <!-- $t$ -->
     <g transform="translate(291.453759 541.060743) scale(0.28 -0.28)">
      <defs>
       <path id="NimbusRomNo9L-ReguItal-74" d="M 1894 2752 
L 1382 2752 
L 1562 3411 
C 1568 3424 1568 3436 1568 3443 
C 1568 3488 1549 3507 1517 3507 
C 1478 3507 1459 3500 1421 3449 
C 1171 3123 774 2803 570 2745 
C 410 2694 365 2655 365 2585 
C 365 2579 365 2566 371 2547 
L 845 2547 
L 384 782 
C 371 724 365 705 346 647 
C 288 454 237 230 237 179 
C 237 38 371 -64 544 -64 
C 838 -64 1050 115 1453 711 
L 1370 756 
C 1056 352 954 249 851 249 
C 794 249 755 300 755 377 
C 755 384 755 390 762 410 
L 1325 2547 
L 1862 2547 
L 1894 2752 
z
" transform="scale(0.015625)"/>
      </defs>
      <use xlink:href="#NimbusRomNo9L-ReguItal-74" transform="scale(0.996264)"/>
     </g>
    </g>
   </g>
   <g id="matplotlib.axis_2">
    <g id="ytick_1">
     <g id="line2d_85">
      <path d="M 20.31264 491.247055 
L 570.34952 491.247055 
" clip-path="url(#p22c755ea4b)" style="fill: none; stroke: #b0b0b0; stroke-width: 0.5; stroke-linecap: square"/>
     </g>
     <g id="line2d_86">
      <defs>
       <path id="m2811d0a850" d="M 3.25 0 
L -3.25 -0 
" style="stroke: #000000; stroke-width: 1.5"/>
      </defs>
      <g>
       <use xlink:href="#m2811d0a850" x="20.31264" y="491.247055" style="stroke: #000000; stroke-width: 1.5"/>
      </g>
     </g>
     <g id="line2d_87">
      <g>
       <use xlink:href="#m2811d0a850" x="570.34952" y="491.247055" style="stroke: #000000; stroke-width: 1.5"/>
      </g>
     </g>
     <g id="text_8">
      <!-- $\mathdefault{0}$ -->
      <g transform="translate(3.6 498.001633) scale(0.2 -0.2)">
       <use xlink:href="#NimbusRomNo9L-Regu-30" transform="scale(0.996264)"/>
      </g>
     </g>
    </g>
    <g id="ytick_2">
     <g id="line2d_88">
      <path d="M 20.31264 421.620262 
L 570.34952 421.620262 
" clip-path="url(#p22c755ea4b)" style="fill: none; stroke: #b0b0b0; stroke-width: 0.5; stroke-linecap: square"/>
     </g>
     <g id="line2d_89">
      <g>
       <use xlink:href="#m2811d0a850" x="20.31264" y="421.620262" style="stroke: #000000; stroke-width: 1.5"/>
      </g>
     </g>
     <g id="line2d_90">
      <g>
       <use xlink:href="#m2811d0a850" x="570.34952" y="421.620262" style="stroke: #000000; stroke-width: 1.5"/>
      </g>
     </g>
     <g id="text_9">
      <!-- $\mathdefault{1}$ -->
      <g transform="translate(3.6 428.374839) scale(0.2 -0.2)">
       <use xlink:href="#NimbusRomNo9L-Regu-31" transform="scale(0.996264)"/>
      </g>
     </g>
    </g>
    <g id="ytick_3">
     <g id="line2d_91">
      <path d="M 20.31264 351.993468 
L 570.34952 351.993468 
" clip-path="url(#p22c755ea4b)" style="fill: none; stroke: #b0b0b0; stroke-width: 0.5; stroke-linecap: square"/>
     </g>
     <g id="line2d_92">
      <g>
       <use xlink:href="#m2811d0a850" x="20.31264" y="351.993468" style="stroke: #000000; stroke-width: 1.5"/>
      </g>
     </g>
     <g id="line2d_93">
      <g>
       <use xlink:href="#m2811d0a850" x="570.34952" y="351.993468" style="stroke: #000000; stroke-width: 1.5"/>
      </g>
     </g>
     <g id="text_10">
      <!-- $\mathdefault{2}$ -->
      <g transform="translate(3.6 358.748045) scale(0.2 -0.2)">
       <use xlink:href="#NimbusRomNo9L-Regu-32" transform="scale(0.996264)"/>
      </g>
     </g>
    </g>
    <g id="ytick_4">
     <g id="line2d_94">
      <path d="M 20.31264 282.366674 
L 570.34952 282.366674 
" clip-path="url(#p22c755ea4b)" style="fill: none; stroke: #b0b0b0; stroke-width: 0.5; stroke-linecap: square"/>
     </g>
     <g id="line2d_95">
      <g>
       <use xlink:href="#m2811d0a850" x="20.31264" y="282.366674" style="stroke: #000000; stroke-width: 1.5"/>
      </g>
     </g>
     <g id="line2d_96">
      <g>
       <use xlink:href="#m2811d0a850" x="570.34952" y="282.366674" style="stroke: #000000; stroke-width: 1.5"/>
      </g>
     </g>
     <g id="text_11">
      <!-- $\mathdefault{3}$ -->
      <g transform="translate(3.6 289.121252) scale(0.2 -0.2)">
       <use xlink:href="#NimbusRomNo9L-Regu-33" transform="scale(0.996264)"/>
      </g>
     </g>
    </g>
    <g id="ytick_5">
     <g id="line2d_97">
      <path d="M 20.31264 212.73988 
L 570.34952 212.73988 
" clip-path="url(#p22c755ea4b)" style="fill: none; stroke: #b0b0b0; stroke-width: 0.5; stroke-linecap: square"/>
     </g>
     <g id="line2d_98">
      <g>
       <use xlink:href="#m2811d0a850" x="20.31264" y="212.73988" style="stroke: #000000; stroke-width: 1.5"/>
      </g>
     </g>
     <g id="line2d_99">
      <g>
       <use xlink:href="#m2811d0a850" x="570.34952" y="212.73988" style="stroke: #000000; stroke-width: 1.5"/>
      </g>
     </g>
     <g id="text_12">
      <!-- $\mathdefault{4}$ -->
      <g transform="translate(3.6 219.494458) scale(0.2 -0.2)">
       <use xlink:href="#NimbusRomNo9L-Regu-34" transform="scale(0.996264)"/>
      </g>
     </g>
    </g>
    <g id="ytick_6">
     <g id="line2d_100">
      <path d="M 20.31264 143.113087 
L 570.34952 143.113087 
" clip-path="url(#p22c755ea4b)" style="fill: none; stroke: #b0b0b0; stroke-width: 0.5; stroke-linecap: square"/>
     </g>
     <g id="line2d_101">
      <g>
       <use xlink:href="#m2811d0a850" x="20.31264" y="143.113087" style="stroke: #000000; stroke-width: 1.5"/>
      </g>
     </g>
     <g id="line2d_102">
      <g>
       <use xlink:href="#m2811d0a850" x="570.34952" y="143.113087" style="stroke: #000000; stroke-width: 1.5"/>
      </g>
     </g>
     <g id="text_13">
      <!-- $\mathdefault{5}$ -->
      <g transform="translate(3.6 149.867664) scale(0.2 -0.2)">
       <use xlink:href="#NimbusRomNo9L-Regu-35" transform="scale(0.996264)"/>
      </g>
     </g>
    </g>
    <g id="ytick_7">
     <g id="line2d_103">
      <path d="M 20.31264 73.486293 
L 570.34952 73.486293 
" clip-path="url(#p22c755ea4b)" style="fill: none; stroke: #b0b0b0; stroke-width: 0.5; stroke-linecap: square"/>
     </g>
     <g id="line2d_104">
      <g>
       <use xlink:href="#m2811d0a850" x="20.31264" y="73.486293" style="stroke: #000000; stroke-width: 1.5"/>
      </g>
     </g>
     <g id="line2d_105">
      <g>
       <use xlink:href="#m2811d0a850" x="570.34952" y="73.486293" style="stroke: #000000; stroke-width: 1.5"/>
      </g>
     </g>
     <g id="text_14">
      <!-- $\mathdefault{6}$ -->
      <g transform="translate(3.6 80.24087) scale(0.2 -0.2)">
       <defs>
        <path id="NimbusRomNo9L-Regu-36" d="M 2854 4390 
C 2125 4326 1754 4204 1286 3878 
C 595 3385 218 2655 218 1801 
C 218 1248 390 688 666 369 
C 909 89 1254 -64 1651 -64 
C 2445 -64 2995 541 2995 1420 
C 2995 2234 2528 2752 1792 2752 
C 1510 2752 1376 2707 973 2463 
C 1146 3430 1862 4121 2867 4288 
L 2854 4390 
z
M 1549 2457 
C 2099 2457 2419 1999 2419 1203 
C 2419 503 2170 115 1722 115 
C 1158 115 813 713 813 1700 
C 813 2024 864 2203 992 2298 
C 1126 2400 1325 2457 1549 2457 
z
" transform="scale(0.015625)"/>
       </defs>
       <use xlink:href="#NimbusRomNo9L-Regu-36" transform="scale(0.996264)"/>
      </g>
     </g>
    </g>
    <g id="ytick_8">
     <g id="line2d_106">
      <path d="M 20.31264 477.321697 
L 570.34952 477.321697 
" clip-path="url(#p22c755ea4b)" style="fill: none; stroke: #b0b0b0; stroke-width: 0.5; stroke-linecap: square"/>
     </g>
     <g id="line2d_107">
      <defs>
       <path id="ma5b71c85f7" d="M 2 0 
L -2 -0 
" style="stroke: #000000; stroke-width: 0.5"/>
      </defs>
      <g>
       <use xlink:href="#ma5b71c85f7" x="20.31264" y="477.321697" style="stroke: #000000; stroke-width: 0.5"/>
      </g>
     </g>
     <g id="line2d_108">
      <g>
       <use xlink:href="#ma5b71c85f7" x="570.34952" y="477.321697" style="stroke: #000000; stroke-width: 0.5"/>
      </g>
     </g>
    </g>
    <g id="ytick_9">
     <g id="line2d_109">
      <path d="M 20.31264 463.396338 
L 570.34952 463.396338 
" clip-path="url(#p22c755ea4b)" style="fill: none; stroke: #b0b0b0; stroke-width: 0.5; stroke-linecap: square"/>
     </g>
     <g id="line2d_110">
      <g>
       <use xlink:href="#ma5b71c85f7" x="20.31264" y="463.396338" style="stroke: #000000; stroke-width: 0.5"/>
      </g>
     </g>
     <g id="line2d_111">
      <g>
       <use xlink:href="#ma5b71c85f7" x="570.34952" y="463.396338" style="stroke: #000000; stroke-width: 0.5"/>
      </g>
     </g>
    </g>
    <g id="ytick_10">
     <g id="line2d_112">
      <path d="M 20.31264 449.470979 
L 570.34952 449.470979 
" clip-path="url(#p22c755ea4b)" style="fill: none; stroke: #b0b0b0; stroke-width: 0.5; stroke-linecap: square"/>
     </g>
     <g id="line2d_113">
      <g>
       <use xlink:href="#ma5b71c85f7" x="20.31264" y="449.470979" style="stroke: #000000; stroke-width: 0.5"/>
      </g>
     </g>
     <g id="line2d_114">
      <g>
       <use xlink:href="#ma5b71c85f7" x="570.34952" y="449.470979" style="stroke: #000000; stroke-width: 0.5"/>
      </g>
     </g>
    </g>
    <g id="ytick_11">
     <g id="line2d_115">
      <path d="M 20.31264 435.54562 
L 570.34952 435.54562 
" clip-path="url(#p22c755ea4b)" style="fill: none; stroke: #b0b0b0; stroke-width: 0.5; stroke-linecap: square"/>
     </g>
     <g id="line2d_116">
      <g>
       <use xlink:href="#ma5b71c85f7" x="20.31264" y="435.54562" style="stroke: #000000; stroke-width: 0.5"/>
      </g>
     </g>
     <g id="line2d_117">
      <g>
       <use xlink:href="#ma5b71c85f7" x="570.34952" y="435.54562" style="stroke: #000000; stroke-width: 0.5"/>
      </g>
     </g>
    </g>
    <g id="ytick_12">
     <g id="line2d_118">
      <path d="M 20.31264 407.694903 
L 570.34952 407.694903 
" clip-path="url(#p22c755ea4b)" style="fill: none; stroke: #b0b0b0; stroke-width: 0.5; stroke-linecap: square"/>
     </g>
     <g id="line2d_119">
      <g>
       <use xlink:href="#ma5b71c85f7" x="20.31264" y="407.694903" style="stroke: #000000; stroke-width: 0.5"/>
      </g>
     </g>
     <g id="line2d_120">
      <g>
       <use xlink:href="#ma5b71c85f7" x="570.34952" y="407.694903" style="stroke: #000000; stroke-width: 0.5"/>
      </g>
     </g>
    </g>
    <g id="ytick_13">
     <g id="line2d_121">
      <path d="M 20.31264 393.769544 
L 570.34952 393.769544 
" clip-path="url(#p22c755ea4b)" style="fill: none; stroke: #b0b0b0; stroke-width: 0.5; stroke-linecap: square"/>
     </g>
     <g id="line2d_122">
      <g>
       <use xlink:href="#ma5b71c85f7" x="20.31264" y="393.769544" style="stroke: #000000; stroke-width: 0.5"/>
      </g>
     </g>
     <g id="line2d_123">
      <g>
       <use xlink:href="#ma5b71c85f7" x="570.34952" y="393.769544" style="stroke: #000000; stroke-width: 0.5"/>
      </g>
     </g>
    </g>
    <g id="ytick_14">
     <g id="line2d_124">
      <path d="M 20.31264 379.844185 
L 570.34952 379.844185 
" clip-path="url(#p22c755ea4b)" style="fill: none; stroke: #b0b0b0; stroke-width: 0.5; stroke-linecap: square"/>
     </g>
     <g id="line2d_125">
      <g>
       <use xlink:href="#ma5b71c85f7" x="20.31264" y="379.844185" style="stroke: #000000; stroke-width: 0.5"/>
      </g>
     </g>
     <g id="line2d_126">
      <g>
       <use xlink:href="#ma5b71c85f7" x="570.34952" y="379.844185" style="stroke: #000000; stroke-width: 0.5"/>
      </g>
     </g>
    </g>
    <g id="ytick_15">
     <g id="line2d_127">
      <path d="M 20.31264 365.918827 
L 570.34952 365.918827 
" clip-path="url(#p22c755ea4b)" style="fill: none; stroke: #b0b0b0; stroke-width: 0.5; stroke-linecap: square"/>
     </g>
     <g id="line2d_128">
      <g>
       <use xlink:href="#ma5b71c85f7" x="20.31264" y="365.918827" style="stroke: #000000; stroke-width: 0.5"/>
      </g>
     </g>
     <g id="line2d_129">
      <g>
       <use xlink:href="#ma5b71c85f7" x="570.34952" y="365.918827" style="stroke: #000000; stroke-width: 0.5"/>
      </g>
     </g>
    </g>
    <g id="ytick_16">
     <g id="line2d_130">
      <path d="M 20.31264 338.068109 
L 570.34952 338.068109 
" clip-path="url(#p22c755ea4b)" style="fill: none; stroke: #b0b0b0; stroke-width: 0.5; stroke-linecap: square"/>
     </g>
     <g id="line2d_131">
      <g>
       <use xlink:href="#ma5b71c85f7" x="20.31264" y="338.068109" style="stroke: #000000; stroke-width: 0.5"/>
      </g>
     </g>
     <g id="line2d_132">
      <g>
       <use xlink:href="#ma5b71c85f7" x="570.34952" y="338.068109" style="stroke: #000000; stroke-width: 0.5"/>
      </g>
     </g>
    </g>
    <g id="ytick_17">
     <g id="line2d_133">
      <path d="M 20.31264 324.14275 
L 570.34952 324.14275 
" clip-path="url(#p22c755ea4b)" style="fill: none; stroke: #b0b0b0; stroke-width: 0.5; stroke-linecap: square"/>
     </g>
     <g id="line2d_134">
      <g>
       <use xlink:href="#ma5b71c85f7" x="20.31264" y="324.14275" style="stroke: #000000; stroke-width: 0.5"/>
      </g>
     </g>
     <g id="line2d_135">
      <g>
       <use xlink:href="#ma5b71c85f7" x="570.34952" y="324.14275" style="stroke: #000000; stroke-width: 0.5"/>
      </g>
     </g>
    </g>
    <g id="ytick_18">
     <g id="line2d_136">
      <path d="M 20.31264 310.217392 
L 570.34952 310.217392 
" clip-path="url(#p22c755ea4b)" style="fill: none; stroke: #b0b0b0; stroke-width: 0.5; stroke-linecap: square"/>
     </g>
     <g id="line2d_137">
      <g>
       <use xlink:href="#ma5b71c85f7" x="20.31264" y="310.217392" style="stroke: #000000; stroke-width: 0.5"/>
      </g>
     </g>
     <g id="line2d_138">
      <g>
       <use xlink:href="#ma5b71c85f7" x="570.34952" y="310.217392" style="stroke: #000000; stroke-width: 0.5"/>
      </g>
     </g>
    </g>
    <g id="ytick_19">
     <g id="line2d_139">
      <path d="M 20.31264 296.292033 
L 570.34952 296.292033 
" clip-path="url(#p22c755ea4b)" style="fill: none; stroke: #b0b0b0; stroke-width: 0.5; stroke-linecap: square"/>
     </g>
     <g id="line2d_140">
      <g>
       <use xlink:href="#ma5b71c85f7" x="20.31264" y="296.292033" style="stroke: #000000; stroke-width: 0.5"/>
      </g>
     </g>
     <g id="line2d_141">
      <g>
       <use xlink:href="#ma5b71c85f7" x="570.34952" y="296.292033" style="stroke: #000000; stroke-width: 0.5"/>
      </g>
     </g>
    </g>
    <g id="ytick_20">
     <g id="line2d_142">
      <path d="M 20.31264 268.441315 
L 570.34952 268.441315 
" clip-path="url(#p22c755ea4b)" style="fill: none; stroke: #b0b0b0; stroke-width: 0.5; stroke-linecap: square"/>
     </g>
     <g id="line2d_143">
      <g>
       <use xlink:href="#ma5b71c85f7" x="20.31264" y="268.441315" style="stroke: #000000; stroke-width: 0.5"/>
      </g>
     </g>
     <g id="line2d_144">
      <g>
       <use xlink:href="#ma5b71c85f7" x="570.34952" y="268.441315" style="stroke: #000000; stroke-width: 0.5"/>
      </g>
     </g>
    </g>
    <g id="ytick_21">
     <g id="line2d_145">
      <path d="M 20.31264 254.515957 
L 570.34952 254.515957 
" clip-path="url(#p22c755ea4b)" style="fill: none; stroke: #b0b0b0; stroke-width: 0.5; stroke-linecap: square"/>
     </g>
     <g id="line2d_146">
      <g>
       <use xlink:href="#ma5b71c85f7" x="20.31264" y="254.515957" style="stroke: #000000; stroke-width: 0.5"/>
      </g>
     </g>
     <g id="line2d_147">
      <g>
       <use xlink:href="#ma5b71c85f7" x="570.34952" y="254.515957" style="stroke: #000000; stroke-width: 0.5"/>
      </g>
     </g>
    </g>
    <g id="ytick_22">
     <g id="line2d_148">
      <path d="M 20.31264 240.590598 
L 570.34952 240.590598 
" clip-path="url(#p22c755ea4b)" style="fill: none; stroke: #b0b0b0; stroke-width: 0.5; stroke-linecap: square"/>
     </g>
     <g id="line2d_149">
      <g>
       <use xlink:href="#ma5b71c85f7" x="20.31264" y="240.590598" style="stroke: #000000; stroke-width: 0.5"/>
      </g>
     </g>
     <g id="line2d_150">
      <g>
       <use xlink:href="#ma5b71c85f7" x="570.34952" y="240.590598" style="stroke: #000000; stroke-width: 0.5"/>
      </g>
     </g>
    </g>
    <g id="ytick_23">
     <g id="line2d_151">
      <path d="M 20.31264 226.665239 
L 570.34952 226.665239 
" clip-path="url(#p22c755ea4b)" style="fill: none; stroke: #b0b0b0; stroke-width: 0.5; stroke-linecap: square"/>
     </g>
     <g id="line2d_152">
      <g>
       <use xlink:href="#ma5b71c85f7" x="20.31264" y="226.665239" style="stroke: #000000; stroke-width: 0.5"/>
      </g>
     </g>
     <g id="line2d_153">
      <g>
       <use xlink:href="#ma5b71c85f7" x="570.34952" y="226.665239" style="stroke: #000000; stroke-width: 0.5"/>
      </g>
     </g>
    </g>
    <g id="ytick_24">
     <g id="line2d_154">
      <path d="M 20.31264 198.814522 
L 570.34952 198.814522 
" clip-path="url(#p22c755ea4b)" style="fill: none; stroke: #b0b0b0; stroke-width: 0.5; stroke-linecap: square"/>
     </g>
     <g id="line2d_155">
      <g>
       <use xlink:href="#ma5b71c85f7" x="20.31264" y="198.814522" style="stroke: #000000; stroke-width: 0.5"/>
      </g>
     </g>
     <g id="line2d_156">
      <g>
       <use xlink:href="#ma5b71c85f7" x="570.34952" y="198.814522" style="stroke: #000000; stroke-width: 0.5"/>
      </g>
     </g>
    </g>
    <g id="ytick_25">
     <g id="line2d_157">
      <path d="M 20.31264 184.889163 
L 570.34952 184.889163 
" clip-path="url(#p22c755ea4b)" style="fill: none; stroke: #b0b0b0; stroke-width: 0.5; stroke-linecap: square"/>
     </g>
     <g id="line2d_158">
      <g>
       <use xlink:href="#ma5b71c85f7" x="20.31264" y="184.889163" style="stroke: #000000; stroke-width: 0.5"/>
      </g>
     </g>
     <g id="line2d_159">
      <g>
       <use xlink:href="#ma5b71c85f7" x="570.34952" y="184.889163" style="stroke: #000000; stroke-width: 0.5"/>
      </g>
     </g>
    </g>
    <g id="ytick_26">
     <g id="line2d_160">
      <path d="M 20.31264 170.963804 
L 570.34952 170.963804 
" clip-path="url(#p22c755ea4b)" style="fill: none; stroke: #b0b0b0; stroke-width: 0.5; stroke-linecap: square"/>
     </g>
     <g id="line2d_161">
      <g>
       <use xlink:href="#ma5b71c85f7" x="20.31264" y="170.963804" style="stroke: #000000; stroke-width: 0.5"/>
      </g>
     </g>
     <g id="line2d_162">
      <g>
       <use xlink:href="#ma5b71c85f7" x="570.34952" y="170.963804" style="stroke: #000000; stroke-width: 0.5"/>
      </g>
     </g>
    </g>
    <g id="ytick_27">
     <g id="line2d_163">
      <path d="M 20.31264 157.038445 
L 570.34952 157.038445 
" clip-path="url(#p22c755ea4b)" style="fill: none; stroke: #b0b0b0; stroke-width: 0.5; stroke-linecap: square"/>
     </g>
     <g id="line2d_164">
      <g>
       <use xlink:href="#ma5b71c85f7" x="20.31264" y="157.038445" style="stroke: #000000; stroke-width: 0.5"/>
      </g>
     </g>
     <g id="line2d_165">
      <g>
       <use xlink:href="#ma5b71c85f7" x="570.34952" y="157.038445" style="stroke: #000000; stroke-width: 0.5"/>
      </g>
     </g>
    </g>
    <g id="ytick_28">
     <g id="line2d_166">
      <path d="M 20.31264 129.187728 
L 570.34952 129.187728 
" clip-path="url(#p22c755ea4b)" style="fill: none; stroke: #b0b0b0; stroke-width: 0.5; stroke-linecap: square"/>
     </g>
     <g id="line2d_167">
      <g>
       <use xlink:href="#ma5b71c85f7" x="20.31264" y="129.187728" style="stroke: #000000; stroke-width: 0.5"/>
      </g>
     </g>
     <g id="line2d_168">
      <g>
       <use xlink:href="#ma5b71c85f7" x="570.34952" y="129.187728" style="stroke: #000000; stroke-width: 0.5"/>
      </g>
     </g>
    </g>
    <g id="ytick_29">
     <g id="line2d_169">
      <path d="M 20.31264 115.262369 
L 570.34952 115.262369 
" clip-path="url(#p22c755ea4b)" style="fill: none; stroke: #b0b0b0; stroke-width: 0.5; stroke-linecap: square"/>
     </g>
     <g id="line2d_170">
      <g>
       <use xlink:href="#ma5b71c85f7" x="20.31264" y="115.262369" style="stroke: #000000; stroke-width: 0.5"/>
      </g>
     </g>
     <g id="line2d_171">
      <g>
       <use xlink:href="#ma5b71c85f7" x="570.34952" y="115.262369" style="stroke: #000000; stroke-width: 0.5"/>
      </g>
     </g>
    </g>
    <g id="ytick_30">
     <g id="line2d_172">
      <path d="M 20.31264 101.33701 
L 570.34952 101.33701 
" clip-path="url(#p22c755ea4b)" style="fill: none; stroke: #b0b0b0; stroke-width: 0.5; stroke-linecap: square"/>
     </g>
     <g id="line2d_173">
      <g>
       <use xlink:href="#ma5b71c85f7" x="20.31264" y="101.33701" style="stroke: #000000; stroke-width: 0.5"/>
      </g>
     </g>
     <g id="line2d_174">
      <g>
       <use xlink:href="#ma5b71c85f7" x="570.34952" y="101.33701" style="stroke: #000000; stroke-width: 0.5"/>
      </g>
     </g>
    </g>
    <g id="ytick_31">
     <g id="line2d_175">
      <path d="M 20.31264 87.411652 
L 570.34952 87.411652 
" clip-path="url(#p22c755ea4b)" style="fill: none; stroke: #b0b0b0; stroke-width: 0.5; stroke-linecap: square"/>
     </g>
     <g id="line2d_176">
      <g>
       <use xlink:href="#ma5b71c85f7" x="20.31264" y="87.411652" style="stroke: #000000; stroke-width: 0.5"/>
      </g>
     </g>
     <g id="line2d_177">
      <g>
       <use xlink:href="#ma5b71c85f7" x="570.34952" y="87.411652" style="stroke: #000000; stroke-width: 0.5"/>
      </g>
     </g>
    </g>
    <g id="ytick_32">
     <g id="line2d_178">
      <path d="M 20.31264 59.560934 
L 570.34952 59.560934 
" clip-path="url(#p22c755ea4b)" style="fill: none; stroke: #b0b0b0; stroke-width: 0.5; stroke-linecap: square"/>
     </g>
     <g id="line2d_179">
      <g>
       <use xlink:href="#ma5b71c85f7" x="20.31264" y="59.560934" style="stroke: #000000; stroke-width: 0.5"/>
      </g>
     </g>
     <g id="line2d_180">
      <g>
       <use xlink:href="#ma5b71c85f7" x="570.34952" y="59.560934" style="stroke: #000000; stroke-width: 0.5"/>
      </g>
     </g>
    </g>
    <g id="ytick_33">
     <g id="line2d_181">
      <path d="M 20.31264 45.635575 
L 570.34952 45.635575 
" clip-path="url(#p22c755ea4b)" style="fill: none; stroke: #b0b0b0; stroke-width: 0.5; stroke-linecap: square"/>
     </g>
     <g id="line2d_182">
      <g>
       <use xlink:href="#ma5b71c85f7" x="20.31264" y="45.635575" style="stroke: #000000; stroke-width: 0.5"/>
      </g>
     </g>
     <g id="line2d_183">
      <g>
       <use xlink:href="#ma5b71c85f7" x="570.34952" y="45.635575" style="stroke: #000000; stroke-width: 0.5"/>
      </g>
     </g>
    </g>
    <g id="ytick_34">
     <g id="line2d_184">
      <path d="M 20.31264 31.710217 
L 570.34952 31.710217 
" clip-path="url(#p22c755ea4b)" style="fill: none; stroke: #b0b0b0; stroke-width: 0.5; stroke-linecap: square"/>
     </g>
     <g id="line2d_185">
      <g>
       <use xlink:href="#ma5b71c85f7" x="20.31264" y="31.710217" style="stroke: #000000; stroke-width: 0.5"/>
      </g>
     </g>
     <g id="line2d_186">
      <g>
       <use xlink:href="#ma5b71c85f7" x="570.34952" y="31.710217" style="stroke: #000000; stroke-width: 0.5"/>
      </g>
     </g>
    </g>
    <g id="ytick_35">
     <g id="line2d_187">
      <path d="M 20.31264 17.784858 
L 570.34952 17.784858 
" clip-path="url(#p22c755ea4b)" style="fill: none; stroke: #b0b0b0; stroke-width: 0.5; stroke-linecap: square"/>
     </g>
     <g id="line2d_188">
      <g>
       <use xlink:href="#ma5b71c85f7" x="20.31264" y="17.784858" style="stroke: #000000; stroke-width: 0.5"/>
      </g>
     </g>
     <g id="line2d_189">
      <g>
       <use xlink:href="#ma5b71c85f7" x="570.34952" y="17.784858" style="stroke: #000000; stroke-width: 0.5"/>
      </g>
     </g>
    </g>
   </g>
   <g id="line2d_190">
    <path d="M 45.314316 351.993468 
L 45.583597 343.989842 
L 46.183675 332.662522 
L 47.08379 320.146796 
L 48.083919 309.350992 
L 49.284073 298.890133 
L 50.684253 288.762488 
L 52.284459 278.83984 
L 54.184703 268.439121 
L 56.484999 257.076455 
L 59.285359 244.380374 
L 62.585783 230.467669 
L 66.386272 215.427778 
L 70.586812 199.713095 
L 75.187403 183.364347 
L 80.088033 166.771527 
L 85.188689 150.281309 
L 90.389357 134.206052 
L 95.690039 118.540154 
L 100.890707 103.855811 
L 105.89135 90.384377 
L 110.691967 78.080917 
L 115.092533 67.395506 
L 119.093047 58.24162 
L 122.69351 50.541813 
L 125.793909 44.410439 
L 128.494256 39.542358 
L 130.794552 35.839717 
L 132.694796 33.18128 
L 134.295002 31.309291 
L 135.595169 30.109343 
L 136.69531 29.384481 
L 137.595426 29.044076 
L 138.395529 28.98295 
L 139.095619 29.163329 
L 139.695696 29.534608 
L 140.295773 30.155691 
L 140.89585 31.092601 
L 141.495927 32.439706 
L 142.096004 34.337318 
L 142.696082 37.00447 
L 143.296159 40.804741 
L 143.796223 45.293558 
L 144.296287 51.705519 
L 144.796351 61.393401 
L 145.196403 73.413215 
L 145.596454 92.864703 
L 145.896493 117.095818 
L 146.196531 158.118815 
L 146.49657 229.76664 
L 147.096647 386.538846 
L 147.396686 407.928487 
L 147.696724 415.66331 
L 147.996763 418.666975 
L 148.296801 419.691315 
L 148.496827 419.799641 
L 148.696853 419.623038 
L 148.996891 418.998938 
L 149.496956 417.360492 
L 150.297059 413.880399 
L 151.597226 407.083483 
L 153.397457 396.388098 
L 155.497727 382.567808 
L 157.798023 365.914951 
L 160.098319 347.644071 
L 162.59864 325.966677 
L 165.999077 294.279513 
L 169.699553 260.258438 
L 171.899836 242.065347 
L 173.900093 227.270128 
L 176.000363 213.399796 
L 178.200646 200.383157 
L 180.600954 187.556766 
L 183.201289 174.887336 
L 186.101661 161.892935 
L 189.20206 149.022724 
L 192.602497 135.866221 
L 196.20296 122.833463 
L 199.903436 110.260937 
L 203.703924 98.123842 
L 207.504413 86.722791 
L 211.204889 76.318833 
L 214.705339 67.135513 
L 217.90575 59.35408 
L 220.70611 53.101115 
L 223.206431 48.046587 
L 225.306701 44.281075 
L 227.106933 41.499806 
L 228.607126 39.589739 
L 229.80728 38.407997 
L 230.807408 37.726198 
L 231.607511 37.432289 
L 232.307601 37.404837 
L 232.907678 37.592281 
L 233.507756 38.020882 
L 234.107833 38.751624 
L 234.70791 39.870761 
L 235.307987 41.504893 
L 235.908064 43.848445 
L 236.508141 47.217423 
L 237.108218 52.164234 
L 237.608283 58.230708 
L 238.108347 67.329782 
L 238.508398 78.464731 
L 238.90845 96.090709 
L 239.308501 127.092181 
L 239.60854 168.818336 
L 240.008591 269.713995 
L 240.408643 372.479637 
L 240.708681 401.85038 
L 241.00872 412.525902 
L 241.308758 416.717649 
L 241.608797 418.299961 
L 241.808823 418.624151 
L 242.008848 418.595951 
L 242.308887 418.119395 
L 242.808951 416.620909 
L 243.609054 413.246999 
L 244.809208 407.074219 
L 246.509427 397.117543 
L 248.609697 383.489554 
L 250.909993 367.082498 
L 253.310301 348.29917 
L 255.810623 326.930057 
L 259.011034 297.486586 
L 263.311587 258.085536 
L 265.611883 239.20124 
L 267.712153 223.800365 
L 269.812423 210.026326 
L 272.012706 197.039105 
L 274.413014 184.18867 
L 277.013348 171.45464 
L 279.913721 158.364966 
L 283.01412 145.383966 
L 286.414557 132.109172 
L 290.01502 118.965617 
L 293.715496 106.304012 
L 297.415971 94.422211 
L 301.116447 83.284938 
L 304.616897 73.439469 
L 307.917321 64.809728 
L 310.917707 57.581981 
L 313.518041 51.878934 
L 315.718324 47.552202 
L 317.618568 44.279738 
L 319.218774 41.952825 
L 320.518941 40.436219 
L 321.619083 39.492023 
L 322.519198 39.016211 
L 323.219288 38.879339 
L 323.819365 38.963321 
L 324.419443 39.275965 
L 325.01952 39.873129 
L 325.619597 40.833095 
L 326.219674 42.2695 
L 326.819751 44.354486 
L 327.419828 47.363044 
L 328.019905 51.765191 
L 328.51997 57.109475 
L 329.020034 64.987148 
L 329.420085 74.392166 
L 329.820137 88.78261 
L 330.220188 112.896582 
L 330.520227 143.910986 
L 330.820265 196.776081 
L 331.720381 397.287109 
L 332.02042 410.67715 
L 332.320458 415.881854 
L 332.620497 417.910593 
L 332.920535 418.484237 
L 333.120561 418.417569 
L 333.4206 417.903767 
L 333.920664 416.371001 
L 334.720767 412.972369 
L 335.920921 406.787436 
L 337.721153 396.215823 
L 339.921435 381.865461 
L 342.221731 365.374792 
L 344.62204 346.528092 
L 347.222374 324.237746 
L 350.622811 292.915744 
L 354.523313 257.37322 
L 356.823608 238.497861 
L 358.923878 223.071236 
L 361.024148 209.249344 
L 363.224431 196.199073 
L 365.62474 183.273606 
L 368.225074 170.457087 
L 371.125447 157.278044 
L 374.225845 144.207167 
L 377.626283 130.84246 
L 381.126733 117.971277 
L 384.827208 105.216543 
L 388.527684 93.261662 
L 392.128147 82.367588 
L 395.528584 72.756165 
L 398.728995 64.353823 
L 401.629368 57.348226 
L 404.12969 51.859825 
L 406.329972 47.550816 
L 408.130204 44.484923 
L 409.630397 42.337001 
L 410.830551 40.961605 
L 411.83068 40.113353 
L 412.630782 39.680527 
L 413.330872 39.524981 
L 413.93095 39.595523 
L 414.531027 39.897825 
L 415.131104 40.48878 
L 415.731181 41.448259 
L 416.331258 42.89244 
L 416.931335 44.997758 
L 417.531412 48.046949 
L 418.13149 52.52523 
L 418.631554 57.982996 
L 419.131618 66.064113 
L 419.53167 75.762887 
L 419.931721 90.699069 
L 420.331772 115.94534 
L 420.631811 148.683189 
L 420.93185 204.546345 
L 421.731952 391.740886 
L 422.031991 408.567379 
L 422.33203 415.003102 
L 422.632068 417.551425 
L 422.932107 418.380712 
L 423.132132 418.4169 
L 423.332158 418.1913 
L 423.73221 417.227328 
L 424.332287 415.022485 
L 425.332415 410.312402 
L 426.832608 402.03083 
L 428.832865 389.661649 
L 431.133161 373.975915 
L 433.53347 356.004572 
L 436.033791 335.507066 
L 438.834151 310.582029 
L 445.735038 248.098723 
L 447.935321 230.893722 
L 450.035591 216.198706 
L 452.235874 202.387735 
L 454.53617 189.344066 
L 457.036491 176.418335 
L 459.836851 163.126969 
L 462.837237 149.960541 
L 466.137661 136.493071 
L 469.638111 123.162674 
L 473.238574 110.326445 
L 476.939049 97.961771 
L 480.539512 86.690309 
L 484.039962 76.444957 
L 487.340387 67.461068 
L 490.340772 59.925773 
L 492.941107 53.9634 
L 495.241402 49.225182 
L 497.141647 45.78828 
L 498.741852 43.323906 
L 500.042019 41.69503 
L 501.142161 40.654165 
L 502.042277 40.096927 
L 502.742367 39.894283 
L 503.342444 39.919317 
L 503.942521 40.169581 
L 504.542598 40.699416 
L 505.142675 41.584765 
L 505.742752 42.935479 
L 506.342829 44.91725 
L 506.942907 47.793333 
L 507.542984 52.01054 
L 508.043048 57.125411 
L 508.543112 64.636539 
L 509.043177 76.383578 
L 509.443228 91.554101 
L 509.843279 117.292163 
L 510.143318 150.780512 
L 510.443357 207.919471 
L 511.243459 392.842212 
L 511.543498 408.950576 
L 511.843537 415.138208 
L 512.143575 417.585507 
L 512.443614 418.366739 
L 512.643639 418.384162 
L 512.843665 418.145592 
L 513.243717 417.165515 
L 513.843794 414.948557 
L 514.843922 410.230737 
L 516.344115 401.947963 
L 518.344372 389.585706 
L 520.644668 373.916817 
L 523.044977 355.973342 
L 525.545298 335.51576 
L 528.345658 310.641842 
L 535.346558 247.354965 
L 537.546841 230.194231 
L 539.647111 215.527531 
L 541.847394 201.731587 
L 544.147689 188.691382 
L 545.347844 182.342654 
L 545.347844 182.342654 
" clip-path="url(#p22c755ea4b)" style="fill: none; stroke-dasharray: 11.1,4.8; stroke-dashoffset: 0; stroke: #3f90da; stroke-width: 3"/>
   </g>
   <g id="line2d_191">
    <path d="M 45.314316 421.620262 
L 45.583597 429.340604 
L 46.183675 439.241243 
L 46.883765 446.915489 
L 47.583855 452.356872 
L 48.383957 456.851882 
L 49.18406 460.115033 
L 49.984163 462.534472 
L 50.884279 464.556107 
L 51.784395 466.058736 
L 52.784523 467.304418 
L 53.884665 468.316112 
L 55.084819 469.12478 
L 56.484999 469.804016 
L 58.185217 470.375142 
L 60.285487 470.83515 
L 62.985834 471.183075 
L 66.486284 471.39616 
L 71.186889 471.445455 
L 77.387686 471.278634 
L 85.188689 470.842001 
L 93.789794 470.140072 
L 101.990849 469.25421 
L 109.091762 468.272985 
L 115.092533 467.225913 
L 119.993163 466.152732 
L 123.993677 465.058921 
L 127.294102 463.935199 
L 129.994449 462.792997 
L 132.294744 461.583833 
L 134.194989 460.341595 
L 135.795194 459.043105 
L 137.195374 457.628315 
L 138.395529 456.11137 
L 139.49567 454.354786 
L 140.495799 452.300207 
L 141.395914 449.875902 
L 142.196017 446.99817 
L 142.896107 443.579848 
L 143.496184 439.554311 
L 144.096261 433.802147 
L 144.596326 426.668999 
L 144.996377 418.170562 
L 145.396429 404.991361 
L 145.79648 382.217517 
L 146.096519 351.695226 
L 146.396557 297.587551 
L 147.096647 139.828572 
L 147.296673 132.230098 
L 147.396686 131.754618 
L 147.596711 134.103558 
L 147.996763 144.390676 
L 150.497084 216.491029 
L 151.897264 248.305131 
L 153.297444 275.207444 
L 154.797637 299.899307 
L 156.397843 322.650502 
L 158.098061 343.73822 
L 159.898293 363.428881 
L 161.89855 382.858346 
L 163.898807 400.172001 
L 165.799051 414.76707 
L 167.49927 426.169331 
L 168.999463 434.789252 
L 170.399643 441.554986 
L 171.69981 446.755912 
L 172.899964 450.705546 
L 174.100119 453.935925 
L 175.300273 456.554175 
L 176.500427 458.665375 
L 177.800594 460.489874 
L 179.100761 461.93218 
L 180.500941 463.151929 
L 182.001134 464.162923 
L 183.701353 465.028747 
L 185.601597 465.73483 
L 187.80188 466.301278 
L 190.302201 466.710162 
L 193.302587 466.966804 
L 196.803037 467.035893 
L 200.803551 466.890294 
L 205.204117 466.506972 
L 209.704696 465.890432 
L 213.905236 465.09117 
L 217.605711 464.162949 
L 220.70611 463.165469 
L 223.406457 462.064486 
L 225.60674 460.936198 
L 227.506984 459.717833 
L 229.10719 458.436188 
L 230.50737 457.034265 
L 231.707524 455.527887 
L 232.807666 453.782265 
L 233.807794 451.741666 
L 234.70791 449.338457 
L 235.508013 446.495321 
L 236.208103 443.134684 
L 236.80818 439.203144 
L 237.408257 433.637846 
L 237.908321 426.825145 
L 238.408386 416.295314 
L 238.808437 402.644913 
L 239.208488 379.124857 
L 239.508527 347.905627 
L 239.808566 293.920857 
L 240.508656 146.731899 
L 240.708681 139.344463 
L 240.808694 138.775603 
L 240.908707 139.406112 
L 241.208746 145.180504 
L 242.108861 171.532825 
L 243.609054 213.146419 
L 245.009234 245.409806 
L 246.409414 272.617271 
L 247.909607 297.509536 
L 249.509813 320.370585 
L 251.210031 341.490687 
L 253.010263 361.149145 
L 255.01052 380.497063 
L 257.010777 397.730463 
L 258.911021 412.311906 
L 260.61124 423.799044 
L 262.211446 433.119013 
L 263.611626 440.010509 
L 264.911793 445.358708 
L 266.21196 449.760931 
L 267.412114 453.077081 
L 268.612268 455.777913 
L 269.812423 457.964121 
L 271.11259 459.859102 
L 272.412757 461.36034 
L 273.812937 462.631593 
L 275.31313 463.685858 
L 276.913336 464.542527 
L 278.713567 465.257428 
L 280.813837 465.844988 
L 283.214146 466.280067 
L 286.014506 466.558486 
L 289.31493 466.657966 
L 293.115418 466.544499 
L 297.315958 466.190747 
L 301.516498 465.616778 
L 305.517013 464.850037 
L 309.017463 463.962827 
L 312.117861 462.950537 
L 314.718195 461.870331 
L 316.918478 460.718258 
L 318.818723 459.466773 
L 320.418928 458.142291 
L 321.819108 456.684104 
L 323.019263 455.106046 
L 324.119404 453.262279 
L 325.01952 451.331388 
L 325.819623 449.13569 
L 326.619725 446.249465 
L 327.319815 442.829538 
L 327.919893 438.817276 
L 328.51997 433.117133 
L 329.020034 426.107524 
L 329.520098 415.208531 
L 329.92015 400.975272 
L 330.320201 376.237792 
L 330.62024 343.186334 
L 330.920278 286.370181 
L 331.520355 153.327223 
L 331.720381 141.708196 
L 331.920407 139.782569 
L 332.120433 142.267406 
L 332.520484 152.208483 
L 335.020805 221.691738 
L 336.420985 252.489378 
L 337.821165 278.565092 
L 339.321358 302.516212 
L 340.921564 324.594014 
L 342.621783 345.059665 
L 344.422014 364.166207 
L 346.422271 383.015192 
L 348.422528 399.820511 
L 350.322773 414.024672 
L 352.022991 425.183915 
L 353.523184 433.687287 
L 354.923364 440.422491 
L 356.223531 445.647959 
L 357.523698 449.950217 
L 358.723853 453.193189 
L 359.924007 455.836816 
L 361.124161 457.978964 
L 362.424328 459.83781 
L 363.724495 461.311964 
L 365.124675 462.561334 
L 366.624868 463.597975 
L 368.225074 464.440262 
L 370.025305 465.142411 
L 372.125575 465.717728 
L 374.525884 466.140459 
L 377.326244 466.404958 
L 380.626668 466.486968 
L 384.427157 466.349968 
L 388.527684 465.975014 
L 392.628211 465.379151 
L 396.4287 464.611266 
L 399.829137 463.706019 
L 402.72951 462.714888 
L 405.229831 461.632769 
L 407.330101 460.489855 
L 409.130332 459.263617 
L 410.630525 457.989653 
L 411.930692 456.61712 
L 413.130847 455.02811 
L 414.130975 453.35872 
L 415.031091 451.460834 
L 415.831194 449.309036 
L 416.631297 446.491243 
L 417.331387 443.168576 
L 417.931464 439.293016 
L 418.531541 433.828781 
L 419.031605 427.174605 
L 419.53167 416.96291 
L 419.931721 403.84756 
L 420.331772 381.523317 
L 420.631811 352.26235 
L 420.93185 301.891621 
L 421.63194 150.876617 
L 421.831965 141.296127 
L 421.931978 140.097168 
L 422.031991 140.288578 
L 422.232017 143.176771 
L 422.732081 156.274931 
L 424.832351 215.239216 
L 426.232531 247.030116 
L 427.632711 273.855978 
L 429.132904 298.410911 
L 430.73311 320.968671 
L 432.433328 341.810368 
L 434.23356 361.207905 
L 436.233817 380.296577 
L 438.234074 397.304105 
L 440.234331 412.426596 
L 442.034562 424.34449 
L 443.634768 433.44516 
L 445.034948 440.181476 
L 446.335115 445.417393 
L 447.635282 449.735662 
L 448.835437 452.995583 
L 450.035591 455.656278 
L 451.235745 457.814395 
L 452.535912 459.688565 
L 453.83608 461.175719 
L 455.23626 462.436547 
L 456.736452 463.482833 
L 458.336658 464.332855 
L 460.13689 465.041135 
L 462.23716 465.62088 
L 464.637468 466.045882 
L 467.437828 466.310099 
L 470.738252 466.388463 
L 474.438728 466.249814 
L 478.439242 465.878304 
L 482.539769 465.272508 
L 486.340258 464.487823 
L 489.640682 463.589448 
L 492.541055 462.575248 
L 494.941364 461.512519 
L 497.041634 460.343979 
L 498.841865 459.084861 
L 500.342058 457.770502 
L 501.642225 456.346903 
L 502.842379 454.688395 
L 503.842508 452.933293 
L 504.742624 450.921307 
L 505.542727 448.61766 
L 506.342829 445.563214 
L 507.042919 441.904061 
L 507.642997 437.554543 
L 508.143061 432.505036 
L 508.643125 425.225838 
L 509.043177 416.580898 
L 509.443228 403.250207 
L 509.843279 380.475116 
L 510.143318 350.524581 
L 510.443357 298.988974 
L 511.143447 150.005682 
L 511.343472 141.202937 
L 511.443485 140.212313 
L 511.543498 140.541193 
L 511.743524 143.579994 
L 512.243588 156.770509 
L 514.243845 213.10692 
L 515.644025 245.21254 
L 517.044205 272.274072 
L 518.544398 297.015382 
L 520.144604 319.717512 
L 521.844822 340.668005 
L 523.645054 360.144783 
L 525.545298 378.388833 
L 527.545555 395.541033 
L 529.545812 410.814385 
L 531.346044 422.899466 
L 532.946249 432.17932 
L 534.346429 439.087755 
L 535.646597 444.484703 
L 536.946764 448.954741 
L 538.146918 452.340282 
L 539.347072 455.109839 
L 540.547227 457.3597 
L 541.847394 459.315353 
L 543.147561 460.867842 
L 544.547741 462.184175 
L 545.347844 462.80245 
L 545.347844 462.80245 
" clip-path="url(#p22c755ea4b)" style="fill: none; stroke: #ffa90e; stroke-width: 3; stroke-linecap: square"/>
   </g>
   <g id="patch_3">
    <path d="M 20.31264 493.575119 
L 20.31264 6.85 
" style="fill: none; stroke: #000000; stroke-width: 0.5; stroke-linejoin: miter; stroke-linecap: square"/>
   </g>
   <g id="patch_4">
    <path d="M 570.34952 493.575119 
L 570.34952 6.85 
" style="fill: none; stroke: #000000; stroke-width: 0.5; stroke-linejoin: miter; stroke-linecap: square"/>
   </g>
   <g id="patch_5">
    <path d="M 20.31264 493.575119 
L 570.34952 493.575119 
" style="fill: none; stroke: #000000; stroke-width: 0.5; stroke-linejoin: miter; stroke-linecap: square"/>
   </g>
   <g id="patch_6">
    <path d="M 20.31264 6.85 
L 570.34952 6.85 
" style="fill: none; stroke: #000000; stroke-width: 0.5; stroke-linejoin: miter; stroke-linecap: square"/>
   </g>
   <g id="legend_1">
    <g id="line2d_192">
     <path style="fill: none; stroke-dasharray: 11.1,4.8; stroke-dashoffset: 0; stroke: #3f90da; stroke-width: 3"/>
    </g>
    <g id="text_15">
     <!-- $y$ -->
     <g transform="translate(369.33108 -0.861904) scale(0.2 -0.2)">
      <defs>
       <path id="NimbusRomNo9L-ReguItal-79" d="M 96 2553 
C 179 2572 224 2579 294 2579 
C 659 2579 755 2419 1050 1318 
C 1158 902 1312 153 1312 44 
C 1312 -58 1274 -161 1178 -276 
C 979 -538 851 -705 781 -782 
C 646 -922 570 -974 486 -974 
C 448 -974 403 -954 333 -903 
C 237 -826 166 -794 96 -794 
C -45 -794 -154 -903 -154 -1044 
C -154 -1204 -13 -1326 173 -1326 
C 582 -1326 1421 -365 2112 902 
C 2547 1689 2726 2150 2726 2463 
C 2726 2655 2566 2816 2374 2816 
C 2227 2816 2125 2719 2125 2579 
C 2125 2483 2176 2412 2304 2329 
C 2426 2259 2470 2201 2470 2111 
C 2470 1855 2234 1356 1690 454 
L 1562 1196 
C 1466 1759 1107 2816 1011 2816 
L 986 2816 
C 979 2809 954 2809 928 2809 
C 870 2803 640 2764 301 2700 
C 269 2694 186 2675 96 2662 
L 96 2553 
z
" transform="scale(0.015625)"/>
      </defs>
      <use xlink:href="#NimbusRomNo9L-ReguItal-79" transform="scale(0.996264)"/>
     </g>
    </g>
    <g id="line2d_193">
     <path style="fill: none; stroke: #ffa90e; stroke-width: 3; stroke-linecap: square"/>
    </g>
    <g id="text_16">
     <!-- $x$ -->
     <g transform="translate(268.484372 -0.861904) scale(0.2 -0.2)">
      <defs>
       <path id="NimbusRomNo9L-ReguItal-78" d="M 2573 714 
C 2522 657 2490 618 2432 542 
C 2285 351 2208 288 2138 288 
C 2042 288 1984 370 1939 548 
C 1926 599 1920 638 1914 657 
C 1754 1299 1683 1592 1683 1687 
C 1965 2177 2195 2457 2310 2457 
C 2349 2457 2400 2438 2464 2406 
C 2541 2362 2586 2349 2637 2349 
C 2771 2349 2861 2444 2861 2579 
C 2861 2713 2752 2816 2598 2816 
C 2317 2816 2074 2585 1632 1904 
L 1562 2254 
C 1472 2687 1402 2816 1229 2816 
C 1088 2816 870 2758 480 2630 
L 410 2604 
L 435 2508 
C 678 2566 736 2579 794 2579 
C 954 2579 992 2521 1082 2139 
L 1267 1357 
L 742 612 
C 614 421 486 307 416 307 
C 378 307 314 326 250 364 
C 166 409 96 428 45 428 
C -77 428 -173 332 -173 204 
C -173 38 -45 -64 147 -64 
C 346 -64 422 -7 742 383 
C 915 587 1050 758 1318 1127 
L 1510 364 
C 1594 38 1677 -64 1882 -64 
C 2125 -64 2291 89 2662 663 
L 2573 714 
z
" transform="scale(0.015625)"/>
      </defs>
      <use xlink:href="#NimbusRomNo9L-ReguItal-78" transform="scale(0.996264)"/>
     </g>
    </g>
   </g>
  </g>
 </g>
 <defs>
  <clipPath id="p22c755ea4b">
   <rect x="20.31264" y="6.85" width="550.03688" height="486.725119"/>
  </clipPath>
 </defs>
</svg>
