<?xml version="1.0" encoding="utf-8" standalone="no"?>
<!DOCTYPE svg PUBLIC "-//W3C//DTD SVG 1.1//EN"
  "http://www.w3.org/Graphics/SVG/1.1/DTD/svg11.dtd">
<svg xmlns:xlink="http://www.w3.org/1999/xlink" width="577.19952pt" height="577.19952pt" viewBox="0 0 577.19952 577.19952" xmlns="http://www.w3.org/2000/svg" version="1.1">
 <metadata>
  <rdf:RDF xmlns:dc="http://purl.org/dc/elements/1.1/" xmlns:cc="http://creativecommons.org/ns#" xmlns:rdf="http://www.w3.org/1999/02/22-rdf-syntax-ns#">
   <cc:Work>
    <dc:type rdf:resource="http://purl.org/dc/dcmitype/StillImage"/>
    <dc:date>2024-12-26T21:03:50.926182</dc:date>
    <dc:format>image/svg+xml</dc:format>
    <dc:creator>
     <cc:Agent>
      <dc:title>Matplotlib v3.10.0, https://matplotlib.org/</dc:title>
     </cc:Agent>
    </dc:creator>
   </cc:Work>
  </rdf:RDF>
 </metadata>
 <defs>
  <style type="text/css">*{stroke-linejoin: round; stroke-linecap: butt}</style>
 </defs>
 <g id="figure_1">
  <g id="patch_1">
   <path d="M 0 577.19952 
L 577.19952 577.19952 
L 577.19952 0 
L 0 0 
z
" style="fill: #ffffff"/>
  </g>
  <g id="axes_1">
   <g id="patch_2">
    <path d="M 49.264572 520.074775 
L 570.34952 520.074775 
L 570.34952 6.85 
L 49.264572 6.85 
z
" style="fill: #ffffff"/>
   </g>
   <g id="matplotlib.axis_1">
    <g id="xtick_1">
     <g id="line2d_1">
      <path d="M 142.440538 520.074775 
L 142.440538 6.85 
" clip-path="url(#p3b5ed7fab7)" style="fill: none; stroke: #b0b0b0; stroke-width: 0.5; stroke-linecap: square"/>
     </g>
     <g id="line2d_2">
      <defs>
       <path id="m5238d1ab3f" d="M 0 3.25 
L 0 -3.25 
" style="stroke: #000000; stroke-width: 1.5"/>
      </defs>
      <g>
       <use xlink:href="#m5238d1ab3f" x="142.440538" y="520.074775" style="stroke: #000000; stroke-width: 1.5"/>
      </g>
     </g>
     <g id="line2d_3">
      <g>
       <use xlink:href="#m5238d1ab3f" x="142.440538" y="6.85" style="stroke: #000000; stroke-width: 1.5"/>
      </g>
     </g>
     <g id="text_1">
      <!-- $\mathdefault{1}$ -->
      <g transform="translate(137.459218 540.33393) scale(0.2 -0.2)">
       <defs>
        <path id="NimbusRomNo9L-Regu-31" d="M 1862 4352 
L 710 3776 
L 710 3686 
C 787 3718 858 3743 883 3756 
C 998 3801 1107 3826 1171 3826 
C 1306 3826 1363 3731 1363 3525 
L 1363 599 
C 1363 386 1312 238 1210 179 
C 1114 121 1024 102 755 96 
L 755 0 
L 2522 0 
L 2522 96 
C 2016 102 1914 167 1914 477 
L 1914 4339 
L 1862 4352 
z
" transform="scale(0.015625)"/>
       </defs>
       <use xlink:href="#NimbusRomNo9L-Regu-31" transform="scale(0.996264)"/>
      </g>
     </g>
    </g>
    <g id="xtick_2">
     <g id="line2d_4">
      <path d="M 239.536462 520.074775 
L 239.536462 6.85 
" clip-path="url(#p3b5ed7fab7)" style="fill: none; stroke: #b0b0b0; stroke-width: 0.5; stroke-linecap: square"/>
     </g>
     <g id="line2d_5">
      <g>
       <use xlink:href="#m5238d1ab3f" x="239.536462" y="520.074775" style="stroke: #000000; stroke-width: 1.5"/>
      </g>
     </g>
     <g id="line2d_6">
      <g>
       <use xlink:href="#m5238d1ab3f" x="239.536462" y="6.85" style="stroke: #000000; stroke-width: 1.5"/>
      </g>
     </g>
     <g id="text_2">
      <!-- $\mathdefault{2}$ -->
      <g transform="translate(234.555142 540.33393) scale(0.2 -0.2)">
       <defs>
        <path id="NimbusRomNo9L-Regu-32" d="M 3040 879 
L 2957 912 
C 2720 544 2637 486 2349 486 
L 819 486 
L 1894 1621 
C 2464 2221 2714 2711 2714 3214 
C 2714 3858 2195 4352 1530 4352 
C 1178 4352 845 4211 608 3955 
C 403 3736 307 3530 198 3072 
L 333 3039 
C 589 3671 819 3878 1261 3878 
C 1798 3878 2163 3510 2163 2969 
C 2163 2466 1869 1866 1331 1292 
L 192 76 
L 192 0 
L 2688 0 
L 3040 879 
z
" transform="scale(0.015625)"/>
       </defs>
       <use xlink:href="#NimbusRomNo9L-Regu-32" transform="scale(0.996264)"/>
      </g>
     </g>
    </g>
    <g id="xtick_3">
     <g id="line2d_7">
      <path d="M 336.632386 520.074775 
L 336.632386 6.85 
" clip-path="url(#p3b5ed7fab7)" style="fill: none; stroke: #b0b0b0; stroke-width: 0.5; stroke-linecap: square"/>
     </g>
     <g id="line2d_8">
      <g>
       <use xlink:href="#m5238d1ab3f" x="336.632386" y="520.074775" style="stroke: #000000; stroke-width: 1.5"/>
      </g>
     </g>
     <g id="line2d_9">
      <g>
       <use xlink:href="#m5238d1ab3f" x="336.632386" y="6.85" style="stroke: #000000; stroke-width: 1.5"/>
      </g>
     </g>
     <g id="text_3">
      <!-- $\mathdefault{3}$ -->
      <g transform="translate(331.651066 540.33393) scale(0.2 -0.2)">
       <defs>
        <path id="NimbusRomNo9L-Regu-33" d="M 979 2137 
C 1357 2137 1504 2124 1658 2067 
C 2054 1926 2304 1561 2304 1120 
C 2304 582 1939 166 1466 166 
C 1293 166 1165 211 928 364 
C 736 480 627 524 518 524 
C 371 524 275 435 275 300 
C 275 76 550 -64 998 -64 
C 1491 -64 1997 102 2298 364 
C 2598 627 2765 998 2765 1427 
C 2765 1753 2662 2054 2477 2252 
C 2349 2393 2227 2470 1946 2592 
C 2387 2892 2547 3129 2547 3475 
C 2547 3993 2138 4352 1549 4352 
C 1229 4352 947 4243 717 4038 
C 525 3865 429 3699 288 3315 
L 384 3289 
C 646 3757 934 3967 1338 3967 
C 1754 3967 2042 3686 2042 3283 
C 2042 3052 1946 2822 1786 2662 
C 1594 2470 1414 2374 979 2220 
L 979 2137 
z
" transform="scale(0.015625)"/>
       </defs>
       <use xlink:href="#NimbusRomNo9L-Regu-33" transform="scale(0.996264)"/>
      </g>
     </g>
    </g>
    <g id="xtick_4">
     <g id="line2d_10">
      <path d="M 433.72831 520.074775 
L 433.72831 6.85 
" clip-path="url(#p3b5ed7fab7)" style="fill: none; stroke: #b0b0b0; stroke-width: 0.5; stroke-linecap: square"/>
     </g>
     <g id="line2d_11">
      <g>
       <use xlink:href="#m5238d1ab3f" x="433.72831" y="520.074775" style="stroke: #000000; stroke-width: 1.5"/>
      </g>
     </g>
     <g id="line2d_12">
      <g>
       <use xlink:href="#m5238d1ab3f" x="433.72831" y="6.85" style="stroke: #000000; stroke-width: 1.5"/>
      </g>
     </g>
     <g id="text_4">
      <!-- $\mathdefault{4}$ -->
      <g transform="translate(428.74699 540.33393) scale(0.2 -0.2)">
       <defs>
        <path id="NimbusRomNo9L-Regu-34" d="M 3021 1497 
L 2368 1497 
L 2368 4352 
L 2086 4352 
L 77 1497 
L 77 1088 
L 1875 1088 
L 1875 0 
L 2368 0 
L 2368 1088 
L 3021 1088 
L 3021 1497 
z
M 1869 1497 
L 333 1497 
L 1869 3697 
L 1869 1497 
z
" transform="scale(0.015625)"/>
       </defs>
       <use xlink:href="#NimbusRomNo9L-Regu-34" transform="scale(0.996264)"/>
      </g>
     </g>
    </g>
    <g id="xtick_5">
     <g id="line2d_13">
      <path d="M 530.824234 520.074775 
L 530.824234 6.85 
" clip-path="url(#p3b5ed7fab7)" style="fill: none; stroke: #b0b0b0; stroke-width: 0.5; stroke-linecap: square"/>
     </g>
     <g id="line2d_14">
      <g>
       <use xlink:href="#m5238d1ab3f" x="530.824234" y="520.074775" style="stroke: #000000; stroke-width: 1.5"/>
      </g>
     </g>
     <g id="line2d_15">
      <g>
       <use xlink:href="#m5238d1ab3f" x="530.824234" y="6.85" style="stroke: #000000; stroke-width: 1.5"/>
      </g>
     </g>
     <g id="text_5">
      <!-- $\mathdefault{5}$ -->
      <g transform="translate(525.842914 540.33393) scale(0.2 -0.2)">
       <defs>
        <path id="NimbusRomNo9L-Regu-35" d="M 1158 3718 
L 2413 3718 
C 2515 3718 2541 3731 2560 3775 
L 2803 4345 
L 2746 4390 
C 2650 4256 2586 4224 2451 4224 
L 1114 4224 
L 416 2717 
C 410 2705 410 2698 410 2686 
C 410 2654 435 2635 486 2635 
C 691 2635 947 2591 1210 2508 
C 1946 2274 2285 1882 2285 1255 
C 2285 647 1894 172 1395 172 
C 1267 172 1158 217 966 356 
C 762 502 614 565 480 565 
C 294 565 205 489 205 331 
C 205 89 506 -64 986 -64 
C 1523 -64 1984 108 2304 432 
C 2598 717 2733 1078 2733 1559 
C 2733 2015 2611 2306 2291 2622 
C 2010 2901 1645 3047 890 3180 
L 1158 3718 
z
" transform="scale(0.015625)"/>
       </defs>
       <use xlink:href="#NimbusRomNo9L-Regu-35" transform="scale(0.996264)"/>
      </g>
     </g>
    </g>
    <g id="xtick_6">
     <g id="line2d_16">
      <path d="M 64.763799 520.074775 
L 64.763799 6.85 
" clip-path="url(#p3b5ed7fab7)" style="fill: none; stroke: #b0b0b0; stroke-width: 0.5; stroke-linecap: square"/>
     </g>
     <g id="line2d_17">
      <defs>
       <path id="mac7d51088f" d="M 0 2 
L 0 -2 
" style="stroke: #000000; stroke-width: 0.5"/>
      </defs>
      <g>
       <use xlink:href="#mac7d51088f" x="64.763799" y="520.074775" style="stroke: #000000; stroke-width: 0.5"/>
      </g>
     </g>
     <g id="line2d_18">
      <g>
       <use xlink:href="#mac7d51088f" x="64.763799" y="6.85" style="stroke: #000000; stroke-width: 0.5"/>
      </g>
     </g>
    </g>
    <g id="xtick_7">
     <g id="line2d_19">
      <path d="M 84.182983 520.074775 
L 84.182983 6.85 
" clip-path="url(#p3b5ed7fab7)" style="fill: none; stroke: #b0b0b0; stroke-width: 0.5; stroke-linecap: square"/>
     </g>
     <g id="line2d_20">
      <g>
       <use xlink:href="#mac7d51088f" x="84.182983" y="520.074775" style="stroke: #000000; stroke-width: 0.5"/>
      </g>
     </g>
     <g id="line2d_21">
      <g>
       <use xlink:href="#mac7d51088f" x="84.182983" y="6.85" style="stroke: #000000; stroke-width: 0.5"/>
      </g>
     </g>
    </g>
    <g id="xtick_8">
     <g id="line2d_22">
      <path d="M 103.602168 520.074775 
L 103.602168 6.85 
" clip-path="url(#p3b5ed7fab7)" style="fill: none; stroke: #b0b0b0; stroke-width: 0.5; stroke-linecap: square"/>
     </g>
     <g id="line2d_23">
      <g>
       <use xlink:href="#mac7d51088f" x="103.602168" y="520.074775" style="stroke: #000000; stroke-width: 0.5"/>
      </g>
     </g>
     <g id="line2d_24">
      <g>
       <use xlink:href="#mac7d51088f" x="103.602168" y="6.85" style="stroke: #000000; stroke-width: 0.5"/>
      </g>
     </g>
    </g>
    <g id="xtick_9">
     <g id="line2d_25">
      <path d="M 123.021353 520.074775 
L 123.021353 6.85 
" clip-path="url(#p3b5ed7fab7)" style="fill: none; stroke: #b0b0b0; stroke-width: 0.5; stroke-linecap: square"/>
     </g>
     <g id="line2d_26">
      <g>
       <use xlink:href="#mac7d51088f" x="123.021353" y="520.074775" style="stroke: #000000; stroke-width: 0.5"/>
      </g>
     </g>
     <g id="line2d_27">
      <g>
       <use xlink:href="#mac7d51088f" x="123.021353" y="6.85" style="stroke: #000000; stroke-width: 0.5"/>
      </g>
     </g>
    </g>
    <g id="xtick_10">
     <g id="line2d_28">
      <path d="M 161.859723 520.074775 
L 161.859723 6.85 
" clip-path="url(#p3b5ed7fab7)" style="fill: none; stroke: #b0b0b0; stroke-width: 0.5; stroke-linecap: square"/>
     </g>
     <g id="line2d_29">
      <g>
       <use xlink:href="#mac7d51088f" x="161.859723" y="520.074775" style="stroke: #000000; stroke-width: 0.5"/>
      </g>
     </g>
     <g id="line2d_30">
      <g>
       <use xlink:href="#mac7d51088f" x="161.859723" y="6.85" style="stroke: #000000; stroke-width: 0.5"/>
      </g>
     </g>
    </g>
    <g id="xtick_11">
     <g id="line2d_31">
      <path d="M 181.278907 520.074775 
L 181.278907 6.85 
" clip-path="url(#p3b5ed7fab7)" style="fill: none; stroke: #b0b0b0; stroke-width: 0.5; stroke-linecap: square"/>
     </g>
     <g id="line2d_32">
      <g>
       <use xlink:href="#mac7d51088f" x="181.278907" y="520.074775" style="stroke: #000000; stroke-width: 0.5"/>
      </g>
     </g>
     <g id="line2d_33">
      <g>
       <use xlink:href="#mac7d51088f" x="181.278907" y="6.85" style="stroke: #000000; stroke-width: 0.5"/>
      </g>
     </g>
    </g>
    <g id="xtick_12">
     <g id="line2d_34">
      <path d="M 200.698092 520.074775 
L 200.698092 6.85 
" clip-path="url(#p3b5ed7fab7)" style="fill: none; stroke: #b0b0b0; stroke-width: 0.5; stroke-linecap: square"/>
     </g>
     <g id="line2d_35">
      <g>
       <use xlink:href="#mac7d51088f" x="200.698092" y="520.074775" style="stroke: #000000; stroke-width: 0.5"/>
      </g>
     </g>
     <g id="line2d_36">
      <g>
       <use xlink:href="#mac7d51088f" x="200.698092" y="6.85" style="stroke: #000000; stroke-width: 0.5"/>
      </g>
     </g>
    </g>
    <g id="xtick_13">
     <g id="line2d_37">
      <path d="M 220.117277 520.074775 
L 220.117277 6.85 
" clip-path="url(#p3b5ed7fab7)" style="fill: none; stroke: #b0b0b0; stroke-width: 0.5; stroke-linecap: square"/>
     </g>
     <g id="line2d_38">
      <g>
       <use xlink:href="#mac7d51088f" x="220.117277" y="520.074775" style="stroke: #000000; stroke-width: 0.5"/>
      </g>
     </g>
     <g id="line2d_39">
      <g>
       <use xlink:href="#mac7d51088f" x="220.117277" y="6.85" style="stroke: #000000; stroke-width: 0.5"/>
      </g>
     </g>
    </g>
    <g id="xtick_14">
     <g id="line2d_40">
      <path d="M 258.955647 520.074775 
L 258.955647 6.85 
" clip-path="url(#p3b5ed7fab7)" style="fill: none; stroke: #b0b0b0; stroke-width: 0.5; stroke-linecap: square"/>
     </g>
     <g id="line2d_41">
      <g>
       <use xlink:href="#mac7d51088f" x="258.955647" y="520.074775" style="stroke: #000000; stroke-width: 0.5"/>
      </g>
     </g>
     <g id="line2d_42">
      <g>
       <use xlink:href="#mac7d51088f" x="258.955647" y="6.85" style="stroke: #000000; stroke-width: 0.5"/>
      </g>
     </g>
    </g>
    <g id="xtick_15">
     <g id="line2d_43">
      <path d="M 278.374831 520.074775 
L 278.374831 6.85 
" clip-path="url(#p3b5ed7fab7)" style="fill: none; stroke: #b0b0b0; stroke-width: 0.5; stroke-linecap: square"/>
     </g>
     <g id="line2d_44">
      <g>
       <use xlink:href="#mac7d51088f" x="278.374831" y="520.074775" style="stroke: #000000; stroke-width: 0.5"/>
      </g>
     </g>
     <g id="line2d_45">
      <g>
       <use xlink:href="#mac7d51088f" x="278.374831" y="6.85" style="stroke: #000000; stroke-width: 0.5"/>
      </g>
     </g>
    </g>
    <g id="xtick_16">
     <g id="line2d_46">
      <path d="M 297.794016 520.074775 
L 297.794016 6.85 
" clip-path="url(#p3b5ed7fab7)" style="fill: none; stroke: #b0b0b0; stroke-width: 0.5; stroke-linecap: square"/>
     </g>
     <g id="line2d_47">
      <g>
       <use xlink:href="#mac7d51088f" x="297.794016" y="520.074775" style="stroke: #000000; stroke-width: 0.5"/>
      </g>
     </g>
     <g id="line2d_48">
      <g>
       <use xlink:href="#mac7d51088f" x="297.794016" y="6.85" style="stroke: #000000; stroke-width: 0.5"/>
      </g>
     </g>
    </g>
    <g id="xtick_17">
     <g id="line2d_49">
      <path d="M 317.213201 520.074775 
L 317.213201 6.85 
" clip-path="url(#p3b5ed7fab7)" style="fill: none; stroke: #b0b0b0; stroke-width: 0.5; stroke-linecap: square"/>
     </g>
     <g id="line2d_50">
      <g>
       <use xlink:href="#mac7d51088f" x="317.213201" y="520.074775" style="stroke: #000000; stroke-width: 0.5"/>
      </g>
     </g>
     <g id="line2d_51">
      <g>
       <use xlink:href="#mac7d51088f" x="317.213201" y="6.85" style="stroke: #000000; stroke-width: 0.5"/>
      </g>
     </g>
    </g>
    <g id="xtick_18">
     <g id="line2d_52">
      <path d="M 356.05157 520.074775 
L 356.05157 6.85 
" clip-path="url(#p3b5ed7fab7)" style="fill: none; stroke: #b0b0b0; stroke-width: 0.5; stroke-linecap: square"/>
     </g>
     <g id="line2d_53">
      <g>
       <use xlink:href="#mac7d51088f" x="356.05157" y="520.074775" style="stroke: #000000; stroke-width: 0.5"/>
      </g>
     </g>
     <g id="line2d_54">
      <g>
       <use xlink:href="#mac7d51088f" x="356.05157" y="6.85" style="stroke: #000000; stroke-width: 0.5"/>
      </g>
     </g>
    </g>
    <g id="xtick_19">
     <g id="line2d_55">
      <path d="M 375.470755 520.074775 
L 375.470755 6.85 
" clip-path="url(#p3b5ed7fab7)" style="fill: none; stroke: #b0b0b0; stroke-width: 0.5; stroke-linecap: square"/>
     </g>
     <g id="line2d_56">
      <g>
       <use xlink:href="#mac7d51088f" x="375.470755" y="520.074775" style="stroke: #000000; stroke-width: 0.5"/>
      </g>
     </g>
     <g id="line2d_57">
      <g>
       <use xlink:href="#mac7d51088f" x="375.470755" y="6.85" style="stroke: #000000; stroke-width: 0.5"/>
      </g>
     </g>
    </g>
    <g id="xtick_20">
     <g id="line2d_58">
      <path d="M 394.88994 520.074775 
L 394.88994 6.85 
" clip-path="url(#p3b5ed7fab7)" style="fill: none; stroke: #b0b0b0; stroke-width: 0.5; stroke-linecap: square"/>
     </g>
     <g id="line2d_59">
      <g>
       <use xlink:href="#mac7d51088f" x="394.88994" y="520.074775" style="stroke: #000000; stroke-width: 0.5"/>
      </g>
     </g>
     <g id="line2d_60">
      <g>
       <use xlink:href="#mac7d51088f" x="394.88994" y="6.85" style="stroke: #000000; stroke-width: 0.5"/>
      </g>
     </g>
    </g>
    <g id="xtick_21">
     <g id="line2d_61">
      <path d="M 414.309125 520.074775 
L 414.309125 6.85 
" clip-path="url(#p3b5ed7fab7)" style="fill: none; stroke: #b0b0b0; stroke-width: 0.5; stroke-linecap: square"/>
     </g>
     <g id="line2d_62">
      <g>
       <use xlink:href="#mac7d51088f" x="414.309125" y="520.074775" style="stroke: #000000; stroke-width: 0.5"/>
      </g>
     </g>
     <g id="line2d_63">
      <g>
       <use xlink:href="#mac7d51088f" x="414.309125" y="6.85" style="stroke: #000000; stroke-width: 0.5"/>
      </g>
     </g>
    </g>
    <g id="xtick_22">
     <g id="line2d_64">
      <path d="M 453.147494 520.074775 
L 453.147494 6.85 
" clip-path="url(#p3b5ed7fab7)" style="fill: none; stroke: #b0b0b0; stroke-width: 0.5; stroke-linecap: square"/>
     </g>
     <g id="line2d_65">
      <g>
       <use xlink:href="#mac7d51088f" x="453.147494" y="520.074775" style="stroke: #000000; stroke-width: 0.5"/>
      </g>
     </g>
     <g id="line2d_66">
      <g>
       <use xlink:href="#mac7d51088f" x="453.147494" y="6.85" style="stroke: #000000; stroke-width: 0.5"/>
      </g>
     </g>
    </g>
    <g id="xtick_23">
     <g id="line2d_67">
      <path d="M 472.566679 520.074775 
L 472.566679 6.85 
" clip-path="url(#p3b5ed7fab7)" style="fill: none; stroke: #b0b0b0; stroke-width: 0.5; stroke-linecap: square"/>
     </g>
     <g id="line2d_68">
      <g>
       <use xlink:href="#mac7d51088f" x="472.566679" y="520.074775" style="stroke: #000000; stroke-width: 0.5"/>
      </g>
     </g>
     <g id="line2d_69">
      <g>
       <use xlink:href="#mac7d51088f" x="472.566679" y="6.85" style="stroke: #000000; stroke-width: 0.5"/>
      </g>
     </g>
    </g>
    <g id="xtick_24">
     <g id="line2d_70">
      <path d="M 491.985864 520.074775 
L 491.985864 6.85 
" clip-path="url(#p3b5ed7fab7)" style="fill: none; stroke: #b0b0b0; stroke-width: 0.5; stroke-linecap: square"/>
     </g>
     <g id="line2d_71">
      <g>
       <use xlink:href="#mac7d51088f" x="491.985864" y="520.074775" style="stroke: #000000; stroke-width: 0.5"/>
      </g>
     </g>
     <g id="line2d_72">
      <g>
       <use xlink:href="#mac7d51088f" x="491.985864" y="6.85" style="stroke: #000000; stroke-width: 0.5"/>
      </g>
     </g>
    </g>
    <g id="xtick_25">
     <g id="line2d_73">
      <path d="M 511.405049 520.074775 
L 511.405049 6.85 
" clip-path="url(#p3b5ed7fab7)" style="fill: none; stroke: #b0b0b0; stroke-width: 0.5; stroke-linecap: square"/>
     </g>
     <g id="line2d_74">
      <g>
       <use xlink:href="#mac7d51088f" x="511.405049" y="520.074775" style="stroke: #000000; stroke-width: 0.5"/>
      </g>
     </g>
     <g id="line2d_75">
      <g>
       <use xlink:href="#mac7d51088f" x="511.405049" y="6.85" style="stroke: #000000; stroke-width: 0.5"/>
      </g>
     </g>
    </g>
    <g id="xtick_26">
     <g id="line2d_76">
      <path d="M 550.243418 520.074775 
L 550.243418 6.85 
" clip-path="url(#p3b5ed7fab7)" style="fill: none; stroke: #b0b0b0; stroke-width: 0.5; stroke-linecap: square"/>
     </g>
     <g id="line2d_77">
      <g>
       <use xlink:href="#mac7d51088f" x="550.243418" y="520.074775" style="stroke: #000000; stroke-width: 0.5"/>
      </g>
     </g>
     <g id="line2d_78">
      <g>
       <use xlink:href="#mac7d51088f" x="550.243418" y="6.85" style="stroke: #000000; stroke-width: 0.5"/>
      </g>
     </g>
    </g>
    <g id="xtick_27">
     <g id="line2d_79">
      <path d="M 569.662603 520.074775 
L 569.662603 6.85 
" clip-path="url(#p3b5ed7fab7)" style="fill: none; stroke: #b0b0b0; stroke-width: 0.5; stroke-linecap: square"/>
     </g>
     <g id="line2d_80">
      <g>
       <use xlink:href="#mac7d51088f" x="569.662603" y="520.074775" style="stroke: #000000; stroke-width: 0.5"/>
      </g>
     </g>
     <g id="line2d_81">
      <g>
       <use xlink:href="#mac7d51088f" x="569.662603" y="6.85" style="stroke: #000000; stroke-width: 0.5"/>
      </g>
     </g>
    </g>
    <g id="text_6">
     <!-- $x$ -->
     <g transform="translate(303.614349 567.560399) scale(0.28 -0.28)">
      <defs>
       <path id="NimbusRomNo9L-ReguItal-78" d="M 2573 714 
C 2522 657 2490 618 2432 542 
C 2285 351 2208 288 2138 288 
C 2042 288 1984 370 1939 548 
C 1926 599 1920 638 1914 657 
C 1754 1299 1683 1592 1683 1687 
C 1965 2177 2195 2457 2310 2457 
C 2349 2457 2400 2438 2464 2406 
C 2541 2362 2586 2349 2637 2349 
C 2771 2349 2861 2444 2861 2579 
C 2861 2713 2752 2816 2598 2816 
C 2317 2816 2074 2585 1632 1904 
L 1562 2254 
C 1472 2687 1402 2816 1229 2816 
C 1088 2816 870 2758 480 2630 
L 410 2604 
L 435 2508 
C 678 2566 736 2579 794 2579 
C 954 2579 992 2521 1082 2139 
L 1267 1357 
L 742 612 
C 614 421 486 307 416 307 
C 378 307 314 326 250 364 
C 166 409 96 428 45 428 
C -77 428 -173 332 -173 204 
C -173 38 -45 -64 147 -64 
C 346 -64 422 -7 742 383 
C 915 587 1050 758 1318 1127 
L 1510 364 
C 1594 38 1677 -64 1882 -64 
C 2125 -64 2291 89 2662 663 
L 2573 714 
z
" transform="scale(0.015625)"/>
      </defs>
      <use xlink:href="#NimbusRomNo9L-ReguItal-78" transform="scale(0.996264)"/>
     </g>
    </g>
   </g>
   <g id="matplotlib.axis_2">
    <g id="ytick_1">
     <g id="line2d_82">
      <path d="M 49.264572 498.919835 
L 570.34952 498.919835 
" clip-path="url(#p3b5ed7fab7)" style="fill: none; stroke: #b0b0b0; stroke-width: 0.5; stroke-linecap: square"/>
     </g>
     <g id="line2d_83">
      <defs>
       <path id="m628ca3028d" d="M 3.25 0 
L -3.25 -0 
" style="stroke: #000000; stroke-width: 1.5"/>
      </defs>
      <g>
       <use xlink:href="#m628ca3028d" x="49.264572" y="498.919835" style="stroke: #000000; stroke-width: 1.5"/>
      </g>
     </g>
     <g id="line2d_84">
      <g>
       <use xlink:href="#m628ca3028d" x="570.34952" y="498.919835" style="stroke: #000000; stroke-width: 1.5"/>
      </g>
     </g>
     <g id="text_7">
      <!-- $\mathdefault{1}$ -->
      <g transform="translate(32.551932 505.674412) scale(0.2 -0.2)">
       <use xlink:href="#NimbusRomNo9L-Regu-31" transform="scale(0.996264)"/>
      </g>
     </g>
    </g>
    <g id="ytick_2">
     <g id="line2d_85">
      <path d="M 49.264572 415.799338 
L 570.34952 415.799338 
" clip-path="url(#p3b5ed7fab7)" style="fill: none; stroke: #b0b0b0; stroke-width: 0.5; stroke-linecap: square"/>
     </g>
     <g id="line2d_86">
      <g>
       <use xlink:href="#m628ca3028d" x="49.264572" y="415.799338" style="stroke: #000000; stroke-width: 1.5"/>
      </g>
     </g>
     <g id="line2d_87">
      <g>
       <use xlink:href="#m628ca3028d" x="570.34952" y="415.799338" style="stroke: #000000; stroke-width: 1.5"/>
      </g>
     </g>
     <g id="text_8">
      <!-- $\mathdefault{2}$ -->
      <g transform="translate(32.551932 422.553915) scale(0.2 -0.2)">
       <use xlink:href="#NimbusRomNo9L-Regu-32" transform="scale(0.996264)"/>
      </g>
     </g>
    </g>
    <g id="ytick_3">
     <g id="line2d_88">
      <path d="M 49.264572 332.678841 
L 570.34952 332.678841 
" clip-path="url(#p3b5ed7fab7)" style="fill: none; stroke: #b0b0b0; stroke-width: 0.5; stroke-linecap: square"/>
     </g>
     <g id="line2d_89">
      <g>
       <use xlink:href="#m628ca3028d" x="49.264572" y="332.678841" style="stroke: #000000; stroke-width: 1.5"/>
      </g>
     </g>
     <g id="line2d_90">
      <g>
       <use xlink:href="#m628ca3028d" x="570.34952" y="332.678841" style="stroke: #000000; stroke-width: 1.5"/>
      </g>
     </g>
     <g id="text_9">
      <!-- $\mathdefault{3}$ -->
      <g transform="translate(32.551932 339.433418) scale(0.2 -0.2)">
       <use xlink:href="#NimbusRomNo9L-Regu-33" transform="scale(0.996264)"/>
      </g>
     </g>
    </g>
    <g id="ytick_4">
     <g id="line2d_91">
      <path d="M 49.264572 249.558344 
L 570.34952 249.558344 
" clip-path="url(#p3b5ed7fab7)" style="fill: none; stroke: #b0b0b0; stroke-width: 0.5; stroke-linecap: square"/>
     </g>
     <g id="line2d_92">
      <g>
       <use xlink:href="#m628ca3028d" x="49.264572" y="249.558344" style="stroke: #000000; stroke-width: 1.5"/>
      </g>
     </g>
     <g id="line2d_93">
      <g>
       <use xlink:href="#m628ca3028d" x="570.34952" y="249.558344" style="stroke: #000000; stroke-width: 1.5"/>
      </g>
     </g>
     <g id="text_10">
      <!-- $\mathdefault{4}$ -->
      <g transform="translate(32.551932 256.312921) scale(0.2 -0.2)">
       <use xlink:href="#NimbusRomNo9L-Regu-34" transform="scale(0.996264)"/>
      </g>
     </g>
    </g>
    <g id="ytick_5">
     <g id="line2d_94">
      <path d="M 49.264572 166.437847 
L 570.34952 166.437847 
" clip-path="url(#p3b5ed7fab7)" style="fill: none; stroke: #b0b0b0; stroke-width: 0.5; stroke-linecap: square"/>
     </g>
     <g id="line2d_95">
      <g>
       <use xlink:href="#m628ca3028d" x="49.264572" y="166.437847" style="stroke: #000000; stroke-width: 1.5"/>
      </g>
     </g>
     <g id="line2d_96">
      <g>
       <use xlink:href="#m628ca3028d" x="570.34952" y="166.437847" style="stroke: #000000; stroke-width: 1.5"/>
      </g>
     </g>
     <g id="text_11">
      <!-- $\mathdefault{5}$ -->
      <g transform="translate(32.551932 173.192424) scale(0.2 -0.2)">
       <use xlink:href="#NimbusRomNo9L-Regu-35" transform="scale(0.996264)"/>
      </g>
     </g>
    </g>
    <g id="ytick_6">
     <g id="line2d_97">
      <path d="M 49.264572 83.31735 
L 570.34952 83.31735 
" clip-path="url(#p3b5ed7fab7)" style="fill: none; stroke: #b0b0b0; stroke-width: 0.5; stroke-linecap: square"/>
     </g>
     <g id="line2d_98">
      <g>
       <use xlink:href="#m628ca3028d" x="49.264572" y="83.31735" style="stroke: #000000; stroke-width: 1.5"/>
      </g>
     </g>
     <g id="line2d_99">
      <g>
       <use xlink:href="#m628ca3028d" x="570.34952" y="83.31735" style="stroke: #000000; stroke-width: 1.5"/>
      </g>
     </g>
     <g id="text_12">
      <!-- $\mathdefault{6}$ -->
      <g transform="translate(32.551932 90.071927) scale(0.2 -0.2)">
       <defs>
        <path id="NimbusRomNo9L-Regu-36" d="M 2854 4390 
C 2125 4326 1754 4204 1286 3878 
C 595 3385 218 2655 218 1801 
C 218 1248 390 688 666 369 
C 909 89 1254 -64 1651 -64 
C 2445 -64 2995 541 2995 1420 
C 2995 2234 2528 2752 1792 2752 
C 1510 2752 1376 2707 973 2463 
C 1146 3430 1862 4121 2867 4288 
L 2854 4390 
z
M 1549 2457 
C 2099 2457 2419 1999 2419 1203 
C 2419 503 2170 115 1722 115 
C 1158 115 813 713 813 1700 
C 813 2024 864 2203 992 2298 
C 1126 2400 1325 2457 1549 2457 
z
" transform="scale(0.015625)"/>
       </defs>
       <use xlink:href="#NimbusRomNo9L-Regu-36" transform="scale(0.996264)"/>
      </g>
     </g>
    </g>
    <g id="ytick_7">
     <g id="line2d_100">
      <path d="M 49.264572 515.543934 
L 570.34952 515.543934 
" clip-path="url(#p3b5ed7fab7)" style="fill: none; stroke: #b0b0b0; stroke-width: 0.5; stroke-linecap: square"/>
     </g>
     <g id="line2d_101">
      <defs>
       <path id="mf70172d125" d="M 2 0 
L -2 -0 
" style="stroke: #000000; stroke-width: 0.5"/>
      </defs>
      <g>
       <use xlink:href="#mf70172d125" x="49.264572" y="515.543934" style="stroke: #000000; stroke-width: 0.5"/>
      </g>
     </g>
     <g id="line2d_102">
      <g>
       <use xlink:href="#mf70172d125" x="570.34952" y="515.543934" style="stroke: #000000; stroke-width: 0.5"/>
      </g>
     </g>
    </g>
    <g id="ytick_8">
     <g id="line2d_103">
      <path d="M 49.264572 482.295735 
L 570.34952 482.295735 
" clip-path="url(#p3b5ed7fab7)" style="fill: none; stroke: #b0b0b0; stroke-width: 0.5; stroke-linecap: square"/>
     </g>
     <g id="line2d_104">
      <g>
       <use xlink:href="#mf70172d125" x="49.264572" y="482.295735" style="stroke: #000000; stroke-width: 0.5"/>
      </g>
     </g>
     <g id="line2d_105">
      <g>
       <use xlink:href="#mf70172d125" x="570.34952" y="482.295735" style="stroke: #000000; stroke-width: 0.5"/>
      </g>
     </g>
    </g>
    <g id="ytick_9">
     <g id="line2d_106">
      <path d="M 49.264572 465.671636 
L 570.34952 465.671636 
" clip-path="url(#p3b5ed7fab7)" style="fill: none; stroke: #b0b0b0; stroke-width: 0.5; stroke-linecap: square"/>
     </g>
     <g id="line2d_107">
      <g>
       <use xlink:href="#mf70172d125" x="49.264572" y="465.671636" style="stroke: #000000; stroke-width: 0.5"/>
      </g>
     </g>
     <g id="line2d_108">
      <g>
       <use xlink:href="#mf70172d125" x="570.34952" y="465.671636" style="stroke: #000000; stroke-width: 0.5"/>
      </g>
     </g>
    </g>
    <g id="ytick_10">
     <g id="line2d_109">
      <path d="M 49.264572 449.047536 
L 570.34952 449.047536 
" clip-path="url(#p3b5ed7fab7)" style="fill: none; stroke: #b0b0b0; stroke-width: 0.5; stroke-linecap: square"/>
     </g>
     <g id="line2d_110">
      <g>
       <use xlink:href="#mf70172d125" x="49.264572" y="449.047536" style="stroke: #000000; stroke-width: 0.5"/>
      </g>
     </g>
     <g id="line2d_111">
      <g>
       <use xlink:href="#mf70172d125" x="570.34952" y="449.047536" style="stroke: #000000; stroke-width: 0.5"/>
      </g>
     </g>
    </g>
    <g id="ytick_11">
     <g id="line2d_112">
      <path d="M 49.264572 432.423437 
L 570.34952 432.423437 
" clip-path="url(#p3b5ed7fab7)" style="fill: none; stroke: #b0b0b0; stroke-width: 0.5; stroke-linecap: square"/>
     </g>
     <g id="line2d_113">
      <g>
       <use xlink:href="#mf70172d125" x="49.264572" y="432.423437" style="stroke: #000000; stroke-width: 0.5"/>
      </g>
     </g>
     <g id="line2d_114">
      <g>
       <use xlink:href="#mf70172d125" x="570.34952" y="432.423437" style="stroke: #000000; stroke-width: 0.5"/>
      </g>
     </g>
    </g>
    <g id="ytick_12">
     <g id="line2d_115">
      <path d="M 49.264572 399.175238 
L 570.34952 399.175238 
" clip-path="url(#p3b5ed7fab7)" style="fill: none; stroke: #b0b0b0; stroke-width: 0.5; stroke-linecap: square"/>
     </g>
     <g id="line2d_116">
      <g>
       <use xlink:href="#mf70172d125" x="49.264572" y="399.175238" style="stroke: #000000; stroke-width: 0.5"/>
      </g>
     </g>
     <g id="line2d_117">
      <g>
       <use xlink:href="#mf70172d125" x="570.34952" y="399.175238" style="stroke: #000000; stroke-width: 0.5"/>
      </g>
     </g>
    </g>
    <g id="ytick_13">
     <g id="line2d_118">
      <path d="M 49.264572 382.551139 
L 570.34952 382.551139 
" clip-path="url(#p3b5ed7fab7)" style="fill: none; stroke: #b0b0b0; stroke-width: 0.5; stroke-linecap: square"/>
     </g>
     <g id="line2d_119">
      <g>
       <use xlink:href="#mf70172d125" x="49.264572" y="382.551139" style="stroke: #000000; stroke-width: 0.5"/>
      </g>
     </g>
     <g id="line2d_120">
      <g>
       <use xlink:href="#mf70172d125" x="570.34952" y="382.551139" style="stroke: #000000; stroke-width: 0.5"/>
      </g>
     </g>
    </g>
    <g id="ytick_14">
     <g id="line2d_121">
      <path d="M 49.264572 365.927039 
L 570.34952 365.927039 
" clip-path="url(#p3b5ed7fab7)" style="fill: none; stroke: #b0b0b0; stroke-width: 0.5; stroke-linecap: square"/>
     </g>
     <g id="line2d_122">
      <g>
       <use xlink:href="#mf70172d125" x="49.264572" y="365.927039" style="stroke: #000000; stroke-width: 0.5"/>
      </g>
     </g>
     <g id="line2d_123">
      <g>
       <use xlink:href="#mf70172d125" x="570.34952" y="365.927039" style="stroke: #000000; stroke-width: 0.5"/>
      </g>
     </g>
    </g>
    <g id="ytick_15">
     <g id="line2d_124">
      <path d="M 49.264572 349.30294 
L 570.34952 349.30294 
" clip-path="url(#p3b5ed7fab7)" style="fill: none; stroke: #b0b0b0; stroke-width: 0.5; stroke-linecap: square"/>
     </g>
     <g id="line2d_125">
      <g>
       <use xlink:href="#mf70172d125" x="49.264572" y="349.30294" style="stroke: #000000; stroke-width: 0.5"/>
      </g>
     </g>
     <g id="line2d_126">
      <g>
       <use xlink:href="#mf70172d125" x="570.34952" y="349.30294" style="stroke: #000000; stroke-width: 0.5"/>
      </g>
     </g>
    </g>
    <g id="ytick_16">
     <g id="line2d_127">
      <path d="M 49.264572 316.054741 
L 570.34952 316.054741 
" clip-path="url(#p3b5ed7fab7)" style="fill: none; stroke: #b0b0b0; stroke-width: 0.5; stroke-linecap: square"/>
     </g>
     <g id="line2d_128">
      <g>
       <use xlink:href="#mf70172d125" x="49.264572" y="316.054741" style="stroke: #000000; stroke-width: 0.5"/>
      </g>
     </g>
     <g id="line2d_129">
      <g>
       <use xlink:href="#mf70172d125" x="570.34952" y="316.054741" style="stroke: #000000; stroke-width: 0.5"/>
      </g>
     </g>
    </g>
    <g id="ytick_17">
     <g id="line2d_130">
      <path d="M 49.264572 299.430642 
L 570.34952 299.430642 
" clip-path="url(#p3b5ed7fab7)" style="fill: none; stroke: #b0b0b0; stroke-width: 0.5; stroke-linecap: square"/>
     </g>
     <g id="line2d_131">
      <g>
       <use xlink:href="#mf70172d125" x="49.264572" y="299.430642" style="stroke: #000000; stroke-width: 0.5"/>
      </g>
     </g>
     <g id="line2d_132">
      <g>
       <use xlink:href="#mf70172d125" x="570.34952" y="299.430642" style="stroke: #000000; stroke-width: 0.5"/>
      </g>
     </g>
    </g>
    <g id="ytick_18">
     <g id="line2d_133">
      <path d="M 49.264572 282.806543 
L 570.34952 282.806543 
" clip-path="url(#p3b5ed7fab7)" style="fill: none; stroke: #b0b0b0; stroke-width: 0.5; stroke-linecap: square"/>
     </g>
     <g id="line2d_134">
      <g>
       <use xlink:href="#mf70172d125" x="49.264572" y="282.806543" style="stroke: #000000; stroke-width: 0.5"/>
      </g>
     </g>
     <g id="line2d_135">
      <g>
       <use xlink:href="#mf70172d125" x="570.34952" y="282.806543" style="stroke: #000000; stroke-width: 0.5"/>
      </g>
     </g>
    </g>
    <g id="ytick_19">
     <g id="line2d_136">
      <path d="M 49.264572 266.182443 
L 570.34952 266.182443 
" clip-path="url(#p3b5ed7fab7)" style="fill: none; stroke: #b0b0b0; stroke-width: 0.5; stroke-linecap: square"/>
     </g>
     <g id="line2d_137">
      <g>
       <use xlink:href="#mf70172d125" x="49.264572" y="266.182443" style="stroke: #000000; stroke-width: 0.5"/>
      </g>
     </g>
     <g id="line2d_138">
      <g>
       <use xlink:href="#mf70172d125" x="570.34952" y="266.182443" style="stroke: #000000; stroke-width: 0.5"/>
      </g>
     </g>
    </g>
    <g id="ytick_20">
     <g id="line2d_139">
      <path d="M 49.264572 232.934244 
L 570.34952 232.934244 
" clip-path="url(#p3b5ed7fab7)" style="fill: none; stroke: #b0b0b0; stroke-width: 0.5; stroke-linecap: square"/>
     </g>
     <g id="line2d_140">
      <g>
       <use xlink:href="#mf70172d125" x="49.264572" y="232.934244" style="stroke: #000000; stroke-width: 0.5"/>
      </g>
     </g>
     <g id="line2d_141">
      <g>
       <use xlink:href="#mf70172d125" x="570.34952" y="232.934244" style="stroke: #000000; stroke-width: 0.5"/>
      </g>
     </g>
    </g>
    <g id="ytick_21">
     <g id="line2d_142">
      <path d="M 49.264572 216.310145 
L 570.34952 216.310145 
" clip-path="url(#p3b5ed7fab7)" style="fill: none; stroke: #b0b0b0; stroke-width: 0.5; stroke-linecap: square"/>
     </g>
     <g id="line2d_143">
      <g>
       <use xlink:href="#mf70172d125" x="49.264572" y="216.310145" style="stroke: #000000; stroke-width: 0.5"/>
      </g>
     </g>
     <g id="line2d_144">
      <g>
       <use xlink:href="#mf70172d125" x="570.34952" y="216.310145" style="stroke: #000000; stroke-width: 0.5"/>
      </g>
     </g>
    </g>
    <g id="ytick_22">
     <g id="line2d_145">
      <path d="M 49.264572 199.686046 
L 570.34952 199.686046 
" clip-path="url(#p3b5ed7fab7)" style="fill: none; stroke: #b0b0b0; stroke-width: 0.5; stroke-linecap: square"/>
     </g>
     <g id="line2d_146">
      <g>
       <use xlink:href="#mf70172d125" x="49.264572" y="199.686046" style="stroke: #000000; stroke-width: 0.5"/>
      </g>
     </g>
     <g id="line2d_147">
      <g>
       <use xlink:href="#mf70172d125" x="570.34952" y="199.686046" style="stroke: #000000; stroke-width: 0.5"/>
      </g>
     </g>
    </g>
    <g id="ytick_23">
     <g id="line2d_148">
      <path d="M 49.264572 183.061946 
L 570.34952 183.061946 
" clip-path="url(#p3b5ed7fab7)" style="fill: none; stroke: #b0b0b0; stroke-width: 0.5; stroke-linecap: square"/>
     </g>
     <g id="line2d_149">
      <g>
       <use xlink:href="#mf70172d125" x="49.264572" y="183.061946" style="stroke: #000000; stroke-width: 0.5"/>
      </g>
     </g>
     <g id="line2d_150">
      <g>
       <use xlink:href="#mf70172d125" x="570.34952" y="183.061946" style="stroke: #000000; stroke-width: 0.5"/>
      </g>
     </g>
    </g>
    <g id="ytick_24">
     <g id="line2d_151">
      <path d="M 49.264572 149.813747 
L 570.34952 149.813747 
" clip-path="url(#p3b5ed7fab7)" style="fill: none; stroke: #b0b0b0; stroke-width: 0.5; stroke-linecap: square"/>
     </g>
     <g id="line2d_152">
      <g>
       <use xlink:href="#mf70172d125" x="49.264572" y="149.813747" style="stroke: #000000; stroke-width: 0.5"/>
      </g>
     </g>
     <g id="line2d_153">
      <g>
       <use xlink:href="#mf70172d125" x="570.34952" y="149.813747" style="stroke: #000000; stroke-width: 0.5"/>
      </g>
     </g>
    </g>
    <g id="ytick_25">
     <g id="line2d_154">
      <path d="M 49.264572 133.189648 
L 570.34952 133.189648 
" clip-path="url(#p3b5ed7fab7)" style="fill: none; stroke: #b0b0b0; stroke-width: 0.5; stroke-linecap: square"/>
     </g>
     <g id="line2d_155">
      <g>
       <use xlink:href="#mf70172d125" x="49.264572" y="133.189648" style="stroke: #000000; stroke-width: 0.5"/>
      </g>
     </g>
     <g id="line2d_156">
      <g>
       <use xlink:href="#mf70172d125" x="570.34952" y="133.189648" style="stroke: #000000; stroke-width: 0.5"/>
      </g>
     </g>
    </g>
    <g id="ytick_26">
     <g id="line2d_157">
      <path d="M 49.264572 116.565549 
L 570.34952 116.565549 
" clip-path="url(#p3b5ed7fab7)" style="fill: none; stroke: #b0b0b0; stroke-width: 0.5; stroke-linecap: square"/>
     </g>
     <g id="line2d_158">
      <g>
       <use xlink:href="#mf70172d125" x="49.264572" y="116.565549" style="stroke: #000000; stroke-width: 0.5"/>
      </g>
     </g>
     <g id="line2d_159">
      <g>
       <use xlink:href="#mf70172d125" x="570.34952" y="116.565549" style="stroke: #000000; stroke-width: 0.5"/>
      </g>
     </g>
    </g>
    <g id="ytick_27">
     <g id="line2d_160">
      <path d="M 49.264572 99.941449 
L 570.34952 99.941449 
" clip-path="url(#p3b5ed7fab7)" style="fill: none; stroke: #b0b0b0; stroke-width: 0.5; stroke-linecap: square"/>
     </g>
     <g id="line2d_161">
      <g>
       <use xlink:href="#mf70172d125" x="49.264572" y="99.941449" style="stroke: #000000; stroke-width: 0.5"/>
      </g>
     </g>
     <g id="line2d_162">
      <g>
       <use xlink:href="#mf70172d125" x="570.34952" y="99.941449" style="stroke: #000000; stroke-width: 0.5"/>
      </g>
     </g>
    </g>
    <g id="ytick_28">
     <g id="line2d_163">
      <path d="M 49.264572 66.69325 
L 570.34952 66.69325 
" clip-path="url(#p3b5ed7fab7)" style="fill: none; stroke: #b0b0b0; stroke-width: 0.5; stroke-linecap: square"/>
     </g>
     <g id="line2d_164">
      <g>
       <use xlink:href="#mf70172d125" x="49.264572" y="66.69325" style="stroke: #000000; stroke-width: 0.5"/>
      </g>
     </g>
     <g id="line2d_165">
      <g>
       <use xlink:href="#mf70172d125" x="570.34952" y="66.69325" style="stroke: #000000; stroke-width: 0.5"/>
      </g>
     </g>
    </g>
    <g id="ytick_29">
     <g id="line2d_166">
      <path d="M 49.264572 50.069151 
L 570.34952 50.069151 
" clip-path="url(#p3b5ed7fab7)" style="fill: none; stroke: #b0b0b0; stroke-width: 0.5; stroke-linecap: square"/>
     </g>
     <g id="line2d_167">
      <g>
       <use xlink:href="#mf70172d125" x="49.264572" y="50.069151" style="stroke: #000000; stroke-width: 0.5"/>
      </g>
     </g>
     <g id="line2d_168">
      <g>
       <use xlink:href="#mf70172d125" x="570.34952" y="50.069151" style="stroke: #000000; stroke-width: 0.5"/>
      </g>
     </g>
    </g>
    <g id="ytick_30">
     <g id="line2d_169">
      <path d="M 49.264572 33.445052 
L 570.34952 33.445052 
" clip-path="url(#p3b5ed7fab7)" style="fill: none; stroke: #b0b0b0; stroke-width: 0.5; stroke-linecap: square"/>
     </g>
     <g id="line2d_170">
      <g>
       <use xlink:href="#mf70172d125" x="49.264572" y="33.445052" style="stroke: #000000; stroke-width: 0.5"/>
      </g>
     </g>
     <g id="line2d_171">
      <g>
       <use xlink:href="#mf70172d125" x="570.34952" y="33.445052" style="stroke: #000000; stroke-width: 0.5"/>
      </g>
     </g>
    </g>
    <g id="ytick_31">
     <g id="line2d_172">
      <path d="M 49.264572 16.820952 
L 570.34952 16.820952 
" clip-path="url(#p3b5ed7fab7)" style="fill: none; stroke: #b0b0b0; stroke-width: 0.5; stroke-linecap: square"/>
     </g>
     <g id="line2d_173">
      <g>
       <use xlink:href="#mf70172d125" x="49.264572" y="16.820952" style="stroke: #000000; stroke-width: 0.5"/>
      </g>
     </g>
     <g id="line2d_174">
      <g>
       <use xlink:href="#mf70172d125" x="570.34952" y="16.820952" style="stroke: #000000; stroke-width: 0.5"/>
      </g>
     </g>
    </g>
    <g id="text_13">
     <!-- $y$ -->
     <g transform="translate(22.512811 269.655084) rotate(-90) scale(0.28 -0.28)">
      <defs>
       <path id="NimbusRomNo9L-ReguItal-79" d="M 96 2553 
C 179 2572 224 2579 294 2579 
C 659 2579 755 2419 1050 1318 
C 1158 902 1312 153 1312 44 
C 1312 -58 1274 -161 1178 -276 
C 979 -538 851 -705 781 -782 
C 646 -922 570 -974 486 -974 
C 448 -974 403 -954 333 -903 
C 237 -826 166 -794 96 -794 
C -45 -794 -154 -903 -154 -1044 
C -154 -1204 -13 -1326 173 -1326 
C 582 -1326 1421 -365 2112 902 
C 2547 1689 2726 2150 2726 2463 
C 2726 2655 2566 2816 2374 2816 
C 2227 2816 2125 2719 2125 2579 
C 2125 2483 2176 2412 2304 2329 
C 2426 2259 2470 2201 2470 2111 
C 2470 1855 2234 1356 1690 454 
L 1562 1196 
C 1466 1759 1107 2816 1011 2816 
L 986 2816 
C 979 2809 954 2809 928 2809 
C 870 2803 640 2764 301 2700 
C 269 2694 186 2675 96 2662 
L 96 2553 
z
" transform="scale(0.015625)"/>
      </defs>
      <use xlink:href="#NimbusRomNo9L-ReguItal-79" transform="scale(0.996264)"/>
     </g>
    </g>
   </g>
   <g id="line2d_175">
    <path d="M 142.440538 415.799338 
L 134.844197 409.134078 
L 128.865823 403.625028 
L 121.800154 396.752185 
L 116.076822 390.829719 
L 111.272737 385.549319 
L 107.16585 380.755398 
L 102.537069 374.958321 
L 98.674461 369.705635 
L 95.42082 364.892731 
L 92.660178 360.442473 
L 89.769112 355.300321 
L 87.377638 350.543012 
L 85.384872 346.101633 
L 83.4117 341.114028 
L 81.799149 336.432233 
L 80.271977 331.283651 
L 78.884546 325.7329 
L 77.665216 319.826854 
L 76.62187 313.597484 
L 75.74841 307.0657 
L 74.979607 299.689019 
L 74.30446 291.011772 
L 73.762526 281.159558 
L 73.337342 269.263762 
L 73.05912 255.070703 
L 72.950626 237.944605 
L 73.047584 217.398446 
L 73.382979 193.89216 
L 73.95872 168.998989 
L 74.739365 144.762877 
L 75.650561 123.213169 
L 76.648072 104.748218 
L 77.694024 89.398919 
L 78.761061 76.892664 
L 79.84448 66.712696 
L 80.946883 58.411321 
L 82.037081 51.835699 
L 83.120015 46.604438 
L 84.214634 42.389373 
L 85.292159 39.102417 
L 86.31132 36.642641 
L 87.394806 34.600477 
L 88.442883 33.092128 
L 89.528152 31.932204 
L 90.509809 31.177968 
L 91.616833 30.608734 
L 92.712321 30.291766 
L 93.954995 30.178399 
L 95.165351 30.276353 
L 96.542938 30.592887 
L 98.130722 31.176952 
L 99.9883 32.09531 
L 102.200876 33.441771 
L 104.894774 35.35296 
L 108.265768 38.036746 
L 112.634451 41.827111 
L 118.564146 47.299416 
L 127.141096 55.540537 
L 147.251211 75.28438 
L 171.892969 99.423519 
L 197.388435 124.129165 
L 223.07339 148.779805 
L 260.442415 184.351691 
L 390.724132 307.764181 
L 432.094213 347.515614 
L 470.26261 385.06119 
L 500.838169 416.49543 
L 522.171942 440.216974 
L 535.404554 457.039625 
L 542.704839 468.716578 
L 546.000774 476.844668 
L 546.663841 482.574588 
L 545.59799 486.672809 
L 543.388197 489.640707 
L 540.415006 491.808423 
L 536.929538 493.396947 
L 533.100367 494.55716 
L 529.04261 495.394199 
L 524.836161 495.982805 
L 520.537269 496.377117 
L 516.186042 496.617057 
L 507.434303 496.746376 
L 498.730218 496.535549 
L 490.153874 496.084844 
L 481.748123 495.458272 
L 469.504086 494.277999 
L 457.719464 492.887433 
L 446.39381 491.342783 
L 431.982034 489.103848 
L 418.313543 486.707747 
L 405.335704 484.187888 
L 392.996596 481.565822 
L 381.247313 478.855938 
L 370.042719 476.068096 
L 359.341547 473.209167 
L 349.106202 470.28399 
L 336.915263 466.539448 
L 325.338746 462.701124 
L 314.32297 458.771772 
L 303.819925 454.752937 
L 293.786544 450.645307 
L 284.184077 446.448962 
L 274.977578 442.16355 
L 266.135473 437.788443 
L 257.629209 433.322857 
L 249.432967 428.765972 
L 241.523443 424.117042 
L 233.879671 419.375521 
L 226.482898 414.541184 
L 219.316502 409.614265 
L 212.365938 404.595606 
L 205.618721 399.486812 
L 197.775947 393.240927 
L 190.197014 386.875448 
L 182.872169 380.399528 
L 175.795966 373.825311 
L 168.967152 367.16815 
L 162.388401 360.446668 
L 156.065845 353.682602 
L 150.008388 346.900393 
L 144.226793 340.126521 
L 138.732587 333.388601 
L 132.70063 325.610001 
L 127.089563 317.959871 
L 121.908863 310.475765 
L 117.161224 303.188981 
L 112.841812 296.123333 
L 108.938388 289.294712 
L 105.432173 282.711378 
L 102.299211 276.374809 
L 99.511968 270.280909 
L 96.711974 263.602751 
L 94.280121 257.213516 
L 92.172755 251.093306 
L 90.138965 244.503445 
L 88.236104 237.513391 
L 86.648053 230.835743 
L 85.201194 223.809736 
L 83.914791 216.480593 
L 82.72082 208.314896 
L 81.728364 199.963322 
L 80.878715 190.924972 
L 80.161307 180.788533 
L 79.634 170.169281 
L 79.270727 158.233562 
L 79.111128 145.599415 
L 79.167299 131.985264 
L 79.447441 118.341915 
L 79.941398 105.101284 
L 80.615292 92.97329 
L 81.410794 82.534661 
L 82.303927 73.640694 
L 83.275547 66.168389 
L 84.257228 60.263927 
L 85.25574 55.52051 
L 86.301297 51.60375 
L 87.30051 48.652278 
L 88.371231 46.175495 
L 89.41349 44.316346 
L 90.498147 42.851629 
L 91.483132 41.863841 
L 92.597574 41.070923 
L 93.703613 40.567085 
L 94.771176 40.303036 
L 95.973847 40.223073 
L 97.342889 40.363438 
L 98.920429 40.772188 
L 100.764676 41.514642 
L 102.95847 42.682187 
L 105.623941 44.407205 
L 108.949023 46.889739 
L 112.438255 49.761431 
L 116.880716 53.671529 
L 122.756752 59.105184 
L 132.96976 68.895357 
L 158.24191 93.590122 
L 182.852908 117.552502 
L 213.721771 147.312082 
L 245.237035 177.429065 
L 290.867577 220.763224 
L 354.869179 281.462524 
L 392.69835 317.574066 
L 431.109982 354.726067 
L 465.98229 389.325629 
L 493.798669 418.224573 
L 513.39093 440.255735 
L 525.777729 456.149924 
L 532.787328 467.380435 
L 536.079653 475.318541 
L 536.87294 480.984012 
L 535.993682 485.076042 
L 533.98971 488.062984 
L 531.224361 490.259117 
L 527.94118 491.877975 
L 524.305768 493.067094 
L 520.432441 493.930268 
L 516.401272 494.541855 
L 512.26911 494.956058 
L 508.076795 495.21305 
L 499.622326 495.369234 
L 491.192353 495.177631 
L 482.871062 494.740499 
L 474.704424 494.123328 
L 462.794194 492.951605 
L 451.31856 491.565033 
L 440.281183 490.021382 
L 426.226643 487.780826 
L 412.889071 485.381097 
L 400.219669 482.856569 
L 388.16946 480.229424 
L 376.69187 477.514494 
L 365.743669 474.721957 
L 355.285178 471.858927 
L 345.280152 468.930433 
L 333.361482 465.183085 
L 322.041673 461.343684 
L 311.268713 457.415201 
L 300.99604 453.399379 
L 291.18185 449.297083 
L 281.78851 445.108555 
L 272.782063 440.833601 
L 264.131817 436.471735 
L 255.810002 432.022303 
L 247.791495 427.484601 
L 240.053605 422.857981 
L 232.575896 418.141967 
L 225.340066 413.33637 
L 218.329856 408.441421 
L 211.530999 403.457902 
L 204.931191 398.387297 
L 197.259736 392.190971 
L 189.84597 385.878626 
L 182.679832 379.458682 
L 175.755329 372.942315 
L 169.070435 366.343676 
L 162.626858 359.679968 
L 156.429631 352.97133 
L 150.48651 346.2405 
L 144.807161 339.512242 
L 138.528775 331.700565 
L 132.640236 323.969387 
L 127.155315 316.358555 
L 122.083087 308.903999 
L 117.426438 301.635952 
L 113.181324 294.577775 
L 109.33681 287.74548 
L 105.875797 281.147926 
L 102.776215 274.78754 
L 100.012477 268.661382 
L 97.229647 261.93762 
L 94.807025 255.495213 
L 92.703119 249.31595 
L 90.668501 242.654452 
L 88.761106 235.580371 
L 87.166558 228.815839 
L 85.711825 221.69264 
L 84.417193 214.257078 
L 83.291528 206.547736 
L 82.275106 198.041127 
L 81.40633 188.835646 
L 80.705786 179.018402 
L 80.161567 168.185635 
L 79.801509 156.476725 
L 79.64178 144.023334 
L 79.694858 130.955187 
L 79.966031 117.795803 
L 80.448807 104.995345 
L 81.109427 93.286197 
L 81.915327 82.937794 
L 82.787251 74.468421 
L 83.724718 67.406009 
L 84.702454 61.631658 
L 85.689281 57.028387 
L 86.713794 53.249698 
L 87.755573 50.228411 
L 88.78597 47.890082 
L 89.871873 45.9897 
L 90.886605 44.640777 
L 91.907267 43.626624 
L 92.912752 42.907643 
L 94.046861 42.374601 
L 95.144041 42.092793 
L 96.383059 42.003558 
L 97.797354 42.145516 
L 99.432217 42.570144 
L 101.350615 43.34783 
L 103.229829 44.335948 
L 105.442294 45.717857 
L 108.094633 47.607183 
L 111.34521 50.170091 
L 115.439744 53.660315 
L 120.780665 58.486625 
L 128.073691 65.353776 
L 141.396003 78.242258 
L 185.864662 121.541609 
L 218.434551 152.887842 
L 251.818182 184.746791 
L 366.448624 293.556638 
L 404.510571 330.022555 
L 441.885259 366.424056 
L 474.494662 399.181203 
L 499.515836 425.726563 
L 516.580421 445.583665 
L 527.069439 459.810146 
L 532.783381 469.870906 
L 535.225681 477.01316 
L 535.468705 482.137242 
L 534.234804 485.855943 
L 532.003552 488.580492 
L 529.09463 490.588353 
L 525.723647 492.069321 
L 522.038129 493.155451 
L 518.140526 493.940275 
L 514.102992 494.491231 
L 509.977006 494.857769 
L 505.799709 495.076746 
L 497.392229 495.17707 
L 489.022097 494.947309 
L 480.766757 494.483081 
L 472.668539 493.846045 
L 460.861407 492.653265 
L 449.48662 491.252338 
L 438.546416 489.698597 
L 424.614933 487.44891 
L 411.392929 485.043359 
L 398.832012 482.515302 
L 386.883763 479.886343 
L 375.502202 477.170966 
L 364.644663 474.379135 
L 354.271983 471.517832 
L 344.348386 468.592004 
L 332.525976 464.849239 
L 321.296959 461.015762 
L 310.609955 457.094531 
L 300.418956 453.087292 
L 290.682643 448.994931 
L 281.363809 444.817716 
L 272.428873 440.555483 
L 263.847469 436.207776 
L 255.592113 431.773968 
L 247.63793 427.253374 
L 239.96243 422.645355 
L 232.545347 417.949424 
L 225.368501 413.165367 
L 218.415716 408.293356 
L 211.672762 403.334087 
L 203.840984 397.269749 
L 196.276062 391.08566 
L 188.964295 384.787767 
L 181.895951 378.384402 
L 175.065249 371.886584 
L 168.470253 365.308218 
L 162.112637 358.666168 
L 155.997291 351.980133 
L 150.131733 345.272325 
L 144.525321 338.566911 
L 138.325728 330.780807 
L 132.508706 323.073068 
L 127.087618 315.482597 
L 122.071313 308.044539 
L 117.46269 300.788563 
L 113.257965 293.737713 
L 109.446687 286.907934 
L 106.012417 280.308233 
L 102.933861 273.941353 
L 99.819203 266.94659 
L 97.096609 260.242337 
L 94.724884 253.813658 
L 92.425996 246.888634 
L 90.466393 240.26284 
L 88.627893 233.218944 
L 87.089684 226.47596 
L 85.685293 219.368115 
L 84.434713 211.941198 
L 83.273258 203.654164 
L 82.308751 195.167818 
L 81.486047 185.974762 
L 80.79765 175.658001 
L 80.302136 164.846862 
L 79.987404 153.153767 
L 79.871835 140.713318 
L 79.971109 127.660184 
L 80.293305 114.524528 
L 80.816697 102.128993 
L 81.51615 90.804642 
L 82.329263 81.1496 
L 83.229048 73.018496 
L 84.190899 66.28318 
L 85.187246 60.822847 
L 86.183376 56.516935 
L 87.207816 53.017335 
L 88.23613 50.252547 
L 89.235041 48.1434 
L 90.27174 46.443175 
L 91.335428 45.122859 
L 92.410181 44.147805 
L 93.473879 43.476719 
L 94.497549 43.061261 
L 95.646986 42.819864 
L 96.950296 42.785301 
L 98.445019 43.00066 
L 100.182492 43.523917 
L 101.867021 44.252076 
L 103.828001 45.312899 
L 106.147099 46.794394 
L 108.942362 48.821851 
L 112.390993 51.580428 
L 116.771558 55.356548 
L 122.547813 60.619197 
L 130.550245 68.193963 
L 145.510003 82.694459 
L 188.748821 124.73708 
L 223.099858 157.750831 
L 258.46646 191.461455 
L 378.227084 305.194694 
L 416.367776 341.889262 
L 452.526347 377.389081 
L 482.831308 408.268254 
L 505.215306 432.597573 
L 519.997839 450.498314 
L 528.80023 463.249823 
L 533.358019 472.274717 
L 535.029992 478.704704 
L 534.763067 483.337297 
L 533.191122 486.711905 
L 530.735424 489.191002 
L 527.677914 491.020266 
L 524.209706 492.36872 
L 520.462256 493.35468 
L 516.52731 494.062455 
L 512.469785 494.553179 
L 508.336181 494.871926 
L 504.160173 495.052458 
L 495.772868 495.09566 
L 487.436925 494.826339 
L 479.223115 494.333674 
L 471.170065 493.675549 
L 459.433132 492.460096 
L 448.12836 491.043406 
L 437.256281 489.478305 
L 423.411493 487.217906 
L 410.271017 484.804978 
L 397.786526 482.271787 
L 385.909906 479.639297 
L 374.595556 476.9216 
L 363.801198 474.128414 
L 353.488042 471.266558 
L 343.620655 468.340873 
L 331.864316 464.599161 
L 320.697216 460.767629 
L 310.068448 456.849185 
L 299.932419 452.845548 
L 290.248172 448.757594 
L 280.978822 444.585591 
L 272.091067 440.32938 
L 263.554788 435.988514 
L 255.342718 431.562378 
L 247.430167 427.050293 
L 239.79481 422.451624 
L 232.416513 417.765882 
L 225.277206 412.992838 
L 218.360798 408.132641 
L 211.653111 403.185944 
L 203.862229 397.137607 
L 196.336635 390.970376 
L 189.062552 384.689991 
L 182.030109 378.304524 
L 175.233321 371.824665 
L 168.669991 365.263934 
L 162.341491 358.638752 
L 156.252387 351.968347 
L 150.409873 345.274439 
L 144.823021 338.580721 
L 138.641548 330.804914 
L 132.837413 323.103355 
L 127.424001 315.514609 
L 122.41042 308.073708 
L 117.800033 300.810435 
L 113.589689 293.748153 
L 109.769674 286.903273 
L 106.324316 280.285365 
L 103.233063 273.897766 
L 100.102777 266.876991 
L 97.364156 260.14499 
L 94.976648 253.687491 
L 92.660854 246.729423 
L 90.685633 240.070471 
L 88.831544 232.990075 
L 87.27968 226.211286 
L 85.86244 219.065097 
L 84.60024 211.59774 
L 83.428014 203.26542 
L 82.454799 194.732784 
L 81.625138 185.489938 
L 80.960375 175.624901 
L 80.451528 164.733073 
L 80.127983 152.956772 
L 80.00843 140.432502 
L 80.108917 127.29714 
L 80.424943 114.475011 
L 80.954859 101.99433 
L 81.64144 90.946727 
L 82.465696 81.222315 
L 83.381154 73.04102 
L 84.316387 66.557363 
L 85.328009 61.059895 
L 86.34199 56.730804 
L 87.387433 53.219123 
L 88.439558 50.452258 
L 89.464284 48.349411 
L 90.530665 46.663381 
L 91.627976 45.364926 
L 92.740079 44.418819 
L 93.844201 43.782679 
L 94.910128 43.406412 
L 96.111053 43.215194 
L 97.478073 43.24508 
L 99.053049 43.543844 
L 100.565423 44.044319 
L 102.30773 44.826783 
L 104.342793 45.959713 
L 106.75918 47.538228 
L 109.685935 49.698808 
L 113.318638 52.645084 
L 117.968417 56.695768 
L 124.16102 62.380509 
L 132.85626 70.649703 
L 149.468029 86.77613 
L 190.003302 126.151516 
L 225.133757 159.891881 
L 261.361955 194.405409 
L 383.172799 310.117317 
L 421.223229 346.799255 
L 456.74766 381.80927 
L 486.026567 411.84301 
L 507.325839 435.25481 
L 521.212374 452.382624 
L 529.368397 464.564587 
L 533.487974 473.192885 
L 534.869419 479.3505 
L 534.410789 483.794758 
L 532.712281 487.037072 
L 530.173122 489.421455 
L 527.060999 491.181556 
L 523.557763 492.478526 
L 519.78877 493.425459 
L 515.841696 494.103143 
L 511.778691 494.570299 
L 507.644354 494.87032 
L 499.282372 495.091478 
L 490.92427 494.946057 
L 482.662018 494.543207 
L 474.546105 493.952496 
L 462.702059 492.811053 
L 451.285172 491.447702 
L 440.301927 489.923007 
L 429.743074 488.275556 
L 416.295711 485.93115 
L 403.526426 483.45333 
L 391.386677 480.867649 
L 379.829603 478.191035 
L 368.811394 475.435036 
L 358.291689 472.607703 
L 348.233563 469.714728 
L 336.258947 466.01226 
L 324.893719 462.218917 
L 314.084865 458.338192 
L 303.784945 454.372225 
L 293.951395 450.322198 
L 284.545913 446.188602 
L 275.533949 441.971441 
L 266.88427 437.670376 
L 258.568604 433.284854 
L 250.561344 428.814215 
L 242.839314 424.257795 
L 235.381577 419.615032 
L 228.169293 414.885567 
L 221.185615 410.069362 
L 214.415613 405.166821 
L 206.555423 399.171229 
L 198.965214 393.055819 
L 191.629818 386.825479 
L 184.537924 380.487273 
L 177.682082 374.05075 
L 171.058634 367.528186 
L 164.667554 360.934719 
L 158.51214 354.288314 
L 152.598531 347.609555 
L 146.935043 340.921202 
L 140.656662 333.138465 
L 134.747664 325.415457 
L 129.222315 317.791134 
L 124.091298 310.30166 
L 119.360071 302.978563 
L 115.027848 295.847377 
L 111.087304 288.926884 
L 107.524955 282.229005 
L 104.322073 275.759239 
L 101.455931 269.517508 
L 98.56007 262.65727 
L 96.031012 256.076606 
L 93.82879 249.759619 
L 91.6942 242.945845 
L 89.873997 236.416638 
L 88.165207 229.464235 
L 86.604781 222.14584 
L 85.215462 214.510456 
L 85.011172 213.270122 
L 85.011172 213.270122 
" clip-path="url(#p3b5ed7fab7)" style="fill: none; stroke-dasharray: 7.4,3.2; stroke-dashoffset: 0; stroke: #3f90da; stroke-width: 2"/>
   </g>
   <g id="patch_3">
    <path d="M 49.264572 520.074775 
L 49.264572 6.85 
" style="fill: none; stroke: #000000; stroke-width: 0.5; stroke-linejoin: miter; stroke-linecap: square"/>
   </g>
   <g id="patch_4">
    <path d="M 570.34952 520.074775 
L 570.34952 6.85 
" style="fill: none; stroke: #000000; stroke-width: 0.5; stroke-linejoin: miter; stroke-linecap: square"/>
   </g>
   <g id="patch_5">
    <path d="M 49.264572 520.074775 
L 570.34952 520.074775 
" style="fill: none; stroke: #000000; stroke-width: 0.5; stroke-linejoin: miter; stroke-linecap: square"/>
   </g>
   <g id="patch_6">
    <path d="M 49.264572 6.85 
L 570.34952 6.85 
" style="fill: none; stroke: #000000; stroke-width: 0.5; stroke-linejoin: miter; stroke-linecap: square"/>
   </g>
  </g>
 </g>
 <defs>
  <clipPath id="p3b5ed7fab7">
   <rect x="49.264572" y="6.85" width="521.084948" height="513.224775"/>
  </clipPath>
 </defs>
</svg>
